G04 MADE WITH FRITZING*
G04 WWW.FRITZING.ORG*
G04 DOUBLE SIDED*
G04 HOLES PLATED*
G04 CONTOUR ON CENTER OF CONTOUR VECTOR*
%ASAXBY*%
%FSLAX23Y23*%
%MOIN*%
%OFA0B0*%
%SFA1.0B1.0*%
%ADD10R,0.632695X0.947653X0.627139X0.942097*%
%ADD11C,0.002778*%
%ADD12R,0.477764X0.602764X0.472208X0.597208*%
%ADD13R,2.480310X1.535430X2.464310X1.519430*%
%ADD14C,0.008000*%
%ADD15R,0.001000X0.001000*%
%LNSILK0*%
G90*
G70*
G54D11*
X1427Y1427D02*
X2057Y1427D01*
X2057Y482D01*
X1427Y482D01*
X1427Y1427D01*
D02*
X1504Y1132D02*
X1979Y1132D01*
X1979Y532D01*
X1504Y532D01*
X1504Y1132D01*
D02*
G54D14*
X4Y1531D02*
X2476Y1531D01*
X2476Y4D01*
X4Y4D01*
X4Y1531D01*
D02*
X1456Y1215D02*
X1472Y1215D01*
X1472Y1381D01*
X1544Y1381D01*
X1544Y1275D01*
X1659Y1275D01*
X1659Y1381D01*
X1733Y1381D01*
X1733Y1275D01*
X1848Y1275D01*
X1848Y1381D01*
X1919Y1381D01*
X1919Y1215D01*
X1936Y1215D01*
X1936Y1381D01*
X2006Y1381D01*
X2006Y1215D01*
X2028Y1215D01*
X2028Y1398D01*
X1831Y1398D01*
X1831Y1291D01*
X1749Y1291D01*
X1749Y1398D01*
X1643Y1398D01*
X1643Y1291D01*
X1561Y1291D01*
X1561Y1398D01*
X1456Y1398D01*
X1456Y1215D01*
D02*
G54D15*
X1473Y1503D02*
X1478Y1503D01*
X1573Y1503D02*
X1578Y1503D01*
X1471Y1502D02*
X1479Y1502D01*
X1572Y1502D02*
X1580Y1502D01*
X1471Y1501D02*
X1480Y1501D01*
X1571Y1501D02*
X1580Y1501D01*
X1421Y1500D02*
X1438Y1500D01*
X1471Y1500D02*
X1480Y1500D01*
X1571Y1500D02*
X1580Y1500D01*
X1607Y1500D02*
X1615Y1500D01*
X1633Y1500D02*
X1641Y1500D01*
X1722Y1500D02*
X1739Y1500D01*
X1773Y1500D02*
X1790Y1500D01*
X1959Y1500D02*
X1967Y1500D01*
X1984Y1500D02*
X1992Y1500D01*
X2061Y1500D02*
X2063Y1500D01*
X2089Y1500D02*
X2091Y1500D01*
X1420Y1499D02*
X1439Y1499D01*
X1471Y1499D02*
X1480Y1499D01*
X1571Y1499D02*
X1581Y1499D01*
X1607Y1499D02*
X1616Y1499D01*
X1632Y1499D02*
X1641Y1499D01*
X1722Y1499D02*
X1741Y1499D01*
X1771Y1499D02*
X1791Y1499D01*
X1959Y1499D02*
X1968Y1499D01*
X1984Y1499D02*
X1992Y1499D01*
X2060Y1499D02*
X2064Y1499D01*
X2088Y1499D02*
X2092Y1499D01*
X1420Y1498D02*
X1440Y1498D01*
X1471Y1498D02*
X1480Y1498D01*
X1571Y1498D02*
X1581Y1498D01*
X1607Y1498D02*
X1617Y1498D01*
X1632Y1498D02*
X1641Y1498D01*
X1722Y1498D02*
X1741Y1498D01*
X1770Y1498D02*
X1791Y1498D01*
X1959Y1498D02*
X1968Y1498D01*
X1983Y1498D02*
X1992Y1498D01*
X2059Y1498D02*
X2065Y1498D01*
X2087Y1498D02*
X2093Y1498D01*
X1420Y1497D02*
X1440Y1497D01*
X1471Y1497D02*
X1480Y1497D01*
X1571Y1497D02*
X1581Y1497D01*
X1607Y1497D02*
X1618Y1497D01*
X1631Y1497D02*
X1641Y1497D01*
X1722Y1497D02*
X1741Y1497D01*
X1769Y1497D02*
X1792Y1497D01*
X1959Y1497D02*
X1969Y1497D01*
X1982Y1497D02*
X1992Y1497D01*
X2059Y1497D02*
X2065Y1497D01*
X2087Y1497D02*
X2093Y1497D01*
X1420Y1496D02*
X1440Y1496D01*
X1471Y1496D02*
X1480Y1496D01*
X1571Y1496D02*
X1580Y1496D01*
X1607Y1496D02*
X1618Y1496D01*
X1630Y1496D02*
X1641Y1496D01*
X1722Y1496D02*
X1741Y1496D01*
X1768Y1496D02*
X1791Y1496D01*
X1959Y1496D02*
X1970Y1496D01*
X1982Y1496D02*
X1992Y1496D01*
X2059Y1496D02*
X2065Y1496D01*
X2087Y1496D02*
X2093Y1496D01*
X1420Y1495D02*
X1440Y1495D01*
X1471Y1495D02*
X1479Y1495D01*
X1572Y1495D02*
X1580Y1495D01*
X1607Y1495D02*
X1619Y1495D01*
X1629Y1495D02*
X1641Y1495D01*
X1722Y1495D02*
X1741Y1495D01*
X1767Y1495D02*
X1791Y1495D01*
X1959Y1495D02*
X1970Y1495D01*
X1981Y1495D02*
X1992Y1495D01*
X2059Y1495D02*
X2065Y1495D01*
X2087Y1495D02*
X2093Y1495D01*
X1420Y1494D02*
X1439Y1494D01*
X1472Y1494D02*
X1478Y1494D01*
X1573Y1494D02*
X1579Y1494D01*
X1607Y1494D02*
X1620Y1494D01*
X1629Y1494D02*
X1641Y1494D01*
X1722Y1494D02*
X1740Y1494D01*
X1767Y1494D02*
X1790Y1494D01*
X1959Y1494D02*
X1971Y1494D01*
X1980Y1494D02*
X1992Y1494D01*
X2059Y1494D02*
X2065Y1494D01*
X2087Y1494D02*
X2093Y1494D01*
X1420Y1493D02*
X1427Y1493D01*
X1607Y1493D02*
X1620Y1493D01*
X1628Y1493D02*
X1641Y1493D01*
X1722Y1493D02*
X1728Y1493D01*
X1766Y1493D02*
X1774Y1493D01*
X1779Y1493D02*
X1785Y1493D01*
X1959Y1493D02*
X1972Y1493D01*
X1979Y1493D02*
X1992Y1493D01*
X2059Y1493D02*
X2065Y1493D01*
X2087Y1493D02*
X2093Y1493D01*
X1420Y1492D02*
X1426Y1492D01*
X1607Y1492D02*
X1621Y1492D01*
X1627Y1492D02*
X1641Y1492D01*
X1722Y1492D02*
X1728Y1492D01*
X1766Y1492D02*
X1773Y1492D01*
X1779Y1492D02*
X1785Y1492D01*
X1959Y1492D02*
X1972Y1492D01*
X1979Y1492D02*
X1992Y1492D01*
X2059Y1492D02*
X2065Y1492D01*
X2087Y1492D02*
X2093Y1492D01*
X1420Y1491D02*
X1426Y1491D01*
X1607Y1491D02*
X1622Y1491D01*
X1627Y1491D02*
X1641Y1491D01*
X1722Y1491D02*
X1728Y1491D01*
X1765Y1491D02*
X1772Y1491D01*
X1779Y1491D02*
X1785Y1491D01*
X1959Y1491D02*
X1973Y1491D01*
X1978Y1491D02*
X1992Y1491D01*
X2059Y1491D02*
X2065Y1491D01*
X2087Y1491D02*
X2093Y1491D01*
X1420Y1490D02*
X1426Y1490D01*
X1607Y1490D02*
X1622Y1490D01*
X1626Y1490D02*
X1641Y1490D01*
X1722Y1490D02*
X1728Y1490D01*
X1765Y1490D02*
X1771Y1490D01*
X1779Y1490D02*
X1785Y1490D01*
X1959Y1490D02*
X1974Y1490D01*
X1977Y1490D02*
X1992Y1490D01*
X2059Y1490D02*
X2065Y1490D01*
X2087Y1490D02*
X2093Y1490D01*
X1420Y1489D02*
X1426Y1489D01*
X1607Y1489D02*
X1613Y1489D01*
X1616Y1489D02*
X1623Y1489D01*
X1625Y1489D02*
X1633Y1489D01*
X1635Y1489D02*
X1641Y1489D01*
X1722Y1489D02*
X1728Y1489D01*
X1764Y1489D02*
X1771Y1489D01*
X1779Y1489D02*
X1785Y1489D01*
X1959Y1489D02*
X1965Y1489D01*
X1967Y1489D02*
X1975Y1489D01*
X1977Y1489D02*
X1984Y1489D01*
X1986Y1489D02*
X1992Y1489D01*
X2059Y1489D02*
X2065Y1489D01*
X2087Y1489D02*
X2093Y1489D01*
X1420Y1488D02*
X1426Y1488D01*
X1607Y1488D02*
X1613Y1488D01*
X1616Y1488D02*
X1632Y1488D01*
X1635Y1488D02*
X1641Y1488D01*
X1722Y1488D02*
X1728Y1488D01*
X1764Y1488D02*
X1770Y1488D01*
X1779Y1488D02*
X1785Y1488D01*
X1959Y1488D02*
X1965Y1488D01*
X1968Y1488D02*
X1984Y1488D01*
X1986Y1488D02*
X1992Y1488D01*
X2059Y1488D02*
X2065Y1488D01*
X2087Y1488D02*
X2093Y1488D01*
X1420Y1487D02*
X1426Y1487D01*
X1607Y1487D02*
X1613Y1487D01*
X1617Y1487D02*
X1631Y1487D01*
X1635Y1487D02*
X1641Y1487D01*
X1722Y1487D02*
X1728Y1487D01*
X1763Y1487D02*
X1770Y1487D01*
X1779Y1487D02*
X1785Y1487D01*
X1959Y1487D02*
X1965Y1487D01*
X1968Y1487D02*
X1983Y1487D01*
X1986Y1487D02*
X1992Y1487D01*
X2059Y1487D02*
X2065Y1487D01*
X2087Y1487D02*
X2093Y1487D01*
X1420Y1486D02*
X1426Y1486D01*
X1607Y1486D02*
X1613Y1486D01*
X1618Y1486D02*
X1631Y1486D01*
X1635Y1486D02*
X1641Y1486D01*
X1722Y1486D02*
X1728Y1486D01*
X1763Y1486D02*
X1769Y1486D01*
X1779Y1486D02*
X1785Y1486D01*
X1959Y1486D02*
X1965Y1486D01*
X1969Y1486D02*
X1982Y1486D01*
X1986Y1486D02*
X1992Y1486D01*
X2059Y1486D02*
X2065Y1486D01*
X2087Y1486D02*
X2093Y1486D01*
X1420Y1485D02*
X1426Y1485D01*
X1472Y1485D02*
X1485Y1485D01*
X1515Y1485D02*
X1525Y1485D01*
X1536Y1485D02*
X1539Y1485D01*
X1573Y1485D02*
X1586Y1485D01*
X1607Y1485D02*
X1613Y1485D01*
X1618Y1485D02*
X1630Y1485D01*
X1635Y1485D02*
X1641Y1485D01*
X1722Y1485D02*
X1728Y1485D01*
X1762Y1485D02*
X1769Y1485D01*
X1779Y1485D02*
X1785Y1485D01*
X1865Y1485D02*
X1886Y1485D01*
X1918Y1485D02*
X1933Y1485D01*
X1959Y1485D02*
X1965Y1485D01*
X1970Y1485D02*
X1981Y1485D01*
X1986Y1485D02*
X1992Y1485D01*
X2018Y1485D02*
X2033Y1485D01*
X2059Y1485D02*
X2065Y1485D01*
X2087Y1485D02*
X2093Y1485D01*
X1420Y1484D02*
X1426Y1484D01*
X1471Y1484D02*
X1486Y1484D01*
X1513Y1484D02*
X1527Y1484D01*
X1535Y1484D02*
X1540Y1484D01*
X1572Y1484D02*
X1587Y1484D01*
X1607Y1484D02*
X1613Y1484D01*
X1619Y1484D02*
X1629Y1484D01*
X1635Y1484D02*
X1641Y1484D01*
X1722Y1484D02*
X1728Y1484D01*
X1762Y1484D02*
X1768Y1484D01*
X1779Y1484D02*
X1785Y1484D01*
X1863Y1484D02*
X1887Y1484D01*
X1916Y1484D02*
X1935Y1484D01*
X1959Y1484D02*
X1965Y1484D01*
X1971Y1484D02*
X1981Y1484D01*
X1986Y1484D02*
X1992Y1484D01*
X2016Y1484D02*
X2035Y1484D01*
X2059Y1484D02*
X2065Y1484D01*
X2087Y1484D02*
X2093Y1484D01*
X1420Y1483D02*
X1426Y1483D01*
X1471Y1483D02*
X1487Y1483D01*
X1511Y1483D02*
X1529Y1483D01*
X1535Y1483D02*
X1540Y1483D01*
X1571Y1483D02*
X1587Y1483D01*
X1607Y1483D02*
X1613Y1483D01*
X1620Y1483D02*
X1629Y1483D01*
X1635Y1483D02*
X1641Y1483D01*
X1722Y1483D02*
X1728Y1483D01*
X1761Y1483D02*
X1768Y1483D01*
X1779Y1483D02*
X1785Y1483D01*
X1862Y1483D02*
X1889Y1483D01*
X1915Y1483D02*
X1936Y1483D01*
X1959Y1483D02*
X1965Y1483D01*
X1971Y1483D02*
X1980Y1483D01*
X1986Y1483D02*
X1992Y1483D01*
X2015Y1483D02*
X2037Y1483D01*
X2059Y1483D02*
X2065Y1483D01*
X2087Y1483D02*
X2093Y1483D01*
X1420Y1482D02*
X1426Y1482D01*
X1471Y1482D02*
X1487Y1482D01*
X1510Y1482D02*
X1530Y1482D01*
X1535Y1482D02*
X1541Y1482D01*
X1571Y1482D02*
X1587Y1482D01*
X1607Y1482D02*
X1613Y1482D01*
X1621Y1482D02*
X1628Y1482D01*
X1635Y1482D02*
X1641Y1482D01*
X1722Y1482D02*
X1728Y1482D01*
X1761Y1482D02*
X1767Y1482D01*
X1779Y1482D02*
X1785Y1482D01*
X1861Y1482D02*
X1889Y1482D01*
X1913Y1482D02*
X1937Y1482D01*
X1959Y1482D02*
X1965Y1482D01*
X1972Y1482D02*
X1979Y1482D01*
X1986Y1482D02*
X1992Y1482D01*
X2014Y1482D02*
X2038Y1482D01*
X2059Y1482D02*
X2065Y1482D01*
X2075Y1482D02*
X2078Y1482D01*
X2087Y1482D02*
X2093Y1482D01*
X1420Y1481D02*
X1426Y1481D01*
X1471Y1481D02*
X1487Y1481D01*
X1510Y1481D02*
X1532Y1481D01*
X1535Y1481D02*
X1541Y1481D01*
X1571Y1481D02*
X1587Y1481D01*
X1607Y1481D02*
X1613Y1481D01*
X1621Y1481D02*
X1627Y1481D01*
X1635Y1481D02*
X1641Y1481D01*
X1722Y1481D02*
X1728Y1481D01*
X1760Y1481D02*
X1767Y1481D01*
X1779Y1481D02*
X1785Y1481D01*
X1860Y1481D02*
X1890Y1481D01*
X1912Y1481D02*
X1939Y1481D01*
X1959Y1481D02*
X1965Y1481D01*
X1973Y1481D02*
X1979Y1481D01*
X1986Y1481D02*
X1992Y1481D01*
X2013Y1481D02*
X2039Y1481D01*
X2059Y1481D02*
X2065Y1481D01*
X2074Y1481D02*
X2078Y1481D01*
X2087Y1481D02*
X2093Y1481D01*
X1420Y1480D02*
X1426Y1480D01*
X1471Y1480D02*
X1486Y1480D01*
X1509Y1480D02*
X1541Y1480D01*
X1571Y1480D02*
X1587Y1480D01*
X1607Y1480D02*
X1613Y1480D01*
X1621Y1480D02*
X1627Y1480D01*
X1635Y1480D02*
X1641Y1480D01*
X1722Y1480D02*
X1728Y1480D01*
X1760Y1480D02*
X1766Y1480D01*
X1779Y1480D02*
X1785Y1480D01*
X1859Y1480D02*
X1891Y1480D01*
X1911Y1480D02*
X1940Y1480D01*
X1959Y1480D02*
X1965Y1480D01*
X1973Y1480D02*
X1979Y1480D01*
X1986Y1480D02*
X1992Y1480D01*
X2012Y1480D02*
X2040Y1480D01*
X2059Y1480D02*
X2065Y1480D01*
X2073Y1480D02*
X2079Y1480D01*
X2087Y1480D02*
X2093Y1480D01*
X1420Y1479D02*
X1426Y1479D01*
X1471Y1479D02*
X1485Y1479D01*
X1509Y1479D02*
X1541Y1479D01*
X1571Y1479D02*
X1585Y1479D01*
X1607Y1479D02*
X1613Y1479D01*
X1621Y1479D02*
X1627Y1479D01*
X1635Y1479D02*
X1641Y1479D01*
X1722Y1479D02*
X1728Y1479D01*
X1759Y1479D02*
X1766Y1479D01*
X1779Y1479D02*
X1785Y1479D01*
X1859Y1479D02*
X1891Y1479D01*
X1911Y1479D02*
X1940Y1479D01*
X1959Y1479D02*
X1965Y1479D01*
X1973Y1479D02*
X1979Y1479D01*
X1986Y1479D02*
X1992Y1479D01*
X2011Y1479D02*
X2041Y1479D01*
X2059Y1479D02*
X2065Y1479D01*
X2073Y1479D02*
X2079Y1479D01*
X2087Y1479D02*
X2093Y1479D01*
X1420Y1478D02*
X1426Y1478D01*
X1471Y1478D02*
X1477Y1478D01*
X1508Y1478D02*
X1515Y1478D01*
X1524Y1478D02*
X1541Y1478D01*
X1571Y1478D02*
X1577Y1478D01*
X1607Y1478D02*
X1613Y1478D01*
X1622Y1478D02*
X1627Y1478D01*
X1635Y1478D02*
X1641Y1478D01*
X1722Y1478D02*
X1728Y1478D01*
X1759Y1478D02*
X1765Y1478D01*
X1779Y1478D02*
X1785Y1478D01*
X1859Y1478D02*
X1866Y1478D01*
X1885Y1478D02*
X1891Y1478D01*
X1910Y1478D02*
X1918Y1478D01*
X1932Y1478D02*
X1941Y1478D01*
X1959Y1478D02*
X1965Y1478D01*
X1973Y1478D02*
X1978Y1478D01*
X1986Y1478D02*
X1992Y1478D01*
X2010Y1478D02*
X2019Y1478D01*
X2033Y1478D02*
X2041Y1478D01*
X2059Y1478D02*
X2065Y1478D01*
X2073Y1478D02*
X2079Y1478D01*
X2087Y1478D02*
X2093Y1478D01*
X1420Y1477D02*
X1426Y1477D01*
X1471Y1477D02*
X1477Y1477D01*
X1508Y1477D02*
X1515Y1477D01*
X1526Y1477D02*
X1541Y1477D01*
X1571Y1477D02*
X1577Y1477D01*
X1607Y1477D02*
X1613Y1477D01*
X1622Y1477D02*
X1626Y1477D01*
X1635Y1477D02*
X1641Y1477D01*
X1722Y1477D02*
X1728Y1477D01*
X1759Y1477D02*
X1765Y1477D01*
X1779Y1477D02*
X1785Y1477D01*
X1860Y1477D02*
X1864Y1477D01*
X1885Y1477D02*
X1891Y1477D01*
X1909Y1477D02*
X1917Y1477D01*
X1934Y1477D02*
X1941Y1477D01*
X1959Y1477D02*
X1965Y1477D01*
X1974Y1477D02*
X1978Y1477D01*
X1986Y1477D02*
X1992Y1477D01*
X2010Y1477D02*
X2017Y1477D01*
X2034Y1477D02*
X2042Y1477D01*
X2059Y1477D02*
X2065Y1477D01*
X2073Y1477D02*
X2079Y1477D01*
X2087Y1477D02*
X2093Y1477D01*
X1420Y1476D02*
X1426Y1476D01*
X1471Y1476D02*
X1477Y1476D01*
X1508Y1476D02*
X1514Y1476D01*
X1527Y1476D02*
X1541Y1476D01*
X1571Y1476D02*
X1577Y1476D01*
X1607Y1476D02*
X1613Y1476D01*
X1623Y1476D02*
X1625Y1476D01*
X1635Y1476D02*
X1641Y1476D01*
X1722Y1476D02*
X1728Y1476D01*
X1758Y1476D02*
X1765Y1476D01*
X1779Y1476D02*
X1785Y1476D01*
X1861Y1476D02*
X1863Y1476D01*
X1885Y1476D02*
X1891Y1476D01*
X1909Y1476D02*
X1916Y1476D01*
X1935Y1476D02*
X1942Y1476D01*
X1959Y1476D02*
X1965Y1476D01*
X1975Y1476D02*
X1976Y1476D01*
X1986Y1476D02*
X1992Y1476D01*
X2009Y1476D02*
X2016Y1476D01*
X2035Y1476D02*
X2042Y1476D01*
X2059Y1476D02*
X2065Y1476D01*
X2073Y1476D02*
X2079Y1476D01*
X2087Y1476D02*
X2093Y1476D01*
X1420Y1475D02*
X1426Y1475D01*
X1471Y1475D02*
X1477Y1475D01*
X1508Y1475D02*
X1514Y1475D01*
X1529Y1475D02*
X1541Y1475D01*
X1571Y1475D02*
X1577Y1475D01*
X1607Y1475D02*
X1613Y1475D01*
X1635Y1475D02*
X1641Y1475D01*
X1722Y1475D02*
X1728Y1475D01*
X1758Y1475D02*
X1764Y1475D01*
X1779Y1475D02*
X1785Y1475D01*
X1884Y1475D02*
X1891Y1475D01*
X1909Y1475D02*
X1915Y1475D01*
X1936Y1475D02*
X1942Y1475D01*
X1959Y1475D02*
X1965Y1475D01*
X1986Y1475D02*
X1992Y1475D01*
X2009Y1475D02*
X2016Y1475D01*
X2036Y1475D02*
X2042Y1475D01*
X2059Y1475D02*
X2065Y1475D01*
X2073Y1475D02*
X2079Y1475D01*
X2087Y1475D02*
X2093Y1475D01*
X1420Y1474D02*
X1426Y1474D01*
X1471Y1474D02*
X1477Y1474D01*
X1508Y1474D02*
X1514Y1474D01*
X1531Y1474D02*
X1541Y1474D01*
X1571Y1474D02*
X1577Y1474D01*
X1607Y1474D02*
X1613Y1474D01*
X1635Y1474D02*
X1641Y1474D01*
X1722Y1474D02*
X1728Y1474D01*
X1758Y1474D02*
X1764Y1474D01*
X1779Y1474D02*
X1785Y1474D01*
X1882Y1474D02*
X1891Y1474D01*
X1909Y1474D02*
X1915Y1474D01*
X1936Y1474D02*
X1942Y1474D01*
X1959Y1474D02*
X1965Y1474D01*
X1986Y1474D02*
X1992Y1474D01*
X2009Y1474D02*
X2015Y1474D01*
X2036Y1474D02*
X2042Y1474D01*
X2059Y1474D02*
X2065Y1474D01*
X2073Y1474D02*
X2079Y1474D01*
X2087Y1474D02*
X2093Y1474D01*
X1420Y1473D02*
X1426Y1473D01*
X1471Y1473D02*
X1477Y1473D01*
X1508Y1473D02*
X1514Y1473D01*
X1532Y1473D02*
X1541Y1473D01*
X1571Y1473D02*
X1577Y1473D01*
X1607Y1473D02*
X1613Y1473D01*
X1635Y1473D02*
X1641Y1473D01*
X1722Y1473D02*
X1728Y1473D01*
X1758Y1473D02*
X1764Y1473D01*
X1779Y1473D02*
X1785Y1473D01*
X1880Y1473D02*
X1890Y1473D01*
X1909Y1473D02*
X1915Y1473D01*
X1936Y1473D02*
X1942Y1473D01*
X1959Y1473D02*
X1965Y1473D01*
X1986Y1473D02*
X1992Y1473D01*
X2009Y1473D02*
X2015Y1473D01*
X2037Y1473D02*
X2043Y1473D01*
X2059Y1473D02*
X2065Y1473D01*
X2073Y1473D02*
X2079Y1473D01*
X2087Y1473D02*
X2093Y1473D01*
X1420Y1472D02*
X1426Y1472D01*
X1471Y1472D02*
X1477Y1472D01*
X1508Y1472D02*
X1514Y1472D01*
X1534Y1472D02*
X1541Y1472D01*
X1571Y1472D02*
X1577Y1472D01*
X1607Y1472D02*
X1613Y1472D01*
X1635Y1472D02*
X1641Y1472D01*
X1722Y1472D02*
X1728Y1472D01*
X1758Y1472D02*
X1764Y1472D01*
X1779Y1472D02*
X1785Y1472D01*
X1877Y1472D02*
X1890Y1472D01*
X1909Y1472D02*
X1915Y1472D01*
X1936Y1472D02*
X1942Y1472D01*
X1959Y1472D02*
X1965Y1472D01*
X1986Y1472D02*
X1992Y1472D01*
X2009Y1472D02*
X2015Y1472D01*
X2037Y1472D02*
X2043Y1472D01*
X2059Y1472D02*
X2065Y1472D01*
X2073Y1472D02*
X2079Y1472D01*
X2087Y1472D02*
X2093Y1472D01*
X1420Y1471D02*
X1426Y1471D01*
X1471Y1471D02*
X1477Y1471D01*
X1508Y1471D02*
X1514Y1471D01*
X1535Y1471D02*
X1541Y1471D01*
X1571Y1471D02*
X1577Y1471D01*
X1607Y1471D02*
X1613Y1471D01*
X1635Y1471D02*
X1641Y1471D01*
X1722Y1471D02*
X1728Y1471D01*
X1758Y1471D02*
X1764Y1471D01*
X1779Y1471D02*
X1785Y1471D01*
X1875Y1471D02*
X1889Y1471D01*
X1909Y1471D02*
X1915Y1471D01*
X1936Y1471D02*
X1942Y1471D01*
X1959Y1471D02*
X1965Y1471D01*
X1986Y1471D02*
X1992Y1471D01*
X2009Y1471D02*
X2015Y1471D01*
X2037Y1471D02*
X2043Y1471D01*
X2059Y1471D02*
X2065Y1471D01*
X2073Y1471D02*
X2079Y1471D01*
X2087Y1471D02*
X2093Y1471D01*
X1408Y1470D02*
X1411Y1470D01*
X1420Y1470D02*
X1426Y1470D01*
X1471Y1470D02*
X1477Y1470D01*
X1508Y1470D02*
X1514Y1470D01*
X1535Y1470D02*
X1541Y1470D01*
X1571Y1470D02*
X1577Y1470D01*
X1607Y1470D02*
X1613Y1470D01*
X1635Y1470D02*
X1641Y1470D01*
X1709Y1470D02*
X1713Y1470D01*
X1722Y1470D02*
X1728Y1470D01*
X1758Y1470D02*
X1765Y1470D01*
X1779Y1470D02*
X1785Y1470D01*
X1873Y1470D02*
X1888Y1470D01*
X1909Y1470D02*
X1915Y1470D01*
X1936Y1470D02*
X1942Y1470D01*
X1959Y1470D02*
X1965Y1470D01*
X1986Y1470D02*
X1992Y1470D01*
X2009Y1470D02*
X2015Y1470D01*
X2037Y1470D02*
X2043Y1470D01*
X2059Y1470D02*
X2065Y1470D01*
X2073Y1470D02*
X2079Y1470D01*
X2087Y1470D02*
X2093Y1470D01*
X1407Y1469D02*
X1412Y1469D01*
X1420Y1469D02*
X1426Y1469D01*
X1471Y1469D02*
X1477Y1469D01*
X1508Y1469D02*
X1514Y1469D01*
X1535Y1469D02*
X1541Y1469D01*
X1571Y1469D02*
X1577Y1469D01*
X1607Y1469D02*
X1613Y1469D01*
X1635Y1469D02*
X1641Y1469D01*
X1708Y1469D02*
X1713Y1469D01*
X1722Y1469D02*
X1728Y1469D01*
X1759Y1469D02*
X1765Y1469D01*
X1779Y1469D02*
X1785Y1469D01*
X1870Y1469D02*
X1887Y1469D01*
X1909Y1469D02*
X1915Y1469D01*
X1936Y1469D02*
X1942Y1469D01*
X1959Y1469D02*
X1965Y1469D01*
X1986Y1469D02*
X1992Y1469D01*
X2009Y1469D02*
X2015Y1469D01*
X2037Y1469D02*
X2043Y1469D01*
X2059Y1469D02*
X2065Y1469D01*
X2073Y1469D02*
X2079Y1469D01*
X2087Y1469D02*
X2093Y1469D01*
X1407Y1468D02*
X1413Y1468D01*
X1420Y1468D02*
X1426Y1468D01*
X1471Y1468D02*
X1477Y1468D01*
X1508Y1468D02*
X1514Y1468D01*
X1535Y1468D02*
X1541Y1468D01*
X1571Y1468D02*
X1577Y1468D01*
X1607Y1468D02*
X1613Y1468D01*
X1635Y1468D02*
X1641Y1468D01*
X1708Y1468D02*
X1714Y1468D01*
X1722Y1468D02*
X1728Y1468D01*
X1759Y1468D02*
X1766Y1468D01*
X1779Y1468D02*
X1785Y1468D01*
X1868Y1468D02*
X1885Y1468D01*
X1909Y1468D02*
X1915Y1468D01*
X1936Y1468D02*
X1942Y1468D01*
X1959Y1468D02*
X1965Y1468D01*
X1986Y1468D02*
X1992Y1468D01*
X2009Y1468D02*
X2015Y1468D01*
X2036Y1468D02*
X2043Y1468D01*
X2059Y1468D02*
X2065Y1468D01*
X2073Y1468D02*
X2079Y1468D01*
X2087Y1468D02*
X2093Y1468D01*
X1407Y1467D02*
X1413Y1467D01*
X1420Y1467D02*
X1426Y1467D01*
X1471Y1467D02*
X1477Y1467D01*
X1508Y1467D02*
X1514Y1467D01*
X1535Y1467D02*
X1541Y1467D01*
X1571Y1467D02*
X1577Y1467D01*
X1607Y1467D02*
X1613Y1467D01*
X1635Y1467D02*
X1641Y1467D01*
X1708Y1467D02*
X1714Y1467D01*
X1722Y1467D02*
X1728Y1467D01*
X1759Y1467D02*
X1766Y1467D01*
X1779Y1467D02*
X1785Y1467D01*
X1866Y1467D02*
X1882Y1467D01*
X1909Y1467D02*
X1915Y1467D01*
X1936Y1467D02*
X1942Y1467D01*
X1959Y1467D02*
X1965Y1467D01*
X1986Y1467D02*
X1992Y1467D01*
X2009Y1467D02*
X2043Y1467D01*
X2059Y1467D02*
X2065Y1467D01*
X2073Y1467D02*
X2079Y1467D01*
X2087Y1467D02*
X2093Y1467D01*
X1407Y1466D02*
X1413Y1466D01*
X1420Y1466D02*
X1426Y1466D01*
X1471Y1466D02*
X1477Y1466D01*
X1508Y1466D02*
X1514Y1466D01*
X1535Y1466D02*
X1541Y1466D01*
X1571Y1466D02*
X1577Y1466D01*
X1607Y1466D02*
X1613Y1466D01*
X1635Y1466D02*
X1641Y1466D01*
X1708Y1466D02*
X1714Y1466D01*
X1722Y1466D02*
X1728Y1466D01*
X1760Y1466D02*
X1767Y1466D01*
X1779Y1466D02*
X1785Y1466D01*
X1864Y1466D02*
X1880Y1466D01*
X1909Y1466D02*
X1915Y1466D01*
X1936Y1466D02*
X1942Y1466D01*
X1959Y1466D02*
X1965Y1466D01*
X1986Y1466D02*
X1992Y1466D01*
X2009Y1466D02*
X2043Y1466D01*
X2059Y1466D02*
X2065Y1466D01*
X2073Y1466D02*
X2079Y1466D01*
X2087Y1466D02*
X2093Y1466D01*
X1407Y1465D02*
X1413Y1465D01*
X1420Y1465D02*
X1426Y1465D01*
X1471Y1465D02*
X1477Y1465D01*
X1508Y1465D02*
X1514Y1465D01*
X1535Y1465D02*
X1541Y1465D01*
X1571Y1465D02*
X1577Y1465D01*
X1607Y1465D02*
X1613Y1465D01*
X1635Y1465D02*
X1641Y1465D01*
X1708Y1465D02*
X1714Y1465D01*
X1722Y1465D02*
X1728Y1465D01*
X1760Y1465D02*
X1767Y1465D01*
X1779Y1465D02*
X1785Y1465D01*
X1862Y1465D02*
X1878Y1465D01*
X1909Y1465D02*
X1915Y1465D01*
X1936Y1465D02*
X1942Y1465D01*
X1959Y1465D02*
X1965Y1465D01*
X1986Y1465D02*
X1992Y1465D01*
X2009Y1465D02*
X2043Y1465D01*
X2059Y1465D02*
X2065Y1465D01*
X2073Y1465D02*
X2079Y1465D01*
X2087Y1465D02*
X2093Y1465D01*
X1407Y1464D02*
X1413Y1464D01*
X1420Y1464D02*
X1426Y1464D01*
X1471Y1464D02*
X1477Y1464D01*
X1508Y1464D02*
X1514Y1464D01*
X1535Y1464D02*
X1541Y1464D01*
X1571Y1464D02*
X1577Y1464D01*
X1607Y1464D02*
X1613Y1464D01*
X1635Y1464D02*
X1641Y1464D01*
X1708Y1464D02*
X1714Y1464D01*
X1722Y1464D02*
X1728Y1464D01*
X1761Y1464D02*
X1768Y1464D01*
X1779Y1464D02*
X1785Y1464D01*
X1861Y1464D02*
X1875Y1464D01*
X1909Y1464D02*
X1915Y1464D01*
X1936Y1464D02*
X1942Y1464D01*
X1959Y1464D02*
X1965Y1464D01*
X1986Y1464D02*
X1992Y1464D01*
X2009Y1464D02*
X2043Y1464D01*
X2059Y1464D02*
X2065Y1464D01*
X2073Y1464D02*
X2079Y1464D01*
X2087Y1464D02*
X2093Y1464D01*
X1407Y1463D02*
X1413Y1463D01*
X1420Y1463D02*
X1426Y1463D01*
X1471Y1463D02*
X1477Y1463D01*
X1508Y1463D02*
X1514Y1463D01*
X1535Y1463D02*
X1541Y1463D01*
X1571Y1463D02*
X1577Y1463D01*
X1607Y1463D02*
X1613Y1463D01*
X1635Y1463D02*
X1641Y1463D01*
X1708Y1463D02*
X1714Y1463D01*
X1722Y1463D02*
X1728Y1463D01*
X1761Y1463D02*
X1768Y1463D01*
X1779Y1463D02*
X1785Y1463D01*
X1861Y1463D02*
X1873Y1463D01*
X1909Y1463D02*
X1915Y1463D01*
X1936Y1463D02*
X1942Y1463D01*
X1959Y1463D02*
X1965Y1463D01*
X1986Y1463D02*
X1992Y1463D01*
X2009Y1463D02*
X2043Y1463D01*
X2059Y1463D02*
X2065Y1463D01*
X2073Y1463D02*
X2079Y1463D01*
X2087Y1463D02*
X2093Y1463D01*
X1407Y1462D02*
X1413Y1462D01*
X1420Y1462D02*
X1426Y1462D01*
X1471Y1462D02*
X1477Y1462D01*
X1507Y1462D02*
X1513Y1462D01*
X1535Y1462D02*
X1541Y1462D01*
X1571Y1462D02*
X1577Y1462D01*
X1607Y1462D02*
X1613Y1462D01*
X1635Y1462D02*
X1641Y1462D01*
X1708Y1462D02*
X1714Y1462D01*
X1722Y1462D02*
X1728Y1462D01*
X1762Y1462D02*
X1769Y1462D01*
X1779Y1462D02*
X1785Y1462D01*
X1860Y1462D02*
X1871Y1462D01*
X1909Y1462D02*
X1915Y1462D01*
X1936Y1462D02*
X1942Y1462D01*
X1959Y1462D02*
X1965Y1462D01*
X1986Y1462D02*
X1992Y1462D01*
X2010Y1462D02*
X2043Y1462D01*
X2059Y1462D02*
X2065Y1462D01*
X2073Y1462D02*
X2079Y1462D01*
X2087Y1462D02*
X2093Y1462D01*
X1407Y1461D02*
X1413Y1461D01*
X1420Y1461D02*
X1426Y1461D01*
X1471Y1461D02*
X1477Y1461D01*
X1507Y1461D02*
X1513Y1461D01*
X1535Y1461D02*
X1541Y1461D01*
X1571Y1461D02*
X1577Y1461D01*
X1607Y1461D02*
X1613Y1461D01*
X1635Y1461D02*
X1641Y1461D01*
X1708Y1461D02*
X1714Y1461D01*
X1722Y1461D02*
X1728Y1461D01*
X1762Y1461D02*
X1769Y1461D01*
X1779Y1461D02*
X1785Y1461D01*
X1860Y1461D02*
X1868Y1461D01*
X1909Y1461D02*
X1915Y1461D01*
X1936Y1461D02*
X1942Y1461D01*
X1959Y1461D02*
X1965Y1461D01*
X1986Y1461D02*
X1992Y1461D01*
X2012Y1461D02*
X2043Y1461D01*
X2059Y1461D02*
X2065Y1461D01*
X2073Y1461D02*
X2079Y1461D01*
X2087Y1461D02*
X2093Y1461D01*
X1407Y1460D02*
X1413Y1460D01*
X1420Y1460D02*
X1426Y1460D01*
X1471Y1460D02*
X1477Y1460D01*
X1507Y1460D02*
X1513Y1460D01*
X1535Y1460D02*
X1541Y1460D01*
X1571Y1460D02*
X1577Y1460D01*
X1607Y1460D02*
X1613Y1460D01*
X1635Y1460D02*
X1641Y1460D01*
X1708Y1460D02*
X1714Y1460D01*
X1722Y1460D02*
X1728Y1460D01*
X1763Y1460D02*
X1770Y1460D01*
X1779Y1460D02*
X1785Y1460D01*
X1859Y1460D02*
X1866Y1460D01*
X1909Y1460D02*
X1915Y1460D01*
X1936Y1460D02*
X1942Y1460D01*
X1959Y1460D02*
X1965Y1460D01*
X1986Y1460D02*
X1992Y1460D01*
X2037Y1460D02*
X2043Y1460D01*
X2059Y1460D02*
X2065Y1460D01*
X2073Y1460D02*
X2079Y1460D01*
X2087Y1460D02*
X2093Y1460D01*
X1407Y1459D02*
X1413Y1459D01*
X1420Y1459D02*
X1426Y1459D01*
X1471Y1459D02*
X1477Y1459D01*
X1507Y1459D02*
X1513Y1459D01*
X1535Y1459D02*
X1541Y1459D01*
X1571Y1459D02*
X1577Y1459D01*
X1607Y1459D02*
X1613Y1459D01*
X1635Y1459D02*
X1641Y1459D01*
X1708Y1459D02*
X1714Y1459D01*
X1722Y1459D02*
X1728Y1459D01*
X1763Y1459D02*
X1770Y1459D01*
X1779Y1459D02*
X1785Y1459D01*
X1859Y1459D02*
X1865Y1459D01*
X1909Y1459D02*
X1915Y1459D01*
X1936Y1459D02*
X1942Y1459D01*
X1959Y1459D02*
X1965Y1459D01*
X1986Y1459D02*
X1992Y1459D01*
X2037Y1459D02*
X2043Y1459D01*
X2059Y1459D02*
X2065Y1459D01*
X2073Y1459D02*
X2079Y1459D01*
X2087Y1459D02*
X2093Y1459D01*
X1407Y1458D02*
X1413Y1458D01*
X1420Y1458D02*
X1426Y1458D01*
X1471Y1458D02*
X1477Y1458D01*
X1507Y1458D02*
X1513Y1458D01*
X1535Y1458D02*
X1541Y1458D01*
X1571Y1458D02*
X1577Y1458D01*
X1607Y1458D02*
X1613Y1458D01*
X1635Y1458D02*
X1641Y1458D01*
X1708Y1458D02*
X1714Y1458D01*
X1722Y1458D02*
X1728Y1458D01*
X1764Y1458D02*
X1771Y1458D01*
X1779Y1458D02*
X1785Y1458D01*
X1859Y1458D02*
X1865Y1458D01*
X1909Y1458D02*
X1915Y1458D01*
X1936Y1458D02*
X1942Y1458D01*
X1959Y1458D02*
X1965Y1458D01*
X1986Y1458D02*
X1992Y1458D01*
X2036Y1458D02*
X2043Y1458D01*
X2059Y1458D02*
X2065Y1458D01*
X2073Y1458D02*
X2079Y1458D01*
X2087Y1458D02*
X2093Y1458D01*
X1407Y1457D02*
X1413Y1457D01*
X1420Y1457D02*
X1426Y1457D01*
X1471Y1457D02*
X1477Y1457D01*
X1507Y1457D02*
X1513Y1457D01*
X1535Y1457D02*
X1541Y1457D01*
X1571Y1457D02*
X1577Y1457D01*
X1607Y1457D02*
X1613Y1457D01*
X1635Y1457D02*
X1641Y1457D01*
X1708Y1457D02*
X1714Y1457D01*
X1722Y1457D02*
X1728Y1457D01*
X1764Y1457D02*
X1771Y1457D01*
X1779Y1457D02*
X1785Y1457D01*
X1859Y1457D02*
X1865Y1457D01*
X1909Y1457D02*
X1915Y1457D01*
X1936Y1457D02*
X1942Y1457D01*
X1959Y1457D02*
X1965Y1457D01*
X1986Y1457D02*
X1992Y1457D01*
X2036Y1457D02*
X2042Y1457D01*
X2059Y1457D02*
X2065Y1457D01*
X2073Y1457D02*
X2079Y1457D01*
X2087Y1457D02*
X2093Y1457D01*
X1407Y1456D02*
X1413Y1456D01*
X1420Y1456D02*
X1426Y1456D01*
X1471Y1456D02*
X1477Y1456D01*
X1507Y1456D02*
X1513Y1456D01*
X1535Y1456D02*
X1541Y1456D01*
X1571Y1456D02*
X1577Y1456D01*
X1607Y1456D02*
X1613Y1456D01*
X1635Y1456D02*
X1641Y1456D01*
X1708Y1456D02*
X1714Y1456D01*
X1722Y1456D02*
X1728Y1456D01*
X1765Y1456D02*
X1772Y1456D01*
X1779Y1456D02*
X1785Y1456D01*
X1859Y1456D02*
X1865Y1456D01*
X1889Y1456D02*
X1889Y1456D01*
X1909Y1456D02*
X1916Y1456D01*
X1935Y1456D02*
X1942Y1456D01*
X1959Y1456D02*
X1965Y1456D01*
X1986Y1456D02*
X1992Y1456D01*
X2035Y1456D02*
X2042Y1456D01*
X2059Y1456D02*
X2066Y1456D01*
X2073Y1456D02*
X2079Y1456D01*
X2086Y1456D02*
X2093Y1456D01*
X1407Y1455D02*
X1413Y1455D01*
X1420Y1455D02*
X1426Y1455D01*
X1471Y1455D02*
X1477Y1455D01*
X1507Y1455D02*
X1513Y1455D01*
X1535Y1455D02*
X1541Y1455D01*
X1571Y1455D02*
X1577Y1455D01*
X1607Y1455D02*
X1613Y1455D01*
X1635Y1455D02*
X1641Y1455D01*
X1708Y1455D02*
X1714Y1455D01*
X1722Y1455D02*
X1728Y1455D01*
X1765Y1455D02*
X1772Y1455D01*
X1779Y1455D02*
X1785Y1455D01*
X1859Y1455D02*
X1865Y1455D01*
X1887Y1455D02*
X1891Y1455D01*
X1909Y1455D02*
X1917Y1455D01*
X1934Y1455D02*
X1942Y1455D01*
X1959Y1455D02*
X1965Y1455D01*
X1986Y1455D02*
X1992Y1455D01*
X2034Y1455D02*
X2042Y1455D01*
X2059Y1455D02*
X2066Y1455D01*
X2072Y1455D02*
X2080Y1455D01*
X2086Y1455D02*
X2093Y1455D01*
X1407Y1454D02*
X1413Y1454D01*
X1420Y1454D02*
X1426Y1454D01*
X1471Y1454D02*
X1477Y1454D01*
X1507Y1454D02*
X1513Y1454D01*
X1535Y1454D02*
X1541Y1454D01*
X1571Y1454D02*
X1577Y1454D01*
X1607Y1454D02*
X1613Y1454D01*
X1635Y1454D02*
X1641Y1454D01*
X1708Y1454D02*
X1714Y1454D01*
X1722Y1454D02*
X1728Y1454D01*
X1766Y1454D02*
X1773Y1454D01*
X1779Y1454D02*
X1785Y1454D01*
X1859Y1454D02*
X1866Y1454D01*
X1885Y1454D02*
X1892Y1454D01*
X1910Y1454D02*
X1918Y1454D01*
X1932Y1454D02*
X1941Y1454D01*
X1959Y1454D02*
X1965Y1454D01*
X1986Y1454D02*
X1992Y1454D01*
X2033Y1454D02*
X2041Y1454D01*
X2060Y1454D02*
X2067Y1454D01*
X2072Y1454D02*
X2081Y1454D01*
X2085Y1454D02*
X2092Y1454D01*
X1407Y1453D02*
X1438Y1453D01*
X1463Y1453D02*
X1485Y1453D01*
X1507Y1453D02*
X1513Y1453D01*
X1535Y1453D02*
X1541Y1453D01*
X1563Y1453D02*
X1585Y1453D01*
X1607Y1453D02*
X1613Y1453D01*
X1635Y1453D02*
X1641Y1453D01*
X1708Y1453D02*
X1739Y1453D01*
X1766Y1453D02*
X1789Y1453D01*
X1859Y1453D02*
X1892Y1453D01*
X1911Y1453D02*
X1940Y1453D01*
X1959Y1453D02*
X1965Y1453D01*
X1986Y1453D02*
X1992Y1453D01*
X2011Y1453D02*
X2041Y1453D01*
X2060Y1453D02*
X2092Y1453D01*
X1407Y1452D02*
X1439Y1452D01*
X1461Y1452D02*
X1486Y1452D01*
X1507Y1452D02*
X1513Y1452D01*
X1535Y1452D02*
X1541Y1452D01*
X1562Y1452D02*
X1586Y1452D01*
X1607Y1452D02*
X1613Y1452D01*
X1635Y1452D02*
X1641Y1452D01*
X1708Y1452D02*
X1741Y1452D01*
X1767Y1452D02*
X1791Y1452D01*
X1860Y1452D02*
X1892Y1452D01*
X1911Y1452D02*
X1940Y1452D01*
X1959Y1452D02*
X1965Y1452D01*
X1986Y1452D02*
X1992Y1452D01*
X2010Y1452D02*
X2040Y1452D01*
X2061Y1452D02*
X2091Y1452D01*
X1407Y1451D02*
X1440Y1451D01*
X1461Y1451D02*
X1487Y1451D01*
X1507Y1451D02*
X1513Y1451D01*
X1535Y1451D02*
X1541Y1451D01*
X1561Y1451D02*
X1587Y1451D01*
X1607Y1451D02*
X1613Y1451D01*
X1635Y1451D02*
X1641Y1451D01*
X1708Y1451D02*
X1741Y1451D01*
X1767Y1451D02*
X1791Y1451D01*
X1860Y1451D02*
X1892Y1451D01*
X1912Y1451D02*
X1939Y1451D01*
X1959Y1451D02*
X1965Y1451D01*
X1986Y1451D02*
X1992Y1451D01*
X2009Y1451D02*
X2039Y1451D01*
X2061Y1451D02*
X2091Y1451D01*
X1407Y1450D02*
X1440Y1450D01*
X1460Y1450D02*
X1487Y1450D01*
X1507Y1450D02*
X1513Y1450D01*
X1535Y1450D02*
X1541Y1450D01*
X1561Y1450D02*
X1587Y1450D01*
X1607Y1450D02*
X1613Y1450D01*
X1635Y1450D02*
X1641Y1450D01*
X1708Y1450D02*
X1741Y1450D01*
X1768Y1450D02*
X1792Y1450D01*
X1861Y1450D02*
X1891Y1450D01*
X1913Y1450D02*
X1938Y1450D01*
X1959Y1450D02*
X1965Y1450D01*
X1986Y1450D02*
X1992Y1450D01*
X2009Y1450D02*
X2038Y1450D01*
X2062Y1450D02*
X2090Y1450D01*
X1407Y1449D02*
X1440Y1449D01*
X1460Y1449D02*
X1487Y1449D01*
X1507Y1449D02*
X1513Y1449D01*
X1535Y1449D02*
X1540Y1449D01*
X1561Y1449D02*
X1587Y1449D01*
X1608Y1449D02*
X1613Y1449D01*
X1635Y1449D02*
X1641Y1449D01*
X1708Y1449D02*
X1741Y1449D01*
X1769Y1449D02*
X1791Y1449D01*
X1862Y1449D02*
X1889Y1449D01*
X1915Y1449D02*
X1936Y1449D01*
X1959Y1449D02*
X1965Y1449D01*
X1987Y1449D02*
X1992Y1449D01*
X2009Y1449D02*
X2037Y1449D01*
X2063Y1449D02*
X2090Y1449D01*
X1407Y1448D02*
X1440Y1448D01*
X1461Y1448D02*
X1486Y1448D01*
X1508Y1448D02*
X1513Y1448D01*
X1535Y1448D02*
X1540Y1448D01*
X1561Y1448D02*
X1587Y1448D01*
X1608Y1448D02*
X1613Y1448D01*
X1636Y1448D02*
X1640Y1448D01*
X1708Y1448D02*
X1741Y1448D01*
X1770Y1448D02*
X1791Y1448D01*
X1863Y1448D02*
X1888Y1448D01*
X1916Y1448D02*
X1935Y1448D01*
X1959Y1448D02*
X1964Y1448D01*
X1987Y1448D02*
X1992Y1448D01*
X2010Y1448D02*
X2036Y1448D01*
X2063Y1448D02*
X2075Y1448D01*
X2077Y1448D02*
X2089Y1448D01*
X1408Y1447D02*
X1439Y1447D01*
X1462Y1447D02*
X1486Y1447D01*
X1508Y1447D02*
X1512Y1447D01*
X1536Y1447D02*
X1539Y1447D01*
X1562Y1447D02*
X1586Y1447D01*
X1609Y1447D02*
X1612Y1447D01*
X1636Y1447D02*
X1640Y1447D01*
X1709Y1447D02*
X1740Y1447D01*
X1772Y1447D02*
X1790Y1447D01*
X1865Y1447D02*
X1886Y1447D01*
X1918Y1447D02*
X1933Y1447D01*
X1960Y1447D02*
X1963Y1447D01*
X1988Y1447D02*
X1991Y1447D01*
X2010Y1447D02*
X2034Y1447D01*
X2064Y1447D02*
X2074Y1447D01*
X2078Y1447D02*
X2088Y1447D01*
X1397Y1426D02*
X2086Y1426D01*
X1389Y1425D02*
X2093Y1425D01*
X1383Y1424D02*
X2099Y1424D01*
X1378Y1423D02*
X2104Y1423D01*
X1373Y1422D02*
X2109Y1422D01*
X1369Y1421D02*
X2113Y1421D01*
X1366Y1420D02*
X2116Y1420D01*
X1362Y1419D02*
X2120Y1419D01*
X1359Y1418D02*
X1396Y1418D01*
X2086Y1418D02*
X2123Y1418D01*
X1356Y1417D02*
X1389Y1417D01*
X2094Y1417D02*
X2126Y1417D01*
X1354Y1416D02*
X1383Y1416D01*
X2100Y1416D02*
X2128Y1416D01*
X1351Y1415D02*
X1378Y1415D01*
X2104Y1415D02*
X2131Y1415D01*
X1348Y1414D02*
X1374Y1414D01*
X2109Y1414D02*
X2133Y1414D01*
X1346Y1413D02*
X1370Y1413D01*
X2113Y1413D02*
X2136Y1413D01*
X1344Y1412D02*
X1366Y1412D01*
X2116Y1412D02*
X2138Y1412D01*
X1341Y1411D02*
X1363Y1411D01*
X2119Y1411D02*
X2140Y1411D01*
X1339Y1410D02*
X1360Y1410D01*
X2122Y1410D02*
X2143Y1410D01*
X1337Y1409D02*
X1357Y1409D01*
X2125Y1409D02*
X2145Y1409D01*
X1335Y1408D02*
X1354Y1408D01*
X2128Y1408D02*
X2147Y1408D01*
X1333Y1407D02*
X1352Y1407D01*
X2131Y1407D02*
X2149Y1407D01*
X1331Y1406D02*
X1349Y1406D01*
X2133Y1406D02*
X2151Y1406D01*
X1329Y1405D02*
X1347Y1405D01*
X2135Y1405D02*
X2152Y1405D01*
X1328Y1404D02*
X1345Y1404D01*
X2138Y1404D02*
X2154Y1404D01*
X1326Y1403D02*
X1343Y1403D01*
X2140Y1403D02*
X2156Y1403D01*
X1324Y1402D02*
X1341Y1402D01*
X2142Y1402D02*
X2158Y1402D01*
X1323Y1401D02*
X1339Y1401D01*
X2144Y1401D02*
X2159Y1401D01*
X1321Y1400D02*
X1337Y1400D01*
X2146Y1400D02*
X2161Y1400D01*
X1319Y1399D02*
X1335Y1399D01*
X2148Y1399D02*
X2162Y1399D01*
X1318Y1398D02*
X1333Y1398D01*
X2150Y1398D02*
X2164Y1398D01*
X1316Y1397D02*
X1331Y1397D01*
X2151Y1397D02*
X2166Y1397D01*
X1315Y1396D02*
X1329Y1396D01*
X2153Y1396D02*
X2167Y1396D01*
X1313Y1395D02*
X1328Y1395D01*
X2155Y1395D02*
X2168Y1395D01*
X1312Y1394D02*
X1326Y1394D01*
X2157Y1394D02*
X2170Y1394D01*
X1311Y1393D02*
X1324Y1393D01*
X2158Y1393D02*
X2171Y1393D01*
X1309Y1392D02*
X1323Y1392D01*
X2160Y1392D02*
X2173Y1392D01*
X1308Y1391D02*
X1321Y1391D01*
X2161Y1391D02*
X2174Y1391D01*
X1307Y1390D02*
X1320Y1390D01*
X2163Y1390D02*
X2175Y1390D01*
X1305Y1389D02*
X1318Y1389D01*
X2164Y1389D02*
X2177Y1389D01*
X1304Y1388D02*
X1317Y1388D01*
X2166Y1388D02*
X2178Y1388D01*
X1303Y1387D02*
X1315Y1387D01*
X2167Y1387D02*
X2179Y1387D01*
X1302Y1386D02*
X1314Y1386D01*
X2168Y1386D02*
X2180Y1386D01*
X1300Y1385D02*
X1313Y1385D01*
X2170Y1385D02*
X2181Y1385D01*
X1299Y1384D02*
X1311Y1384D01*
X2171Y1384D02*
X2183Y1384D01*
X1298Y1383D02*
X1310Y1383D01*
X2172Y1383D02*
X2184Y1383D01*
X1297Y1382D02*
X1309Y1382D01*
X2174Y1382D02*
X2185Y1382D01*
X1296Y1381D02*
X1308Y1381D01*
X2175Y1381D02*
X2186Y1381D01*
X1295Y1380D02*
X1306Y1380D01*
X2176Y1380D02*
X2187Y1380D01*
X1294Y1379D02*
X1305Y1379D01*
X2177Y1379D02*
X2188Y1379D01*
X1293Y1378D02*
X1304Y1378D01*
X2178Y1378D02*
X2189Y1378D01*
X1292Y1377D02*
X1303Y1377D01*
X2180Y1377D02*
X2190Y1377D01*
X1291Y1376D02*
X1302Y1376D01*
X2181Y1376D02*
X2191Y1376D01*
X1290Y1375D02*
X1301Y1375D01*
X2182Y1375D02*
X2192Y1375D01*
X1289Y1374D02*
X1300Y1374D01*
X2183Y1374D02*
X2193Y1374D01*
X1288Y1373D02*
X1299Y1373D01*
X2184Y1373D02*
X2194Y1373D01*
X1287Y1372D02*
X1297Y1372D01*
X2185Y1372D02*
X2195Y1372D01*
X1286Y1371D02*
X1296Y1371D01*
X2186Y1371D02*
X2196Y1371D01*
X1285Y1370D02*
X1295Y1370D01*
X2187Y1370D02*
X2197Y1370D01*
X1284Y1369D02*
X1294Y1369D01*
X2188Y1369D02*
X2198Y1369D01*
X1283Y1368D02*
X1293Y1368D01*
X2189Y1368D02*
X2199Y1368D01*
X1282Y1367D02*
X1292Y1367D01*
X2190Y1367D02*
X2200Y1367D01*
X1281Y1366D02*
X1291Y1366D01*
X2191Y1366D02*
X2201Y1366D01*
X1280Y1365D02*
X1291Y1365D01*
X2192Y1365D02*
X2202Y1365D01*
X1280Y1364D02*
X1290Y1364D01*
X2193Y1364D02*
X2202Y1364D01*
X1279Y1363D02*
X1289Y1363D01*
X2194Y1363D02*
X2203Y1363D01*
X1278Y1362D02*
X1288Y1362D01*
X2195Y1362D02*
X2204Y1362D01*
X1277Y1361D02*
X1287Y1361D01*
X2196Y1361D02*
X2205Y1361D01*
X1276Y1360D02*
X1286Y1360D01*
X2196Y1360D02*
X2206Y1360D01*
X1276Y1359D02*
X1285Y1359D01*
X2197Y1359D02*
X2207Y1359D01*
X1275Y1358D02*
X1284Y1358D01*
X2198Y1358D02*
X2207Y1358D01*
X1274Y1357D02*
X1283Y1357D01*
X2199Y1357D02*
X2208Y1357D01*
X1273Y1356D02*
X1283Y1356D01*
X2200Y1356D02*
X2209Y1356D01*
X1272Y1355D02*
X1282Y1355D01*
X2201Y1355D02*
X2210Y1355D01*
X1272Y1354D02*
X1281Y1354D01*
X2201Y1354D02*
X2210Y1354D01*
X1271Y1353D02*
X1280Y1353D01*
X2202Y1353D02*
X2211Y1353D01*
X1270Y1352D02*
X1280Y1352D01*
X2203Y1352D02*
X2212Y1352D01*
X1270Y1351D02*
X1279Y1351D01*
X2204Y1351D02*
X2213Y1351D01*
X1269Y1350D02*
X1278Y1350D01*
X2204Y1350D02*
X2213Y1350D01*
X1268Y1349D02*
X1277Y1349D01*
X2205Y1349D02*
X2214Y1349D01*
X1268Y1348D02*
X1277Y1348D01*
X2206Y1348D02*
X2215Y1348D01*
X1267Y1347D02*
X1276Y1347D01*
X2207Y1347D02*
X2215Y1347D01*
X1266Y1346D02*
X1275Y1346D01*
X2207Y1346D02*
X2216Y1346D01*
X1266Y1345D02*
X1274Y1345D01*
X2208Y1345D02*
X2217Y1345D01*
X1265Y1344D02*
X1274Y1344D01*
X2209Y1344D02*
X2217Y1344D01*
X1264Y1343D02*
X1273Y1343D01*
X2209Y1343D02*
X2218Y1343D01*
X1264Y1342D02*
X1272Y1342D01*
X2210Y1342D02*
X2218Y1342D01*
X1263Y1341D02*
X1272Y1341D01*
X2211Y1341D02*
X2219Y1341D01*
X1263Y1340D02*
X1271Y1340D01*
X2211Y1340D02*
X2220Y1340D01*
X1262Y1339D02*
X1271Y1339D01*
X2212Y1339D02*
X2220Y1339D01*
X1261Y1338D02*
X1270Y1338D01*
X2213Y1338D02*
X2221Y1338D01*
X1261Y1337D02*
X1269Y1337D01*
X2213Y1337D02*
X2221Y1337D01*
X1260Y1336D02*
X1269Y1336D01*
X2214Y1336D02*
X2222Y1336D01*
X1260Y1335D02*
X1268Y1335D01*
X2214Y1335D02*
X2223Y1335D01*
X1259Y1334D02*
X1268Y1334D01*
X2215Y1334D02*
X2223Y1334D01*
X1259Y1333D02*
X1267Y1333D01*
X2215Y1333D02*
X2224Y1333D01*
X1258Y1332D02*
X1266Y1332D01*
X2216Y1332D02*
X2224Y1332D01*
X1258Y1331D02*
X1266Y1331D01*
X2217Y1331D02*
X2225Y1331D01*
X1257Y1330D02*
X1265Y1330D01*
X2217Y1330D02*
X2225Y1330D01*
X1257Y1329D02*
X1265Y1329D01*
X2218Y1329D02*
X2226Y1329D01*
X1256Y1328D02*
X1264Y1328D01*
X2218Y1328D02*
X2226Y1328D01*
X1256Y1327D02*
X1264Y1327D01*
X2219Y1327D02*
X2227Y1327D01*
X1255Y1326D02*
X1263Y1326D01*
X2219Y1326D02*
X2227Y1326D01*
X1255Y1325D02*
X1263Y1325D01*
X2220Y1325D02*
X2228Y1325D01*
X1254Y1324D02*
X1262Y1324D01*
X2220Y1324D02*
X2228Y1324D01*
X1254Y1323D02*
X1262Y1323D01*
X2221Y1323D02*
X2229Y1323D01*
X1253Y1322D02*
X1261Y1322D01*
X2221Y1322D02*
X2229Y1322D01*
X1253Y1321D02*
X1261Y1321D01*
X2222Y1321D02*
X2229Y1321D01*
X1252Y1320D02*
X1260Y1320D01*
X2222Y1320D02*
X2230Y1320D01*
X1252Y1319D02*
X1260Y1319D01*
X2223Y1319D02*
X2230Y1319D01*
X1251Y1318D02*
X1259Y1318D01*
X2223Y1318D02*
X2231Y1318D01*
X1251Y1317D02*
X1259Y1317D01*
X2224Y1317D02*
X2231Y1317D01*
X1251Y1316D02*
X1259Y1316D01*
X2224Y1316D02*
X2232Y1316D01*
X1250Y1315D02*
X1258Y1315D01*
X2224Y1315D02*
X2232Y1315D01*
X1250Y1314D02*
X1258Y1314D01*
X2225Y1314D02*
X2232Y1314D01*
X1250Y1313D02*
X1257Y1313D01*
X2225Y1313D02*
X2233Y1313D01*
X1249Y1312D02*
X1257Y1312D01*
X2226Y1312D02*
X2233Y1312D01*
X1249Y1311D02*
X1257Y1311D01*
X2226Y1311D02*
X2234Y1311D01*
X1248Y1310D02*
X1256Y1310D01*
X2226Y1310D02*
X2234Y1310D01*
X1248Y1309D02*
X1256Y1309D01*
X2227Y1309D02*
X2234Y1309D01*
X1248Y1308D02*
X1255Y1308D01*
X2227Y1308D02*
X2235Y1308D01*
X1247Y1307D02*
X1255Y1307D01*
X2228Y1307D02*
X2235Y1307D01*
X1247Y1306D02*
X1255Y1306D01*
X2228Y1306D02*
X2235Y1306D01*
X1247Y1305D02*
X1254Y1305D01*
X2228Y1305D02*
X2236Y1305D01*
X1246Y1304D02*
X1254Y1304D01*
X2229Y1304D02*
X2236Y1304D01*
X1246Y1303D02*
X1254Y1303D01*
X2229Y1303D02*
X2236Y1303D01*
X1246Y1302D02*
X1253Y1302D01*
X2229Y1302D02*
X2237Y1302D01*
X1245Y1301D02*
X1253Y1301D01*
X2230Y1301D02*
X2237Y1301D01*
X1245Y1300D02*
X1253Y1300D01*
X2230Y1300D02*
X2237Y1300D01*
X1245Y1299D02*
X1252Y1299D01*
X2230Y1299D02*
X2238Y1299D01*
X1245Y1298D02*
X1252Y1298D01*
X2230Y1298D02*
X2238Y1298D01*
X1244Y1297D02*
X1252Y1297D01*
X2231Y1297D02*
X2238Y1297D01*
X1244Y1296D02*
X1251Y1296D01*
X2231Y1296D02*
X2238Y1296D01*
X1244Y1295D02*
X1251Y1295D01*
X2231Y1295D02*
X2239Y1295D01*
X1243Y1294D02*
X1251Y1294D01*
X2232Y1294D02*
X2239Y1294D01*
X1243Y1293D02*
X1251Y1293D01*
X2232Y1293D02*
X2239Y1293D01*
X1243Y1292D02*
X1250Y1292D01*
X2232Y1292D02*
X2239Y1292D01*
X1243Y1291D02*
X1250Y1291D01*
X2232Y1291D02*
X2240Y1291D01*
X1243Y1290D02*
X1250Y1290D01*
X2233Y1290D02*
X2240Y1290D01*
X1242Y1289D02*
X1250Y1289D01*
X2233Y1289D02*
X2240Y1289D01*
X1242Y1288D02*
X1249Y1288D01*
X2233Y1288D02*
X2240Y1288D01*
X1242Y1287D02*
X1249Y1287D01*
X2233Y1287D02*
X2241Y1287D01*
X1242Y1286D02*
X1249Y1286D01*
X2234Y1286D02*
X2241Y1286D01*
X1241Y1285D02*
X1249Y1285D01*
X2234Y1285D02*
X2241Y1285D01*
X1241Y1284D02*
X1248Y1284D01*
X2234Y1284D02*
X2241Y1284D01*
X1241Y1283D02*
X1248Y1283D01*
X2234Y1283D02*
X2241Y1283D01*
X1241Y1282D02*
X1248Y1282D01*
X2234Y1282D02*
X2242Y1282D01*
X1241Y1281D02*
X1248Y1281D01*
X2235Y1281D02*
X2242Y1281D01*
X1241Y1280D02*
X1248Y1280D01*
X2235Y1280D02*
X2242Y1280D01*
X1240Y1279D02*
X1248Y1279D01*
X2235Y1279D02*
X2242Y1279D01*
X1240Y1278D02*
X1247Y1278D01*
X2235Y1278D02*
X2242Y1278D01*
X1240Y1277D02*
X1247Y1277D01*
X2235Y1277D02*
X2242Y1277D01*
X1240Y1276D02*
X1247Y1276D01*
X2236Y1276D02*
X2243Y1276D01*
X1240Y1275D02*
X1247Y1275D01*
X2236Y1275D02*
X2243Y1275D01*
X1240Y1274D02*
X1247Y1274D01*
X2236Y1274D02*
X2243Y1274D01*
X1239Y1273D02*
X1247Y1273D01*
X2236Y1273D02*
X2243Y1273D01*
X1239Y1272D02*
X1246Y1272D01*
X2236Y1272D02*
X2243Y1272D01*
X1239Y1271D02*
X1246Y1271D01*
X2236Y1271D02*
X2243Y1271D01*
X1239Y1270D02*
X1246Y1270D01*
X2236Y1270D02*
X2243Y1270D01*
X1239Y1269D02*
X1246Y1269D01*
X2236Y1269D02*
X2244Y1269D01*
X1239Y1268D02*
X1246Y1268D01*
X2237Y1268D02*
X2244Y1268D01*
X1239Y1267D02*
X1246Y1267D01*
X2237Y1267D02*
X2244Y1267D01*
X1239Y1266D02*
X1246Y1266D01*
X2237Y1266D02*
X2244Y1266D01*
X1239Y1265D02*
X1246Y1265D01*
X2237Y1265D02*
X2244Y1265D01*
X1239Y1264D02*
X1246Y1264D01*
X2237Y1264D02*
X2244Y1264D01*
X1238Y1263D02*
X1245Y1263D01*
X2237Y1263D02*
X2244Y1263D01*
X1238Y1262D02*
X1245Y1262D01*
X2237Y1262D02*
X2244Y1262D01*
X1238Y1261D02*
X1245Y1261D01*
X2237Y1261D02*
X2244Y1261D01*
X1238Y1260D02*
X1245Y1260D01*
X2237Y1260D02*
X2244Y1260D01*
X1238Y1259D02*
X1245Y1259D01*
X2237Y1259D02*
X2244Y1259D01*
X1238Y1258D02*
X1245Y1258D01*
X2237Y1258D02*
X2244Y1258D01*
X1238Y1257D02*
X1245Y1257D01*
X2237Y1257D02*
X2244Y1257D01*
X1238Y1256D02*
X1245Y1256D01*
X2237Y1256D02*
X2244Y1256D01*
X1238Y1255D02*
X1245Y1255D01*
X2237Y1255D02*
X2244Y1255D01*
X1238Y1254D02*
X1245Y1254D01*
X2238Y1254D02*
X2245Y1254D01*
X1238Y1253D02*
X1245Y1253D01*
X2238Y1253D02*
X2245Y1253D01*
X1238Y1252D02*
X1245Y1252D01*
X2238Y1252D02*
X2245Y1252D01*
X1238Y1251D02*
X1245Y1251D01*
X2238Y1251D02*
X2245Y1251D01*
X1238Y1250D02*
X1245Y1250D01*
X2238Y1250D02*
X2245Y1250D01*
X1238Y1249D02*
X1245Y1249D01*
X2238Y1249D02*
X2245Y1249D01*
X1238Y1248D02*
X1245Y1248D01*
X2238Y1248D02*
X2245Y1248D01*
X1238Y1247D02*
X1245Y1247D01*
X2238Y1247D02*
X2245Y1247D01*
X1238Y1246D02*
X1245Y1246D01*
X2238Y1246D02*
X2245Y1246D01*
X1238Y1245D02*
X1245Y1245D01*
X2238Y1245D02*
X2245Y1245D01*
X1238Y1244D02*
X1245Y1244D01*
X2238Y1244D02*
X2245Y1244D01*
X1238Y1243D02*
X1245Y1243D01*
X2238Y1243D02*
X2245Y1243D01*
X1238Y1242D02*
X1245Y1242D01*
X2238Y1242D02*
X2245Y1242D01*
X1238Y1241D02*
X1245Y1241D01*
X2238Y1241D02*
X2245Y1241D01*
X1238Y1240D02*
X1245Y1240D01*
X2238Y1240D02*
X2245Y1240D01*
X1238Y1239D02*
X1245Y1239D01*
X2238Y1239D02*
X2245Y1239D01*
X1238Y1238D02*
X1245Y1238D01*
X2238Y1238D02*
X2245Y1238D01*
X1238Y1237D02*
X1245Y1237D01*
X2238Y1237D02*
X2245Y1237D01*
X1238Y1236D02*
X1245Y1236D01*
X2238Y1236D02*
X2245Y1236D01*
X1238Y1235D02*
X1245Y1235D01*
X2238Y1235D02*
X2245Y1235D01*
X1238Y1234D02*
X1245Y1234D01*
X2238Y1234D02*
X2245Y1234D01*
X1238Y1233D02*
X1245Y1233D01*
X2238Y1233D02*
X2245Y1233D01*
X1238Y1232D02*
X1245Y1232D01*
X2238Y1232D02*
X2245Y1232D01*
X1238Y1231D02*
X1245Y1231D01*
X2238Y1231D02*
X2245Y1231D01*
X1238Y1230D02*
X1245Y1230D01*
X2238Y1230D02*
X2245Y1230D01*
X1238Y1229D02*
X1245Y1229D01*
X2238Y1229D02*
X2245Y1229D01*
X1238Y1228D02*
X1245Y1228D01*
X2238Y1228D02*
X2245Y1228D01*
X1238Y1227D02*
X1245Y1227D01*
X2238Y1227D02*
X2245Y1227D01*
X1238Y1226D02*
X1245Y1226D01*
X2238Y1226D02*
X2245Y1226D01*
X1238Y1225D02*
X1245Y1225D01*
X2238Y1225D02*
X2245Y1225D01*
X1238Y1224D02*
X1245Y1224D01*
X2238Y1224D02*
X2245Y1224D01*
X1238Y1223D02*
X1245Y1223D01*
X2238Y1223D02*
X2245Y1223D01*
X1238Y1222D02*
X1245Y1222D01*
X2238Y1222D02*
X2245Y1222D01*
X1238Y1221D02*
X1245Y1221D01*
X2238Y1221D02*
X2245Y1221D01*
X1238Y1220D02*
X1245Y1220D01*
X2238Y1220D02*
X2245Y1220D01*
X1238Y1219D02*
X1245Y1219D01*
X2238Y1219D02*
X2245Y1219D01*
X1238Y1218D02*
X1245Y1218D01*
X2238Y1218D02*
X2245Y1218D01*
X1238Y1217D02*
X1245Y1217D01*
X2238Y1217D02*
X2245Y1217D01*
X1238Y1216D02*
X1245Y1216D01*
X2238Y1216D02*
X2245Y1216D01*
X1238Y1215D02*
X1245Y1215D01*
X2238Y1215D02*
X2245Y1215D01*
X1238Y1214D02*
X1245Y1214D01*
X2238Y1214D02*
X2245Y1214D01*
X1238Y1213D02*
X1245Y1213D01*
X2238Y1213D02*
X2245Y1213D01*
X1238Y1212D02*
X1245Y1212D01*
X2238Y1212D02*
X2245Y1212D01*
X1238Y1211D02*
X1245Y1211D01*
X2238Y1211D02*
X2245Y1211D01*
X1238Y1210D02*
X1245Y1210D01*
X2238Y1210D02*
X2245Y1210D01*
X1238Y1209D02*
X1245Y1209D01*
X2238Y1209D02*
X2245Y1209D01*
X1238Y1208D02*
X1245Y1208D01*
X2238Y1208D02*
X2245Y1208D01*
X1238Y1207D02*
X1245Y1207D01*
X2238Y1207D02*
X2245Y1207D01*
X1238Y1206D02*
X1245Y1206D01*
X2238Y1206D02*
X2245Y1206D01*
X1238Y1205D02*
X1245Y1205D01*
X2238Y1205D02*
X2245Y1205D01*
X1238Y1204D02*
X1245Y1204D01*
X2238Y1204D02*
X2245Y1204D01*
X1238Y1203D02*
X1245Y1203D01*
X2238Y1203D02*
X2245Y1203D01*
X1238Y1202D02*
X1245Y1202D01*
X2238Y1202D02*
X2245Y1202D01*
X1238Y1201D02*
X1245Y1201D01*
X2238Y1201D02*
X2245Y1201D01*
X1238Y1200D02*
X1245Y1200D01*
X2238Y1200D02*
X2245Y1200D01*
X1238Y1199D02*
X1245Y1199D01*
X2238Y1199D02*
X2245Y1199D01*
X1238Y1198D02*
X1245Y1198D01*
X2238Y1198D02*
X2245Y1198D01*
X1238Y1197D02*
X1245Y1197D01*
X2238Y1197D02*
X2245Y1197D01*
X1238Y1196D02*
X1245Y1196D01*
X2238Y1196D02*
X2245Y1196D01*
X1238Y1195D02*
X1245Y1195D01*
X2238Y1195D02*
X2245Y1195D01*
X1238Y1194D02*
X1245Y1194D01*
X2238Y1194D02*
X2245Y1194D01*
X1238Y1193D02*
X1245Y1193D01*
X2238Y1193D02*
X2245Y1193D01*
X1238Y1192D02*
X1245Y1192D01*
X2238Y1192D02*
X2245Y1192D01*
X1238Y1191D02*
X1245Y1191D01*
X2238Y1191D02*
X2245Y1191D01*
X1238Y1190D02*
X1245Y1190D01*
X2238Y1190D02*
X2245Y1190D01*
X1238Y1189D02*
X1245Y1189D01*
X2238Y1189D02*
X2245Y1189D01*
X1238Y1188D02*
X1245Y1188D01*
X2238Y1188D02*
X2245Y1188D01*
X1238Y1187D02*
X1245Y1187D01*
X2238Y1187D02*
X2245Y1187D01*
X1238Y1186D02*
X1245Y1186D01*
X2238Y1186D02*
X2245Y1186D01*
X1238Y1185D02*
X1245Y1185D01*
X2113Y1185D02*
X2115Y1185D01*
X2238Y1185D02*
X2245Y1185D01*
X1238Y1184D02*
X1245Y1184D01*
X2112Y1184D02*
X2116Y1184D01*
X2238Y1184D02*
X2245Y1184D01*
X1238Y1183D02*
X1245Y1183D01*
X2112Y1183D02*
X2116Y1183D01*
X2238Y1183D02*
X2245Y1183D01*
X1238Y1182D02*
X1245Y1182D01*
X2112Y1182D02*
X2116Y1182D01*
X2238Y1182D02*
X2245Y1182D01*
X1238Y1181D02*
X1245Y1181D01*
X2112Y1181D02*
X2116Y1181D01*
X2238Y1181D02*
X2245Y1181D01*
X1238Y1180D02*
X1245Y1180D01*
X2112Y1180D02*
X2116Y1180D01*
X2238Y1180D02*
X2245Y1180D01*
X1238Y1179D02*
X1245Y1179D01*
X2112Y1179D02*
X2116Y1179D01*
X2238Y1179D02*
X2245Y1179D01*
X1238Y1178D02*
X1245Y1178D01*
X2112Y1178D02*
X2116Y1178D01*
X2238Y1178D02*
X2245Y1178D01*
X1238Y1177D02*
X1245Y1177D01*
X2112Y1177D02*
X2116Y1177D01*
X2238Y1177D02*
X2245Y1177D01*
X1238Y1176D02*
X1245Y1176D01*
X2112Y1176D02*
X2116Y1176D01*
X2238Y1176D02*
X2245Y1176D01*
X1238Y1175D02*
X1245Y1175D01*
X2081Y1175D02*
X2116Y1175D01*
X2238Y1175D02*
X2245Y1175D01*
X1238Y1174D02*
X1245Y1174D01*
X2081Y1174D02*
X2116Y1174D01*
X2238Y1174D02*
X2245Y1174D01*
X1238Y1173D02*
X1245Y1173D01*
X2080Y1173D02*
X2116Y1173D01*
X2238Y1173D02*
X2245Y1173D01*
X1238Y1172D02*
X1245Y1172D01*
X2080Y1172D02*
X2116Y1172D01*
X2238Y1172D02*
X2245Y1172D01*
X1238Y1171D02*
X1245Y1171D01*
X2081Y1171D02*
X2116Y1171D01*
X2238Y1171D02*
X2245Y1171D01*
X1238Y1170D02*
X1245Y1170D01*
X2083Y1170D02*
X2116Y1170D01*
X2238Y1170D02*
X2245Y1170D01*
X1238Y1169D02*
X1245Y1169D01*
X1368Y1169D02*
X1370Y1169D01*
X1398Y1169D02*
X1401Y1169D01*
X2112Y1169D02*
X2116Y1169D01*
X2238Y1169D02*
X2245Y1169D01*
X1238Y1168D02*
X1245Y1168D01*
X1367Y1168D02*
X1372Y1168D01*
X1397Y1168D02*
X1402Y1168D01*
X2112Y1168D02*
X2116Y1168D01*
X2238Y1168D02*
X2245Y1168D01*
X1238Y1167D02*
X1245Y1167D01*
X1367Y1167D02*
X1373Y1167D01*
X1395Y1167D02*
X1402Y1167D01*
X2112Y1167D02*
X2116Y1167D01*
X2238Y1167D02*
X2245Y1167D01*
X1238Y1166D02*
X1245Y1166D01*
X1367Y1166D02*
X1375Y1166D01*
X1394Y1166D02*
X1402Y1166D01*
X2112Y1166D02*
X2116Y1166D01*
X2238Y1166D02*
X2245Y1166D01*
X1238Y1165D02*
X1245Y1165D01*
X1368Y1165D02*
X1376Y1165D01*
X1392Y1165D02*
X1401Y1165D01*
X2112Y1165D02*
X2116Y1165D01*
X2238Y1165D02*
X2245Y1165D01*
X1238Y1164D02*
X1245Y1164D01*
X1369Y1164D02*
X1378Y1164D01*
X1391Y1164D02*
X1400Y1164D01*
X2112Y1164D02*
X2116Y1164D01*
X2238Y1164D02*
X2245Y1164D01*
X1238Y1163D02*
X1245Y1163D01*
X1370Y1163D02*
X1379Y1163D01*
X1389Y1163D02*
X1398Y1163D01*
X2112Y1163D02*
X2116Y1163D01*
X2238Y1163D02*
X2245Y1163D01*
X1238Y1162D02*
X1245Y1162D01*
X1372Y1162D02*
X1381Y1162D01*
X1388Y1162D02*
X1397Y1162D01*
X2112Y1162D02*
X2116Y1162D01*
X2238Y1162D02*
X2245Y1162D01*
X1238Y1161D02*
X1245Y1161D01*
X1373Y1161D02*
X1382Y1161D01*
X1386Y1161D02*
X1395Y1161D01*
X2112Y1161D02*
X2116Y1161D01*
X2238Y1161D02*
X2245Y1161D01*
X1238Y1160D02*
X1245Y1160D01*
X1375Y1160D02*
X1394Y1160D01*
X2113Y1160D02*
X2115Y1160D01*
X2238Y1160D02*
X2245Y1160D01*
X1238Y1159D02*
X1245Y1159D01*
X1376Y1159D02*
X1392Y1159D01*
X2238Y1159D02*
X2245Y1159D01*
X1238Y1158D02*
X1245Y1158D01*
X1378Y1158D02*
X1391Y1158D01*
X2238Y1158D02*
X2245Y1158D01*
X1238Y1157D02*
X1245Y1157D01*
X1379Y1157D02*
X1389Y1157D01*
X2238Y1157D02*
X2245Y1157D01*
X1238Y1156D02*
X1245Y1156D01*
X1379Y1156D02*
X1390Y1156D01*
X2238Y1156D02*
X2245Y1156D01*
X1238Y1155D02*
X1245Y1155D01*
X1377Y1155D02*
X1391Y1155D01*
X2238Y1155D02*
X2245Y1155D01*
X1238Y1154D02*
X1245Y1154D01*
X1376Y1154D02*
X1393Y1154D01*
X2087Y1154D02*
X2094Y1154D01*
X2238Y1154D02*
X2245Y1154D01*
X1238Y1153D02*
X1245Y1153D01*
X1374Y1153D02*
X1394Y1153D01*
X2086Y1153D02*
X2095Y1153D01*
X2107Y1153D02*
X2110Y1153D01*
X2238Y1153D02*
X2245Y1153D01*
X1238Y1152D02*
X1245Y1152D01*
X1373Y1152D02*
X1382Y1152D01*
X1387Y1152D02*
X1396Y1152D01*
X2085Y1152D02*
X2096Y1152D01*
X2106Y1152D02*
X2111Y1152D01*
X2238Y1152D02*
X2245Y1152D01*
X1238Y1151D02*
X1245Y1151D01*
X1372Y1151D02*
X1380Y1151D01*
X1388Y1151D02*
X1397Y1151D01*
X2084Y1151D02*
X2097Y1151D01*
X2106Y1151D02*
X2112Y1151D01*
X2238Y1151D02*
X2245Y1151D01*
X1238Y1150D02*
X1245Y1150D01*
X1370Y1150D02*
X1379Y1150D01*
X1390Y1150D02*
X1399Y1150D01*
X2083Y1150D02*
X2097Y1150D01*
X2107Y1150D02*
X2113Y1150D01*
X2238Y1150D02*
X2245Y1150D01*
X1238Y1149D02*
X1245Y1149D01*
X1369Y1149D02*
X1378Y1149D01*
X1391Y1149D02*
X1400Y1149D01*
X2082Y1149D02*
X2098Y1149D01*
X2107Y1149D02*
X2114Y1149D01*
X2238Y1149D02*
X2245Y1149D01*
X1238Y1148D02*
X1245Y1148D01*
X1367Y1148D02*
X1376Y1148D01*
X1393Y1148D02*
X1401Y1148D01*
X2081Y1148D02*
X2088Y1148D01*
X2093Y1148D02*
X2099Y1148D01*
X2108Y1148D02*
X2115Y1148D01*
X2238Y1148D02*
X2245Y1148D01*
X1238Y1147D02*
X1245Y1147D01*
X1367Y1147D02*
X1375Y1147D01*
X1394Y1147D02*
X1402Y1147D01*
X2080Y1147D02*
X2087Y1147D01*
X2094Y1147D02*
X2100Y1147D01*
X2109Y1147D02*
X2116Y1147D01*
X2238Y1147D02*
X2245Y1147D01*
X1238Y1146D02*
X1245Y1146D01*
X1367Y1146D02*
X1373Y1146D01*
X1396Y1146D02*
X1402Y1146D01*
X2080Y1146D02*
X2086Y1146D01*
X2094Y1146D02*
X2100Y1146D01*
X2110Y1146D02*
X2116Y1146D01*
X2238Y1146D02*
X2245Y1146D01*
X1238Y1145D02*
X1245Y1145D01*
X1367Y1145D02*
X1372Y1145D01*
X1397Y1145D02*
X1401Y1145D01*
X2080Y1145D02*
X2085Y1145D01*
X2095Y1145D02*
X2100Y1145D01*
X2111Y1145D02*
X2116Y1145D01*
X2238Y1145D02*
X2245Y1145D01*
X1238Y1144D02*
X1245Y1144D01*
X1368Y1144D02*
X1370Y1144D01*
X1399Y1144D02*
X1401Y1144D01*
X2080Y1144D02*
X2085Y1144D01*
X2095Y1144D02*
X2100Y1144D01*
X2112Y1144D02*
X2116Y1144D01*
X2238Y1144D02*
X2245Y1144D01*
X1238Y1143D02*
X1245Y1143D01*
X2080Y1143D02*
X2085Y1143D01*
X2095Y1143D02*
X2100Y1143D01*
X2112Y1143D02*
X2116Y1143D01*
X2238Y1143D02*
X2245Y1143D01*
X1238Y1142D02*
X1245Y1142D01*
X2080Y1142D02*
X2085Y1142D01*
X2095Y1142D02*
X2100Y1142D01*
X2112Y1142D02*
X2116Y1142D01*
X2238Y1142D02*
X2245Y1142D01*
X1238Y1141D02*
X1245Y1141D01*
X2080Y1141D02*
X2085Y1141D01*
X2095Y1141D02*
X2100Y1141D01*
X2112Y1141D02*
X2116Y1141D01*
X2238Y1141D02*
X2245Y1141D01*
X1238Y1140D02*
X1245Y1140D01*
X2080Y1140D02*
X2085Y1140D01*
X2095Y1140D02*
X2100Y1140D01*
X2112Y1140D02*
X2116Y1140D01*
X2238Y1140D02*
X2245Y1140D01*
X1238Y1139D02*
X1245Y1139D01*
X2080Y1139D02*
X2085Y1139D01*
X2095Y1139D02*
X2100Y1139D01*
X2112Y1139D02*
X2116Y1139D01*
X2238Y1139D02*
X2245Y1139D01*
X1238Y1138D02*
X1245Y1138D01*
X1399Y1138D02*
X1400Y1138D01*
X2080Y1138D02*
X2085Y1138D01*
X2095Y1138D02*
X2100Y1138D01*
X2112Y1138D02*
X2116Y1138D01*
X2238Y1138D02*
X2245Y1138D01*
X1238Y1137D02*
X1245Y1137D01*
X1398Y1137D02*
X1401Y1137D01*
X2080Y1137D02*
X2085Y1137D01*
X2095Y1137D02*
X2100Y1137D01*
X2111Y1137D02*
X2116Y1137D01*
X2238Y1137D02*
X2245Y1137D01*
X1238Y1136D02*
X1245Y1136D01*
X1397Y1136D02*
X1402Y1136D01*
X2080Y1136D02*
X2086Y1136D01*
X2095Y1136D02*
X2101Y1136D01*
X2110Y1136D02*
X2116Y1136D01*
X2238Y1136D02*
X2245Y1136D01*
X1238Y1135D02*
X1245Y1135D01*
X1397Y1135D02*
X1402Y1135D01*
X2080Y1135D02*
X2087Y1135D01*
X2095Y1135D02*
X2102Y1135D01*
X2109Y1135D02*
X2116Y1135D01*
X2238Y1135D02*
X2245Y1135D01*
X1238Y1134D02*
X1245Y1134D01*
X1397Y1134D02*
X1402Y1134D01*
X2081Y1134D02*
X2088Y1134D01*
X2096Y1134D02*
X2103Y1134D01*
X2108Y1134D02*
X2115Y1134D01*
X2238Y1134D02*
X2245Y1134D01*
X1238Y1133D02*
X1245Y1133D01*
X1397Y1133D02*
X1402Y1133D01*
X2082Y1133D02*
X2089Y1133D01*
X2097Y1133D02*
X2114Y1133D01*
X2238Y1133D02*
X2245Y1133D01*
X1238Y1132D02*
X1245Y1132D01*
X1397Y1132D02*
X1402Y1132D01*
X2083Y1132D02*
X2090Y1132D01*
X2098Y1132D02*
X2113Y1132D01*
X2238Y1132D02*
X2245Y1132D01*
X1238Y1131D02*
X1245Y1131D01*
X1397Y1131D02*
X1402Y1131D01*
X2084Y1131D02*
X2090Y1131D01*
X2099Y1131D02*
X2112Y1131D01*
X2238Y1131D02*
X2245Y1131D01*
X1238Y1130D02*
X1245Y1130D01*
X1397Y1130D02*
X1402Y1130D01*
X2085Y1130D02*
X2090Y1130D01*
X2100Y1130D02*
X2111Y1130D01*
X2238Y1130D02*
X2245Y1130D01*
X1238Y1129D02*
X1245Y1129D01*
X1397Y1129D02*
X1402Y1129D01*
X2086Y1129D02*
X2090Y1129D01*
X2101Y1129D02*
X2110Y1129D01*
X2238Y1129D02*
X2245Y1129D01*
X1238Y1128D02*
X1245Y1128D01*
X1397Y1128D02*
X1402Y1128D01*
X2088Y1128D02*
X2088Y1128D01*
X2102Y1128D02*
X2109Y1128D01*
X2238Y1128D02*
X2245Y1128D01*
X1238Y1127D02*
X1245Y1127D01*
X1368Y1127D02*
X1402Y1127D01*
X2238Y1127D02*
X2245Y1127D01*
X1238Y1126D02*
X1245Y1126D01*
X1367Y1126D02*
X1402Y1126D01*
X2238Y1126D02*
X2245Y1126D01*
X1238Y1125D02*
X1245Y1125D01*
X1367Y1125D02*
X1402Y1125D01*
X2238Y1125D02*
X2245Y1125D01*
X1238Y1124D02*
X1245Y1124D01*
X1367Y1124D02*
X1402Y1124D01*
X2238Y1124D02*
X2245Y1124D01*
X1238Y1123D02*
X1245Y1123D01*
X1368Y1123D02*
X1402Y1123D01*
X2238Y1123D02*
X2245Y1123D01*
X1238Y1122D02*
X1245Y1122D01*
X1370Y1122D02*
X1402Y1122D01*
X2081Y1122D02*
X2084Y1122D01*
X2096Y1122D02*
X2110Y1122D01*
X2238Y1122D02*
X2245Y1122D01*
X1238Y1121D02*
X1245Y1121D01*
X1397Y1121D02*
X1402Y1121D01*
X2080Y1121D02*
X2085Y1121D01*
X2095Y1121D02*
X2111Y1121D01*
X2238Y1121D02*
X2245Y1121D01*
X1238Y1120D02*
X1245Y1120D01*
X1397Y1120D02*
X1402Y1120D01*
X2080Y1120D02*
X2086Y1120D01*
X2095Y1120D02*
X2112Y1120D01*
X2238Y1120D02*
X2245Y1120D01*
X1238Y1119D02*
X1245Y1119D01*
X1397Y1119D02*
X1402Y1119D01*
X2080Y1119D02*
X2087Y1119D01*
X2094Y1119D02*
X2113Y1119D01*
X2238Y1119D02*
X2245Y1119D01*
X1238Y1118D02*
X1245Y1118D01*
X1397Y1118D02*
X1402Y1118D01*
X2081Y1118D02*
X2088Y1118D01*
X2093Y1118D02*
X2114Y1118D01*
X2238Y1118D02*
X2245Y1118D01*
X1238Y1117D02*
X1245Y1117D01*
X1397Y1117D02*
X1402Y1117D01*
X2082Y1117D02*
X2089Y1117D01*
X2092Y1117D02*
X2099Y1117D01*
X2107Y1117D02*
X2115Y1117D01*
X2238Y1117D02*
X2245Y1117D01*
X1238Y1116D02*
X1245Y1116D01*
X1397Y1116D02*
X1402Y1116D01*
X2083Y1116D02*
X2098Y1116D01*
X2109Y1116D02*
X2116Y1116D01*
X2238Y1116D02*
X2245Y1116D01*
X1238Y1115D02*
X1245Y1115D01*
X1397Y1115D02*
X1402Y1115D01*
X2084Y1115D02*
X2097Y1115D01*
X2110Y1115D02*
X2116Y1115D01*
X2238Y1115D02*
X2245Y1115D01*
X1238Y1114D02*
X1245Y1114D01*
X1398Y1114D02*
X1402Y1114D01*
X2085Y1114D02*
X2096Y1114D01*
X2111Y1114D02*
X2116Y1114D01*
X2238Y1114D02*
X2245Y1114D01*
X1238Y1113D02*
X1245Y1113D01*
X1398Y1113D02*
X1401Y1113D01*
X2086Y1113D02*
X2096Y1113D01*
X2111Y1113D02*
X2116Y1113D01*
X2238Y1113D02*
X2245Y1113D01*
X1238Y1112D02*
X1245Y1112D01*
X2087Y1112D02*
X2095Y1112D01*
X2112Y1112D02*
X2116Y1112D01*
X2238Y1112D02*
X2245Y1112D01*
X1238Y1111D02*
X1245Y1111D01*
X2088Y1111D02*
X2095Y1111D01*
X2112Y1111D02*
X2116Y1111D01*
X2238Y1111D02*
X2245Y1111D01*
X1238Y1110D02*
X1245Y1110D01*
X2089Y1110D02*
X2096Y1110D01*
X2112Y1110D02*
X2116Y1110D01*
X2238Y1110D02*
X2245Y1110D01*
X1238Y1109D02*
X1245Y1109D01*
X2090Y1109D02*
X2096Y1109D01*
X2112Y1109D02*
X2116Y1109D01*
X2238Y1109D02*
X2245Y1109D01*
X1238Y1108D02*
X1245Y1108D01*
X2091Y1108D02*
X2096Y1108D01*
X2112Y1108D02*
X2116Y1108D01*
X2238Y1108D02*
X2245Y1108D01*
X1238Y1107D02*
X1245Y1107D01*
X2091Y1107D02*
X2095Y1107D01*
X2112Y1107D02*
X2116Y1107D01*
X2238Y1107D02*
X2245Y1107D01*
X1238Y1106D02*
X1245Y1106D01*
X2091Y1106D02*
X2095Y1106D01*
X2112Y1106D02*
X2116Y1106D01*
X2238Y1106D02*
X2245Y1106D01*
X1238Y1105D02*
X1245Y1105D01*
X2091Y1105D02*
X2095Y1105D01*
X2112Y1105D02*
X2116Y1105D01*
X2238Y1105D02*
X2245Y1105D01*
X1238Y1104D02*
X1245Y1104D01*
X2091Y1104D02*
X2095Y1104D01*
X2112Y1104D02*
X2116Y1104D01*
X2238Y1104D02*
X2245Y1104D01*
X1238Y1103D02*
X1245Y1103D01*
X2091Y1103D02*
X2095Y1103D01*
X2112Y1103D02*
X2116Y1103D01*
X2238Y1103D02*
X2245Y1103D01*
X1238Y1102D02*
X1245Y1102D01*
X2083Y1102D02*
X2116Y1102D01*
X2238Y1102D02*
X2245Y1102D01*
X1238Y1101D02*
X1245Y1101D01*
X2081Y1101D02*
X2116Y1101D01*
X2238Y1101D02*
X2245Y1101D01*
X1238Y1100D02*
X1245Y1100D01*
X2080Y1100D02*
X2116Y1100D01*
X2238Y1100D02*
X2245Y1100D01*
X1238Y1099D02*
X1245Y1099D01*
X2080Y1099D02*
X2116Y1099D01*
X2238Y1099D02*
X2245Y1099D01*
X1238Y1098D02*
X1245Y1098D01*
X2081Y1098D02*
X2116Y1098D01*
X2238Y1098D02*
X2245Y1098D01*
X1238Y1097D02*
X1245Y1097D01*
X2081Y1097D02*
X2115Y1097D01*
X2238Y1097D02*
X2245Y1097D01*
X1238Y1096D02*
X1245Y1096D01*
X2238Y1096D02*
X2245Y1096D01*
X1238Y1095D02*
X1245Y1095D01*
X2238Y1095D02*
X2245Y1095D01*
X1238Y1094D02*
X1245Y1094D01*
X2238Y1094D02*
X2245Y1094D01*
X1238Y1093D02*
X1245Y1093D01*
X2238Y1093D02*
X2245Y1093D01*
X1238Y1092D02*
X1245Y1092D01*
X2238Y1092D02*
X2245Y1092D01*
X1238Y1091D02*
X1245Y1091D01*
X2238Y1091D02*
X2245Y1091D01*
X1238Y1090D02*
X1245Y1090D01*
X2238Y1090D02*
X2245Y1090D01*
X1238Y1089D02*
X1245Y1089D01*
X2238Y1089D02*
X2245Y1089D01*
X1238Y1088D02*
X1245Y1088D01*
X2238Y1088D02*
X2245Y1088D01*
X1238Y1087D02*
X1245Y1087D01*
X2238Y1087D02*
X2245Y1087D01*
X1238Y1086D02*
X1245Y1086D01*
X2238Y1086D02*
X2245Y1086D01*
X1238Y1085D02*
X1245Y1085D01*
X2238Y1085D02*
X2245Y1085D01*
X1238Y1084D02*
X1245Y1084D01*
X2238Y1084D02*
X2245Y1084D01*
X1238Y1083D02*
X1245Y1083D01*
X2238Y1083D02*
X2245Y1083D01*
X1238Y1082D02*
X1245Y1082D01*
X2238Y1082D02*
X2245Y1082D01*
X1238Y1081D02*
X1245Y1081D01*
X2238Y1081D02*
X2245Y1081D01*
X1238Y1080D02*
X1245Y1080D01*
X2238Y1080D02*
X2245Y1080D01*
X1238Y1079D02*
X1245Y1079D01*
X2238Y1079D02*
X2245Y1079D01*
X1238Y1078D02*
X1245Y1078D01*
X2238Y1078D02*
X2245Y1078D01*
X1238Y1077D02*
X1245Y1077D01*
X2238Y1077D02*
X2245Y1077D01*
X1238Y1076D02*
X1245Y1076D01*
X2238Y1076D02*
X2245Y1076D01*
X1238Y1075D02*
X1245Y1075D01*
X2238Y1075D02*
X2245Y1075D01*
X1238Y1074D02*
X1245Y1074D01*
X2238Y1074D02*
X2245Y1074D01*
X1238Y1073D02*
X1245Y1073D01*
X2238Y1073D02*
X2245Y1073D01*
X1238Y1072D02*
X1245Y1072D01*
X2238Y1072D02*
X2245Y1072D01*
X1238Y1071D02*
X1245Y1071D01*
X2238Y1071D02*
X2245Y1071D01*
X1238Y1070D02*
X1245Y1070D01*
X2109Y1070D02*
X2109Y1070D01*
X2238Y1070D02*
X2245Y1070D01*
X1238Y1069D02*
X1245Y1069D01*
X1367Y1069D02*
X1370Y1069D01*
X1399Y1069D02*
X1401Y1069D01*
X2086Y1069D02*
X2111Y1069D01*
X2238Y1069D02*
X2245Y1069D01*
X1238Y1068D02*
X1245Y1068D01*
X1367Y1068D02*
X1372Y1068D01*
X1397Y1068D02*
X1402Y1068D01*
X2085Y1068D02*
X2111Y1068D01*
X2238Y1068D02*
X2245Y1068D01*
X1238Y1067D02*
X1245Y1067D01*
X1366Y1067D02*
X1373Y1067D01*
X1396Y1067D02*
X1402Y1067D01*
X2084Y1067D02*
X2112Y1067D01*
X2238Y1067D02*
X2245Y1067D01*
X1238Y1066D02*
X1245Y1066D01*
X1367Y1066D02*
X1375Y1066D01*
X1394Y1066D02*
X1402Y1066D01*
X2083Y1066D02*
X2113Y1066D01*
X2238Y1066D02*
X2245Y1066D01*
X1238Y1065D02*
X1245Y1065D01*
X1367Y1065D02*
X1376Y1065D01*
X1392Y1065D02*
X1401Y1065D01*
X2083Y1065D02*
X2114Y1065D01*
X2238Y1065D02*
X2245Y1065D01*
X1238Y1064D02*
X1245Y1064D01*
X1369Y1064D02*
X1378Y1064D01*
X1391Y1064D02*
X1400Y1064D01*
X2082Y1064D02*
X2088Y1064D01*
X2102Y1064D02*
X2115Y1064D01*
X2238Y1064D02*
X2245Y1064D01*
X1238Y1063D02*
X1245Y1063D01*
X1370Y1063D02*
X1379Y1063D01*
X1389Y1063D02*
X1399Y1063D01*
X2081Y1063D02*
X2087Y1063D01*
X2101Y1063D02*
X2115Y1063D01*
X2238Y1063D02*
X2245Y1063D01*
X1238Y1062D02*
X1245Y1062D01*
X1372Y1062D02*
X1381Y1062D01*
X1388Y1062D02*
X1397Y1062D01*
X2080Y1062D02*
X2086Y1062D01*
X2100Y1062D02*
X2107Y1062D01*
X2110Y1062D02*
X2116Y1062D01*
X2238Y1062D02*
X2245Y1062D01*
X1238Y1061D02*
X1245Y1061D01*
X1373Y1061D02*
X1382Y1061D01*
X1386Y1061D02*
X1395Y1061D01*
X2080Y1061D02*
X2086Y1061D01*
X2099Y1061D02*
X2106Y1061D01*
X2111Y1061D02*
X2116Y1061D01*
X2238Y1061D02*
X2245Y1061D01*
X1238Y1060D02*
X1245Y1060D01*
X1375Y1060D02*
X1394Y1060D01*
X2081Y1060D02*
X2085Y1060D01*
X2098Y1060D02*
X2105Y1060D01*
X2111Y1060D02*
X2116Y1060D01*
X2238Y1060D02*
X2245Y1060D01*
X1238Y1059D02*
X1245Y1059D01*
X1376Y1059D02*
X1392Y1059D01*
X2081Y1059D02*
X2085Y1059D01*
X2097Y1059D02*
X2104Y1059D01*
X2111Y1059D02*
X2116Y1059D01*
X2238Y1059D02*
X2245Y1059D01*
X1238Y1058D02*
X1245Y1058D01*
X1378Y1058D02*
X1391Y1058D01*
X2081Y1058D02*
X2085Y1058D01*
X2096Y1058D02*
X2103Y1058D01*
X2111Y1058D02*
X2116Y1058D01*
X2238Y1058D02*
X2245Y1058D01*
X1238Y1057D02*
X1245Y1057D01*
X1379Y1057D02*
X1389Y1057D01*
X2081Y1057D02*
X2085Y1057D01*
X2095Y1057D02*
X2102Y1057D01*
X2111Y1057D02*
X2116Y1057D01*
X2238Y1057D02*
X2245Y1057D01*
X1238Y1056D02*
X1245Y1056D01*
X1379Y1056D02*
X1390Y1056D01*
X2081Y1056D02*
X2085Y1056D01*
X2094Y1056D02*
X2101Y1056D01*
X2111Y1056D02*
X2116Y1056D01*
X2238Y1056D02*
X2245Y1056D01*
X1238Y1055D02*
X1245Y1055D01*
X1377Y1055D02*
X1391Y1055D01*
X2081Y1055D02*
X2085Y1055D01*
X2093Y1055D02*
X2100Y1055D01*
X2111Y1055D02*
X2116Y1055D01*
X2238Y1055D02*
X2245Y1055D01*
X1238Y1054D02*
X1245Y1054D01*
X1376Y1054D02*
X1393Y1054D01*
X2081Y1054D02*
X2085Y1054D01*
X2092Y1054D02*
X2099Y1054D01*
X2111Y1054D02*
X2116Y1054D01*
X2238Y1054D02*
X2245Y1054D01*
X1238Y1053D02*
X1245Y1053D01*
X1374Y1053D02*
X1383Y1053D01*
X1385Y1053D02*
X1394Y1053D01*
X2081Y1053D02*
X2085Y1053D01*
X2091Y1053D02*
X2098Y1053D01*
X2111Y1053D02*
X2116Y1053D01*
X2238Y1053D02*
X2245Y1053D01*
X1238Y1052D02*
X1245Y1052D01*
X1373Y1052D02*
X1382Y1052D01*
X1387Y1052D02*
X1396Y1052D01*
X2080Y1052D02*
X2086Y1052D01*
X2090Y1052D02*
X2097Y1052D01*
X2110Y1052D02*
X2116Y1052D01*
X2238Y1052D02*
X2245Y1052D01*
X1238Y1051D02*
X1245Y1051D01*
X1371Y1051D02*
X1380Y1051D01*
X1388Y1051D02*
X1397Y1051D01*
X2081Y1051D02*
X2087Y1051D01*
X2089Y1051D02*
X2096Y1051D01*
X2110Y1051D02*
X2116Y1051D01*
X2238Y1051D02*
X2245Y1051D01*
X1238Y1050D02*
X1245Y1050D01*
X1370Y1050D02*
X1379Y1050D01*
X1390Y1050D02*
X1399Y1050D01*
X2081Y1050D02*
X2095Y1050D01*
X2109Y1050D02*
X2115Y1050D01*
X2238Y1050D02*
X2245Y1050D01*
X1238Y1049D02*
X1245Y1049D01*
X1368Y1049D02*
X1377Y1049D01*
X1391Y1049D02*
X1401Y1049D01*
X2082Y1049D02*
X2114Y1049D01*
X2238Y1049D02*
X2245Y1049D01*
X1238Y1048D02*
X1245Y1048D01*
X1367Y1048D02*
X1376Y1048D01*
X1393Y1048D02*
X1402Y1048D01*
X2083Y1048D02*
X2113Y1048D01*
X2238Y1048D02*
X2245Y1048D01*
X1238Y1047D02*
X1245Y1047D01*
X1366Y1047D02*
X1374Y1047D01*
X1394Y1047D02*
X1402Y1047D01*
X2084Y1047D02*
X2113Y1047D01*
X2238Y1047D02*
X2245Y1047D01*
X1238Y1046D02*
X1245Y1046D01*
X1366Y1046D02*
X1373Y1046D01*
X1396Y1046D02*
X1402Y1046D01*
X2085Y1046D02*
X2112Y1046D01*
X2238Y1046D02*
X2245Y1046D01*
X1238Y1045D02*
X1245Y1045D01*
X1367Y1045D02*
X1371Y1045D01*
X1398Y1045D02*
X1402Y1045D01*
X2085Y1045D02*
X2111Y1045D01*
X2238Y1045D02*
X2245Y1045D01*
X1238Y1044D02*
X1245Y1044D01*
X1368Y1044D02*
X1370Y1044D01*
X1399Y1044D02*
X1401Y1044D01*
X2086Y1044D02*
X2110Y1044D01*
X2238Y1044D02*
X2245Y1044D01*
X1238Y1043D02*
X1245Y1043D01*
X2238Y1043D02*
X2245Y1043D01*
X1238Y1042D02*
X1245Y1042D01*
X2238Y1042D02*
X2245Y1042D01*
X1238Y1041D02*
X1245Y1041D01*
X2238Y1041D02*
X2245Y1041D01*
X1238Y1040D02*
X1245Y1040D01*
X2238Y1040D02*
X2245Y1040D01*
X1238Y1039D02*
X1245Y1039D01*
X2238Y1039D02*
X2245Y1039D01*
X1238Y1038D02*
X1245Y1038D01*
X1368Y1038D02*
X1369Y1038D01*
X1383Y1038D02*
X1396Y1038D01*
X2082Y1038D02*
X2105Y1038D01*
X2238Y1038D02*
X2245Y1038D01*
X1238Y1037D02*
X1245Y1037D01*
X1367Y1037D02*
X1371Y1037D01*
X1382Y1037D02*
X1397Y1037D01*
X2081Y1037D02*
X2106Y1037D01*
X2238Y1037D02*
X2245Y1037D01*
X1238Y1036D02*
X1245Y1036D01*
X1366Y1036D02*
X1372Y1036D01*
X1381Y1036D02*
X1398Y1036D01*
X2081Y1036D02*
X2106Y1036D01*
X2238Y1036D02*
X2245Y1036D01*
X1238Y1035D02*
X1245Y1035D01*
X1366Y1035D02*
X1373Y1035D01*
X1380Y1035D02*
X1399Y1035D01*
X2081Y1035D02*
X2107Y1035D01*
X2238Y1035D02*
X2245Y1035D01*
X1238Y1034D02*
X1245Y1034D01*
X1367Y1034D02*
X1374Y1034D01*
X1379Y1034D02*
X1400Y1034D01*
X2081Y1034D02*
X2108Y1034D01*
X2238Y1034D02*
X2245Y1034D01*
X1238Y1033D02*
X1245Y1033D01*
X1368Y1033D02*
X1375Y1033D01*
X1379Y1033D02*
X1401Y1033D01*
X2082Y1033D02*
X2109Y1033D01*
X2238Y1033D02*
X2245Y1033D01*
X1238Y1032D02*
X1245Y1032D01*
X1369Y1032D02*
X1376Y1032D01*
X1378Y1032D02*
X1384Y1032D01*
X1395Y1032D02*
X1402Y1032D01*
X2096Y1032D02*
X2100Y1032D01*
X2103Y1032D02*
X2110Y1032D01*
X2238Y1032D02*
X2245Y1032D01*
X1238Y1031D02*
X1245Y1031D01*
X1370Y1031D02*
X1383Y1031D01*
X1396Y1031D02*
X1402Y1031D01*
X2096Y1031D02*
X2100Y1031D01*
X2104Y1031D02*
X2111Y1031D01*
X2238Y1031D02*
X2245Y1031D01*
X1238Y1030D02*
X1245Y1030D01*
X1371Y1030D02*
X1382Y1030D01*
X1397Y1030D02*
X1403Y1030D01*
X2096Y1030D02*
X2100Y1030D01*
X2105Y1030D02*
X2112Y1030D01*
X2238Y1030D02*
X2245Y1030D01*
X1238Y1029D02*
X1245Y1029D01*
X1372Y1029D02*
X1382Y1029D01*
X1398Y1029D02*
X1402Y1029D01*
X2096Y1029D02*
X2100Y1029D01*
X2106Y1029D02*
X2113Y1029D01*
X2238Y1029D02*
X2245Y1029D01*
X1238Y1028D02*
X1245Y1028D01*
X1373Y1028D02*
X1382Y1028D01*
X1398Y1028D02*
X1402Y1028D01*
X2096Y1028D02*
X2100Y1028D01*
X2107Y1028D02*
X2114Y1028D01*
X2238Y1028D02*
X2245Y1028D01*
X1238Y1027D02*
X1245Y1027D01*
X1374Y1027D02*
X1382Y1027D01*
X1398Y1027D02*
X1402Y1027D01*
X2096Y1027D02*
X2100Y1027D01*
X2108Y1027D02*
X2115Y1027D01*
X2238Y1027D02*
X2245Y1027D01*
X1238Y1026D02*
X1245Y1026D01*
X1375Y1026D02*
X1382Y1026D01*
X1398Y1026D02*
X1402Y1026D01*
X2096Y1026D02*
X2100Y1026D01*
X2109Y1026D02*
X2116Y1026D01*
X2238Y1026D02*
X2245Y1026D01*
X1238Y1025D02*
X1245Y1025D01*
X1376Y1025D02*
X1382Y1025D01*
X1398Y1025D02*
X1402Y1025D01*
X2096Y1025D02*
X2100Y1025D01*
X2110Y1025D02*
X2116Y1025D01*
X2238Y1025D02*
X2245Y1025D01*
X1238Y1024D02*
X1245Y1024D01*
X1377Y1024D02*
X1382Y1024D01*
X1398Y1024D02*
X1402Y1024D01*
X2096Y1024D02*
X2100Y1024D01*
X2109Y1024D02*
X2116Y1024D01*
X2238Y1024D02*
X2245Y1024D01*
X1238Y1023D02*
X1245Y1023D01*
X1377Y1023D02*
X1382Y1023D01*
X1398Y1023D02*
X1402Y1023D01*
X2096Y1023D02*
X2100Y1023D01*
X2108Y1023D02*
X2115Y1023D01*
X2238Y1023D02*
X2245Y1023D01*
X1238Y1022D02*
X1245Y1022D01*
X1377Y1022D02*
X1382Y1022D01*
X1398Y1022D02*
X1402Y1022D01*
X2096Y1022D02*
X2100Y1022D01*
X2107Y1022D02*
X2114Y1022D01*
X2238Y1022D02*
X2245Y1022D01*
X1238Y1021D02*
X1245Y1021D01*
X1377Y1021D02*
X1382Y1021D01*
X1398Y1021D02*
X1402Y1021D01*
X2096Y1021D02*
X2100Y1021D01*
X2106Y1021D02*
X2113Y1021D01*
X2238Y1021D02*
X2245Y1021D01*
X1238Y1020D02*
X1245Y1020D01*
X1377Y1020D02*
X1382Y1020D01*
X1398Y1020D02*
X1402Y1020D01*
X2096Y1020D02*
X2100Y1020D01*
X2105Y1020D02*
X2112Y1020D01*
X2238Y1020D02*
X2245Y1020D01*
X1238Y1019D02*
X1245Y1019D01*
X1377Y1019D02*
X1382Y1019D01*
X1398Y1019D02*
X1402Y1019D01*
X2096Y1019D02*
X2100Y1019D01*
X2104Y1019D02*
X2111Y1019D01*
X2238Y1019D02*
X2245Y1019D01*
X1238Y1018D02*
X1245Y1018D01*
X1377Y1018D02*
X1382Y1018D01*
X1398Y1018D02*
X1402Y1018D01*
X2096Y1018D02*
X2101Y1018D01*
X2103Y1018D02*
X2110Y1018D01*
X2238Y1018D02*
X2245Y1018D01*
X1238Y1017D02*
X1245Y1017D01*
X1367Y1017D02*
X1402Y1017D01*
X2082Y1017D02*
X2109Y1017D01*
X2238Y1017D02*
X2245Y1017D01*
X1238Y1016D02*
X1245Y1016D01*
X1367Y1016D02*
X1402Y1016D01*
X2081Y1016D02*
X2108Y1016D01*
X2238Y1016D02*
X2245Y1016D01*
X1238Y1015D02*
X1245Y1015D01*
X1366Y1015D02*
X1403Y1015D01*
X2081Y1015D02*
X2107Y1015D01*
X2238Y1015D02*
X2245Y1015D01*
X1238Y1014D02*
X1245Y1014D01*
X1367Y1014D02*
X1402Y1014D01*
X2081Y1014D02*
X2106Y1014D01*
X2238Y1014D02*
X2245Y1014D01*
X1238Y1013D02*
X1245Y1013D01*
X1367Y1013D02*
X1402Y1013D01*
X2081Y1013D02*
X2105Y1013D01*
X2238Y1013D02*
X2245Y1013D01*
X1238Y1012D02*
X1245Y1012D01*
X1379Y1012D02*
X1380Y1012D01*
X1400Y1012D02*
X1400Y1012D01*
X2098Y1012D02*
X2098Y1012D01*
X2103Y1012D02*
X2103Y1012D01*
X2238Y1012D02*
X2245Y1012D01*
X1238Y1011D02*
X1245Y1011D01*
X2238Y1011D02*
X2245Y1011D01*
X1238Y1010D02*
X1245Y1010D01*
X2238Y1010D02*
X2245Y1010D01*
X1238Y1009D02*
X1245Y1009D01*
X2238Y1009D02*
X2245Y1009D01*
X1238Y1008D02*
X1245Y1008D01*
X2238Y1008D02*
X2245Y1008D01*
X1238Y1007D02*
X1245Y1007D01*
X2238Y1007D02*
X2245Y1007D01*
X1238Y1006D02*
X1245Y1006D01*
X2238Y1006D02*
X2245Y1006D01*
X1238Y1005D02*
X1245Y1005D01*
X2238Y1005D02*
X2245Y1005D01*
X1238Y1004D02*
X1245Y1004D01*
X2238Y1004D02*
X2245Y1004D01*
X1238Y1003D02*
X1245Y1003D01*
X2238Y1003D02*
X2245Y1003D01*
X1238Y1002D02*
X1245Y1002D01*
X2238Y1002D02*
X2245Y1002D01*
X1238Y1001D02*
X1245Y1001D01*
X2238Y1001D02*
X2245Y1001D01*
X1238Y1000D02*
X1245Y1000D01*
X2238Y1000D02*
X2245Y1000D01*
X1238Y999D02*
X1245Y999D01*
X2238Y999D02*
X2245Y999D01*
X1238Y998D02*
X1245Y998D01*
X2238Y998D02*
X2245Y998D01*
X1238Y997D02*
X1245Y997D01*
X2238Y997D02*
X2245Y997D01*
X1238Y996D02*
X1245Y996D01*
X2238Y996D02*
X2245Y996D01*
X1238Y995D02*
X1245Y995D01*
X2238Y995D02*
X2245Y995D01*
X1238Y994D02*
X1245Y994D01*
X2238Y994D02*
X2245Y994D01*
X1238Y993D02*
X1245Y993D01*
X2238Y993D02*
X2245Y993D01*
X1238Y992D02*
X1245Y992D01*
X2238Y992D02*
X2245Y992D01*
X1238Y991D02*
X1245Y991D01*
X2238Y991D02*
X2245Y991D01*
X1238Y990D02*
X1245Y990D01*
X2238Y990D02*
X2245Y990D01*
X1238Y989D02*
X1245Y989D01*
X2238Y989D02*
X2245Y989D01*
X1238Y988D02*
X1245Y988D01*
X2238Y988D02*
X2245Y988D01*
X1238Y987D02*
X1245Y987D01*
X2238Y987D02*
X2245Y987D01*
X1238Y986D02*
X1245Y986D01*
X2238Y986D02*
X2245Y986D01*
X1238Y985D02*
X1245Y985D01*
X2238Y985D02*
X2245Y985D01*
X1238Y984D02*
X1245Y984D01*
X2238Y984D02*
X2245Y984D01*
X1238Y983D02*
X1245Y983D01*
X2238Y983D02*
X2245Y983D01*
X1238Y982D02*
X1245Y982D01*
X2238Y982D02*
X2245Y982D01*
X1238Y981D02*
X1245Y981D01*
X2238Y981D02*
X2245Y981D01*
X1238Y980D02*
X1245Y980D01*
X2238Y980D02*
X2245Y980D01*
X1238Y979D02*
X1245Y979D01*
X2238Y979D02*
X2245Y979D01*
X1238Y978D02*
X1245Y978D01*
X2238Y978D02*
X2245Y978D01*
X1238Y977D02*
X1245Y977D01*
X2238Y977D02*
X2245Y977D01*
X1238Y976D02*
X1245Y976D01*
X2238Y976D02*
X2245Y976D01*
X1238Y975D02*
X1245Y975D01*
X2238Y975D02*
X2245Y975D01*
X1238Y974D02*
X1245Y974D01*
X2238Y974D02*
X2245Y974D01*
X1238Y973D02*
X1245Y973D01*
X2238Y973D02*
X2245Y973D01*
X1238Y972D02*
X1245Y972D01*
X2238Y972D02*
X2245Y972D01*
X1238Y971D02*
X1245Y971D01*
X2238Y971D02*
X2245Y971D01*
X1238Y970D02*
X1245Y970D01*
X2108Y970D02*
X2108Y970D01*
X2238Y970D02*
X2245Y970D01*
X1238Y969D02*
X1245Y969D01*
X1368Y969D02*
X1370Y969D01*
X2086Y969D02*
X2110Y969D01*
X2238Y969D02*
X2245Y969D01*
X1238Y968D02*
X1245Y968D01*
X1367Y968D02*
X1371Y968D01*
X2085Y968D02*
X2111Y968D01*
X2238Y968D02*
X2245Y968D01*
X1238Y967D02*
X1245Y967D01*
X1367Y967D02*
X1371Y967D01*
X2084Y967D02*
X2112Y967D01*
X2238Y967D02*
X2245Y967D01*
X1238Y966D02*
X1245Y966D01*
X1367Y966D02*
X1371Y966D01*
X2083Y966D02*
X2113Y966D01*
X2238Y966D02*
X2245Y966D01*
X1238Y965D02*
X1245Y965D01*
X1367Y965D02*
X1371Y965D01*
X2082Y965D02*
X2114Y965D01*
X2238Y965D02*
X2245Y965D01*
X1238Y964D02*
X1245Y964D01*
X1367Y964D02*
X1371Y964D01*
X2081Y964D02*
X2089Y964D01*
X2102Y964D02*
X2115Y964D01*
X2238Y964D02*
X2245Y964D01*
X1238Y963D02*
X1245Y963D01*
X1367Y963D02*
X1371Y963D01*
X2080Y963D02*
X2087Y963D01*
X2101Y963D02*
X2116Y963D01*
X2238Y963D02*
X2245Y963D01*
X1238Y962D02*
X1245Y962D01*
X1367Y962D02*
X1371Y962D01*
X2080Y962D02*
X2086Y962D01*
X2100Y962D02*
X2107Y962D01*
X2110Y962D02*
X2116Y962D01*
X2238Y962D02*
X2245Y962D01*
X1238Y961D02*
X1245Y961D01*
X1367Y961D02*
X1371Y961D01*
X2080Y961D02*
X2085Y961D01*
X2099Y961D02*
X2106Y961D01*
X2111Y961D02*
X2116Y961D01*
X2238Y961D02*
X2245Y961D01*
X1238Y960D02*
X1245Y960D01*
X1367Y960D02*
X1372Y960D01*
X1399Y960D02*
X1400Y960D01*
X2080Y960D02*
X2085Y960D01*
X2098Y960D02*
X2105Y960D01*
X2111Y960D02*
X2116Y960D01*
X2238Y960D02*
X2245Y960D01*
X1238Y959D02*
X1245Y959D01*
X1367Y959D02*
X1401Y959D01*
X2080Y959D02*
X2085Y959D01*
X2097Y959D02*
X2104Y959D01*
X2112Y959D02*
X2116Y959D01*
X2238Y959D02*
X2245Y959D01*
X1238Y958D02*
X1245Y958D01*
X1367Y958D02*
X1402Y958D01*
X2080Y958D02*
X2085Y958D01*
X2096Y958D02*
X2103Y958D01*
X2112Y958D02*
X2116Y958D01*
X2238Y958D02*
X2245Y958D01*
X1238Y957D02*
X1245Y957D01*
X1367Y957D02*
X1402Y957D01*
X2080Y957D02*
X2085Y957D01*
X2095Y957D02*
X2102Y957D01*
X2112Y957D02*
X2116Y957D01*
X2238Y957D02*
X2245Y957D01*
X1238Y956D02*
X1245Y956D01*
X1367Y956D02*
X1402Y956D01*
X2080Y956D02*
X2085Y956D01*
X2094Y956D02*
X2101Y956D01*
X2112Y956D02*
X2116Y956D01*
X2238Y956D02*
X2245Y956D01*
X1238Y955D02*
X1245Y955D01*
X1367Y955D02*
X1401Y955D01*
X2080Y955D02*
X2085Y955D01*
X2093Y955D02*
X2100Y955D01*
X2112Y955D02*
X2116Y955D01*
X2238Y955D02*
X2245Y955D01*
X1238Y954D02*
X1245Y954D01*
X1367Y954D02*
X1372Y954D01*
X1393Y954D02*
X1400Y954D01*
X2080Y954D02*
X2085Y954D01*
X2092Y954D02*
X2099Y954D01*
X2112Y954D02*
X2116Y954D01*
X2238Y954D02*
X2245Y954D01*
X1238Y953D02*
X1245Y953D01*
X1367Y953D02*
X1371Y953D01*
X1393Y953D02*
X1399Y953D01*
X2080Y953D02*
X2085Y953D01*
X2091Y953D02*
X2098Y953D01*
X2111Y953D02*
X2116Y953D01*
X2238Y953D02*
X2245Y953D01*
X1238Y952D02*
X1245Y952D01*
X1367Y952D02*
X1371Y952D01*
X1392Y952D02*
X1398Y952D01*
X2080Y952D02*
X2086Y952D01*
X2090Y952D02*
X2097Y952D01*
X2111Y952D02*
X2116Y952D01*
X2238Y952D02*
X2245Y952D01*
X1238Y951D02*
X1245Y951D01*
X1367Y951D02*
X1371Y951D01*
X1391Y951D02*
X1397Y951D01*
X2080Y951D02*
X2087Y951D01*
X2089Y951D02*
X2096Y951D01*
X2110Y951D02*
X2116Y951D01*
X2238Y951D02*
X2245Y951D01*
X1238Y950D02*
X1245Y950D01*
X1367Y950D02*
X1371Y950D01*
X1390Y950D02*
X1396Y950D01*
X2081Y950D02*
X2095Y950D01*
X2109Y950D02*
X2116Y950D01*
X2238Y950D02*
X2245Y950D01*
X1238Y949D02*
X1245Y949D01*
X1367Y949D02*
X1371Y949D01*
X1389Y949D02*
X1395Y949D01*
X2082Y949D02*
X2115Y949D01*
X2238Y949D02*
X2245Y949D01*
X1238Y948D02*
X1245Y948D01*
X1367Y948D02*
X1371Y948D01*
X1388Y948D02*
X1394Y948D01*
X2083Y948D02*
X2114Y948D01*
X2238Y948D02*
X2245Y948D01*
X1238Y947D02*
X1245Y947D01*
X1367Y947D02*
X1371Y947D01*
X1388Y947D02*
X1394Y947D01*
X2084Y947D02*
X2113Y947D01*
X2238Y947D02*
X2245Y947D01*
X1238Y946D02*
X1245Y946D01*
X1367Y946D02*
X1371Y946D01*
X1388Y946D02*
X1393Y946D01*
X2085Y946D02*
X2112Y946D01*
X2238Y946D02*
X2245Y946D01*
X1238Y945D02*
X1245Y945D01*
X1367Y945D02*
X1371Y945D01*
X1388Y945D02*
X1392Y945D01*
X2086Y945D02*
X2111Y945D01*
X2238Y945D02*
X2245Y945D01*
X1238Y944D02*
X1245Y944D01*
X1368Y944D02*
X1370Y944D01*
X1389Y944D02*
X1391Y944D01*
X2086Y944D02*
X2110Y944D01*
X2238Y944D02*
X2245Y944D01*
X1238Y943D02*
X1245Y943D01*
X2238Y943D02*
X2245Y943D01*
X1238Y942D02*
X1245Y942D01*
X2238Y942D02*
X2245Y942D01*
X1238Y941D02*
X1245Y941D01*
X2238Y941D02*
X2245Y941D01*
X1238Y940D02*
X1245Y940D01*
X2238Y940D02*
X2245Y940D01*
X1238Y939D02*
X1245Y939D01*
X2238Y939D02*
X2245Y939D01*
X1238Y938D02*
X1245Y938D01*
X1372Y938D02*
X1396Y938D01*
X2087Y938D02*
X2110Y938D01*
X2238Y938D02*
X2245Y938D01*
X1238Y937D02*
X1245Y937D01*
X1371Y937D02*
X1397Y937D01*
X2086Y937D02*
X2111Y937D01*
X2238Y937D02*
X2245Y937D01*
X1238Y936D02*
X1245Y936D01*
X1371Y936D02*
X1398Y936D01*
X2085Y936D02*
X2111Y936D01*
X2238Y936D02*
X2245Y936D01*
X1238Y935D02*
X1245Y935D01*
X1370Y935D02*
X1399Y935D01*
X2084Y935D02*
X2112Y935D01*
X2238Y935D02*
X2245Y935D01*
X1238Y934D02*
X1245Y934D01*
X1369Y934D02*
X1400Y934D01*
X2083Y934D02*
X2113Y934D01*
X2238Y934D02*
X2245Y934D01*
X1238Y933D02*
X1245Y933D01*
X1368Y933D02*
X1400Y933D01*
X2082Y933D02*
X2115Y933D01*
X2238Y933D02*
X2245Y933D01*
X1238Y932D02*
X1245Y932D01*
X1367Y932D02*
X1374Y932D01*
X1395Y932D02*
X1401Y932D01*
X2081Y932D02*
X2088Y932D01*
X2109Y932D02*
X2116Y932D01*
X2238Y932D02*
X2245Y932D01*
X1238Y931D02*
X1245Y931D01*
X1367Y931D02*
X1373Y931D01*
X1396Y931D02*
X1402Y931D01*
X2080Y931D02*
X2087Y931D01*
X2110Y931D02*
X2116Y931D01*
X2238Y931D02*
X2245Y931D01*
X1238Y930D02*
X1245Y930D01*
X1367Y930D02*
X1372Y930D01*
X1397Y930D02*
X1402Y930D01*
X2080Y930D02*
X2086Y930D01*
X2111Y930D02*
X2116Y930D01*
X2238Y930D02*
X2245Y930D01*
X1238Y929D02*
X1245Y929D01*
X1367Y929D02*
X1372Y929D01*
X1397Y929D02*
X1402Y929D01*
X2080Y929D02*
X2085Y929D01*
X2111Y929D02*
X2116Y929D01*
X2238Y929D02*
X2245Y929D01*
X1238Y928D02*
X1245Y928D01*
X1367Y928D02*
X1371Y928D01*
X1397Y928D02*
X1402Y928D01*
X2080Y928D02*
X2085Y928D01*
X2112Y928D02*
X2116Y928D01*
X2238Y928D02*
X2245Y928D01*
X1238Y927D02*
X1245Y927D01*
X1367Y927D02*
X1371Y927D01*
X1397Y927D02*
X1402Y927D01*
X2080Y927D02*
X2085Y927D01*
X2112Y927D02*
X2116Y927D01*
X2238Y927D02*
X2245Y927D01*
X1238Y926D02*
X1245Y926D01*
X1367Y926D02*
X1371Y926D01*
X1397Y926D02*
X1402Y926D01*
X2080Y926D02*
X2085Y926D01*
X2112Y926D02*
X2116Y926D01*
X2238Y926D02*
X2245Y926D01*
X1238Y925D02*
X1245Y925D01*
X1367Y925D02*
X1371Y925D01*
X1397Y925D02*
X1402Y925D01*
X2080Y925D02*
X2085Y925D01*
X2112Y925D02*
X2116Y925D01*
X2238Y925D02*
X2245Y925D01*
X1238Y924D02*
X1245Y924D01*
X1367Y924D02*
X1371Y924D01*
X1397Y924D02*
X1402Y924D01*
X2080Y924D02*
X2085Y924D01*
X2112Y924D02*
X2116Y924D01*
X2238Y924D02*
X2245Y924D01*
X1238Y923D02*
X1245Y923D01*
X1367Y923D02*
X1371Y923D01*
X1397Y923D02*
X1402Y923D01*
X2080Y923D02*
X2085Y923D01*
X2112Y923D02*
X2116Y923D01*
X2238Y923D02*
X2245Y923D01*
X1238Y922D02*
X1245Y922D01*
X1367Y922D02*
X1371Y922D01*
X1397Y922D02*
X1402Y922D01*
X2080Y922D02*
X2085Y922D01*
X2112Y922D02*
X2116Y922D01*
X2238Y922D02*
X2245Y922D01*
X1238Y921D02*
X1245Y921D01*
X1367Y921D02*
X1371Y921D01*
X1397Y921D02*
X1402Y921D01*
X2080Y921D02*
X2085Y921D01*
X2112Y921D02*
X2116Y921D01*
X2238Y921D02*
X2245Y921D01*
X1238Y920D02*
X1245Y920D01*
X1367Y920D02*
X1371Y920D01*
X1397Y920D02*
X1402Y920D01*
X2080Y920D02*
X2085Y920D01*
X2112Y920D02*
X2116Y920D01*
X2238Y920D02*
X2245Y920D01*
X1238Y919D02*
X1245Y919D01*
X1367Y919D02*
X1371Y919D01*
X1397Y919D02*
X1402Y919D01*
X2080Y919D02*
X2085Y919D01*
X2112Y919D02*
X2116Y919D01*
X2238Y919D02*
X2245Y919D01*
X1238Y918D02*
X1245Y918D01*
X1367Y918D02*
X1372Y918D01*
X1397Y918D02*
X1402Y918D01*
X2080Y918D02*
X2085Y918D01*
X2111Y918D02*
X2116Y918D01*
X2238Y918D02*
X2245Y918D01*
X1238Y917D02*
X1245Y917D01*
X1367Y917D02*
X1402Y917D01*
X2080Y917D02*
X2116Y917D01*
X2238Y917D02*
X2245Y917D01*
X1238Y916D02*
X1245Y916D01*
X1367Y916D02*
X1402Y916D01*
X2080Y916D02*
X2116Y916D01*
X2238Y916D02*
X2245Y916D01*
X1238Y915D02*
X1245Y915D01*
X1367Y915D02*
X1402Y915D01*
X2080Y915D02*
X2116Y915D01*
X2238Y915D02*
X2245Y915D01*
X1238Y914D02*
X1245Y914D01*
X1367Y914D02*
X1402Y914D01*
X2080Y914D02*
X2116Y914D01*
X2238Y914D02*
X2245Y914D01*
X1238Y913D02*
X1245Y913D01*
X1367Y913D02*
X1401Y913D01*
X2081Y913D02*
X2116Y913D01*
X2238Y913D02*
X2245Y913D01*
X1238Y912D02*
X1245Y912D01*
X1369Y912D02*
X1369Y912D01*
X2238Y912D02*
X2245Y912D01*
X1238Y911D02*
X1245Y911D01*
X2238Y911D02*
X2245Y911D01*
X1238Y910D02*
X1245Y910D01*
X2238Y910D02*
X2245Y910D01*
X1238Y909D02*
X1245Y909D01*
X2238Y909D02*
X2245Y909D01*
X1238Y908D02*
X1245Y908D01*
X2238Y908D02*
X2245Y908D01*
X1238Y907D02*
X1245Y907D01*
X2238Y907D02*
X2245Y907D01*
X1238Y906D02*
X1245Y906D01*
X2238Y906D02*
X2245Y906D01*
X1238Y905D02*
X1245Y905D01*
X2238Y905D02*
X2245Y905D01*
X1238Y904D02*
X1245Y904D01*
X2238Y904D02*
X2245Y904D01*
X1238Y903D02*
X1245Y903D01*
X2238Y903D02*
X2245Y903D01*
X1238Y902D02*
X1245Y902D01*
X2238Y902D02*
X2245Y902D01*
X1238Y901D02*
X1245Y901D01*
X2238Y901D02*
X2245Y901D01*
X1238Y900D02*
X1245Y900D01*
X2238Y900D02*
X2245Y900D01*
X1238Y899D02*
X1245Y899D01*
X2238Y899D02*
X2245Y899D01*
X1238Y898D02*
X1245Y898D01*
X2238Y898D02*
X2245Y898D01*
X1238Y897D02*
X1245Y897D01*
X2238Y897D02*
X2245Y897D01*
X1238Y896D02*
X1245Y896D01*
X2238Y896D02*
X2245Y896D01*
X1238Y895D02*
X1245Y895D01*
X2238Y895D02*
X2245Y895D01*
X1238Y894D02*
X1245Y894D01*
X2238Y894D02*
X2245Y894D01*
X1238Y893D02*
X1245Y893D01*
X2238Y893D02*
X2245Y893D01*
X1238Y892D02*
X1245Y892D01*
X2238Y892D02*
X2245Y892D01*
X1238Y891D02*
X1245Y891D01*
X2238Y891D02*
X2245Y891D01*
X1238Y890D02*
X1245Y890D01*
X2238Y890D02*
X2245Y890D01*
X1238Y889D02*
X1245Y889D01*
X2238Y889D02*
X2245Y889D01*
X1238Y888D02*
X1245Y888D01*
X2238Y888D02*
X2245Y888D01*
X1238Y887D02*
X1245Y887D01*
X2238Y887D02*
X2245Y887D01*
X1238Y886D02*
X1245Y886D01*
X2238Y886D02*
X2245Y886D01*
X1238Y885D02*
X1245Y885D01*
X2238Y885D02*
X2245Y885D01*
X1238Y884D02*
X1245Y884D01*
X2238Y884D02*
X2245Y884D01*
X1238Y883D02*
X1245Y883D01*
X2238Y883D02*
X2245Y883D01*
X1238Y882D02*
X1245Y882D01*
X2238Y882D02*
X2245Y882D01*
X1238Y881D02*
X1245Y881D01*
X2238Y881D02*
X2245Y881D01*
X1238Y880D02*
X1245Y880D01*
X2238Y880D02*
X2245Y880D01*
X1238Y879D02*
X1245Y879D01*
X2238Y879D02*
X2245Y879D01*
X1238Y878D02*
X1245Y878D01*
X2238Y878D02*
X2245Y878D01*
X1238Y877D02*
X1245Y877D01*
X2238Y877D02*
X2245Y877D01*
X1238Y876D02*
X1245Y876D01*
X2238Y876D02*
X2245Y876D01*
X1238Y875D02*
X1245Y875D01*
X2238Y875D02*
X2245Y875D01*
X1238Y874D02*
X1245Y874D01*
X2238Y874D02*
X2245Y874D01*
X1238Y873D02*
X1245Y873D01*
X2238Y873D02*
X2245Y873D01*
X1238Y872D02*
X1245Y872D01*
X2238Y872D02*
X2245Y872D01*
X1238Y871D02*
X1245Y871D01*
X2238Y871D02*
X2245Y871D01*
X1238Y870D02*
X1245Y870D01*
X2088Y870D02*
X2088Y870D01*
X2238Y870D02*
X2245Y870D01*
X1238Y869D02*
X1245Y869D01*
X1367Y869D02*
X1370Y869D01*
X1388Y869D02*
X1396Y869D01*
X2086Y869D02*
X2100Y869D01*
X2112Y869D02*
X2115Y869D01*
X2238Y869D02*
X2245Y869D01*
X1238Y868D02*
X1245Y868D01*
X1367Y868D02*
X1371Y868D01*
X1387Y868D02*
X1397Y868D01*
X2085Y868D02*
X2101Y868D01*
X2112Y868D02*
X2116Y868D01*
X2238Y868D02*
X2245Y868D01*
X1238Y867D02*
X1245Y867D01*
X1366Y867D02*
X1371Y867D01*
X1386Y867D02*
X1398Y867D01*
X2084Y867D02*
X2102Y867D01*
X2112Y867D02*
X2116Y867D01*
X2238Y867D02*
X2245Y867D01*
X1238Y866D02*
X1245Y866D01*
X1366Y866D02*
X1371Y866D01*
X1385Y866D02*
X1399Y866D01*
X2083Y866D02*
X2103Y866D01*
X2112Y866D02*
X2116Y866D01*
X2238Y866D02*
X2245Y866D01*
X1238Y865D02*
X1245Y865D01*
X1366Y865D02*
X1371Y865D01*
X1384Y865D02*
X1400Y865D01*
X2082Y865D02*
X2104Y865D01*
X2112Y865D02*
X2116Y865D01*
X2238Y865D02*
X2245Y865D01*
X1238Y864D02*
X1245Y864D01*
X1366Y864D02*
X1371Y864D01*
X1383Y864D02*
X1390Y864D01*
X1394Y864D02*
X1401Y864D01*
X2081Y864D02*
X2089Y864D01*
X2098Y864D02*
X2105Y864D01*
X2112Y864D02*
X2116Y864D01*
X2238Y864D02*
X2245Y864D01*
X1238Y863D02*
X1245Y863D01*
X1366Y863D02*
X1371Y863D01*
X1382Y863D02*
X1389Y863D01*
X1395Y863D02*
X1402Y863D01*
X2080Y863D02*
X2087Y863D01*
X2099Y863D02*
X2106Y863D01*
X2112Y863D02*
X2116Y863D01*
X2238Y863D02*
X2245Y863D01*
X1238Y862D02*
X1245Y862D01*
X1366Y862D02*
X1371Y862D01*
X1381Y862D02*
X1388Y862D01*
X1396Y862D02*
X1402Y862D01*
X2080Y862D02*
X2086Y862D01*
X2100Y862D02*
X2106Y862D01*
X2112Y862D02*
X2116Y862D01*
X2238Y862D02*
X2245Y862D01*
X1238Y861D02*
X1245Y861D01*
X1366Y861D02*
X1371Y861D01*
X1380Y861D02*
X1387Y861D01*
X1397Y861D02*
X1402Y861D01*
X2080Y861D02*
X2085Y861D01*
X2101Y861D02*
X2106Y861D01*
X2112Y861D02*
X2116Y861D01*
X2238Y861D02*
X2245Y861D01*
X1238Y860D02*
X1245Y860D01*
X1366Y860D02*
X1371Y860D01*
X1379Y860D02*
X1386Y860D01*
X1398Y860D02*
X1402Y860D01*
X2080Y860D02*
X2085Y860D01*
X2102Y860D02*
X2106Y860D01*
X2112Y860D02*
X2116Y860D01*
X2238Y860D02*
X2245Y860D01*
X1238Y859D02*
X1245Y859D01*
X1366Y859D02*
X1371Y859D01*
X1378Y859D02*
X1385Y859D01*
X1398Y859D02*
X1402Y859D01*
X2080Y859D02*
X2085Y859D01*
X2102Y859D02*
X2106Y859D01*
X2112Y859D02*
X2116Y859D01*
X2238Y859D02*
X2245Y859D01*
X1238Y858D02*
X1245Y858D01*
X1366Y858D02*
X1371Y858D01*
X1377Y858D02*
X1384Y858D01*
X1398Y858D02*
X1402Y858D01*
X2080Y858D02*
X2085Y858D01*
X2101Y858D02*
X2106Y858D01*
X2112Y858D02*
X2116Y858D01*
X2238Y858D02*
X2245Y858D01*
X1238Y857D02*
X1245Y857D01*
X1366Y857D02*
X1371Y857D01*
X1376Y857D02*
X1383Y857D01*
X1398Y857D02*
X1402Y857D01*
X2080Y857D02*
X2085Y857D01*
X2101Y857D02*
X2106Y857D01*
X2112Y857D02*
X2116Y857D01*
X2238Y857D02*
X2245Y857D01*
X1238Y856D02*
X1245Y856D01*
X1366Y856D02*
X1371Y856D01*
X1375Y856D02*
X1382Y856D01*
X1398Y856D02*
X1402Y856D01*
X1636Y856D02*
X1641Y856D01*
X1667Y856D02*
X1672Y856D01*
X1704Y856D02*
X1707Y856D01*
X1733Y856D02*
X1738Y856D01*
X1811Y856D02*
X1817Y856D01*
X2080Y856D02*
X2085Y856D01*
X2101Y856D02*
X2106Y856D01*
X2112Y856D02*
X2116Y856D01*
X2238Y856D02*
X2245Y856D01*
X1238Y855D02*
X1245Y855D01*
X1366Y855D02*
X1371Y855D01*
X1374Y855D02*
X1381Y855D01*
X1398Y855D02*
X1402Y855D01*
X1635Y855D02*
X1645Y855D01*
X1665Y855D02*
X1676Y855D01*
X1701Y855D02*
X1711Y855D01*
X1730Y855D02*
X1741Y855D01*
X1780Y855D02*
X1795Y855D01*
X1807Y855D02*
X1820Y855D01*
X1833Y855D02*
X1853Y855D01*
X2080Y855D02*
X2085Y855D01*
X2100Y855D02*
X2106Y855D01*
X2112Y855D02*
X2116Y855D01*
X2238Y855D02*
X2245Y855D01*
X1238Y854D02*
X1245Y854D01*
X1366Y854D02*
X1371Y854D01*
X1373Y854D02*
X1380Y854D01*
X1398Y854D02*
X1402Y854D01*
X1635Y854D02*
X1647Y854D01*
X1665Y854D02*
X1678Y854D01*
X1699Y854D02*
X1713Y854D01*
X1728Y854D02*
X1743Y854D01*
X1778Y854D02*
X1795Y854D01*
X1805Y854D02*
X1822Y854D01*
X1833Y854D02*
X1853Y854D01*
X2080Y854D02*
X2085Y854D01*
X2100Y854D02*
X2105Y854D01*
X2112Y854D02*
X2116Y854D01*
X2238Y854D02*
X2245Y854D01*
X1238Y853D02*
X1245Y853D01*
X1366Y853D02*
X1379Y853D01*
X1398Y853D02*
X1402Y853D01*
X1635Y853D02*
X1649Y853D01*
X1665Y853D02*
X1679Y853D01*
X1698Y853D02*
X1715Y853D01*
X1727Y853D02*
X1744Y853D01*
X1776Y853D02*
X1795Y853D01*
X1805Y853D02*
X1823Y853D01*
X1833Y853D02*
X1853Y853D01*
X2080Y853D02*
X2085Y853D01*
X2099Y853D02*
X2104Y853D01*
X2112Y853D02*
X2116Y853D01*
X2238Y853D02*
X2245Y853D01*
X1238Y852D02*
X1245Y852D01*
X1366Y852D02*
X1378Y852D01*
X1397Y852D02*
X1403Y852D01*
X1635Y852D02*
X1636Y852D01*
X1641Y852D02*
X1650Y852D01*
X1665Y852D02*
X1666Y852D01*
X1672Y852D02*
X1680Y852D01*
X1697Y852D02*
X1705Y852D01*
X1707Y852D02*
X1716Y852D01*
X1726Y852D02*
X1734Y852D01*
X1737Y852D02*
X1745Y852D01*
X1775Y852D02*
X1795Y852D01*
X1805Y852D02*
X1824Y852D01*
X1833Y852D02*
X1853Y852D01*
X2080Y852D02*
X2086Y852D01*
X2099Y852D02*
X2104Y852D01*
X2112Y852D02*
X2116Y852D01*
X2238Y852D02*
X2245Y852D01*
X1238Y851D02*
X1245Y851D01*
X1366Y851D02*
X1377Y851D01*
X1396Y851D02*
X1402Y851D01*
X1645Y851D02*
X1651Y851D01*
X1675Y851D02*
X1681Y851D01*
X1696Y851D02*
X1702Y851D01*
X1711Y851D02*
X1716Y851D01*
X1726Y851D02*
X1731Y851D01*
X1740Y851D02*
X1745Y851D01*
X1774Y851D02*
X1782Y851D01*
X1791Y851D02*
X1795Y851D01*
X1806Y851D02*
X1809Y851D01*
X1819Y851D02*
X1824Y851D01*
X1849Y851D02*
X1853Y851D01*
X2080Y851D02*
X2087Y851D01*
X2098Y851D02*
X2103Y851D01*
X2112Y851D02*
X2116Y851D01*
X2238Y851D02*
X2245Y851D01*
X1238Y850D02*
X1245Y850D01*
X1366Y850D02*
X1376Y850D01*
X1395Y850D02*
X1402Y850D01*
X1646Y850D02*
X1651Y850D01*
X1677Y850D02*
X1682Y850D01*
X1696Y850D02*
X1701Y850D01*
X1713Y850D02*
X1715Y850D01*
X1725Y850D02*
X1730Y850D01*
X1741Y850D02*
X1746Y850D01*
X1773Y850D02*
X1779Y850D01*
X1791Y850D02*
X1795Y850D01*
X1820Y850D02*
X1825Y850D01*
X1849Y850D02*
X1853Y850D01*
X2081Y850D02*
X2088Y850D01*
X2098Y850D02*
X2103Y850D01*
X2112Y850D02*
X2116Y850D01*
X2238Y850D02*
X2245Y850D01*
X1238Y849D02*
X1245Y849D01*
X1366Y849D02*
X1375Y849D01*
X1394Y849D02*
X1401Y849D01*
X1648Y849D02*
X1652Y849D01*
X1678Y849D02*
X1683Y849D01*
X1695Y849D02*
X1700Y849D01*
X1714Y849D02*
X1715Y849D01*
X1725Y849D02*
X1729Y849D01*
X1742Y849D02*
X1746Y849D01*
X1773Y849D02*
X1778Y849D01*
X1791Y849D02*
X1795Y849D01*
X1821Y849D02*
X1825Y849D01*
X1849Y849D02*
X1853Y849D01*
X2082Y849D02*
X2089Y849D01*
X2097Y849D02*
X2116Y849D01*
X2238Y849D02*
X2245Y849D01*
X1238Y848D02*
X1245Y848D01*
X1366Y848D02*
X1374Y848D01*
X1393Y848D02*
X1400Y848D01*
X1648Y848D02*
X1653Y848D01*
X1679Y848D02*
X1683Y848D01*
X1695Y848D02*
X1699Y848D01*
X1725Y848D02*
X1729Y848D01*
X1742Y848D02*
X1746Y848D01*
X1773Y848D02*
X1777Y848D01*
X1791Y848D02*
X1795Y848D01*
X1822Y848D02*
X1826Y848D01*
X1849Y848D02*
X1853Y848D01*
X2083Y848D02*
X2090Y848D01*
X2097Y848D02*
X2116Y848D01*
X2238Y848D02*
X2245Y848D01*
X1238Y847D02*
X1245Y847D01*
X1366Y847D02*
X1373Y847D01*
X1392Y847D02*
X1399Y847D01*
X1649Y847D02*
X1653Y847D01*
X1680Y847D02*
X1684Y847D01*
X1695Y847D02*
X1699Y847D01*
X1725Y847D02*
X1729Y847D01*
X1742Y847D02*
X1746Y847D01*
X1772Y847D02*
X1777Y847D01*
X1791Y847D02*
X1795Y847D01*
X1822Y847D02*
X1826Y847D01*
X1849Y847D02*
X1853Y847D01*
X2084Y847D02*
X2090Y847D01*
X2096Y847D02*
X2116Y847D01*
X2238Y847D02*
X2245Y847D01*
X1238Y846D02*
X1245Y846D01*
X1366Y846D02*
X1372Y846D01*
X1392Y846D02*
X1398Y846D01*
X1649Y846D02*
X1654Y846D01*
X1680Y846D02*
X1684Y846D01*
X1695Y846D02*
X1699Y846D01*
X1725Y846D02*
X1729Y846D01*
X1742Y846D02*
X1746Y846D01*
X1772Y846D02*
X1777Y846D01*
X1791Y846D02*
X1795Y846D01*
X1822Y846D02*
X1826Y846D01*
X1849Y846D02*
X1853Y846D01*
X2085Y846D02*
X2090Y846D01*
X2096Y846D02*
X2116Y846D01*
X2238Y846D02*
X2245Y846D01*
X1238Y845D02*
X1245Y845D01*
X1367Y845D02*
X1371Y845D01*
X1393Y845D02*
X1397Y845D01*
X1650Y845D02*
X1654Y845D01*
X1680Y845D02*
X1684Y845D01*
X1695Y845D02*
X1699Y845D01*
X1725Y845D02*
X1729Y845D01*
X1742Y845D02*
X1746Y845D01*
X1772Y845D02*
X1776Y845D01*
X1791Y845D02*
X1795Y845D01*
X1822Y845D02*
X1826Y845D01*
X1849Y845D02*
X1853Y845D01*
X2086Y845D02*
X2090Y845D01*
X2096Y845D02*
X2116Y845D01*
X2238Y845D02*
X2245Y845D01*
X1238Y844D02*
X1245Y844D01*
X1367Y844D02*
X1370Y844D01*
X1394Y844D02*
X1395Y844D01*
X1650Y844D02*
X1654Y844D01*
X1681Y844D02*
X1685Y844D01*
X1695Y844D02*
X1699Y844D01*
X1725Y844D02*
X1729Y844D01*
X1742Y844D02*
X1746Y844D01*
X1772Y844D02*
X1776Y844D01*
X1791Y844D02*
X1795Y844D01*
X1822Y844D02*
X1826Y844D01*
X1849Y844D02*
X1853Y844D01*
X2087Y844D02*
X2089Y844D01*
X2097Y844D02*
X2115Y844D01*
X2238Y844D02*
X2245Y844D01*
X1238Y843D02*
X1245Y843D01*
X1651Y843D02*
X1654Y843D01*
X1681Y843D02*
X1685Y843D01*
X1695Y843D02*
X1699Y843D01*
X1726Y843D02*
X1730Y843D01*
X1741Y843D02*
X1745Y843D01*
X1772Y843D02*
X1776Y843D01*
X1791Y843D02*
X1795Y843D01*
X1821Y843D02*
X1825Y843D01*
X1849Y843D02*
X1853Y843D01*
X2238Y843D02*
X2245Y843D01*
X1238Y842D02*
X1245Y842D01*
X1651Y842D02*
X1655Y842D01*
X1681Y842D02*
X1685Y842D01*
X1696Y842D02*
X1699Y842D01*
X1726Y842D02*
X1731Y842D01*
X1741Y842D02*
X1745Y842D01*
X1772Y842D02*
X1776Y842D01*
X1791Y842D02*
X1795Y842D01*
X1821Y842D02*
X1825Y842D01*
X1849Y842D02*
X1853Y842D01*
X2238Y842D02*
X2245Y842D01*
X1238Y841D02*
X1245Y841D01*
X1651Y841D02*
X1655Y841D01*
X1682Y841D02*
X1685Y841D01*
X1696Y841D02*
X1700Y841D01*
X1727Y841D02*
X1732Y841D01*
X1739Y841D02*
X1744Y841D01*
X1772Y841D02*
X1777Y841D01*
X1791Y841D02*
X1795Y841D01*
X1819Y841D02*
X1825Y841D01*
X1849Y841D02*
X1853Y841D01*
X2238Y841D02*
X2245Y841D01*
X1238Y840D02*
X1245Y840D01*
X1638Y840D02*
X1646Y840D01*
X1651Y840D02*
X1655Y840D01*
X1669Y840D02*
X1676Y840D01*
X1682Y840D02*
X1686Y840D01*
X1696Y840D02*
X1700Y840D01*
X1728Y840D02*
X1733Y840D01*
X1738Y840D02*
X1744Y840D01*
X1773Y840D02*
X1777Y840D01*
X1791Y840D02*
X1795Y840D01*
X1818Y840D02*
X1824Y840D01*
X1849Y840D02*
X1853Y840D01*
X2238Y840D02*
X2245Y840D01*
X1238Y839D02*
X1245Y839D01*
X1636Y839D02*
X1648Y839D01*
X1651Y839D02*
X1655Y839D01*
X1667Y839D02*
X1678Y839D01*
X1682Y839D02*
X1686Y839D01*
X1697Y839D02*
X1701Y839D01*
X1729Y839D02*
X1743Y839D01*
X1773Y839D02*
X1777Y839D01*
X1791Y839D02*
X1795Y839D01*
X1816Y839D02*
X1823Y839D01*
X1849Y839D02*
X1853Y839D01*
X2238Y839D02*
X2245Y839D01*
X1238Y838D02*
X1245Y838D01*
X1373Y838D02*
X1396Y838D01*
X1635Y838D02*
X1649Y838D01*
X1651Y838D02*
X1655Y838D01*
X1666Y838D02*
X1679Y838D01*
X1682Y838D02*
X1686Y838D01*
X1697Y838D02*
X1701Y838D01*
X1730Y838D02*
X1741Y838D01*
X1773Y838D02*
X1778Y838D01*
X1791Y838D02*
X1795Y838D01*
X1814Y838D02*
X1823Y838D01*
X1834Y838D02*
X1853Y838D01*
X2087Y838D02*
X2110Y838D01*
X2238Y838D02*
X2245Y838D01*
X1238Y837D02*
X1245Y837D01*
X1372Y837D02*
X1397Y837D01*
X1634Y837D02*
X1655Y837D01*
X1665Y837D02*
X1680Y837D01*
X1682Y837D02*
X1686Y837D01*
X1698Y837D02*
X1702Y837D01*
X1732Y837D02*
X1740Y837D01*
X1774Y837D02*
X1780Y837D01*
X1791Y837D02*
X1795Y837D01*
X1812Y837D02*
X1821Y837D01*
X1834Y837D02*
X1853Y837D01*
X2086Y837D02*
X2111Y837D01*
X2238Y837D02*
X2245Y837D01*
X1238Y836D02*
X1245Y836D01*
X1371Y836D02*
X1398Y836D01*
X1633Y836D02*
X1639Y836D01*
X1647Y836D02*
X1655Y836D01*
X1664Y836D02*
X1669Y836D01*
X1678Y836D02*
X1686Y836D01*
X1699Y836D02*
X1703Y836D01*
X1730Y836D02*
X1741Y836D01*
X1775Y836D02*
X1783Y836D01*
X1791Y836D02*
X1795Y836D01*
X1809Y836D02*
X1820Y836D01*
X1834Y836D02*
X1853Y836D01*
X2085Y836D02*
X2112Y836D01*
X2238Y836D02*
X2245Y836D01*
X1238Y835D02*
X1245Y835D01*
X1370Y835D02*
X1399Y835D01*
X1633Y835D02*
X1637Y835D01*
X1649Y835D02*
X1655Y835D01*
X1663Y835D02*
X1668Y835D01*
X1680Y835D02*
X1686Y835D01*
X1699Y835D02*
X1704Y835D01*
X1729Y835D02*
X1743Y835D01*
X1776Y835D02*
X1795Y835D01*
X1808Y835D02*
X1818Y835D01*
X1834Y835D02*
X1853Y835D01*
X2084Y835D02*
X2112Y835D01*
X2238Y835D02*
X2245Y835D01*
X1238Y834D02*
X1245Y834D01*
X1369Y834D02*
X1400Y834D01*
X1632Y834D02*
X1637Y834D01*
X1650Y834D02*
X1655Y834D01*
X1663Y834D02*
X1667Y834D01*
X1680Y834D02*
X1686Y834D01*
X1700Y834D02*
X1705Y834D01*
X1728Y834D02*
X1734Y834D01*
X1738Y834D02*
X1744Y834D01*
X1777Y834D02*
X1795Y834D01*
X1807Y834D02*
X1816Y834D01*
X1849Y834D02*
X1853Y834D01*
X2083Y834D02*
X2113Y834D01*
X2238Y834D02*
X2245Y834D01*
X1238Y833D02*
X1245Y833D01*
X1368Y833D02*
X1401Y833D01*
X1632Y833D02*
X1636Y833D01*
X1651Y833D02*
X1655Y833D01*
X1663Y833D02*
X1667Y833D01*
X1681Y833D02*
X1686Y833D01*
X1701Y833D02*
X1705Y833D01*
X1726Y833D02*
X1732Y833D01*
X1740Y833D02*
X1745Y833D01*
X1754Y833D02*
X1766Y833D01*
X1779Y833D02*
X1795Y833D01*
X1806Y833D02*
X1813Y833D01*
X1849Y833D02*
X1853Y833D01*
X2082Y833D02*
X2115Y833D01*
X2238Y833D02*
X2245Y833D01*
X1238Y832D02*
X1245Y832D01*
X1367Y832D02*
X1374Y832D01*
X1395Y832D02*
X1402Y832D01*
X1632Y832D02*
X1636Y832D01*
X1651Y832D02*
X1655Y832D01*
X1662Y832D02*
X1666Y832D01*
X1682Y832D02*
X1686Y832D01*
X1702Y832D02*
X1706Y832D01*
X1726Y832D02*
X1731Y832D01*
X1741Y832D02*
X1746Y832D01*
X1754Y832D02*
X1766Y832D01*
X1782Y832D02*
X1795Y832D01*
X1805Y832D02*
X1812Y832D01*
X1849Y832D02*
X1853Y832D01*
X2081Y832D02*
X2088Y832D01*
X2109Y832D02*
X2116Y832D01*
X2238Y832D02*
X2245Y832D01*
X1238Y831D02*
X1245Y831D01*
X1366Y831D02*
X1373Y831D01*
X1396Y831D02*
X1402Y831D01*
X1632Y831D02*
X1635Y831D01*
X1651Y831D02*
X1655Y831D01*
X1662Y831D02*
X1666Y831D01*
X1682Y831D02*
X1686Y831D01*
X1703Y831D02*
X1707Y831D01*
X1725Y831D02*
X1730Y831D01*
X1742Y831D02*
X1746Y831D01*
X1754Y831D02*
X1766Y831D01*
X1791Y831D02*
X1795Y831D01*
X1805Y831D02*
X1810Y831D01*
X1849Y831D02*
X1853Y831D01*
X2080Y831D02*
X2087Y831D01*
X2110Y831D02*
X2116Y831D01*
X2238Y831D02*
X2245Y831D01*
X1238Y830D02*
X1245Y830D01*
X1366Y830D02*
X1372Y830D01*
X1397Y830D02*
X1403Y830D01*
X1632Y830D02*
X1635Y830D01*
X1652Y830D02*
X1655Y830D01*
X1662Y830D02*
X1666Y830D01*
X1682Y830D02*
X1686Y830D01*
X1703Y830D02*
X1708Y830D01*
X1724Y830D02*
X1729Y830D01*
X1743Y830D02*
X1747Y830D01*
X1754Y830D02*
X1766Y830D01*
X1791Y830D02*
X1795Y830D01*
X1804Y830D02*
X1809Y830D01*
X1849Y830D02*
X1853Y830D01*
X2080Y830D02*
X2086Y830D01*
X2111Y830D02*
X2116Y830D01*
X2238Y830D02*
X2245Y830D01*
X1238Y829D02*
X1245Y829D01*
X1366Y829D02*
X1371Y829D01*
X1398Y829D02*
X1402Y829D01*
X1632Y829D02*
X1635Y829D01*
X1652Y829D02*
X1655Y829D01*
X1662Y829D02*
X1666Y829D01*
X1682Y829D02*
X1686Y829D01*
X1704Y829D02*
X1709Y829D01*
X1724Y829D02*
X1728Y829D01*
X1743Y829D02*
X1747Y829D01*
X1754Y829D02*
X1766Y829D01*
X1791Y829D02*
X1795Y829D01*
X1804Y829D02*
X1808Y829D01*
X1849Y829D02*
X1853Y829D01*
X2080Y829D02*
X2085Y829D01*
X2111Y829D02*
X2116Y829D01*
X2238Y829D02*
X2245Y829D01*
X1238Y828D02*
X1245Y828D01*
X1366Y828D02*
X1371Y828D01*
X1398Y828D02*
X1402Y828D01*
X1632Y828D02*
X1635Y828D01*
X1651Y828D02*
X1655Y828D01*
X1662Y828D02*
X1666Y828D01*
X1682Y828D02*
X1686Y828D01*
X1705Y828D02*
X1710Y828D01*
X1724Y828D02*
X1728Y828D01*
X1743Y828D02*
X1747Y828D01*
X1791Y828D02*
X1795Y828D01*
X1804Y828D02*
X1808Y828D01*
X1849Y828D02*
X1853Y828D01*
X2080Y828D02*
X2085Y828D01*
X2112Y828D02*
X2116Y828D01*
X2238Y828D02*
X2245Y828D01*
X1238Y827D02*
X1245Y827D01*
X1366Y827D02*
X1371Y827D01*
X1398Y827D02*
X1402Y827D01*
X1632Y827D02*
X1635Y827D01*
X1651Y827D02*
X1655Y827D01*
X1662Y827D02*
X1666Y827D01*
X1682Y827D02*
X1685Y827D01*
X1706Y827D02*
X1711Y827D01*
X1724Y827D02*
X1727Y827D01*
X1744Y827D02*
X1747Y827D01*
X1791Y827D02*
X1795Y827D01*
X1804Y827D02*
X1808Y827D01*
X1849Y827D02*
X1853Y827D01*
X2080Y827D02*
X2085Y827D01*
X2112Y827D02*
X2116Y827D01*
X2238Y827D02*
X2245Y827D01*
X1238Y826D02*
X1245Y826D01*
X1366Y826D02*
X1371Y826D01*
X1398Y826D02*
X1402Y826D01*
X1632Y826D02*
X1636Y826D01*
X1651Y826D02*
X1655Y826D01*
X1662Y826D02*
X1666Y826D01*
X1682Y826D02*
X1685Y826D01*
X1707Y826D02*
X1712Y826D01*
X1724Y826D02*
X1727Y826D01*
X1744Y826D02*
X1747Y826D01*
X1791Y826D02*
X1795Y826D01*
X1804Y826D02*
X1808Y826D01*
X1849Y826D02*
X1853Y826D01*
X2080Y826D02*
X2085Y826D01*
X2112Y826D02*
X2116Y826D01*
X2238Y826D02*
X2245Y826D01*
X1238Y825D02*
X1245Y825D01*
X1366Y825D02*
X1371Y825D01*
X1398Y825D02*
X1402Y825D01*
X1632Y825D02*
X1636Y825D01*
X1651Y825D02*
X1654Y825D01*
X1663Y825D02*
X1666Y825D01*
X1681Y825D02*
X1685Y825D01*
X1708Y825D02*
X1713Y825D01*
X1724Y825D02*
X1728Y825D01*
X1744Y825D02*
X1747Y825D01*
X1791Y825D02*
X1795Y825D01*
X1804Y825D02*
X1808Y825D01*
X1849Y825D02*
X1853Y825D01*
X2080Y825D02*
X2085Y825D01*
X2112Y825D02*
X2116Y825D01*
X2238Y825D02*
X2245Y825D01*
X1238Y824D02*
X1245Y824D01*
X1366Y824D02*
X1371Y824D01*
X1398Y824D02*
X1402Y824D01*
X1632Y824D02*
X1636Y824D01*
X1650Y824D02*
X1654Y824D01*
X1663Y824D02*
X1667Y824D01*
X1681Y824D02*
X1685Y824D01*
X1709Y824D02*
X1714Y824D01*
X1724Y824D02*
X1728Y824D01*
X1743Y824D02*
X1747Y824D01*
X1791Y824D02*
X1795Y824D01*
X1804Y824D02*
X1808Y824D01*
X1849Y824D02*
X1853Y824D01*
X2080Y824D02*
X2085Y824D01*
X2112Y824D02*
X2116Y824D01*
X2238Y824D02*
X2245Y824D01*
X1238Y823D02*
X1245Y823D01*
X1366Y823D02*
X1371Y823D01*
X1398Y823D02*
X1402Y823D01*
X1632Y823D02*
X1637Y823D01*
X1650Y823D02*
X1654Y823D01*
X1663Y823D02*
X1667Y823D01*
X1680Y823D02*
X1684Y823D01*
X1710Y823D02*
X1715Y823D01*
X1724Y823D02*
X1728Y823D01*
X1743Y823D02*
X1747Y823D01*
X1791Y823D02*
X1795Y823D01*
X1804Y823D02*
X1809Y823D01*
X1849Y823D02*
X1853Y823D01*
X2080Y823D02*
X2085Y823D01*
X2112Y823D02*
X2116Y823D01*
X2238Y823D02*
X2245Y823D01*
X1238Y822D02*
X1245Y822D01*
X1366Y822D02*
X1371Y822D01*
X1398Y822D02*
X1402Y822D01*
X1633Y822D02*
X1637Y822D01*
X1649Y822D02*
X1653Y822D01*
X1664Y822D02*
X1668Y822D01*
X1679Y822D02*
X1684Y822D01*
X1711Y822D02*
X1716Y822D01*
X1724Y822D02*
X1729Y822D01*
X1742Y822D02*
X1747Y822D01*
X1791Y822D02*
X1795Y822D01*
X1805Y822D02*
X1809Y822D01*
X1849Y822D02*
X1853Y822D01*
X2080Y822D02*
X2085Y822D01*
X2112Y822D02*
X2116Y822D01*
X2238Y822D02*
X2245Y822D01*
X1238Y821D02*
X1245Y821D01*
X1366Y821D02*
X1371Y821D01*
X1398Y821D02*
X1402Y821D01*
X1633Y821D02*
X1638Y821D01*
X1648Y821D02*
X1653Y821D01*
X1664Y821D02*
X1669Y821D01*
X1678Y821D02*
X1683Y821D01*
X1712Y821D02*
X1716Y821D01*
X1725Y821D02*
X1730Y821D01*
X1741Y821D02*
X1746Y821D01*
X1791Y821D02*
X1795Y821D01*
X1805Y821D02*
X1811Y821D01*
X1824Y821D02*
X1826Y821D01*
X1849Y821D02*
X1853Y821D01*
X2080Y821D02*
X2085Y821D01*
X2112Y821D02*
X2116Y821D01*
X2238Y821D02*
X2245Y821D01*
X1238Y820D02*
X1245Y820D01*
X1366Y820D02*
X1371Y820D01*
X1398Y820D02*
X1402Y820D01*
X1634Y820D02*
X1640Y820D01*
X1646Y820D02*
X1652Y820D01*
X1665Y820D02*
X1671Y820D01*
X1676Y820D02*
X1683Y820D01*
X1693Y820D02*
X1717Y820D01*
X1726Y820D02*
X1732Y820D01*
X1739Y820D02*
X1746Y820D01*
X1791Y820D02*
X1795Y820D01*
X1806Y820D02*
X1814Y820D01*
X1820Y820D02*
X1826Y820D01*
X1833Y820D02*
X1853Y820D01*
X2080Y820D02*
X2085Y820D01*
X2112Y820D02*
X2116Y820D01*
X2238Y820D02*
X2245Y820D01*
X1238Y819D02*
X1245Y819D01*
X1366Y819D02*
X1371Y819D01*
X1398Y819D02*
X1402Y819D01*
X1635Y819D02*
X1651Y819D01*
X1665Y819D02*
X1682Y819D01*
X1693Y819D02*
X1717Y819D01*
X1726Y819D02*
X1745Y819D01*
X1791Y819D02*
X1795Y819D01*
X1807Y819D02*
X1826Y819D01*
X1833Y819D02*
X1853Y819D01*
X2080Y819D02*
X2085Y819D01*
X2112Y819D02*
X2116Y819D01*
X2238Y819D02*
X2245Y819D01*
X1238Y818D02*
X1245Y818D01*
X1366Y818D02*
X1371Y818D01*
X1397Y818D02*
X1402Y818D01*
X1636Y818D02*
X1650Y818D01*
X1667Y818D02*
X1681Y818D01*
X1693Y818D02*
X1717Y818D01*
X1728Y818D02*
X1744Y818D01*
X1791Y818D02*
X1795Y818D01*
X1808Y818D02*
X1826Y818D01*
X1833Y818D02*
X1853Y818D01*
X2080Y818D02*
X2085Y818D01*
X2111Y818D02*
X2116Y818D01*
X2238Y818D02*
X2245Y818D01*
X1238Y817D02*
X1245Y817D01*
X1366Y817D02*
X1402Y817D01*
X1637Y817D02*
X1648Y817D01*
X1668Y817D02*
X1679Y817D01*
X1693Y817D02*
X1717Y817D01*
X1729Y817D02*
X1742Y817D01*
X1791Y817D02*
X1795Y817D01*
X1810Y817D02*
X1825Y817D01*
X1833Y817D02*
X1853Y817D01*
X2080Y817D02*
X2116Y817D01*
X2238Y817D02*
X2245Y817D01*
X1238Y816D02*
X1245Y816D01*
X1366Y816D02*
X1402Y816D01*
X1640Y816D02*
X1646Y816D01*
X1670Y816D02*
X1677Y816D01*
X1694Y816D02*
X1717Y816D01*
X1732Y816D02*
X1739Y816D01*
X1791Y816D02*
X1794Y816D01*
X1813Y816D02*
X1822Y816D01*
X1834Y816D02*
X1852Y816D01*
X2080Y816D02*
X2116Y816D01*
X2238Y816D02*
X2245Y816D01*
X1238Y815D02*
X1245Y815D01*
X1366Y815D02*
X1403Y815D01*
X2080Y815D02*
X2116Y815D01*
X2238Y815D02*
X2245Y815D01*
X1238Y814D02*
X1245Y814D01*
X1366Y814D02*
X1402Y814D01*
X2080Y814D02*
X2116Y814D01*
X2238Y814D02*
X2245Y814D01*
X1238Y813D02*
X1245Y813D01*
X1367Y813D02*
X1402Y813D01*
X2081Y813D02*
X2115Y813D01*
X2238Y813D02*
X2245Y813D01*
X1238Y812D02*
X1245Y812D01*
X2238Y812D02*
X2245Y812D01*
X1238Y811D02*
X1245Y811D01*
X2238Y811D02*
X2245Y811D01*
X1238Y810D02*
X1245Y810D01*
X2238Y810D02*
X2245Y810D01*
X1238Y809D02*
X1245Y809D01*
X2238Y809D02*
X2245Y809D01*
X1238Y808D02*
X1245Y808D01*
X2238Y808D02*
X2245Y808D01*
X1238Y807D02*
X1245Y807D01*
X2238Y807D02*
X2245Y807D01*
X1238Y806D02*
X1245Y806D01*
X2238Y806D02*
X2245Y806D01*
X1238Y805D02*
X1245Y805D01*
X2238Y805D02*
X2245Y805D01*
X1238Y804D02*
X1245Y804D01*
X2238Y804D02*
X2245Y804D01*
X1238Y803D02*
X1245Y803D01*
X2238Y803D02*
X2245Y803D01*
X1238Y802D02*
X1245Y802D01*
X2238Y802D02*
X2245Y802D01*
X1238Y801D02*
X1245Y801D01*
X2238Y801D02*
X2245Y801D01*
X1238Y800D02*
X1245Y800D01*
X2238Y800D02*
X2245Y800D01*
X1238Y799D02*
X1245Y799D01*
X2238Y799D02*
X2245Y799D01*
X1238Y798D02*
X1245Y798D01*
X2238Y798D02*
X2245Y798D01*
X1238Y797D02*
X1245Y797D01*
X2238Y797D02*
X2245Y797D01*
X1238Y796D02*
X1245Y796D01*
X2238Y796D02*
X2245Y796D01*
X1238Y795D02*
X1245Y795D01*
X2238Y795D02*
X2245Y795D01*
X1238Y794D02*
X1245Y794D01*
X2238Y794D02*
X2245Y794D01*
X1238Y793D02*
X1245Y793D01*
X2238Y793D02*
X2245Y793D01*
X1238Y792D02*
X1245Y792D01*
X2238Y792D02*
X2245Y792D01*
X1238Y791D02*
X1245Y791D01*
X2238Y791D02*
X2245Y791D01*
X1238Y790D02*
X1245Y790D01*
X2238Y790D02*
X2245Y790D01*
X1238Y789D02*
X1245Y789D01*
X2238Y789D02*
X2245Y789D01*
X1238Y788D02*
X1245Y788D01*
X2238Y788D02*
X2245Y788D01*
X1238Y787D02*
X1245Y787D01*
X2238Y787D02*
X2245Y787D01*
X1238Y786D02*
X1245Y786D01*
X2238Y786D02*
X2245Y786D01*
X1238Y785D02*
X1245Y785D01*
X2238Y785D02*
X2245Y785D01*
X1238Y784D02*
X1245Y784D01*
X2238Y784D02*
X2245Y784D01*
X1238Y783D02*
X1245Y783D01*
X2238Y783D02*
X2245Y783D01*
X1238Y782D02*
X1245Y782D01*
X2238Y782D02*
X2245Y782D01*
X1238Y781D02*
X1245Y781D01*
X2238Y781D02*
X2245Y781D01*
X1238Y780D02*
X1245Y780D01*
X2238Y780D02*
X2245Y780D01*
X1238Y779D02*
X1245Y779D01*
X2238Y779D02*
X2245Y779D01*
X1238Y778D02*
X1245Y778D01*
X2238Y778D02*
X2245Y778D01*
X1238Y777D02*
X1245Y777D01*
X2238Y777D02*
X2245Y777D01*
X1238Y776D02*
X1245Y776D01*
X2238Y776D02*
X2245Y776D01*
X1238Y775D02*
X1245Y775D01*
X2238Y775D02*
X2245Y775D01*
X1238Y774D02*
X1245Y774D01*
X2238Y774D02*
X2245Y774D01*
X1238Y773D02*
X1245Y773D01*
X2238Y773D02*
X2245Y773D01*
X1238Y772D02*
X1245Y772D01*
X2238Y772D02*
X2245Y772D01*
X1238Y771D02*
X1245Y771D01*
X2238Y771D02*
X2245Y771D01*
X1238Y770D02*
X1245Y770D01*
X1374Y770D02*
X1374Y770D01*
X1379Y770D02*
X1379Y770D01*
X1390Y770D02*
X1390Y770D01*
X1394Y770D02*
X1394Y770D01*
X2088Y770D02*
X2088Y770D01*
X2093Y770D02*
X2093Y770D01*
X2238Y770D02*
X2245Y770D01*
X1238Y769D02*
X1245Y769D01*
X1372Y769D02*
X1381Y769D01*
X1388Y769D02*
X1396Y769D01*
X2086Y769D02*
X2095Y769D01*
X2112Y769D02*
X2115Y769D01*
X2238Y769D02*
X2245Y769D01*
X1238Y768D02*
X1245Y768D01*
X1371Y768D02*
X1382Y768D01*
X1388Y768D02*
X1397Y768D01*
X2085Y768D02*
X2096Y768D01*
X2112Y768D02*
X2116Y768D01*
X2238Y768D02*
X2245Y768D01*
X1238Y767D02*
X1245Y767D01*
X1371Y767D02*
X1383Y767D01*
X1387Y767D02*
X1398Y767D01*
X2084Y767D02*
X2096Y767D01*
X2111Y767D02*
X2116Y767D01*
X2238Y767D02*
X2245Y767D01*
X1238Y766D02*
X1245Y766D01*
X1370Y766D02*
X1384Y766D01*
X1386Y766D02*
X1399Y766D01*
X2083Y766D02*
X2097Y766D01*
X2111Y766D02*
X2116Y766D01*
X2238Y766D02*
X2245Y766D01*
X1238Y765D02*
X1245Y765D01*
X1369Y765D02*
X1400Y765D01*
X2082Y765D02*
X2098Y765D01*
X2110Y765D02*
X2115Y765D01*
X2238Y765D02*
X2245Y765D01*
X1238Y764D02*
X1245Y764D01*
X1367Y764D02*
X1375Y764D01*
X1379Y764D02*
X1391Y764D01*
X1394Y764D02*
X1401Y764D01*
X2081Y764D02*
X2088Y764D01*
X2092Y764D02*
X2099Y764D01*
X2110Y764D02*
X2115Y764D01*
X2238Y764D02*
X2245Y764D01*
X1238Y763D02*
X1245Y763D01*
X1367Y763D02*
X1373Y763D01*
X1380Y763D02*
X1390Y763D01*
X1395Y763D02*
X1402Y763D01*
X2080Y763D02*
X2087Y763D01*
X2093Y763D02*
X2100Y763D01*
X2109Y763D02*
X2114Y763D01*
X2238Y763D02*
X2245Y763D01*
X1238Y762D02*
X1245Y762D01*
X1366Y762D02*
X1372Y762D01*
X1381Y762D02*
X1389Y762D01*
X1396Y762D02*
X1402Y762D01*
X2080Y762D02*
X2086Y762D01*
X2094Y762D02*
X2100Y762D01*
X2108Y762D02*
X2114Y762D01*
X2238Y762D02*
X2245Y762D01*
X1238Y761D02*
X1245Y761D01*
X1366Y761D02*
X1371Y761D01*
X1382Y761D02*
X1388Y761D01*
X1397Y761D02*
X1402Y761D01*
X2080Y761D02*
X2085Y761D01*
X2095Y761D02*
X2100Y761D01*
X2108Y761D02*
X2113Y761D01*
X2238Y761D02*
X2245Y761D01*
X1238Y760D02*
X1245Y760D01*
X1366Y760D02*
X1371Y760D01*
X1382Y760D02*
X1387Y760D01*
X1398Y760D02*
X1402Y760D01*
X2080Y760D02*
X2085Y760D01*
X2095Y760D02*
X2100Y760D01*
X2107Y760D02*
X2113Y760D01*
X2238Y760D02*
X2245Y760D01*
X1238Y759D02*
X1245Y759D01*
X1366Y759D02*
X1371Y759D01*
X1383Y759D02*
X1387Y759D01*
X1398Y759D02*
X1402Y759D01*
X2080Y759D02*
X2085Y759D01*
X2095Y759D02*
X2100Y759D01*
X2107Y759D02*
X2112Y759D01*
X2238Y759D02*
X2245Y759D01*
X1238Y758D02*
X1245Y758D01*
X1366Y758D02*
X1371Y758D01*
X1383Y758D02*
X1387Y758D01*
X1398Y758D02*
X1402Y758D01*
X2080Y758D02*
X2085Y758D01*
X2095Y758D02*
X2100Y758D01*
X2106Y758D02*
X2112Y758D01*
X2238Y758D02*
X2245Y758D01*
X1238Y757D02*
X1245Y757D01*
X1366Y757D02*
X1371Y757D01*
X1383Y757D02*
X1387Y757D01*
X1398Y757D02*
X1402Y757D01*
X2080Y757D02*
X2085Y757D01*
X2095Y757D02*
X2100Y757D01*
X2105Y757D02*
X2111Y757D01*
X2238Y757D02*
X2245Y757D01*
X1238Y756D02*
X1245Y756D01*
X1366Y756D02*
X1371Y756D01*
X1383Y756D02*
X1387Y756D01*
X1398Y756D02*
X1402Y756D01*
X2080Y756D02*
X2085Y756D01*
X2095Y756D02*
X2100Y756D01*
X2104Y756D02*
X2111Y756D01*
X2238Y756D02*
X2245Y756D01*
X1238Y755D02*
X1245Y755D01*
X1366Y755D02*
X1371Y755D01*
X1384Y755D02*
X1386Y755D01*
X1398Y755D02*
X1402Y755D01*
X2080Y755D02*
X2085Y755D01*
X2095Y755D02*
X2100Y755D01*
X2103Y755D02*
X2110Y755D01*
X2238Y755D02*
X2245Y755D01*
X1238Y754D02*
X1245Y754D01*
X1366Y754D02*
X1371Y754D01*
X1398Y754D02*
X1402Y754D01*
X2080Y754D02*
X2085Y754D01*
X2095Y754D02*
X2100Y754D01*
X2102Y754D02*
X2109Y754D01*
X2238Y754D02*
X2245Y754D01*
X1238Y753D02*
X1245Y753D01*
X1366Y753D02*
X1371Y753D01*
X1398Y753D02*
X1402Y753D01*
X2080Y753D02*
X2085Y753D01*
X2095Y753D02*
X2108Y753D01*
X2238Y753D02*
X2245Y753D01*
X1238Y752D02*
X1245Y752D01*
X1366Y752D02*
X1372Y752D01*
X1397Y752D02*
X1403Y752D01*
X2080Y752D02*
X2086Y752D01*
X2095Y752D02*
X2107Y752D01*
X2238Y752D02*
X2245Y752D01*
X1238Y751D02*
X1245Y751D01*
X1366Y751D02*
X1373Y751D01*
X1396Y751D02*
X1402Y751D01*
X2080Y751D02*
X2087Y751D01*
X2095Y751D02*
X2106Y751D01*
X2238Y751D02*
X2245Y751D01*
X1238Y750D02*
X1245Y750D01*
X1367Y750D02*
X1374Y750D01*
X1395Y750D02*
X1402Y750D01*
X2081Y750D02*
X2088Y750D01*
X2095Y750D02*
X2105Y750D01*
X2238Y750D02*
X2245Y750D01*
X1238Y749D02*
X1245Y749D01*
X1368Y749D02*
X1375Y749D01*
X1394Y749D02*
X1401Y749D01*
X2082Y749D02*
X2104Y749D01*
X2238Y749D02*
X2245Y749D01*
X1238Y748D02*
X1245Y748D01*
X1369Y748D02*
X1376Y748D01*
X1393Y748D02*
X1400Y748D01*
X2083Y748D02*
X2103Y748D01*
X2238Y748D02*
X2245Y748D01*
X1238Y747D02*
X1245Y747D01*
X1370Y747D02*
X1376Y747D01*
X1392Y747D02*
X1399Y747D01*
X2084Y747D02*
X2102Y747D01*
X2238Y747D02*
X2245Y747D01*
X1238Y746D02*
X1245Y746D01*
X1371Y746D02*
X1376Y746D01*
X1392Y746D02*
X1398Y746D01*
X2085Y746D02*
X2101Y746D01*
X2238Y746D02*
X2245Y746D01*
X1238Y745D02*
X1245Y745D01*
X1372Y745D02*
X1376Y745D01*
X1393Y745D02*
X1397Y745D01*
X2086Y745D02*
X2100Y745D01*
X2238Y745D02*
X2245Y745D01*
X1238Y744D02*
X1245Y744D01*
X1373Y744D02*
X1375Y744D01*
X1394Y744D02*
X1395Y744D01*
X2087Y744D02*
X2099Y744D01*
X2238Y744D02*
X2245Y744D01*
X1238Y743D02*
X1245Y743D01*
X2238Y743D02*
X2245Y743D01*
X1238Y742D02*
X1245Y742D01*
X2238Y742D02*
X2245Y742D01*
X1238Y741D02*
X1245Y741D01*
X2238Y741D02*
X2245Y741D01*
X1238Y740D02*
X1245Y740D01*
X2238Y740D02*
X2245Y740D01*
X1238Y739D02*
X1245Y739D01*
X2238Y739D02*
X2245Y739D01*
X1238Y738D02*
X1245Y738D01*
X1373Y738D02*
X1396Y738D01*
X2087Y738D02*
X2110Y738D01*
X2238Y738D02*
X2245Y738D01*
X1238Y737D02*
X1245Y737D01*
X1372Y737D02*
X1397Y737D01*
X2086Y737D02*
X2111Y737D01*
X2238Y737D02*
X2245Y737D01*
X1238Y736D02*
X1245Y736D01*
X1371Y736D02*
X1398Y736D01*
X2085Y736D02*
X2112Y736D01*
X2238Y736D02*
X2245Y736D01*
X1238Y735D02*
X1245Y735D01*
X1370Y735D02*
X1399Y735D01*
X2084Y735D02*
X2113Y735D01*
X2238Y735D02*
X2245Y735D01*
X1238Y734D02*
X1245Y734D01*
X1369Y734D02*
X1400Y734D01*
X2083Y734D02*
X2114Y734D01*
X2238Y734D02*
X2245Y734D01*
X1238Y733D02*
X1245Y733D01*
X1368Y733D02*
X1401Y733D01*
X2082Y733D02*
X2115Y733D01*
X2238Y733D02*
X2245Y733D01*
X1238Y732D02*
X1245Y732D01*
X1367Y732D02*
X1374Y732D01*
X1395Y732D02*
X1402Y732D01*
X2081Y732D02*
X2088Y732D01*
X2109Y732D02*
X2116Y732D01*
X2238Y732D02*
X2245Y732D01*
X1238Y731D02*
X1245Y731D01*
X1366Y731D02*
X1373Y731D01*
X1396Y731D02*
X1402Y731D01*
X2080Y731D02*
X2087Y731D01*
X2110Y731D02*
X2116Y731D01*
X2238Y731D02*
X2245Y731D01*
X1238Y730D02*
X1245Y730D01*
X1366Y730D02*
X1372Y730D01*
X1397Y730D02*
X1403Y730D01*
X2080Y730D02*
X2086Y730D01*
X2111Y730D02*
X2116Y730D01*
X2238Y730D02*
X2245Y730D01*
X1238Y729D02*
X1245Y729D01*
X1366Y729D02*
X1371Y729D01*
X1398Y729D02*
X1402Y729D01*
X2080Y729D02*
X2085Y729D01*
X2111Y729D02*
X2116Y729D01*
X2238Y729D02*
X2245Y729D01*
X1238Y728D02*
X1245Y728D01*
X1366Y728D02*
X1371Y728D01*
X1398Y728D02*
X1402Y728D01*
X2080Y728D02*
X2085Y728D01*
X2112Y728D02*
X2116Y728D01*
X2238Y728D02*
X2245Y728D01*
X1238Y727D02*
X1245Y727D01*
X1366Y727D02*
X1371Y727D01*
X1398Y727D02*
X1402Y727D01*
X2080Y727D02*
X2085Y727D01*
X2112Y727D02*
X2116Y727D01*
X2238Y727D02*
X2245Y727D01*
X1238Y726D02*
X1245Y726D01*
X1366Y726D02*
X1371Y726D01*
X1398Y726D02*
X1402Y726D01*
X2080Y726D02*
X2085Y726D01*
X2112Y726D02*
X2116Y726D01*
X2238Y726D02*
X2245Y726D01*
X1238Y725D02*
X1245Y725D01*
X1366Y725D02*
X1371Y725D01*
X1398Y725D02*
X1402Y725D01*
X2080Y725D02*
X2085Y725D01*
X2112Y725D02*
X2116Y725D01*
X2238Y725D02*
X2245Y725D01*
X1238Y724D02*
X1245Y724D01*
X1366Y724D02*
X1371Y724D01*
X1398Y724D02*
X1402Y724D01*
X2080Y724D02*
X2085Y724D01*
X2112Y724D02*
X2116Y724D01*
X2238Y724D02*
X2245Y724D01*
X1238Y723D02*
X1245Y723D01*
X1366Y723D02*
X1371Y723D01*
X1398Y723D02*
X1402Y723D01*
X2080Y723D02*
X2085Y723D01*
X2112Y723D02*
X2116Y723D01*
X2238Y723D02*
X2245Y723D01*
X1238Y722D02*
X1245Y722D01*
X1366Y722D02*
X1371Y722D01*
X1398Y722D02*
X1402Y722D01*
X2080Y722D02*
X2085Y722D01*
X2112Y722D02*
X2116Y722D01*
X2238Y722D02*
X2245Y722D01*
X1238Y721D02*
X1245Y721D01*
X1366Y721D02*
X1371Y721D01*
X1398Y721D02*
X1402Y721D01*
X2080Y721D02*
X2085Y721D01*
X2112Y721D02*
X2116Y721D01*
X2238Y721D02*
X2245Y721D01*
X1238Y720D02*
X1245Y720D01*
X1366Y720D02*
X1371Y720D01*
X1398Y720D02*
X1402Y720D01*
X2080Y720D02*
X2085Y720D01*
X2112Y720D02*
X2116Y720D01*
X2238Y720D02*
X2245Y720D01*
X1238Y719D02*
X1245Y719D01*
X1366Y719D02*
X1371Y719D01*
X1398Y719D02*
X1402Y719D01*
X2080Y719D02*
X2085Y719D01*
X2112Y719D02*
X2116Y719D01*
X2238Y719D02*
X2245Y719D01*
X1238Y718D02*
X1245Y718D01*
X1366Y718D02*
X1371Y718D01*
X1397Y718D02*
X1402Y718D01*
X2080Y718D02*
X2085Y718D01*
X2111Y718D02*
X2116Y718D01*
X2238Y718D02*
X2245Y718D01*
X1238Y717D02*
X1245Y717D01*
X1366Y717D02*
X1402Y717D01*
X2080Y717D02*
X2116Y717D01*
X2238Y717D02*
X2245Y717D01*
X1238Y716D02*
X1245Y716D01*
X1366Y716D02*
X1402Y716D01*
X2080Y716D02*
X2116Y716D01*
X2238Y716D02*
X2245Y716D01*
X1238Y715D02*
X1245Y715D01*
X1366Y715D02*
X1403Y715D01*
X2080Y715D02*
X2116Y715D01*
X2238Y715D02*
X2245Y715D01*
X1238Y714D02*
X1245Y714D01*
X1366Y714D02*
X1402Y714D01*
X2080Y714D02*
X2116Y714D01*
X2238Y714D02*
X2245Y714D01*
X1238Y713D02*
X1245Y713D01*
X1367Y713D02*
X1402Y713D01*
X2081Y713D02*
X2115Y713D01*
X2238Y713D02*
X2245Y713D01*
X1238Y712D02*
X1245Y712D01*
X2238Y712D02*
X2245Y712D01*
X1238Y711D02*
X1245Y711D01*
X2238Y711D02*
X2245Y711D01*
X1238Y710D02*
X1245Y710D01*
X2238Y710D02*
X2245Y710D01*
X1238Y709D02*
X1245Y709D01*
X2238Y709D02*
X2245Y709D01*
X1238Y708D02*
X1245Y708D01*
X2238Y708D02*
X2245Y708D01*
X1238Y707D02*
X1245Y707D01*
X2238Y707D02*
X2245Y707D01*
X1238Y706D02*
X1245Y706D01*
X2238Y706D02*
X2245Y706D01*
X1238Y705D02*
X1245Y705D01*
X2238Y705D02*
X2245Y705D01*
X1238Y704D02*
X1245Y704D01*
X2238Y704D02*
X2245Y704D01*
X1238Y703D02*
X1245Y703D01*
X2238Y703D02*
X2245Y703D01*
X1238Y702D02*
X1245Y702D01*
X2238Y702D02*
X2245Y702D01*
X1238Y701D02*
X1245Y701D01*
X2238Y701D02*
X2245Y701D01*
X1238Y700D02*
X1245Y700D01*
X2238Y700D02*
X2245Y700D01*
X1238Y699D02*
X1245Y699D01*
X2238Y699D02*
X2245Y699D01*
X1238Y698D02*
X1245Y698D01*
X2238Y698D02*
X2245Y698D01*
X1238Y697D02*
X1245Y697D01*
X2238Y697D02*
X2245Y697D01*
X1238Y696D02*
X1245Y696D01*
X2238Y696D02*
X2245Y696D01*
X1238Y695D02*
X1245Y695D01*
X2238Y695D02*
X2245Y695D01*
X1238Y694D02*
X1245Y694D01*
X2238Y694D02*
X2245Y694D01*
X1238Y693D02*
X1245Y693D01*
X2238Y693D02*
X2245Y693D01*
X1238Y692D02*
X1245Y692D01*
X2238Y692D02*
X2245Y692D01*
X1238Y691D02*
X1245Y691D01*
X2238Y691D02*
X2245Y691D01*
X1238Y690D02*
X1245Y690D01*
X2238Y690D02*
X2245Y690D01*
X1238Y689D02*
X1245Y689D01*
X2238Y689D02*
X2245Y689D01*
X1238Y688D02*
X1245Y688D01*
X2238Y688D02*
X2245Y688D01*
X1238Y687D02*
X1245Y687D01*
X2238Y687D02*
X2245Y687D01*
X1238Y686D02*
X1245Y686D01*
X2238Y686D02*
X2245Y686D01*
X1238Y685D02*
X1245Y685D01*
X2238Y685D02*
X2245Y685D01*
X1238Y684D02*
X1245Y684D01*
X2238Y684D02*
X2245Y684D01*
X1238Y683D02*
X1245Y683D01*
X2238Y683D02*
X2245Y683D01*
X1238Y682D02*
X1245Y682D01*
X2238Y682D02*
X2245Y682D01*
X1238Y681D02*
X1245Y681D01*
X2238Y681D02*
X2245Y681D01*
X1238Y680D02*
X1245Y680D01*
X2238Y680D02*
X2245Y680D01*
X1238Y679D02*
X1245Y679D01*
X2238Y679D02*
X2245Y679D01*
X1238Y678D02*
X1245Y678D01*
X2238Y678D02*
X2245Y678D01*
X1238Y677D02*
X1245Y677D01*
X2238Y677D02*
X2245Y677D01*
X1238Y676D02*
X1245Y676D01*
X2238Y676D02*
X2245Y676D01*
X1238Y675D02*
X1245Y675D01*
X2238Y675D02*
X2245Y675D01*
X1238Y674D02*
X1245Y674D01*
X2238Y674D02*
X2245Y674D01*
X1238Y673D02*
X1245Y673D01*
X2238Y673D02*
X2245Y673D01*
X1238Y672D02*
X1245Y672D01*
X2238Y672D02*
X2245Y672D01*
X1238Y671D02*
X1245Y671D01*
X2238Y671D02*
X2245Y671D01*
X1238Y670D02*
X1245Y670D01*
X2108Y670D02*
X2109Y670D01*
X2114Y670D02*
X2114Y670D01*
X2238Y670D02*
X2245Y670D01*
X1238Y669D02*
X1245Y669D01*
X1382Y669D02*
X1385Y669D01*
X2107Y669D02*
X2116Y669D01*
X2238Y669D02*
X2245Y669D01*
X1238Y668D02*
X1245Y668D01*
X1382Y668D02*
X1386Y668D01*
X2106Y668D02*
X2116Y668D01*
X2238Y668D02*
X2245Y668D01*
X1238Y667D02*
X1245Y667D01*
X1382Y667D02*
X1386Y667D01*
X2105Y667D02*
X2116Y667D01*
X2238Y667D02*
X2245Y667D01*
X1238Y666D02*
X1245Y666D01*
X1382Y666D02*
X1386Y666D01*
X2104Y666D02*
X2116Y666D01*
X2238Y666D02*
X2245Y666D01*
X1238Y665D02*
X1245Y665D01*
X1382Y665D02*
X1386Y665D01*
X2103Y665D02*
X2116Y665D01*
X2238Y665D02*
X2245Y665D01*
X1238Y664D02*
X1245Y664D01*
X1368Y664D02*
X1401Y664D01*
X2102Y664D02*
X2109Y664D01*
X2111Y664D02*
X2116Y664D01*
X2238Y664D02*
X2245Y664D01*
X1238Y663D02*
X1245Y663D01*
X1367Y663D02*
X1402Y663D01*
X2101Y663D02*
X2108Y663D01*
X2112Y663D02*
X2116Y663D01*
X2238Y663D02*
X2245Y663D01*
X1238Y662D02*
X1245Y662D01*
X1366Y662D02*
X1402Y662D01*
X2100Y662D02*
X2107Y662D01*
X2112Y662D02*
X2116Y662D01*
X2238Y662D02*
X2245Y662D01*
X1238Y661D02*
X1245Y661D01*
X1367Y661D02*
X1402Y661D01*
X2099Y661D02*
X2106Y661D01*
X2112Y661D02*
X2116Y661D01*
X2238Y661D02*
X2245Y661D01*
X1238Y660D02*
X1245Y660D01*
X1367Y660D02*
X1402Y660D01*
X2098Y660D02*
X2105Y660D01*
X2112Y660D02*
X2116Y660D01*
X2238Y660D02*
X2245Y660D01*
X1238Y659D02*
X1245Y659D01*
X1369Y659D02*
X1401Y659D01*
X2097Y659D02*
X2104Y659D01*
X2112Y659D02*
X2116Y659D01*
X2238Y659D02*
X2245Y659D01*
X1238Y658D02*
X1245Y658D01*
X1382Y658D02*
X1386Y658D01*
X1393Y658D02*
X1400Y658D01*
X2096Y658D02*
X2103Y658D01*
X2112Y658D02*
X2116Y658D01*
X2238Y658D02*
X2245Y658D01*
X1238Y657D02*
X1245Y657D01*
X1382Y657D02*
X1386Y657D01*
X1392Y657D02*
X1399Y657D01*
X2095Y657D02*
X2102Y657D01*
X2112Y657D02*
X2116Y657D01*
X2238Y657D02*
X2245Y657D01*
X1238Y656D02*
X1245Y656D01*
X1382Y656D02*
X1386Y656D01*
X1390Y656D02*
X1398Y656D01*
X2094Y656D02*
X2101Y656D01*
X2112Y656D02*
X2116Y656D01*
X2238Y656D02*
X2245Y656D01*
X1238Y655D02*
X1245Y655D01*
X1382Y655D02*
X1386Y655D01*
X1389Y655D02*
X1396Y655D01*
X2093Y655D02*
X2100Y655D01*
X2112Y655D02*
X2116Y655D01*
X2238Y655D02*
X2245Y655D01*
X1238Y654D02*
X1245Y654D01*
X1382Y654D02*
X1386Y654D01*
X1388Y654D02*
X1395Y654D01*
X2092Y654D02*
X2099Y654D01*
X2112Y654D02*
X2116Y654D01*
X2238Y654D02*
X2245Y654D01*
X1238Y653D02*
X1245Y653D01*
X1382Y653D02*
X1394Y653D01*
X2091Y653D02*
X2098Y653D01*
X2112Y653D02*
X2116Y653D01*
X2238Y653D02*
X2245Y653D01*
X1238Y652D02*
X1245Y652D01*
X1382Y652D02*
X1393Y652D01*
X2090Y652D02*
X2097Y652D01*
X2112Y652D02*
X2116Y652D01*
X2238Y652D02*
X2245Y652D01*
X1238Y651D02*
X1245Y651D01*
X1382Y651D02*
X1392Y651D01*
X2089Y651D02*
X2096Y651D01*
X2112Y651D02*
X2116Y651D01*
X2238Y651D02*
X2245Y651D01*
X1238Y650D02*
X1245Y650D01*
X1382Y650D02*
X1391Y650D01*
X2088Y650D02*
X2095Y650D01*
X2112Y650D02*
X2116Y650D01*
X2238Y650D02*
X2245Y650D01*
X1238Y649D02*
X1245Y649D01*
X1382Y649D02*
X1390Y649D01*
X2082Y649D02*
X2094Y649D01*
X2112Y649D02*
X2116Y649D01*
X2238Y649D02*
X2245Y649D01*
X1238Y648D02*
X1245Y648D01*
X1382Y648D02*
X1389Y648D01*
X2081Y648D02*
X2093Y648D01*
X2112Y648D02*
X2116Y648D01*
X2238Y648D02*
X2245Y648D01*
X1238Y647D02*
X1245Y647D01*
X1381Y647D02*
X1388Y647D01*
X2080Y647D02*
X2092Y647D01*
X2112Y647D02*
X2116Y647D01*
X2238Y647D02*
X2245Y647D01*
X1238Y646D02*
X1245Y646D01*
X1381Y646D02*
X1387Y646D01*
X2080Y646D02*
X2091Y646D01*
X2112Y646D02*
X2116Y646D01*
X2238Y646D02*
X2245Y646D01*
X1238Y645D02*
X1245Y645D01*
X1382Y645D02*
X1386Y645D01*
X2081Y645D02*
X2090Y645D01*
X2112Y645D02*
X2116Y645D01*
X2238Y645D02*
X2245Y645D01*
X1238Y644D02*
X1245Y644D01*
X1383Y644D02*
X1385Y644D01*
X2082Y644D02*
X2089Y644D01*
X2113Y644D02*
X2115Y644D01*
X2238Y644D02*
X2245Y644D01*
X1238Y643D02*
X1245Y643D01*
X2238Y643D02*
X2245Y643D01*
X1238Y642D02*
X1245Y642D01*
X2238Y642D02*
X2245Y642D01*
X1238Y641D02*
X1245Y641D01*
X2238Y641D02*
X2245Y641D01*
X1238Y640D02*
X1245Y640D01*
X2238Y640D02*
X2245Y640D01*
X1238Y639D02*
X1245Y639D01*
X2238Y639D02*
X2245Y639D01*
X1238Y638D02*
X1245Y638D01*
X1373Y638D02*
X1396Y638D01*
X2087Y638D02*
X2110Y638D01*
X2238Y638D02*
X2245Y638D01*
X1238Y637D02*
X1245Y637D01*
X1372Y637D02*
X1397Y637D01*
X2086Y637D02*
X2111Y637D01*
X2238Y637D02*
X2245Y637D01*
X1238Y636D02*
X1245Y636D01*
X1371Y636D02*
X1398Y636D01*
X2085Y636D02*
X2112Y636D01*
X2238Y636D02*
X2245Y636D01*
X1238Y635D02*
X1245Y635D01*
X1370Y635D02*
X1399Y635D01*
X2084Y635D02*
X2113Y635D01*
X2238Y635D02*
X2245Y635D01*
X1238Y634D02*
X1245Y634D01*
X1369Y634D02*
X1400Y634D01*
X2083Y634D02*
X2114Y634D01*
X2238Y634D02*
X2245Y634D01*
X1238Y633D02*
X1245Y633D01*
X1368Y633D02*
X1401Y633D01*
X2082Y633D02*
X2115Y633D01*
X2238Y633D02*
X2245Y633D01*
X1238Y632D02*
X1245Y632D01*
X1367Y632D02*
X1374Y632D01*
X1395Y632D02*
X1402Y632D01*
X2081Y632D02*
X2088Y632D01*
X2109Y632D02*
X2116Y632D01*
X2238Y632D02*
X2245Y632D01*
X1238Y631D02*
X1245Y631D01*
X1366Y631D02*
X1373Y631D01*
X1396Y631D02*
X1402Y631D01*
X2080Y631D02*
X2087Y631D01*
X2110Y631D02*
X2116Y631D01*
X2238Y631D02*
X2245Y631D01*
X1238Y630D02*
X1245Y630D01*
X1366Y630D02*
X1372Y630D01*
X1397Y630D02*
X1403Y630D01*
X2080Y630D02*
X2086Y630D01*
X2111Y630D02*
X2116Y630D01*
X2238Y630D02*
X2245Y630D01*
X1238Y629D02*
X1245Y629D01*
X1366Y629D02*
X1371Y629D01*
X1398Y629D02*
X1402Y629D01*
X2080Y629D02*
X2085Y629D01*
X2111Y629D02*
X2116Y629D01*
X2238Y629D02*
X2245Y629D01*
X1238Y628D02*
X1245Y628D01*
X1366Y628D02*
X1371Y628D01*
X1398Y628D02*
X1402Y628D01*
X2080Y628D02*
X2085Y628D01*
X2112Y628D02*
X2116Y628D01*
X2238Y628D02*
X2245Y628D01*
X1238Y627D02*
X1245Y627D01*
X1366Y627D02*
X1371Y627D01*
X1398Y627D02*
X1402Y627D01*
X2080Y627D02*
X2085Y627D01*
X2112Y627D02*
X2116Y627D01*
X2238Y627D02*
X2245Y627D01*
X1238Y626D02*
X1245Y626D01*
X1366Y626D02*
X1371Y626D01*
X1398Y626D02*
X1402Y626D01*
X2080Y626D02*
X2085Y626D01*
X2112Y626D02*
X2116Y626D01*
X2238Y626D02*
X2245Y626D01*
X1238Y625D02*
X1245Y625D01*
X1366Y625D02*
X1371Y625D01*
X1398Y625D02*
X1402Y625D01*
X2080Y625D02*
X2085Y625D01*
X2112Y625D02*
X2116Y625D01*
X2238Y625D02*
X2245Y625D01*
X1238Y624D02*
X1245Y624D01*
X1366Y624D02*
X1371Y624D01*
X1398Y624D02*
X1402Y624D01*
X2080Y624D02*
X2085Y624D01*
X2112Y624D02*
X2116Y624D01*
X2238Y624D02*
X2245Y624D01*
X1238Y623D02*
X1245Y623D01*
X1366Y623D02*
X1371Y623D01*
X1398Y623D02*
X1402Y623D01*
X2080Y623D02*
X2085Y623D01*
X2112Y623D02*
X2116Y623D01*
X2238Y623D02*
X2245Y623D01*
X1238Y622D02*
X1245Y622D01*
X1366Y622D02*
X1371Y622D01*
X1398Y622D02*
X1402Y622D01*
X2080Y622D02*
X2085Y622D01*
X2112Y622D02*
X2116Y622D01*
X2238Y622D02*
X2245Y622D01*
X1238Y621D02*
X1245Y621D01*
X1366Y621D02*
X1371Y621D01*
X1398Y621D02*
X1402Y621D01*
X2080Y621D02*
X2085Y621D01*
X2112Y621D02*
X2116Y621D01*
X2238Y621D02*
X2245Y621D01*
X1238Y620D02*
X1245Y620D01*
X1366Y620D02*
X1371Y620D01*
X1398Y620D02*
X1402Y620D01*
X2080Y620D02*
X2085Y620D01*
X2112Y620D02*
X2116Y620D01*
X2238Y620D02*
X2245Y620D01*
X1238Y619D02*
X1245Y619D01*
X1366Y619D02*
X1371Y619D01*
X1398Y619D02*
X1402Y619D01*
X2080Y619D02*
X2085Y619D01*
X2112Y619D02*
X2116Y619D01*
X2238Y619D02*
X2245Y619D01*
X1238Y618D02*
X1245Y618D01*
X1366Y618D02*
X1371Y618D01*
X1397Y618D02*
X1402Y618D01*
X2080Y618D02*
X2085Y618D01*
X2111Y618D02*
X2116Y618D01*
X2238Y618D02*
X2245Y618D01*
X1238Y617D02*
X1245Y617D01*
X1366Y617D02*
X1402Y617D01*
X2080Y617D02*
X2116Y617D01*
X2238Y617D02*
X2245Y617D01*
X1238Y616D02*
X1245Y616D01*
X1366Y616D02*
X1402Y616D01*
X2080Y616D02*
X2116Y616D01*
X2238Y616D02*
X2245Y616D01*
X1238Y615D02*
X1245Y615D01*
X1366Y615D02*
X1403Y615D01*
X2080Y615D02*
X2116Y615D01*
X2238Y615D02*
X2245Y615D01*
X1238Y614D02*
X1245Y614D01*
X1366Y614D02*
X1402Y614D01*
X2080Y614D02*
X2116Y614D01*
X2238Y614D02*
X2245Y614D01*
X1238Y613D02*
X1245Y613D01*
X1367Y613D02*
X1402Y613D01*
X2081Y613D02*
X2115Y613D01*
X2238Y613D02*
X2245Y613D01*
X1238Y612D02*
X1245Y612D01*
X2238Y612D02*
X2245Y612D01*
X1238Y611D02*
X1245Y611D01*
X2238Y611D02*
X2245Y611D01*
X1238Y610D02*
X1245Y610D01*
X2238Y610D02*
X2245Y610D01*
X1238Y609D02*
X1245Y609D01*
X2238Y609D02*
X2245Y609D01*
X1238Y608D02*
X1245Y608D01*
X2238Y608D02*
X2245Y608D01*
X1238Y607D02*
X1245Y607D01*
X2238Y607D02*
X2245Y607D01*
X1238Y606D02*
X1245Y606D01*
X2238Y606D02*
X2245Y606D01*
X1238Y605D02*
X1245Y605D01*
X2238Y605D02*
X2245Y605D01*
X1238Y604D02*
X1245Y604D01*
X2238Y604D02*
X2245Y604D01*
X1238Y603D02*
X1245Y603D01*
X2238Y603D02*
X2245Y603D01*
X1238Y602D02*
X1245Y602D01*
X2238Y602D02*
X2245Y602D01*
X1238Y601D02*
X1245Y601D01*
X2238Y601D02*
X2245Y601D01*
X1238Y600D02*
X1245Y600D01*
X2238Y600D02*
X2245Y600D01*
X1238Y599D02*
X1245Y599D01*
X2238Y599D02*
X2245Y599D01*
X1238Y598D02*
X1245Y598D01*
X2238Y598D02*
X2245Y598D01*
X1238Y597D02*
X1245Y597D01*
X2238Y597D02*
X2245Y597D01*
X1238Y596D02*
X1245Y596D01*
X2238Y596D02*
X2245Y596D01*
X1238Y595D02*
X1245Y595D01*
X2238Y595D02*
X2245Y595D01*
X1238Y594D02*
X1245Y594D01*
X2238Y594D02*
X2245Y594D01*
X1238Y593D02*
X1245Y593D01*
X2238Y593D02*
X2245Y593D01*
X1238Y592D02*
X1245Y592D01*
X2238Y592D02*
X2245Y592D01*
X1238Y591D02*
X1245Y591D01*
X2238Y591D02*
X2245Y591D01*
X1238Y590D02*
X1245Y590D01*
X2238Y590D02*
X2245Y590D01*
X1238Y589D02*
X1245Y589D01*
X2238Y589D02*
X2245Y589D01*
X1238Y588D02*
X1245Y588D01*
X2238Y588D02*
X2245Y588D01*
X1238Y587D02*
X1245Y587D01*
X2238Y587D02*
X2245Y587D01*
X1238Y586D02*
X1245Y586D01*
X2238Y586D02*
X2245Y586D01*
X1238Y585D02*
X1245Y585D01*
X2238Y585D02*
X2245Y585D01*
X1238Y584D02*
X1245Y584D01*
X2238Y584D02*
X2245Y584D01*
X1238Y583D02*
X1245Y583D01*
X2238Y583D02*
X2245Y583D01*
X1238Y582D02*
X1245Y582D01*
X2238Y582D02*
X2245Y582D01*
X1238Y581D02*
X1245Y581D01*
X2238Y581D02*
X2245Y581D01*
X1238Y580D02*
X1245Y580D01*
X2238Y580D02*
X2245Y580D01*
X1238Y579D02*
X1245Y579D01*
X2238Y579D02*
X2245Y579D01*
X1238Y578D02*
X1245Y578D01*
X2238Y578D02*
X2245Y578D01*
X1238Y577D02*
X1245Y577D01*
X2238Y577D02*
X2245Y577D01*
X1238Y576D02*
X1245Y576D01*
X2238Y576D02*
X2245Y576D01*
X1238Y575D02*
X1245Y575D01*
X2238Y575D02*
X2245Y575D01*
X1238Y574D02*
X1245Y574D01*
X2238Y574D02*
X2245Y574D01*
X1238Y573D02*
X1245Y573D01*
X2238Y573D02*
X2245Y573D01*
X1238Y572D02*
X1245Y572D01*
X2238Y572D02*
X2245Y572D01*
X1238Y571D02*
X1245Y571D01*
X2238Y571D02*
X2245Y571D01*
X1238Y570D02*
X1245Y570D01*
X2088Y570D02*
X2088Y570D01*
X2092Y570D02*
X2092Y570D01*
X2103Y570D02*
X2104Y570D01*
X2108Y570D02*
X2109Y570D01*
X2238Y570D02*
X2245Y570D01*
X1238Y569D02*
X1245Y569D01*
X2086Y569D02*
X2094Y569D01*
X2101Y569D02*
X2110Y569D01*
X2238Y569D02*
X2245Y569D01*
X1238Y568D02*
X1245Y568D01*
X2085Y568D02*
X2095Y568D01*
X2100Y568D02*
X2111Y568D01*
X2238Y568D02*
X2245Y568D01*
X1238Y567D02*
X1245Y567D01*
X2084Y567D02*
X2096Y567D01*
X2100Y567D02*
X2112Y567D01*
X2238Y567D02*
X2245Y567D01*
X1238Y566D02*
X1245Y566D01*
X2083Y566D02*
X2113Y566D01*
X2238Y566D02*
X2245Y566D01*
X1238Y565D02*
X1245Y565D01*
X2082Y565D02*
X2114Y565D01*
X2238Y565D02*
X2245Y565D01*
X1238Y564D02*
X1245Y564D01*
X2081Y564D02*
X2088Y564D01*
X2092Y564D02*
X2104Y564D01*
X2108Y564D02*
X2115Y564D01*
X2238Y564D02*
X2245Y564D01*
X1238Y563D02*
X1245Y563D01*
X2080Y563D02*
X2087Y563D01*
X2093Y563D02*
X2102Y563D01*
X2109Y563D02*
X2116Y563D01*
X2238Y563D02*
X2245Y563D01*
X1238Y562D02*
X1245Y562D01*
X2080Y562D02*
X2086Y562D01*
X2094Y562D02*
X2101Y562D01*
X2110Y562D02*
X2116Y562D01*
X2238Y562D02*
X2245Y562D01*
X1238Y561D02*
X1245Y561D01*
X2080Y561D02*
X2085Y561D01*
X2095Y561D02*
X2100Y561D01*
X2111Y561D02*
X2116Y561D01*
X2238Y561D02*
X2245Y561D01*
X1238Y560D02*
X1245Y560D01*
X2080Y560D02*
X2085Y560D01*
X2095Y560D02*
X2100Y560D01*
X2111Y560D02*
X2116Y560D01*
X2238Y560D02*
X2245Y560D01*
X1238Y559D02*
X1245Y559D01*
X2080Y559D02*
X2085Y559D01*
X2095Y559D02*
X2100Y559D01*
X2112Y559D02*
X2116Y559D01*
X2238Y559D02*
X2245Y559D01*
X1238Y558D02*
X1245Y558D01*
X2080Y558D02*
X2085Y558D01*
X2095Y558D02*
X2100Y558D01*
X2112Y558D02*
X2116Y558D01*
X2238Y558D02*
X2245Y558D01*
X1238Y557D02*
X1245Y557D01*
X2080Y557D02*
X2085Y557D01*
X2095Y557D02*
X2100Y557D01*
X2112Y557D02*
X2116Y557D01*
X2238Y557D02*
X2245Y557D01*
X1238Y556D02*
X1245Y556D01*
X2080Y556D02*
X2085Y556D01*
X2095Y556D02*
X2100Y556D01*
X2112Y556D02*
X2116Y556D01*
X2238Y556D02*
X2245Y556D01*
X1238Y555D02*
X1245Y555D01*
X2080Y555D02*
X2085Y555D01*
X2095Y555D02*
X2100Y555D01*
X2112Y555D02*
X2116Y555D01*
X2238Y555D02*
X2245Y555D01*
X1238Y554D02*
X1245Y554D01*
X1373Y554D02*
X1386Y554D01*
X1394Y554D02*
X1395Y554D01*
X2080Y554D02*
X2085Y554D01*
X2095Y554D02*
X2100Y554D01*
X2112Y554D02*
X2116Y554D01*
X2238Y554D02*
X2245Y554D01*
X1238Y553D02*
X1245Y553D01*
X1372Y553D02*
X1387Y553D01*
X1393Y553D02*
X1396Y553D01*
X2080Y553D02*
X2085Y553D01*
X2095Y553D02*
X2100Y553D01*
X2111Y553D02*
X2116Y553D01*
X2238Y553D02*
X2245Y553D01*
X1238Y552D02*
X1245Y552D01*
X1371Y552D02*
X1387Y552D01*
X1392Y552D02*
X1397Y552D01*
X2080Y552D02*
X2086Y552D01*
X2094Y552D02*
X2101Y552D01*
X2111Y552D02*
X2116Y552D01*
X2238Y552D02*
X2245Y552D01*
X1238Y551D02*
X1245Y551D01*
X1370Y551D02*
X1387Y551D01*
X1392Y551D02*
X1398Y551D01*
X2080Y551D02*
X2087Y551D01*
X2093Y551D02*
X2102Y551D01*
X2110Y551D02*
X2116Y551D01*
X2238Y551D02*
X2245Y551D01*
X1238Y550D02*
X1245Y550D01*
X1369Y550D02*
X1387Y550D01*
X1393Y550D02*
X1399Y550D01*
X2081Y550D02*
X2088Y550D01*
X2092Y550D02*
X2103Y550D01*
X2109Y550D02*
X2116Y550D01*
X2238Y550D02*
X2245Y550D01*
X1238Y549D02*
X1245Y549D01*
X1368Y549D02*
X1387Y549D01*
X1394Y549D02*
X1401Y549D01*
X2082Y549D02*
X2115Y549D01*
X2238Y549D02*
X2245Y549D01*
X1238Y548D02*
X1245Y548D01*
X1367Y548D02*
X1374Y548D01*
X1383Y548D02*
X1387Y548D01*
X1395Y548D02*
X1402Y548D01*
X2083Y548D02*
X2113Y548D01*
X2238Y548D02*
X2245Y548D01*
X1238Y547D02*
X1245Y547D01*
X1366Y547D02*
X1373Y547D01*
X1383Y547D02*
X1387Y547D01*
X1396Y547D02*
X1402Y547D01*
X2084Y547D02*
X2096Y547D01*
X2099Y547D02*
X2112Y547D01*
X2238Y547D02*
X2245Y547D01*
X1238Y546D02*
X1245Y546D01*
X1366Y546D02*
X1372Y546D01*
X1383Y546D02*
X1387Y546D01*
X1397Y546D02*
X1403Y546D01*
X2085Y546D02*
X2095Y546D01*
X2100Y546D02*
X2111Y546D01*
X2238Y546D02*
X2245Y546D01*
X1238Y545D02*
X1245Y545D01*
X1366Y545D02*
X1371Y545D01*
X1383Y545D02*
X1387Y545D01*
X1397Y545D02*
X1402Y545D01*
X2086Y545D02*
X2094Y545D01*
X2101Y545D02*
X2111Y545D01*
X2238Y545D02*
X2245Y545D01*
X1238Y544D02*
X1245Y544D01*
X1366Y544D02*
X1371Y544D01*
X1383Y544D02*
X1387Y544D01*
X1398Y544D02*
X1402Y544D01*
X2087Y544D02*
X2093Y544D01*
X2102Y544D02*
X2110Y544D01*
X2238Y544D02*
X2245Y544D01*
X1238Y543D02*
X1245Y543D01*
X1366Y543D02*
X1371Y543D01*
X1383Y543D02*
X1387Y543D01*
X1398Y543D02*
X1402Y543D01*
X2238Y543D02*
X2245Y543D01*
X1238Y542D02*
X1245Y542D01*
X1366Y542D02*
X1371Y542D01*
X1383Y542D02*
X1387Y542D01*
X1398Y542D02*
X1402Y542D01*
X2238Y542D02*
X2245Y542D01*
X1238Y541D02*
X1245Y541D01*
X1366Y541D02*
X1371Y541D01*
X1383Y541D02*
X1387Y541D01*
X1398Y541D02*
X1402Y541D01*
X2238Y541D02*
X2245Y541D01*
X1238Y540D02*
X1245Y540D01*
X1366Y540D02*
X1371Y540D01*
X1383Y540D02*
X1387Y540D01*
X1398Y540D02*
X1402Y540D01*
X2238Y540D02*
X2245Y540D01*
X1238Y539D02*
X1245Y539D01*
X1366Y539D02*
X1371Y539D01*
X1383Y539D02*
X1386Y539D01*
X1398Y539D02*
X1402Y539D01*
X2238Y539D02*
X2245Y539D01*
X1238Y538D02*
X1245Y538D01*
X1366Y538D02*
X1371Y538D01*
X1385Y538D02*
X1385Y538D01*
X1398Y538D02*
X1402Y538D01*
X2086Y538D02*
X2110Y538D01*
X2238Y538D02*
X2245Y538D01*
X1238Y537D02*
X1245Y537D01*
X1366Y537D02*
X1371Y537D01*
X1397Y537D02*
X1402Y537D01*
X2086Y537D02*
X2111Y537D01*
X2238Y537D02*
X2245Y537D01*
X1238Y536D02*
X1245Y536D01*
X1366Y536D02*
X1372Y536D01*
X1396Y536D02*
X1402Y536D01*
X2085Y536D02*
X2112Y536D01*
X2238Y536D02*
X2245Y536D01*
X1238Y535D02*
X1245Y535D01*
X1366Y535D02*
X1373Y535D01*
X1395Y535D02*
X1402Y535D01*
X2084Y535D02*
X2113Y535D01*
X2238Y535D02*
X2245Y535D01*
X1238Y534D02*
X1245Y534D01*
X1367Y534D02*
X1374Y534D01*
X1394Y534D02*
X1402Y534D01*
X2083Y534D02*
X2114Y534D01*
X2238Y534D02*
X2245Y534D01*
X1238Y533D02*
X1245Y533D01*
X1368Y533D02*
X1400Y533D01*
X2082Y533D02*
X2115Y533D01*
X2238Y533D02*
X2245Y533D01*
X1238Y532D02*
X1245Y532D01*
X1369Y532D02*
X1399Y532D01*
X2081Y532D02*
X2088Y532D01*
X2109Y532D02*
X2116Y532D01*
X2238Y532D02*
X2245Y532D01*
X1238Y531D02*
X1245Y531D01*
X1370Y531D02*
X1398Y531D01*
X2080Y531D02*
X2087Y531D01*
X2110Y531D02*
X2116Y531D01*
X2238Y531D02*
X2245Y531D01*
X1238Y530D02*
X1245Y530D01*
X1371Y530D02*
X1397Y530D01*
X2080Y530D02*
X2086Y530D01*
X2111Y530D02*
X2116Y530D01*
X2238Y530D02*
X2245Y530D01*
X1238Y529D02*
X1245Y529D01*
X1372Y529D02*
X1397Y529D01*
X2080Y529D02*
X2085Y529D01*
X2111Y529D02*
X2116Y529D01*
X2238Y529D02*
X2245Y529D01*
X1238Y528D02*
X1245Y528D01*
X1373Y528D02*
X1395Y528D01*
X2080Y528D02*
X2085Y528D01*
X2112Y528D02*
X2116Y528D01*
X2238Y528D02*
X2245Y528D01*
X1238Y527D02*
X1245Y527D01*
X2080Y527D02*
X2085Y527D01*
X2112Y527D02*
X2116Y527D01*
X2238Y527D02*
X2245Y527D01*
X1238Y526D02*
X1245Y526D01*
X2080Y526D02*
X2085Y526D01*
X2112Y526D02*
X2116Y526D01*
X2238Y526D02*
X2245Y526D01*
X1238Y525D02*
X1245Y525D01*
X2080Y525D02*
X2085Y525D01*
X2112Y525D02*
X2116Y525D01*
X2238Y525D02*
X2245Y525D01*
X1238Y524D02*
X1245Y524D01*
X2080Y524D02*
X2085Y524D01*
X2112Y524D02*
X2116Y524D01*
X2238Y524D02*
X2245Y524D01*
X1238Y523D02*
X1245Y523D01*
X2080Y523D02*
X2085Y523D01*
X2112Y523D02*
X2116Y523D01*
X2238Y523D02*
X2245Y523D01*
X1238Y522D02*
X1245Y522D01*
X2080Y522D02*
X2085Y522D01*
X2112Y522D02*
X2116Y522D01*
X2238Y522D02*
X2245Y522D01*
X1238Y521D02*
X1245Y521D01*
X2080Y521D02*
X2085Y521D01*
X2112Y521D02*
X2116Y521D01*
X2238Y521D02*
X2245Y521D01*
X1238Y520D02*
X1245Y520D01*
X2080Y520D02*
X2085Y520D01*
X2112Y520D02*
X2116Y520D01*
X2238Y520D02*
X2245Y520D01*
X1238Y519D02*
X1245Y519D01*
X2080Y519D02*
X2085Y519D01*
X2112Y519D02*
X2116Y519D01*
X2238Y519D02*
X2245Y519D01*
X1238Y518D02*
X1245Y518D01*
X2080Y518D02*
X2085Y518D01*
X2111Y518D02*
X2116Y518D01*
X2238Y518D02*
X2245Y518D01*
X1238Y517D02*
X1245Y517D01*
X2080Y517D02*
X2116Y517D01*
X2238Y517D02*
X2245Y517D01*
X1238Y516D02*
X1245Y516D01*
X2080Y516D02*
X2116Y516D01*
X2238Y516D02*
X2245Y516D01*
X1238Y515D02*
X1245Y515D01*
X2080Y515D02*
X2116Y515D01*
X2238Y515D02*
X2245Y515D01*
X1238Y514D02*
X1245Y514D01*
X2080Y514D02*
X2116Y514D01*
X2238Y514D02*
X2245Y514D01*
X1238Y513D02*
X1245Y513D01*
X2081Y513D02*
X2115Y513D01*
X2238Y513D02*
X2245Y513D01*
X1238Y512D02*
X1245Y512D01*
X2238Y512D02*
X2245Y512D01*
X1238Y511D02*
X1245Y511D01*
X2238Y511D02*
X2245Y511D01*
X1238Y510D02*
X1245Y510D01*
X2238Y510D02*
X2245Y510D01*
X1238Y509D02*
X1245Y509D01*
X2238Y509D02*
X2245Y509D01*
X1238Y508D02*
X1245Y508D01*
X2238Y508D02*
X2245Y508D01*
X1238Y507D02*
X1245Y507D01*
X2238Y507D02*
X2245Y507D01*
X1238Y506D02*
X1245Y506D01*
X2238Y506D02*
X2245Y506D01*
X1238Y505D02*
X1245Y505D01*
X2238Y505D02*
X2245Y505D01*
X1238Y504D02*
X1245Y504D01*
X2238Y504D02*
X2245Y504D01*
X1238Y503D02*
X1245Y503D01*
X2238Y503D02*
X2245Y503D01*
X1238Y502D02*
X1245Y502D01*
X2238Y502D02*
X2245Y502D01*
X1238Y501D02*
X1245Y501D01*
X2238Y501D02*
X2245Y501D01*
X1238Y500D02*
X1245Y500D01*
X2238Y500D02*
X2245Y500D01*
X1238Y499D02*
X1245Y499D01*
X2238Y499D02*
X2245Y499D01*
X1238Y498D02*
X1245Y498D01*
X2238Y498D02*
X2245Y498D01*
X1238Y497D02*
X1245Y497D01*
X2238Y497D02*
X2245Y497D01*
X1238Y496D02*
X1245Y496D01*
X2238Y496D02*
X2245Y496D01*
X1238Y495D02*
X1245Y495D01*
X2238Y495D02*
X2245Y495D01*
X1238Y494D02*
X1245Y494D01*
X2238Y494D02*
X2245Y494D01*
X1238Y493D02*
X1245Y493D01*
X2238Y493D02*
X2245Y493D01*
X1238Y492D02*
X1245Y492D01*
X2238Y492D02*
X2245Y492D01*
X1238Y491D02*
X1245Y491D01*
X2238Y491D02*
X2245Y491D01*
X1238Y490D02*
X1245Y490D01*
X2238Y490D02*
X2245Y490D01*
X1238Y489D02*
X1245Y489D01*
X2238Y489D02*
X2245Y489D01*
X1238Y488D02*
X1245Y488D01*
X2238Y488D02*
X2245Y488D01*
X1238Y487D02*
X1245Y487D01*
X2238Y487D02*
X2245Y487D01*
X1238Y486D02*
X1245Y486D01*
X2238Y486D02*
X2245Y486D01*
X1238Y485D02*
X1245Y485D01*
X2086Y485D02*
X2095Y485D01*
X2102Y485D02*
X2110Y485D01*
X2238Y485D02*
X2245Y485D01*
X1238Y484D02*
X1245Y484D01*
X2085Y484D02*
X2096Y484D01*
X2101Y484D02*
X2111Y484D01*
X2238Y484D02*
X2245Y484D01*
X1238Y483D02*
X1245Y483D01*
X2084Y483D02*
X2097Y483D01*
X2100Y483D02*
X2112Y483D01*
X2238Y483D02*
X2245Y483D01*
X1238Y482D02*
X1245Y482D01*
X2083Y482D02*
X2113Y482D01*
X2238Y482D02*
X2245Y482D01*
X1238Y481D02*
X1245Y481D01*
X2082Y481D02*
X2115Y481D01*
X2238Y481D02*
X2245Y481D01*
X1238Y480D02*
X1245Y480D01*
X2081Y480D02*
X2089Y480D01*
X2092Y480D02*
X2105Y480D01*
X2107Y480D02*
X2116Y480D01*
X2238Y480D02*
X2245Y480D01*
X1238Y479D02*
X1245Y479D01*
X2080Y479D02*
X2087Y479D01*
X2094Y479D02*
X2103Y479D01*
X2109Y479D02*
X2116Y479D01*
X2238Y479D02*
X2245Y479D01*
X1238Y478D02*
X1245Y478D01*
X2080Y478D02*
X2086Y478D01*
X2095Y478D02*
X2102Y478D01*
X2110Y478D02*
X2116Y478D01*
X2238Y478D02*
X2245Y478D01*
X1238Y477D02*
X1245Y477D01*
X2080Y477D02*
X2085Y477D01*
X2096Y477D02*
X2101Y477D01*
X2111Y477D02*
X2116Y477D01*
X2238Y477D02*
X2245Y477D01*
X1238Y476D02*
X1245Y476D01*
X2080Y476D02*
X2085Y476D01*
X2096Y476D02*
X2101Y476D01*
X2112Y476D02*
X2116Y476D01*
X2238Y476D02*
X2245Y476D01*
X1238Y475D02*
X1245Y475D01*
X2080Y475D02*
X2085Y475D01*
X2096Y475D02*
X2101Y475D01*
X2112Y475D02*
X2116Y475D01*
X2238Y475D02*
X2245Y475D01*
X1238Y474D02*
X1245Y474D01*
X2080Y474D02*
X2085Y474D01*
X2096Y474D02*
X2101Y474D01*
X2112Y474D02*
X2116Y474D01*
X2238Y474D02*
X2245Y474D01*
X1238Y473D02*
X1245Y473D01*
X2080Y473D02*
X2085Y473D01*
X2096Y473D02*
X2101Y473D01*
X2112Y473D02*
X2116Y473D01*
X2238Y473D02*
X2245Y473D01*
X1238Y472D02*
X1245Y472D01*
X2080Y472D02*
X2085Y472D01*
X2097Y472D02*
X2101Y472D01*
X2112Y472D02*
X2116Y472D01*
X2238Y472D02*
X2245Y472D01*
X1238Y471D02*
X1245Y471D01*
X2080Y471D02*
X2085Y471D01*
X2097Y471D02*
X2100Y471D01*
X2112Y471D02*
X2116Y471D01*
X2238Y471D02*
X2245Y471D01*
X1238Y470D02*
X1245Y470D01*
X1379Y470D02*
X1380Y470D01*
X2080Y470D02*
X2085Y470D01*
X2112Y470D02*
X2116Y470D01*
X2238Y470D02*
X2245Y470D01*
X1238Y469D02*
X1245Y469D01*
X1378Y469D02*
X1401Y469D01*
X2080Y469D02*
X2085Y469D01*
X2111Y469D02*
X2116Y469D01*
X2238Y469D02*
X2245Y469D01*
X1238Y468D02*
X1245Y468D01*
X1377Y468D02*
X1402Y468D01*
X2080Y468D02*
X2085Y468D01*
X2111Y468D02*
X2116Y468D01*
X2238Y468D02*
X2245Y468D01*
X1238Y467D02*
X1245Y467D01*
X1376Y467D02*
X1402Y467D01*
X2080Y467D02*
X2086Y467D01*
X2110Y467D02*
X2116Y467D01*
X2238Y467D02*
X2245Y467D01*
X1238Y466D02*
X1245Y466D01*
X1375Y466D02*
X1402Y466D01*
X2080Y466D02*
X2087Y466D01*
X2109Y466D02*
X2116Y466D01*
X2238Y466D02*
X2245Y466D01*
X1238Y465D02*
X1245Y465D01*
X1373Y465D02*
X1401Y465D01*
X2081Y465D02*
X2088Y465D01*
X2108Y465D02*
X2115Y465D01*
X2238Y465D02*
X2245Y465D01*
X1238Y464D02*
X1245Y464D01*
X1372Y464D02*
X1380Y464D01*
X2083Y464D02*
X2089Y464D01*
X2107Y464D02*
X2114Y464D01*
X2238Y464D02*
X2245Y464D01*
X1238Y463D02*
X1245Y463D01*
X1371Y463D02*
X1379Y463D01*
X2084Y463D02*
X2090Y463D01*
X2106Y463D02*
X2113Y463D01*
X2238Y463D02*
X2245Y463D01*
X1238Y462D02*
X1245Y462D01*
X1370Y462D02*
X1377Y462D01*
X2085Y462D02*
X2090Y462D01*
X2106Y462D02*
X2112Y462D01*
X2238Y462D02*
X2245Y462D01*
X1238Y461D02*
X1245Y461D01*
X1369Y461D02*
X1376Y461D01*
X2086Y461D02*
X2090Y461D01*
X2107Y461D02*
X2111Y461D01*
X2238Y461D02*
X2245Y461D01*
X1238Y460D02*
X1245Y460D01*
X1368Y460D02*
X1375Y460D01*
X2087Y460D02*
X2089Y460D01*
X2107Y460D02*
X2110Y460D01*
X2238Y460D02*
X2245Y460D01*
X1238Y459D02*
X1245Y459D01*
X1367Y459D02*
X1374Y459D01*
X2238Y459D02*
X2245Y459D01*
X1238Y458D02*
X1245Y458D01*
X1366Y458D02*
X1373Y458D01*
X2238Y458D02*
X2245Y458D01*
X1238Y457D02*
X1245Y457D01*
X1366Y457D02*
X1372Y457D01*
X2238Y457D02*
X2245Y457D01*
X1238Y456D02*
X1245Y456D01*
X1366Y456D02*
X1373Y456D01*
X2238Y456D02*
X2245Y456D01*
X1238Y455D02*
X1245Y455D01*
X1367Y455D02*
X1374Y455D01*
X2238Y455D02*
X2245Y455D01*
X1238Y454D02*
X1245Y454D01*
X1368Y454D02*
X1375Y454D01*
X2092Y454D02*
X2114Y454D01*
X2238Y454D02*
X2245Y454D01*
X1238Y453D02*
X1245Y453D01*
X1369Y453D02*
X1376Y453D01*
X2091Y453D02*
X2116Y453D01*
X2238Y453D02*
X2245Y453D01*
X1238Y452D02*
X1245Y452D01*
X1370Y452D02*
X1377Y452D01*
X2090Y452D02*
X2116Y452D01*
X2238Y452D02*
X2245Y452D01*
X1238Y451D02*
X1245Y451D01*
X1371Y451D02*
X1378Y451D01*
X2089Y451D02*
X2116Y451D01*
X2238Y451D02*
X2245Y451D01*
X1238Y450D02*
X1245Y450D01*
X1372Y450D02*
X1379Y450D01*
X2088Y450D02*
X2116Y450D01*
X2238Y450D02*
X2245Y450D01*
X1238Y449D02*
X1245Y449D01*
X1373Y449D02*
X1401Y449D01*
X2087Y449D02*
X2115Y449D01*
X2238Y449D02*
X2245Y449D01*
X1238Y448D02*
X1245Y448D01*
X1374Y448D02*
X1402Y448D01*
X2086Y448D02*
X2093Y448D01*
X2238Y448D02*
X2245Y448D01*
X1238Y447D02*
X1245Y447D01*
X1375Y447D02*
X1402Y447D01*
X2085Y447D02*
X2092Y447D01*
X2238Y447D02*
X2245Y447D01*
X1238Y446D02*
X1245Y446D01*
X1376Y446D02*
X1402Y446D01*
X2084Y446D02*
X2091Y446D01*
X2238Y446D02*
X2245Y446D01*
X1238Y445D02*
X1245Y445D01*
X1377Y445D02*
X1402Y445D01*
X2083Y445D02*
X2090Y445D01*
X2238Y445D02*
X2245Y445D01*
X1238Y444D02*
X1245Y444D01*
X1378Y444D02*
X1401Y444D01*
X2081Y444D02*
X2089Y444D01*
X2238Y444D02*
X2245Y444D01*
X1238Y443D02*
X1245Y443D01*
X2080Y443D02*
X2088Y443D01*
X2238Y443D02*
X2245Y443D01*
X1238Y442D02*
X1245Y442D01*
X2080Y442D02*
X2087Y442D01*
X2238Y442D02*
X2245Y442D01*
X1238Y441D02*
X1245Y441D01*
X2080Y441D02*
X2086Y441D01*
X2238Y441D02*
X2245Y441D01*
X1238Y440D02*
X1245Y440D01*
X2080Y440D02*
X2087Y440D01*
X2238Y440D02*
X2245Y440D01*
X1238Y439D02*
X1245Y439D01*
X2081Y439D02*
X2088Y439D01*
X2238Y439D02*
X2245Y439D01*
X1238Y438D02*
X1245Y438D01*
X1373Y438D02*
X1386Y438D01*
X1399Y438D02*
X1401Y438D01*
X2083Y438D02*
X2089Y438D01*
X2238Y438D02*
X2245Y438D01*
X1238Y437D02*
X1245Y437D01*
X1372Y437D02*
X1387Y437D01*
X1398Y437D02*
X1402Y437D01*
X2084Y437D02*
X2090Y437D01*
X2238Y437D02*
X2245Y437D01*
X1238Y436D02*
X1245Y436D01*
X1371Y436D02*
X1388Y436D01*
X1398Y436D02*
X1402Y436D01*
X2085Y436D02*
X2091Y436D01*
X2238Y436D02*
X2245Y436D01*
X1238Y435D02*
X1245Y435D01*
X1370Y435D02*
X1389Y435D01*
X1398Y435D02*
X1402Y435D01*
X2086Y435D02*
X2092Y435D01*
X2238Y435D02*
X2245Y435D01*
X1238Y434D02*
X1245Y434D01*
X1369Y434D02*
X1390Y434D01*
X1398Y434D02*
X1402Y434D01*
X2087Y434D02*
X2094Y434D01*
X2238Y434D02*
X2245Y434D01*
X1238Y433D02*
X1245Y433D01*
X1368Y433D02*
X1391Y433D01*
X1398Y433D02*
X1402Y433D01*
X2088Y433D02*
X2115Y433D01*
X2238Y433D02*
X2245Y433D01*
X1238Y432D02*
X1245Y432D01*
X1367Y432D02*
X1374Y432D01*
X1385Y432D02*
X1392Y432D01*
X1398Y432D02*
X1402Y432D01*
X2089Y432D02*
X2116Y432D01*
X2238Y432D02*
X2245Y432D01*
X1238Y431D02*
X1245Y431D01*
X1366Y431D02*
X1373Y431D01*
X1386Y431D02*
X1393Y431D01*
X1398Y431D02*
X1402Y431D01*
X2090Y431D02*
X2116Y431D01*
X2238Y431D02*
X2245Y431D01*
X1238Y430D02*
X1245Y430D01*
X1366Y430D02*
X1372Y430D01*
X1387Y430D02*
X1393Y430D01*
X1398Y430D02*
X1402Y430D01*
X2091Y430D02*
X2116Y430D01*
X2238Y430D02*
X2245Y430D01*
X1238Y429D02*
X1245Y429D01*
X1366Y429D02*
X1371Y429D01*
X1388Y429D02*
X1393Y429D01*
X1398Y429D02*
X1402Y429D01*
X2091Y429D02*
X2115Y429D01*
X2238Y429D02*
X2245Y429D01*
X1238Y428D02*
X1245Y428D01*
X1366Y428D02*
X1371Y428D01*
X1388Y428D02*
X1392Y428D01*
X1398Y428D02*
X1402Y428D01*
X2093Y428D02*
X2094Y428D01*
X2238Y428D02*
X2245Y428D01*
X1238Y427D02*
X1245Y427D01*
X1366Y427D02*
X1371Y427D01*
X1388Y427D02*
X1392Y427D01*
X1398Y427D02*
X1402Y427D01*
X2238Y427D02*
X2245Y427D01*
X1238Y426D02*
X1245Y426D01*
X1366Y426D02*
X1371Y426D01*
X1388Y426D02*
X1393Y426D01*
X1398Y426D02*
X1402Y426D01*
X2238Y426D02*
X2245Y426D01*
X1238Y425D02*
X1245Y425D01*
X1366Y425D02*
X1371Y425D01*
X1387Y425D02*
X1393Y425D01*
X1398Y425D02*
X1402Y425D01*
X2238Y425D02*
X2245Y425D01*
X1238Y424D02*
X1245Y424D01*
X1366Y424D02*
X1371Y424D01*
X1387Y424D02*
X1392Y424D01*
X1398Y424D02*
X1402Y424D01*
X2238Y424D02*
X2245Y424D01*
X1238Y423D02*
X1245Y423D01*
X1366Y423D02*
X1371Y423D01*
X1386Y423D02*
X1392Y423D01*
X1398Y423D02*
X1402Y423D01*
X2088Y423D02*
X2088Y423D01*
X2093Y423D02*
X2093Y423D01*
X2104Y423D02*
X2104Y423D01*
X2108Y423D02*
X2108Y423D01*
X2238Y423D02*
X2245Y423D01*
X1238Y422D02*
X1245Y422D01*
X1366Y422D02*
X1371Y422D01*
X1386Y422D02*
X1391Y422D01*
X1398Y422D02*
X1402Y422D01*
X2086Y422D02*
X2095Y422D01*
X2102Y422D02*
X2110Y422D01*
X2238Y422D02*
X2245Y422D01*
X1238Y421D02*
X1245Y421D01*
X1366Y421D02*
X1372Y421D01*
X1385Y421D02*
X1391Y421D01*
X1398Y421D02*
X1402Y421D01*
X2085Y421D02*
X2096Y421D01*
X2101Y421D02*
X2111Y421D01*
X2238Y421D02*
X2245Y421D01*
X1238Y420D02*
X1245Y420D01*
X1366Y420D02*
X1373Y420D01*
X1385Y420D02*
X1390Y420D01*
X1398Y420D02*
X1402Y420D01*
X2084Y420D02*
X2097Y420D01*
X2100Y420D02*
X2112Y420D01*
X2238Y420D02*
X2245Y420D01*
X1238Y419D02*
X1245Y419D01*
X1367Y419D02*
X1374Y419D01*
X1384Y419D02*
X1390Y419D01*
X1398Y419D02*
X1402Y419D01*
X2083Y419D02*
X2113Y419D01*
X2238Y419D02*
X2245Y419D01*
X1238Y418D02*
X1245Y418D01*
X1367Y418D02*
X1375Y418D01*
X1384Y418D02*
X1389Y418D01*
X1397Y418D02*
X1402Y418D01*
X2082Y418D02*
X2114Y418D01*
X2238Y418D02*
X2245Y418D01*
X1238Y417D02*
X1245Y417D01*
X1369Y417D02*
X1376Y417D01*
X1383Y417D02*
X1402Y417D01*
X2081Y417D02*
X2088Y417D01*
X2093Y417D02*
X2105Y417D01*
X2108Y417D02*
X2115Y417D01*
X2238Y417D02*
X2245Y417D01*
X1238Y416D02*
X1245Y416D01*
X1370Y416D02*
X1376Y416D01*
X1382Y416D02*
X1402Y416D01*
X2080Y416D02*
X2087Y416D01*
X2094Y416D02*
X2103Y416D01*
X2109Y416D02*
X2116Y416D01*
X2238Y416D02*
X2245Y416D01*
X1238Y415D02*
X1245Y415D01*
X1371Y415D02*
X1376Y415D01*
X1382Y415D02*
X1402Y415D01*
X2080Y415D02*
X2086Y415D01*
X2095Y415D02*
X2102Y415D01*
X2110Y415D02*
X2116Y415D01*
X2238Y415D02*
X2245Y415D01*
X1238Y414D02*
X1245Y414D01*
X1372Y414D02*
X1376Y414D01*
X1383Y414D02*
X1402Y414D01*
X2080Y414D02*
X2085Y414D01*
X2096Y414D02*
X2101Y414D01*
X2111Y414D02*
X2116Y414D01*
X2238Y414D02*
X2245Y414D01*
X1238Y413D02*
X1245Y413D01*
X1373Y413D02*
X1375Y413D01*
X1383Y413D02*
X1402Y413D01*
X2080Y413D02*
X2085Y413D01*
X2096Y413D02*
X2101Y413D01*
X2111Y413D02*
X2116Y413D01*
X2238Y413D02*
X2245Y413D01*
X1238Y412D02*
X1245Y412D01*
X2080Y412D02*
X2085Y412D01*
X2096Y412D02*
X2101Y412D01*
X2112Y412D02*
X2116Y412D01*
X2238Y412D02*
X2245Y412D01*
X1238Y411D02*
X1245Y411D01*
X2080Y411D02*
X2085Y411D01*
X2096Y411D02*
X2101Y411D01*
X2112Y411D02*
X2116Y411D01*
X2238Y411D02*
X2245Y411D01*
X1238Y410D02*
X1245Y410D01*
X2080Y410D02*
X2085Y410D01*
X2096Y410D02*
X2101Y410D01*
X2112Y410D02*
X2116Y410D01*
X2238Y410D02*
X2245Y410D01*
X1238Y409D02*
X1245Y409D01*
X2080Y409D02*
X2085Y409D01*
X2096Y409D02*
X2101Y409D01*
X2112Y409D02*
X2116Y409D01*
X2238Y409D02*
X2245Y409D01*
X1238Y408D02*
X1245Y408D01*
X2080Y408D02*
X2085Y408D01*
X2097Y408D02*
X2100Y408D01*
X2112Y408D02*
X2116Y408D01*
X2238Y408D02*
X2245Y408D01*
X1238Y407D02*
X1245Y407D01*
X2080Y407D02*
X2085Y407D01*
X2098Y407D02*
X2100Y407D01*
X2112Y407D02*
X2116Y407D01*
X2238Y407D02*
X2245Y407D01*
X1238Y406D02*
X1245Y406D01*
X2080Y406D02*
X2085Y406D01*
X2111Y406D02*
X2116Y406D01*
X2238Y406D02*
X2245Y406D01*
X1238Y405D02*
X1245Y405D01*
X2080Y405D02*
X2086Y405D01*
X2111Y405D02*
X2116Y405D01*
X2238Y405D02*
X2245Y405D01*
X1238Y404D02*
X1245Y404D01*
X2080Y404D02*
X2087Y404D01*
X2110Y404D02*
X2116Y404D01*
X2238Y404D02*
X2245Y404D01*
X1238Y403D02*
X1245Y403D01*
X2081Y403D02*
X2088Y403D01*
X2109Y403D02*
X2116Y403D01*
X2238Y403D02*
X2245Y403D01*
X1238Y402D02*
X1245Y402D01*
X2082Y402D02*
X2089Y402D01*
X2108Y402D02*
X2115Y402D01*
X2238Y402D02*
X2245Y402D01*
X1238Y401D02*
X1245Y401D01*
X2083Y401D02*
X2090Y401D01*
X2107Y401D02*
X2113Y401D01*
X2238Y401D02*
X2245Y401D01*
X1238Y400D02*
X1245Y400D01*
X2084Y400D02*
X2090Y400D01*
X2106Y400D02*
X2112Y400D01*
X2238Y400D02*
X2245Y400D01*
X1238Y399D02*
X1245Y399D01*
X2085Y399D02*
X2090Y399D01*
X2106Y399D02*
X2111Y399D01*
X2238Y399D02*
X2245Y399D01*
X1238Y398D02*
X1245Y398D01*
X2086Y398D02*
X2090Y398D01*
X2107Y398D02*
X2110Y398D01*
X2238Y398D02*
X2245Y398D01*
X1238Y397D02*
X1245Y397D01*
X2087Y397D02*
X2089Y397D01*
X2108Y397D02*
X2109Y397D01*
X2238Y397D02*
X2245Y397D01*
X1238Y396D02*
X1245Y396D01*
X2238Y396D02*
X2245Y396D01*
X1238Y395D02*
X1245Y395D01*
X2238Y395D02*
X2245Y395D01*
X1238Y394D02*
X1245Y394D01*
X2238Y394D02*
X2245Y394D01*
X1238Y393D02*
X1245Y393D01*
X2237Y393D02*
X2245Y393D01*
X1238Y392D02*
X1245Y392D01*
X2235Y392D02*
X2244Y392D01*
X1238Y391D02*
X1245Y391D01*
X2233Y391D02*
X2244Y391D01*
X1238Y390D02*
X1245Y390D01*
X2231Y390D02*
X2244Y390D01*
X1238Y389D02*
X1245Y389D01*
X2229Y389D02*
X2243Y389D01*
X1238Y388D02*
X1245Y388D01*
X2227Y388D02*
X2243Y388D01*
X1238Y387D02*
X1245Y387D01*
X2224Y387D02*
X2242Y387D01*
X1238Y386D02*
X1245Y386D01*
X2222Y386D02*
X2240Y386D01*
X1238Y385D02*
X1245Y385D01*
X2220Y385D02*
X2238Y385D01*
X1238Y384D02*
X1245Y384D01*
X2218Y384D02*
X2236Y384D01*
X1238Y383D02*
X1245Y383D01*
X2216Y383D02*
X2234Y383D01*
X1238Y382D02*
X1245Y382D01*
X2213Y382D02*
X2231Y382D01*
X1238Y381D02*
X1245Y381D01*
X2211Y381D02*
X2229Y381D01*
X1238Y380D02*
X1245Y380D01*
X2209Y380D02*
X2227Y380D01*
X1238Y379D02*
X1245Y379D01*
X2207Y379D02*
X2225Y379D01*
X1238Y378D02*
X1245Y378D01*
X2205Y378D02*
X2223Y378D01*
X1238Y377D02*
X1245Y377D01*
X2203Y377D02*
X2221Y377D01*
X1238Y376D02*
X1245Y376D01*
X2200Y376D02*
X2218Y376D01*
X1238Y375D02*
X1245Y375D01*
X2198Y375D02*
X2216Y375D01*
X1238Y374D02*
X1245Y374D01*
X2196Y374D02*
X2214Y374D01*
X1238Y373D02*
X1245Y373D01*
X2194Y373D02*
X2212Y373D01*
X1238Y372D02*
X1245Y372D01*
X2192Y372D02*
X2210Y372D01*
X1238Y371D02*
X1245Y371D01*
X2190Y371D02*
X2208Y371D01*
X1238Y370D02*
X1245Y370D01*
X2187Y370D02*
X2205Y370D01*
X1238Y369D02*
X1245Y369D01*
X2185Y369D02*
X2203Y369D01*
X1238Y368D02*
X1245Y368D01*
X2183Y368D02*
X2201Y368D01*
X1238Y367D02*
X1245Y367D01*
X2181Y367D02*
X2199Y367D01*
X1238Y366D02*
X1245Y366D01*
X2179Y366D02*
X2197Y366D01*
X1238Y365D02*
X1245Y365D01*
X2176Y365D02*
X2195Y365D01*
X1238Y364D02*
X1245Y364D01*
X2174Y364D02*
X2192Y364D01*
X1238Y363D02*
X1245Y363D01*
X2172Y363D02*
X2190Y363D01*
X1238Y362D02*
X1245Y362D01*
X2170Y362D02*
X2188Y362D01*
X1238Y361D02*
X1245Y361D01*
X2168Y361D02*
X2186Y361D01*
X1238Y360D02*
X1245Y360D01*
X2166Y360D02*
X2184Y360D01*
X1238Y359D02*
X1245Y359D01*
X2165Y359D02*
X2182Y359D01*
X1238Y358D02*
X1245Y358D01*
X2164Y358D02*
X2179Y358D01*
X1238Y357D02*
X1245Y357D01*
X2163Y357D02*
X2177Y357D01*
X1238Y356D02*
X1245Y356D01*
X2163Y356D02*
X2175Y356D01*
X1238Y355D02*
X1245Y355D01*
X2162Y355D02*
X2173Y355D01*
X1238Y354D02*
X1245Y354D01*
X2161Y354D02*
X2171Y354D01*
X1238Y353D02*
X1245Y353D01*
X2161Y353D02*
X2169Y353D01*
X1238Y352D02*
X1245Y352D01*
X2161Y352D02*
X2169Y352D01*
X1238Y351D02*
X1245Y351D01*
X2160Y351D02*
X2168Y351D01*
X1238Y350D02*
X1245Y350D01*
X2160Y350D02*
X2168Y350D01*
X1238Y349D02*
X1245Y349D01*
X2160Y349D02*
X2167Y349D01*
X1238Y348D02*
X1245Y348D01*
X2160Y348D02*
X2167Y348D01*
X1238Y347D02*
X1245Y347D01*
X2160Y347D02*
X2167Y347D01*
X1238Y346D02*
X1245Y346D01*
X2160Y346D02*
X2167Y346D01*
X1238Y345D02*
X1245Y345D01*
X2160Y345D02*
X2167Y345D01*
X1238Y344D02*
X1245Y344D01*
X2160Y344D02*
X2167Y344D01*
X1238Y343D02*
X1245Y343D01*
X2160Y343D02*
X2167Y343D01*
X1238Y342D02*
X1245Y342D01*
X2160Y342D02*
X2167Y342D01*
X1238Y341D02*
X1245Y341D01*
X2160Y341D02*
X2167Y341D01*
X1238Y340D02*
X1245Y340D01*
X2160Y340D02*
X2167Y340D01*
X1238Y339D02*
X1245Y339D01*
X2160Y339D02*
X2167Y339D01*
X1238Y338D02*
X1245Y338D01*
X2160Y338D02*
X2167Y338D01*
X1238Y337D02*
X1245Y337D01*
X2160Y337D02*
X2167Y337D01*
X1238Y336D02*
X1245Y336D01*
X2160Y336D02*
X2167Y336D01*
X1238Y335D02*
X1245Y335D01*
X2160Y335D02*
X2167Y335D01*
X1238Y334D02*
X1245Y334D01*
X2160Y334D02*
X2167Y334D01*
X1238Y333D02*
X1245Y333D01*
X2160Y333D02*
X2167Y333D01*
X1238Y332D02*
X1245Y332D01*
X2160Y332D02*
X2167Y332D01*
X1238Y331D02*
X1245Y331D01*
X2160Y331D02*
X2167Y331D01*
X1238Y330D02*
X1245Y330D01*
X2160Y330D02*
X2167Y330D01*
X1238Y329D02*
X1245Y329D01*
X2160Y329D02*
X2167Y329D01*
X1238Y328D02*
X1245Y328D01*
X2160Y328D02*
X2167Y328D01*
X1238Y327D02*
X1245Y327D01*
X2160Y327D02*
X2167Y327D01*
X1238Y326D02*
X1245Y326D01*
X2160Y326D02*
X2167Y326D01*
X1238Y325D02*
X1245Y325D01*
X2160Y325D02*
X2167Y325D01*
X1238Y324D02*
X1245Y324D01*
X2160Y324D02*
X2167Y324D01*
X1238Y323D02*
X1245Y323D01*
X2160Y323D02*
X2167Y323D01*
X1238Y322D02*
X1245Y322D01*
X2160Y322D02*
X2167Y322D01*
X1238Y321D02*
X1245Y321D01*
X2160Y321D02*
X2167Y321D01*
X1238Y320D02*
X1245Y320D01*
X2160Y320D02*
X2167Y320D01*
X1238Y319D02*
X1245Y319D01*
X2160Y319D02*
X2167Y319D01*
X1238Y318D02*
X1245Y318D01*
X2160Y318D02*
X2167Y318D01*
X1238Y317D02*
X1245Y317D01*
X2160Y317D02*
X2167Y317D01*
X1238Y316D02*
X1245Y316D01*
X2160Y316D02*
X2167Y316D01*
X1238Y315D02*
X1245Y315D01*
X2160Y315D02*
X2167Y315D01*
X1238Y314D02*
X1245Y314D01*
X2160Y314D02*
X2167Y314D01*
X1238Y313D02*
X1245Y313D01*
X2160Y313D02*
X2167Y313D01*
X1238Y312D02*
X1245Y312D01*
X2160Y312D02*
X2167Y312D01*
X1238Y311D02*
X1245Y311D01*
X2160Y311D02*
X2167Y311D01*
X1238Y310D02*
X1245Y310D01*
X2160Y310D02*
X2167Y310D01*
X1238Y309D02*
X1245Y309D01*
X2160Y309D02*
X2167Y309D01*
X1238Y308D02*
X1245Y308D01*
X2160Y308D02*
X2167Y308D01*
X1238Y307D02*
X1245Y307D01*
X2160Y307D02*
X2167Y307D01*
X1238Y306D02*
X1245Y306D01*
X2160Y306D02*
X2167Y306D01*
X1238Y305D02*
X1245Y305D01*
X1288Y305D02*
X1291Y305D01*
X1362Y305D02*
X1365Y305D01*
X1449Y305D02*
X1453Y305D01*
X1500Y305D02*
X1532Y305D01*
X2160Y305D02*
X2167Y305D01*
X1238Y304D02*
X1245Y304D01*
X1287Y304D02*
X1292Y304D01*
X1361Y304D02*
X1366Y304D01*
X1448Y304D02*
X1454Y304D01*
X1499Y304D02*
X1533Y304D01*
X2160Y304D02*
X2167Y304D01*
X1238Y303D02*
X1245Y303D01*
X1287Y303D02*
X1292Y303D01*
X1361Y303D02*
X1366Y303D01*
X1448Y303D02*
X1455Y303D01*
X1498Y303D02*
X1533Y303D01*
X2160Y303D02*
X2167Y303D01*
X1238Y302D02*
X1245Y302D01*
X1287Y302D02*
X1293Y302D01*
X1360Y302D02*
X1366Y302D01*
X1448Y302D02*
X1456Y302D01*
X1497Y302D02*
X1533Y302D01*
X2160Y302D02*
X2167Y302D01*
X1238Y301D02*
X1245Y301D01*
X1287Y301D02*
X1293Y301D01*
X1360Y301D02*
X1366Y301D01*
X1448Y301D02*
X1457Y301D01*
X1496Y301D02*
X1533Y301D01*
X2160Y301D02*
X2167Y301D01*
X1238Y300D02*
X1245Y300D01*
X1287Y300D02*
X1293Y300D01*
X1360Y300D02*
X1366Y300D01*
X1448Y300D02*
X1458Y300D01*
X1495Y300D02*
X1533Y300D01*
X2160Y300D02*
X2167Y300D01*
X1238Y299D02*
X1245Y299D01*
X1287Y299D02*
X1293Y299D01*
X1360Y299D02*
X1366Y299D01*
X1448Y299D02*
X1459Y299D01*
X1494Y299D02*
X1533Y299D01*
X2160Y299D02*
X2167Y299D01*
X1238Y298D02*
X1245Y298D01*
X1287Y298D02*
X1293Y298D01*
X1360Y298D02*
X1366Y298D01*
X1448Y298D02*
X1460Y298D01*
X1493Y298D02*
X1502Y298D01*
X1527Y298D02*
X1533Y298D01*
X2160Y298D02*
X2167Y298D01*
X1238Y297D02*
X1245Y297D01*
X1287Y297D02*
X1293Y297D01*
X1360Y297D02*
X1366Y297D01*
X1448Y297D02*
X1461Y297D01*
X1492Y297D02*
X1501Y297D01*
X1527Y297D02*
X1533Y297D01*
X2160Y297D02*
X2167Y297D01*
X1238Y296D02*
X1245Y296D01*
X1287Y296D02*
X1293Y296D01*
X1360Y296D02*
X1366Y296D01*
X1448Y296D02*
X1462Y296D01*
X1491Y296D02*
X1500Y296D01*
X1527Y296D02*
X1533Y296D01*
X2160Y296D02*
X2167Y296D01*
X1238Y295D02*
X1245Y295D01*
X1287Y295D02*
X1293Y295D01*
X1360Y295D02*
X1366Y295D01*
X1448Y295D02*
X1463Y295D01*
X1490Y295D02*
X1499Y295D01*
X1527Y295D02*
X1533Y295D01*
X2160Y295D02*
X2167Y295D01*
X1238Y294D02*
X1245Y294D01*
X1287Y294D02*
X1292Y294D01*
X1361Y294D02*
X1366Y294D01*
X1448Y294D02*
X1464Y294D01*
X1489Y294D02*
X1498Y294D01*
X1527Y294D02*
X1533Y294D01*
X2160Y294D02*
X2167Y294D01*
X1238Y293D02*
X1245Y293D01*
X1287Y293D02*
X1292Y293D01*
X1361Y293D02*
X1366Y293D01*
X1448Y293D02*
X1454Y293D01*
X1456Y293D02*
X1465Y293D01*
X1488Y293D02*
X1497Y293D01*
X1527Y293D02*
X1533Y293D01*
X2160Y293D02*
X2167Y293D01*
X1238Y292D02*
X1245Y292D01*
X1288Y292D02*
X1291Y292D01*
X1362Y292D02*
X1365Y292D01*
X1448Y292D02*
X1454Y292D01*
X1457Y292D02*
X1466Y292D01*
X1488Y292D02*
X1496Y292D01*
X1527Y292D02*
X1533Y292D01*
X2160Y292D02*
X2167Y292D01*
X1238Y291D02*
X1245Y291D01*
X1448Y291D02*
X1454Y291D01*
X1458Y291D02*
X1467Y291D01*
X1488Y291D02*
X1495Y291D01*
X1527Y291D02*
X1533Y291D01*
X2160Y291D02*
X2167Y291D01*
X1238Y290D02*
X1245Y290D01*
X1448Y290D02*
X1454Y290D01*
X1459Y290D02*
X1468Y290D01*
X1488Y290D02*
X1494Y290D01*
X1527Y290D02*
X1533Y290D01*
X2160Y290D02*
X2167Y290D01*
X1238Y289D02*
X1245Y289D01*
X1448Y289D02*
X1454Y289D01*
X1460Y289D02*
X1469Y289D01*
X1488Y289D02*
X1494Y289D01*
X1527Y289D02*
X1533Y289D01*
X2160Y289D02*
X2167Y289D01*
X1238Y288D02*
X1245Y288D01*
X1448Y288D02*
X1454Y288D01*
X1461Y288D02*
X1470Y288D01*
X1488Y288D02*
X1494Y288D01*
X1527Y288D02*
X1533Y288D01*
X2160Y288D02*
X2167Y288D01*
X1238Y287D02*
X1245Y287D01*
X1448Y287D02*
X1454Y287D01*
X1462Y287D02*
X1471Y287D01*
X1488Y287D02*
X1494Y287D01*
X1527Y287D02*
X1533Y287D01*
X2160Y287D02*
X2167Y287D01*
X1238Y286D02*
X1245Y286D01*
X1448Y286D02*
X1454Y286D01*
X1463Y286D02*
X1472Y286D01*
X1488Y286D02*
X1494Y286D01*
X1527Y286D02*
X1533Y286D01*
X2160Y286D02*
X2167Y286D01*
X1238Y285D02*
X1245Y285D01*
X1448Y285D02*
X1454Y285D01*
X1464Y285D02*
X1473Y285D01*
X1488Y285D02*
X1494Y285D01*
X1527Y285D02*
X1533Y285D01*
X2160Y285D02*
X2167Y285D01*
X1238Y284D02*
X1245Y284D01*
X1288Y284D02*
X1298Y284D01*
X1318Y284D02*
X1342Y284D01*
X1362Y284D02*
X1372Y284D01*
X1392Y284D02*
X1395Y284D01*
X1406Y284D02*
X1416Y284D01*
X1448Y284D02*
X1454Y284D01*
X1465Y284D02*
X1474Y284D01*
X1488Y284D02*
X1494Y284D01*
X1527Y284D02*
X1533Y284D01*
X2160Y284D02*
X2167Y284D01*
X1238Y283D02*
X1245Y283D01*
X1287Y283D02*
X1299Y283D01*
X1317Y283D02*
X1343Y283D01*
X1361Y283D02*
X1373Y283D01*
X1391Y283D02*
X1396Y283D01*
X1405Y283D02*
X1417Y283D01*
X1448Y283D02*
X1454Y283D01*
X1466Y283D02*
X1474Y283D01*
X1488Y283D02*
X1494Y283D01*
X1527Y283D02*
X1533Y283D01*
X2160Y283D02*
X2167Y283D01*
X1238Y282D02*
X1245Y282D01*
X1287Y282D02*
X1300Y282D01*
X1316Y282D02*
X1344Y282D01*
X1360Y282D02*
X1374Y282D01*
X1390Y282D02*
X1397Y282D01*
X1404Y282D02*
X1418Y282D01*
X1448Y282D02*
X1454Y282D01*
X1467Y282D02*
X1474Y282D01*
X1488Y282D02*
X1494Y282D01*
X1527Y282D02*
X1533Y282D01*
X2160Y282D02*
X2167Y282D01*
X1238Y281D02*
X1245Y281D01*
X1286Y281D02*
X1300Y281D01*
X1315Y281D02*
X1344Y281D01*
X1360Y281D02*
X1374Y281D01*
X1389Y281D02*
X1398Y281D01*
X1403Y281D02*
X1418Y281D01*
X1448Y281D02*
X1454Y281D01*
X1468Y281D02*
X1474Y281D01*
X1488Y281D02*
X1494Y281D01*
X1527Y281D02*
X1533Y281D01*
X2160Y281D02*
X2167Y281D01*
X1238Y280D02*
X1245Y280D01*
X1287Y280D02*
X1300Y280D01*
X1314Y280D02*
X1344Y280D01*
X1360Y280D02*
X1374Y280D01*
X1388Y280D02*
X1399Y280D01*
X1402Y280D02*
X1418Y280D01*
X1448Y280D02*
X1454Y280D01*
X1469Y280D02*
X1473Y280D01*
X1488Y280D02*
X1494Y280D01*
X1527Y280D02*
X1533Y280D01*
X2160Y280D02*
X2167Y280D01*
X1238Y279D02*
X1245Y279D01*
X1287Y279D02*
X1299Y279D01*
X1313Y279D02*
X1344Y279D01*
X1360Y279D02*
X1373Y279D01*
X1387Y279D02*
X1418Y279D01*
X1448Y279D02*
X1454Y279D01*
X1470Y279D02*
X1472Y279D01*
X1488Y279D02*
X1494Y279D01*
X1527Y279D02*
X1533Y279D01*
X2160Y279D02*
X2167Y279D01*
X1238Y278D02*
X1245Y278D01*
X1287Y278D02*
X1298Y278D01*
X1312Y278D02*
X1344Y278D01*
X1360Y278D02*
X1372Y278D01*
X1386Y278D02*
X1418Y278D01*
X1448Y278D02*
X1454Y278D01*
X1488Y278D02*
X1494Y278D01*
X1527Y278D02*
X1533Y278D01*
X2160Y278D02*
X2167Y278D01*
X1238Y277D02*
X1245Y277D01*
X1287Y277D02*
X1293Y277D01*
X1311Y277D02*
X1320Y277D01*
X1338Y277D02*
X1344Y277D01*
X1360Y277D02*
X1366Y277D01*
X1385Y277D02*
X1408Y277D01*
X1412Y277D02*
X1418Y277D01*
X1448Y277D02*
X1454Y277D01*
X1488Y277D02*
X1494Y277D01*
X1527Y277D02*
X1533Y277D01*
X1945Y277D02*
X1966Y277D01*
X1976Y277D02*
X1998Y277D01*
X2012Y277D02*
X2025Y277D01*
X2040Y277D02*
X2062Y277D01*
X2076Y277D02*
X2093Y277D01*
X2160Y277D02*
X2167Y277D01*
X1238Y276D02*
X1245Y276D01*
X1287Y276D02*
X1293Y276D01*
X1310Y276D02*
X1319Y276D01*
X1338Y276D02*
X1344Y276D01*
X1360Y276D02*
X1366Y276D01*
X1384Y276D02*
X1407Y276D01*
X1412Y276D02*
X1418Y276D01*
X1448Y276D02*
X1454Y276D01*
X1488Y276D02*
X1494Y276D01*
X1527Y276D02*
X1533Y276D01*
X1943Y276D02*
X1968Y276D01*
X1975Y276D02*
X1999Y276D01*
X2011Y276D02*
X2026Y276D01*
X2039Y276D02*
X2063Y276D01*
X2075Y276D02*
X2094Y276D01*
X2160Y276D02*
X2167Y276D01*
X1238Y275D02*
X1245Y275D01*
X1287Y275D02*
X1293Y275D01*
X1309Y275D02*
X1318Y275D01*
X1338Y275D02*
X1344Y275D01*
X1360Y275D02*
X1366Y275D01*
X1383Y275D02*
X1392Y275D01*
X1395Y275D02*
X1406Y275D01*
X1412Y275D02*
X1418Y275D01*
X1448Y275D02*
X1454Y275D01*
X1488Y275D02*
X1494Y275D01*
X1527Y275D02*
X1533Y275D01*
X1943Y275D02*
X1968Y275D01*
X1974Y275D02*
X2000Y275D01*
X2010Y275D02*
X2027Y275D01*
X2038Y275D02*
X2063Y275D01*
X2074Y275D02*
X2095Y275D01*
X2160Y275D02*
X2167Y275D01*
X1238Y274D02*
X1245Y274D01*
X1287Y274D02*
X1293Y274D01*
X1309Y274D02*
X1317Y274D01*
X1338Y274D02*
X1344Y274D01*
X1360Y274D02*
X1366Y274D01*
X1383Y274D02*
X1391Y274D01*
X1396Y274D02*
X1405Y274D01*
X1412Y274D02*
X1418Y274D01*
X1448Y274D02*
X1454Y274D01*
X1488Y274D02*
X1494Y274D01*
X1527Y274D02*
X1533Y274D01*
X1943Y274D02*
X1968Y274D01*
X1974Y274D02*
X2000Y274D01*
X2009Y274D02*
X2028Y274D01*
X2038Y274D02*
X2063Y274D01*
X2073Y274D02*
X2095Y274D01*
X2160Y274D02*
X2167Y274D01*
X1238Y273D02*
X1245Y273D01*
X1287Y273D02*
X1293Y273D01*
X1309Y273D02*
X1316Y273D01*
X1338Y273D02*
X1344Y273D01*
X1360Y273D02*
X1366Y273D01*
X1383Y273D02*
X1390Y273D01*
X1397Y273D02*
X1404Y273D01*
X1412Y273D02*
X1418Y273D01*
X1448Y273D02*
X1454Y273D01*
X1488Y273D02*
X1494Y273D01*
X1527Y273D02*
X1533Y273D01*
X1943Y273D02*
X1968Y273D01*
X1975Y273D02*
X2000Y273D01*
X2008Y273D02*
X2029Y273D01*
X2039Y273D02*
X2063Y273D01*
X2072Y273D02*
X2095Y273D01*
X2160Y273D02*
X2167Y273D01*
X1238Y272D02*
X1245Y272D01*
X1287Y272D02*
X1293Y272D01*
X1309Y272D02*
X1315Y272D01*
X1338Y272D02*
X1344Y272D01*
X1360Y272D02*
X1366Y272D01*
X1383Y272D02*
X1389Y272D01*
X1398Y272D02*
X1404Y272D01*
X1412Y272D02*
X1418Y272D01*
X1448Y272D02*
X1454Y272D01*
X1488Y272D02*
X1494Y272D01*
X1527Y272D02*
X1533Y272D01*
X1945Y272D02*
X1966Y272D01*
X1976Y272D02*
X2000Y272D01*
X2007Y272D02*
X2030Y272D01*
X2040Y272D02*
X2063Y272D01*
X2071Y272D02*
X2095Y272D01*
X2160Y272D02*
X2167Y272D01*
X1238Y271D02*
X1245Y271D01*
X1287Y271D02*
X1293Y271D01*
X1309Y271D02*
X1315Y271D01*
X1338Y271D02*
X1344Y271D01*
X1360Y271D02*
X1366Y271D01*
X1383Y271D02*
X1389Y271D01*
X1398Y271D02*
X1404Y271D01*
X1412Y271D02*
X1418Y271D01*
X1448Y271D02*
X1454Y271D01*
X1488Y271D02*
X1494Y271D01*
X1527Y271D02*
X1533Y271D01*
X1953Y271D02*
X1957Y271D01*
X1995Y271D02*
X2000Y271D01*
X2007Y271D02*
X2013Y271D01*
X2024Y271D02*
X2031Y271D01*
X2059Y271D02*
X2063Y271D01*
X2070Y271D02*
X2077Y271D01*
X2090Y271D02*
X2095Y271D01*
X2160Y271D02*
X2167Y271D01*
X1238Y270D02*
X1245Y270D01*
X1287Y270D02*
X1293Y270D01*
X1309Y270D02*
X1315Y270D01*
X1338Y270D02*
X1344Y270D01*
X1360Y270D02*
X1366Y270D01*
X1383Y270D02*
X1389Y270D01*
X1398Y270D02*
X1404Y270D01*
X1412Y270D02*
X1418Y270D01*
X1448Y270D02*
X1454Y270D01*
X1488Y270D02*
X1494Y270D01*
X1527Y270D02*
X1533Y270D01*
X1953Y270D02*
X1957Y270D01*
X1995Y270D02*
X2000Y270D01*
X2006Y270D02*
X2012Y270D01*
X2025Y270D02*
X2032Y270D01*
X2059Y270D02*
X2063Y270D01*
X2069Y270D02*
X2076Y270D01*
X2090Y270D02*
X2095Y270D01*
X2160Y270D02*
X2167Y270D01*
X1238Y269D02*
X1245Y269D01*
X1287Y269D02*
X1293Y269D01*
X1309Y269D02*
X1315Y269D01*
X1338Y269D02*
X1344Y269D01*
X1360Y269D02*
X1366Y269D01*
X1383Y269D02*
X1389Y269D01*
X1398Y269D02*
X1404Y269D01*
X1412Y269D02*
X1418Y269D01*
X1448Y269D02*
X1454Y269D01*
X1488Y269D02*
X1494Y269D01*
X1527Y269D02*
X1533Y269D01*
X1953Y269D02*
X1957Y269D01*
X1995Y269D02*
X2000Y269D01*
X2006Y269D02*
X2011Y269D01*
X2026Y269D02*
X2032Y269D01*
X2059Y269D02*
X2063Y269D01*
X2069Y269D02*
X2075Y269D01*
X2090Y269D02*
X2095Y269D01*
X2160Y269D02*
X2167Y269D01*
X1238Y268D02*
X1245Y268D01*
X1287Y268D02*
X1293Y268D01*
X1309Y268D02*
X1315Y268D01*
X1338Y268D02*
X1344Y268D01*
X1360Y268D02*
X1366Y268D01*
X1383Y268D02*
X1389Y268D01*
X1398Y268D02*
X1404Y268D01*
X1412Y268D02*
X1418Y268D01*
X1448Y268D02*
X1454Y268D01*
X1488Y268D02*
X1494Y268D01*
X1527Y268D02*
X1533Y268D01*
X1953Y268D02*
X1957Y268D01*
X1995Y268D02*
X2000Y268D01*
X2006Y268D02*
X2010Y268D01*
X2027Y268D02*
X2032Y268D01*
X2059Y268D02*
X2063Y268D01*
X2069Y268D02*
X2074Y268D01*
X2090Y268D02*
X2095Y268D01*
X2160Y268D02*
X2167Y268D01*
X1238Y267D02*
X1245Y267D01*
X1287Y267D02*
X1293Y267D01*
X1309Y267D02*
X1315Y267D01*
X1338Y267D02*
X1344Y267D01*
X1360Y267D02*
X1366Y267D01*
X1383Y267D02*
X1389Y267D01*
X1398Y267D02*
X1404Y267D01*
X1412Y267D02*
X1418Y267D01*
X1448Y267D02*
X1454Y267D01*
X1488Y267D02*
X1494Y267D01*
X1527Y267D02*
X1533Y267D01*
X1953Y267D02*
X1957Y267D01*
X1995Y267D02*
X2000Y267D01*
X2007Y267D02*
X2009Y267D01*
X2027Y267D02*
X2032Y267D01*
X2059Y267D02*
X2063Y267D01*
X2069Y267D02*
X2074Y267D01*
X2090Y267D02*
X2095Y267D01*
X2160Y267D02*
X2167Y267D01*
X1238Y266D02*
X1245Y266D01*
X1287Y266D02*
X1293Y266D01*
X1309Y266D02*
X1315Y266D01*
X1338Y266D02*
X1344Y266D01*
X1360Y266D02*
X1366Y266D01*
X1383Y266D02*
X1389Y266D01*
X1398Y266D02*
X1404Y266D01*
X1412Y266D02*
X1418Y266D01*
X1448Y266D02*
X1454Y266D01*
X1488Y266D02*
X1494Y266D01*
X1527Y266D02*
X1533Y266D01*
X1953Y266D02*
X1957Y266D01*
X1995Y266D02*
X2000Y266D01*
X2027Y266D02*
X2032Y266D01*
X2059Y266D02*
X2063Y266D01*
X2069Y266D02*
X2074Y266D01*
X2090Y266D02*
X2095Y266D01*
X2160Y266D02*
X2167Y266D01*
X1238Y265D02*
X1245Y265D01*
X1287Y265D02*
X1293Y265D01*
X1309Y265D02*
X1315Y265D01*
X1338Y265D02*
X1344Y265D01*
X1360Y265D02*
X1366Y265D01*
X1383Y265D02*
X1389Y265D01*
X1398Y265D02*
X1404Y265D01*
X1412Y265D02*
X1418Y265D01*
X1448Y265D02*
X1454Y265D01*
X1488Y265D02*
X1494Y265D01*
X1527Y265D02*
X1533Y265D01*
X1953Y265D02*
X1957Y265D01*
X1995Y265D02*
X2000Y265D01*
X2027Y265D02*
X2032Y265D01*
X2059Y265D02*
X2063Y265D01*
X2069Y265D02*
X2074Y265D01*
X2090Y265D02*
X2095Y265D01*
X2160Y265D02*
X2167Y265D01*
X1238Y264D02*
X1245Y264D01*
X1287Y264D02*
X1293Y264D01*
X1309Y264D02*
X1315Y264D01*
X1338Y264D02*
X1344Y264D01*
X1360Y264D02*
X1366Y264D01*
X1383Y264D02*
X1389Y264D01*
X1398Y264D02*
X1404Y264D01*
X1412Y264D02*
X1418Y264D01*
X1448Y264D02*
X1454Y264D01*
X1488Y264D02*
X1494Y264D01*
X1527Y264D02*
X1533Y264D01*
X1953Y264D02*
X1957Y264D01*
X1995Y264D02*
X2000Y264D01*
X2026Y264D02*
X2032Y264D01*
X2059Y264D02*
X2063Y264D01*
X2069Y264D02*
X2074Y264D01*
X2090Y264D02*
X2095Y264D01*
X2160Y264D02*
X2167Y264D01*
X1238Y263D02*
X1245Y263D01*
X1287Y263D02*
X1293Y263D01*
X1309Y263D02*
X1315Y263D01*
X1338Y263D02*
X1344Y263D01*
X1360Y263D02*
X1366Y263D01*
X1383Y263D02*
X1389Y263D01*
X1398Y263D02*
X1404Y263D01*
X1412Y263D02*
X1418Y263D01*
X1448Y263D02*
X1454Y263D01*
X1488Y263D02*
X1494Y263D01*
X1527Y263D02*
X1533Y263D01*
X1953Y263D02*
X1957Y263D01*
X1995Y263D02*
X2000Y263D01*
X2025Y263D02*
X2032Y263D01*
X2059Y263D02*
X2063Y263D01*
X2069Y263D02*
X2074Y263D01*
X2090Y263D02*
X2095Y263D01*
X2160Y263D02*
X2167Y263D01*
X1238Y262D02*
X1245Y262D01*
X1287Y262D02*
X1293Y262D01*
X1309Y262D02*
X1315Y262D01*
X1338Y262D02*
X1344Y262D01*
X1360Y262D02*
X1366Y262D01*
X1383Y262D02*
X1389Y262D01*
X1398Y262D02*
X1404Y262D01*
X1412Y262D02*
X1418Y262D01*
X1448Y262D02*
X1454Y262D01*
X1488Y262D02*
X1494Y262D01*
X1527Y262D02*
X1533Y262D01*
X1953Y262D02*
X1957Y262D01*
X1995Y262D02*
X2000Y262D01*
X2024Y262D02*
X2031Y262D01*
X2059Y262D02*
X2063Y262D01*
X2069Y262D02*
X2074Y262D01*
X2090Y262D02*
X2095Y262D01*
X2160Y262D02*
X2167Y262D01*
X1238Y261D02*
X1245Y261D01*
X1287Y261D02*
X1293Y261D01*
X1309Y261D02*
X1315Y261D01*
X1338Y261D02*
X1344Y261D01*
X1360Y261D02*
X1366Y261D01*
X1383Y261D02*
X1389Y261D01*
X1398Y261D02*
X1404Y261D01*
X1412Y261D02*
X1418Y261D01*
X1448Y261D02*
X1454Y261D01*
X1488Y261D02*
X1494Y261D01*
X1527Y261D02*
X1533Y261D01*
X1953Y261D02*
X1957Y261D01*
X1987Y261D02*
X2000Y261D01*
X2013Y261D02*
X2030Y261D01*
X2050Y261D02*
X2063Y261D01*
X2069Y261D02*
X2074Y261D01*
X2090Y261D02*
X2095Y261D01*
X2160Y261D02*
X2167Y261D01*
X1238Y260D02*
X1245Y260D01*
X1287Y260D02*
X1293Y260D01*
X1309Y260D02*
X1315Y260D01*
X1338Y260D02*
X1344Y260D01*
X1360Y260D02*
X1366Y260D01*
X1383Y260D02*
X1389Y260D01*
X1398Y260D02*
X1404Y260D01*
X1412Y260D02*
X1418Y260D01*
X1448Y260D02*
X1454Y260D01*
X1488Y260D02*
X1494Y260D01*
X1527Y260D02*
X1533Y260D01*
X1953Y260D02*
X1957Y260D01*
X1986Y260D02*
X2000Y260D01*
X2011Y260D02*
X2029Y260D01*
X2049Y260D02*
X2063Y260D01*
X2069Y260D02*
X2074Y260D01*
X2090Y260D02*
X2095Y260D01*
X2160Y260D02*
X2167Y260D01*
X1238Y259D02*
X1245Y259D01*
X1287Y259D02*
X1293Y259D01*
X1309Y259D02*
X1315Y259D01*
X1338Y259D02*
X1344Y259D01*
X1360Y259D02*
X1366Y259D01*
X1383Y259D02*
X1389Y259D01*
X1398Y259D02*
X1404Y259D01*
X1412Y259D02*
X1418Y259D01*
X1448Y259D02*
X1454Y259D01*
X1488Y259D02*
X1494Y259D01*
X1527Y259D02*
X1533Y259D01*
X1953Y259D02*
X1957Y259D01*
X1985Y259D02*
X2000Y259D01*
X2011Y259D02*
X2028Y259D01*
X2048Y259D02*
X2063Y259D01*
X2069Y259D02*
X2075Y259D01*
X2090Y259D02*
X2095Y259D01*
X2160Y259D02*
X2167Y259D01*
X1238Y258D02*
X1245Y258D01*
X1287Y258D02*
X1293Y258D01*
X1309Y258D02*
X1315Y258D01*
X1338Y258D02*
X1344Y258D01*
X1360Y258D02*
X1366Y258D01*
X1383Y258D02*
X1389Y258D01*
X1398Y258D02*
X1404Y258D01*
X1412Y258D02*
X1418Y258D01*
X1448Y258D02*
X1454Y258D01*
X1488Y258D02*
X1494Y258D01*
X1527Y258D02*
X1533Y258D01*
X1953Y258D02*
X1957Y258D01*
X1985Y258D02*
X2000Y258D01*
X2010Y258D02*
X2027Y258D01*
X2048Y258D02*
X2063Y258D01*
X2069Y258D02*
X2076Y258D01*
X2090Y258D02*
X2095Y258D01*
X2160Y258D02*
X2167Y258D01*
X1238Y257D02*
X1245Y257D01*
X1287Y257D02*
X1293Y257D01*
X1309Y257D02*
X1315Y257D01*
X1338Y257D02*
X1344Y257D01*
X1360Y257D02*
X1366Y257D01*
X1383Y257D02*
X1389Y257D01*
X1398Y257D02*
X1404Y257D01*
X1412Y257D02*
X1418Y257D01*
X1448Y257D02*
X1454Y257D01*
X1488Y257D02*
X1494Y257D01*
X1527Y257D02*
X1533Y257D01*
X1953Y257D02*
X1957Y257D01*
X1986Y257D02*
X2000Y257D01*
X2009Y257D02*
X2026Y257D01*
X2048Y257D02*
X2063Y257D01*
X2070Y257D02*
X2077Y257D01*
X2090Y257D02*
X2095Y257D01*
X2160Y257D02*
X2167Y257D01*
X1238Y256D02*
X1245Y256D01*
X1286Y256D02*
X1293Y256D01*
X1309Y256D02*
X1315Y256D01*
X1338Y256D02*
X1344Y256D01*
X1360Y256D02*
X1367Y256D01*
X1383Y256D02*
X1389Y256D01*
X1398Y256D02*
X1404Y256D01*
X1412Y256D02*
X1418Y256D01*
X1448Y256D02*
X1454Y256D01*
X1488Y256D02*
X1494Y256D01*
X1527Y256D02*
X1533Y256D01*
X1953Y256D02*
X1957Y256D01*
X1987Y256D02*
X2000Y256D01*
X2008Y256D02*
X2025Y256D01*
X2049Y256D02*
X2063Y256D01*
X2070Y256D02*
X2078Y256D01*
X2090Y256D02*
X2095Y256D01*
X2160Y256D02*
X2167Y256D01*
X1238Y255D02*
X1245Y255D01*
X1282Y255D02*
X1299Y255D01*
X1309Y255D02*
X1315Y255D01*
X1338Y255D02*
X1344Y255D01*
X1354Y255D02*
X1372Y255D01*
X1383Y255D02*
X1389Y255D01*
X1398Y255D02*
X1404Y255D01*
X1412Y255D02*
X1418Y255D01*
X1448Y255D02*
X1454Y255D01*
X1488Y255D02*
X1495Y255D01*
X1527Y255D02*
X1533Y255D01*
X1953Y255D02*
X1957Y255D01*
X1995Y255D02*
X2000Y255D01*
X2006Y255D02*
X2013Y255D01*
X2059Y255D02*
X2063Y255D01*
X2072Y255D02*
X2095Y255D01*
X2160Y255D02*
X2167Y255D01*
X1238Y254D02*
X1245Y254D01*
X1281Y254D02*
X1300Y254D01*
X1309Y254D02*
X1315Y254D01*
X1338Y254D02*
X1344Y254D01*
X1353Y254D02*
X1373Y254D01*
X1383Y254D02*
X1389Y254D01*
X1398Y254D02*
X1404Y254D01*
X1412Y254D02*
X1418Y254D01*
X1448Y254D02*
X1454Y254D01*
X1488Y254D02*
X1495Y254D01*
X1527Y254D02*
X1533Y254D01*
X1953Y254D02*
X1957Y254D01*
X1995Y254D02*
X2000Y254D01*
X2006Y254D02*
X2012Y254D01*
X2059Y254D02*
X2063Y254D01*
X2073Y254D02*
X2095Y254D01*
X2160Y254D02*
X2167Y254D01*
X1238Y253D02*
X1245Y253D01*
X1281Y253D02*
X1300Y253D01*
X1309Y253D02*
X1315Y253D01*
X1338Y253D02*
X1344Y253D01*
X1353Y253D02*
X1374Y253D01*
X1383Y253D02*
X1389Y253D01*
X1398Y253D02*
X1404Y253D01*
X1412Y253D02*
X1418Y253D01*
X1448Y253D02*
X1454Y253D01*
X1488Y253D02*
X1496Y253D01*
X1527Y253D02*
X1533Y253D01*
X1953Y253D02*
X1957Y253D01*
X1995Y253D02*
X2000Y253D01*
X2006Y253D02*
X2011Y253D01*
X2059Y253D02*
X2063Y253D01*
X2074Y253D02*
X2095Y253D01*
X2160Y253D02*
X2167Y253D01*
X1238Y252D02*
X1245Y252D01*
X1281Y252D02*
X1300Y252D01*
X1309Y252D02*
X1315Y252D01*
X1338Y252D02*
X1344Y252D01*
X1353Y252D02*
X1374Y252D01*
X1383Y252D02*
X1389Y252D01*
X1398Y252D02*
X1404Y252D01*
X1412Y252D02*
X1418Y252D01*
X1448Y252D02*
X1454Y252D01*
X1489Y252D02*
X1497Y252D01*
X1527Y252D02*
X1533Y252D01*
X1953Y252D02*
X1957Y252D01*
X1995Y252D02*
X2000Y252D01*
X2006Y252D02*
X2011Y252D01*
X2059Y252D02*
X2063Y252D01*
X2075Y252D02*
X2095Y252D01*
X2160Y252D02*
X2167Y252D01*
X1238Y251D02*
X1245Y251D01*
X1281Y251D02*
X1300Y251D01*
X1310Y251D02*
X1315Y251D01*
X1338Y251D02*
X1344Y251D01*
X1353Y251D02*
X1374Y251D01*
X1383Y251D02*
X1389Y251D01*
X1398Y251D02*
X1404Y251D01*
X1412Y251D02*
X1417Y251D01*
X1448Y251D02*
X1454Y251D01*
X1489Y251D02*
X1498Y251D01*
X1527Y251D02*
X1533Y251D01*
X1953Y251D02*
X1957Y251D01*
X1995Y251D02*
X2000Y251D01*
X2006Y251D02*
X2010Y251D01*
X2029Y251D02*
X2030Y251D01*
X2059Y251D02*
X2063Y251D01*
X2075Y251D02*
X2095Y251D01*
X2160Y251D02*
X2167Y251D01*
X1238Y250D02*
X1245Y250D01*
X1281Y250D02*
X1299Y250D01*
X1310Y250D02*
X1314Y250D01*
X1339Y250D02*
X1343Y250D01*
X1354Y250D02*
X1373Y250D01*
X1384Y250D02*
X1388Y250D01*
X1399Y250D02*
X1403Y250D01*
X1413Y250D02*
X1417Y250D01*
X1448Y250D02*
X1454Y250D01*
X1491Y250D02*
X1499Y250D01*
X1527Y250D02*
X1533Y250D01*
X1953Y250D02*
X1957Y250D01*
X1995Y250D02*
X2000Y250D01*
X2006Y250D02*
X2010Y250D01*
X2028Y250D02*
X2031Y250D01*
X2059Y250D02*
X2063Y250D01*
X2076Y250D02*
X2083Y250D01*
X2090Y250D02*
X2095Y250D01*
X2160Y250D02*
X2167Y250D01*
X1238Y249D02*
X1245Y249D01*
X1283Y249D02*
X1298Y249D01*
X1312Y249D02*
X1313Y249D01*
X1341Y249D02*
X1341Y249D01*
X1356Y249D02*
X1371Y249D01*
X1386Y249D02*
X1386Y249D01*
X1401Y249D02*
X1401Y249D01*
X1414Y249D02*
X1415Y249D01*
X1448Y249D02*
X1454Y249D01*
X1492Y249D02*
X1500Y249D01*
X1527Y249D02*
X1533Y249D01*
X1953Y249D02*
X1957Y249D01*
X1995Y249D02*
X2000Y249D01*
X2006Y249D02*
X2011Y249D01*
X2027Y249D02*
X2032Y249D01*
X2059Y249D02*
X2063Y249D01*
X2075Y249D02*
X2082Y249D01*
X2090Y249D02*
X2095Y249D01*
X2160Y249D02*
X2167Y249D01*
X1238Y248D02*
X1245Y248D01*
X1448Y248D02*
X1454Y248D01*
X1493Y248D02*
X1501Y248D01*
X1527Y248D02*
X1533Y248D01*
X1953Y248D02*
X1957Y248D01*
X1995Y248D02*
X2000Y248D01*
X2006Y248D02*
X2012Y248D01*
X2026Y248D02*
X2032Y248D01*
X2059Y248D02*
X2063Y248D01*
X2073Y248D02*
X2081Y248D01*
X2090Y248D02*
X2095Y248D01*
X2160Y248D02*
X2167Y248D01*
X1238Y247D02*
X1245Y247D01*
X1433Y247D02*
X1471Y247D01*
X1494Y247D02*
X1533Y247D01*
X1953Y247D02*
X1957Y247D01*
X1995Y247D02*
X2000Y247D01*
X2006Y247D02*
X2013Y247D01*
X2025Y247D02*
X2031Y247D01*
X2059Y247D02*
X2063Y247D01*
X2072Y247D02*
X2080Y247D01*
X2090Y247D02*
X2095Y247D01*
X2160Y247D02*
X2167Y247D01*
X1238Y246D02*
X1245Y246D01*
X1431Y246D02*
X1473Y246D01*
X1495Y246D02*
X1533Y246D01*
X1953Y246D02*
X1957Y246D01*
X1995Y246D02*
X2000Y246D01*
X2007Y246D02*
X2014Y246D01*
X2023Y246D02*
X2031Y246D01*
X2058Y246D02*
X2063Y246D01*
X2071Y246D02*
X2079Y246D01*
X2090Y246D02*
X2095Y246D01*
X2160Y246D02*
X2167Y246D01*
X1238Y245D02*
X1245Y245D01*
X1430Y245D02*
X1474Y245D01*
X1496Y245D02*
X1533Y245D01*
X1953Y245D02*
X1957Y245D01*
X1975Y245D02*
X2000Y245D01*
X2008Y245D02*
X2030Y245D01*
X2039Y245D02*
X2063Y245D01*
X2070Y245D02*
X2077Y245D01*
X2090Y245D02*
X2095Y245D01*
X2160Y245D02*
X2167Y245D01*
X1238Y244D02*
X1245Y244D01*
X1430Y244D02*
X1474Y244D01*
X1497Y244D02*
X1533Y244D01*
X1953Y244D02*
X1957Y244D01*
X1975Y244D02*
X2000Y244D01*
X2009Y244D02*
X2029Y244D01*
X2038Y244D02*
X2063Y244D01*
X2070Y244D02*
X2076Y244D01*
X2090Y244D02*
X2095Y244D01*
X2160Y244D02*
X2167Y244D01*
X1238Y243D02*
X1245Y243D01*
X1430Y243D02*
X1474Y243D01*
X1498Y243D02*
X1533Y243D01*
X1953Y243D02*
X1957Y243D01*
X1974Y243D02*
X2000Y243D01*
X2010Y243D02*
X2028Y243D01*
X2038Y243D02*
X2063Y243D01*
X2070Y243D02*
X2075Y243D01*
X2090Y243D02*
X2095Y243D01*
X2160Y243D02*
X2167Y243D01*
X1238Y242D02*
X1245Y242D01*
X1430Y242D02*
X1474Y242D01*
X1498Y242D02*
X1533Y242D01*
X1953Y242D02*
X1957Y242D01*
X1975Y242D02*
X2000Y242D01*
X2011Y242D02*
X2027Y242D01*
X2038Y242D02*
X2063Y242D01*
X2070Y242D02*
X2074Y242D01*
X2090Y242D02*
X2094Y242D01*
X2160Y242D02*
X2167Y242D01*
X1238Y241D02*
X1245Y241D01*
X1431Y241D02*
X1473Y241D01*
X1499Y241D02*
X1532Y241D01*
X1954Y241D02*
X1956Y241D01*
X1975Y241D02*
X1999Y241D01*
X2012Y241D02*
X2026Y241D01*
X2039Y241D02*
X2063Y241D01*
X2071Y241D02*
X2073Y241D01*
X2091Y241D02*
X2094Y241D01*
X2160Y241D02*
X2167Y241D01*
X1238Y240D02*
X1245Y240D01*
X1451Y240D02*
X1452Y240D01*
X1501Y240D02*
X1502Y240D01*
X1529Y240D02*
X1530Y240D01*
X2160Y240D02*
X2167Y240D01*
X1238Y239D02*
X1245Y239D01*
X2160Y239D02*
X2167Y239D01*
X1238Y238D02*
X1245Y238D01*
X2160Y238D02*
X2167Y238D01*
X1238Y237D02*
X1245Y237D01*
X2160Y237D02*
X2167Y237D01*
X1238Y236D02*
X1245Y236D01*
X2160Y236D02*
X2167Y236D01*
X1238Y235D02*
X1245Y235D01*
X2160Y235D02*
X2167Y235D01*
X1238Y234D02*
X1245Y234D01*
X2160Y234D02*
X2167Y234D01*
X1238Y233D02*
X1245Y233D01*
X2160Y233D02*
X2167Y233D01*
X1238Y232D02*
X1245Y232D01*
X2160Y232D02*
X2167Y232D01*
X1238Y231D02*
X1245Y231D01*
X2160Y231D02*
X2167Y231D01*
X1238Y230D02*
X1245Y230D01*
X2160Y230D02*
X2167Y230D01*
X1238Y229D02*
X1245Y229D01*
X2160Y229D02*
X2167Y229D01*
X1238Y228D02*
X1245Y228D01*
X2160Y228D02*
X2167Y228D01*
X1238Y227D02*
X1245Y227D01*
X2160Y227D02*
X2167Y227D01*
X1238Y226D02*
X1245Y226D01*
X2160Y226D02*
X2167Y226D01*
X1238Y225D02*
X1245Y225D01*
X2160Y225D02*
X2167Y225D01*
X1238Y224D02*
X1245Y224D01*
X2160Y224D02*
X2167Y224D01*
X1238Y223D02*
X1245Y223D01*
X2160Y223D02*
X2167Y223D01*
X1238Y222D02*
X1245Y222D01*
X1534Y222D02*
X1536Y222D01*
X1575Y222D02*
X1578Y222D01*
X2160Y222D02*
X2167Y222D01*
X1238Y221D02*
X1245Y221D01*
X1533Y221D02*
X1537Y221D01*
X1574Y221D02*
X1579Y221D01*
X2160Y221D02*
X2167Y221D01*
X1238Y220D02*
X1245Y220D01*
X1532Y220D02*
X1538Y220D01*
X1574Y220D02*
X1579Y220D01*
X2160Y220D02*
X2167Y220D01*
X1238Y219D02*
X1245Y219D01*
X1531Y219D02*
X1538Y219D01*
X1574Y219D02*
X1580Y219D01*
X2160Y219D02*
X2167Y219D01*
X1238Y218D02*
X1245Y218D01*
X1530Y218D02*
X1538Y218D01*
X1574Y218D02*
X1580Y218D01*
X2160Y218D02*
X2167Y218D01*
X1238Y217D02*
X1245Y217D01*
X1530Y217D02*
X1537Y217D01*
X1574Y217D02*
X1581Y217D01*
X2160Y217D02*
X2167Y217D01*
X1238Y216D02*
X1245Y216D01*
X1529Y216D02*
X1536Y216D01*
X1575Y216D02*
X1581Y216D01*
X2160Y216D02*
X2167Y216D01*
X1238Y215D02*
X1245Y215D01*
X1529Y215D02*
X1536Y215D01*
X1575Y215D02*
X1582Y215D01*
X2160Y215D02*
X2167Y215D01*
X1238Y214D02*
X1245Y214D01*
X1528Y214D02*
X1535Y214D01*
X1576Y214D02*
X1582Y214D01*
X2160Y214D02*
X2167Y214D01*
X1238Y213D02*
X1245Y213D01*
X1527Y213D02*
X1534Y213D01*
X1576Y213D02*
X1583Y213D01*
X2160Y213D02*
X2167Y213D01*
X1238Y212D02*
X1245Y212D01*
X1527Y212D02*
X1534Y212D01*
X1576Y212D02*
X1583Y212D01*
X2160Y212D02*
X2167Y212D01*
X1238Y211D02*
X1245Y211D01*
X1526Y211D02*
X1533Y211D01*
X1577Y211D02*
X1583Y211D01*
X2160Y211D02*
X2167Y211D01*
X1238Y210D02*
X1245Y210D01*
X1526Y210D02*
X1533Y210D01*
X1577Y210D02*
X1584Y210D01*
X2160Y210D02*
X2167Y210D01*
X1238Y209D02*
X1245Y209D01*
X1525Y209D02*
X1532Y209D01*
X1578Y209D02*
X1584Y209D01*
X2160Y209D02*
X2167Y209D01*
X1238Y208D02*
X1245Y208D01*
X1525Y208D02*
X1531Y208D01*
X1578Y208D02*
X1585Y208D01*
X2160Y208D02*
X2167Y208D01*
X1238Y207D02*
X1245Y207D01*
X1524Y207D02*
X1531Y207D01*
X1579Y207D02*
X1585Y207D01*
X2160Y207D02*
X2167Y207D01*
X1238Y206D02*
X1245Y206D01*
X1524Y206D02*
X1530Y206D01*
X1579Y206D02*
X1585Y206D01*
X2160Y206D02*
X2167Y206D01*
X1238Y205D02*
X1245Y205D01*
X1450Y205D02*
X1454Y205D01*
X1472Y205D02*
X1476Y205D01*
X1523Y205D02*
X1530Y205D01*
X1579Y205D02*
X1586Y205D01*
X2160Y205D02*
X2167Y205D01*
X1238Y204D02*
X1245Y204D01*
X1449Y204D02*
X1455Y204D01*
X1471Y204D02*
X1477Y204D01*
X1523Y204D02*
X1529Y204D01*
X1580Y204D02*
X1586Y204D01*
X2160Y204D02*
X2167Y204D01*
X1238Y203D02*
X1245Y203D01*
X1449Y203D02*
X1456Y203D01*
X1470Y203D02*
X1477Y203D01*
X1522Y203D02*
X1529Y203D01*
X1580Y203D02*
X1586Y203D01*
X2160Y203D02*
X2167Y203D01*
X1238Y202D02*
X1245Y202D01*
X1449Y202D02*
X1457Y202D01*
X1469Y202D02*
X1477Y202D01*
X1522Y202D02*
X1528Y202D01*
X1580Y202D02*
X1586Y202D01*
X2160Y202D02*
X2167Y202D01*
X1238Y201D02*
X1245Y201D01*
X1449Y201D02*
X1457Y201D01*
X1468Y201D02*
X1477Y201D01*
X1522Y201D02*
X1528Y201D01*
X1581Y201D02*
X1587Y201D01*
X2160Y201D02*
X2167Y201D01*
X1238Y200D02*
X1245Y200D01*
X1449Y200D02*
X1458Y200D01*
X1467Y200D02*
X1477Y200D01*
X1521Y200D02*
X1528Y200D01*
X1581Y200D02*
X1587Y200D01*
X2160Y200D02*
X2167Y200D01*
X1238Y199D02*
X1245Y199D01*
X1449Y199D02*
X1459Y199D01*
X1466Y199D02*
X1477Y199D01*
X1521Y199D02*
X1527Y199D01*
X1581Y199D02*
X1587Y199D01*
X2160Y199D02*
X2167Y199D01*
X1238Y198D02*
X1245Y198D01*
X1449Y198D02*
X1460Y198D01*
X1465Y198D02*
X1477Y198D01*
X1521Y198D02*
X1527Y198D01*
X1581Y198D02*
X1587Y198D01*
X2160Y198D02*
X2167Y198D01*
X1238Y197D02*
X1245Y197D01*
X1449Y197D02*
X1461Y197D01*
X1464Y197D02*
X1477Y197D01*
X1520Y197D02*
X1526Y197D01*
X1581Y197D02*
X1588Y197D01*
X2160Y197D02*
X2167Y197D01*
X1238Y196D02*
X1245Y196D01*
X1449Y196D02*
X1477Y196D01*
X1520Y196D02*
X1526Y196D01*
X1582Y196D02*
X1588Y196D01*
X2160Y196D02*
X2167Y196D01*
X1238Y195D02*
X1245Y195D01*
X1449Y195D02*
X1477Y195D01*
X1520Y195D02*
X1526Y195D01*
X1582Y195D02*
X1588Y195D01*
X2160Y195D02*
X2167Y195D01*
X1238Y194D02*
X1245Y194D01*
X1292Y194D02*
X1311Y194D01*
X1327Y194D02*
X1346Y194D01*
X1380Y194D02*
X1400Y194D01*
X1421Y194D02*
X1435Y194D01*
X1449Y194D02*
X1477Y194D01*
X1492Y194D02*
X1505Y194D01*
X1519Y194D02*
X1526Y194D01*
X1582Y194D02*
X1588Y194D01*
X2160Y194D02*
X2167Y194D01*
X1238Y193D02*
X1245Y193D01*
X1290Y193D02*
X1312Y193D01*
X1325Y193D02*
X1347Y193D01*
X1379Y193D02*
X1401Y193D01*
X1419Y193D02*
X1436Y193D01*
X1449Y193D02*
X1469Y193D01*
X1471Y193D02*
X1477Y193D01*
X1490Y193D02*
X1506Y193D01*
X1519Y193D02*
X1525Y193D01*
X1582Y193D02*
X1588Y193D01*
X2160Y193D02*
X2167Y193D01*
X1238Y192D02*
X1245Y192D01*
X1290Y192D02*
X1313Y192D01*
X1325Y192D02*
X1348Y192D01*
X1378Y192D02*
X1402Y192D01*
X1419Y192D02*
X1437Y192D01*
X1449Y192D02*
X1455Y192D01*
X1457Y192D02*
X1468Y192D01*
X1471Y192D02*
X1477Y192D01*
X1489Y192D02*
X1507Y192D01*
X1519Y192D02*
X1525Y192D01*
X1582Y192D02*
X1588Y192D01*
X2160Y192D02*
X2167Y192D01*
X1238Y191D02*
X1245Y191D01*
X1290Y191D02*
X1314Y191D01*
X1325Y191D02*
X1349Y191D01*
X1378Y191D02*
X1403Y191D01*
X1418Y191D02*
X1438Y191D01*
X1449Y191D02*
X1455Y191D01*
X1458Y191D02*
X1467Y191D01*
X1471Y191D02*
X1477Y191D01*
X1488Y191D02*
X1508Y191D01*
X1519Y191D02*
X1525Y191D01*
X1582Y191D02*
X1588Y191D01*
X2160Y191D02*
X2167Y191D01*
X1238Y190D02*
X1245Y190D01*
X1290Y190D02*
X1315Y190D01*
X1325Y190D02*
X1351Y190D01*
X1378Y190D02*
X1404Y190D01*
X1417Y190D02*
X1439Y190D01*
X1449Y190D02*
X1455Y190D01*
X1459Y190D02*
X1466Y190D01*
X1471Y190D02*
X1477Y190D01*
X1487Y190D02*
X1509Y190D01*
X1519Y190D02*
X1525Y190D01*
X1582Y190D02*
X1588Y190D01*
X2160Y190D02*
X2167Y190D01*
X1238Y189D02*
X1245Y189D01*
X1290Y189D02*
X1316Y189D01*
X1325Y189D02*
X1352Y189D01*
X1379Y189D02*
X1405Y189D01*
X1415Y189D02*
X1441Y189D01*
X1449Y189D02*
X1455Y189D01*
X1460Y189D02*
X1465Y189D01*
X1471Y189D02*
X1477Y189D01*
X1485Y189D02*
X1511Y189D01*
X1519Y189D02*
X1525Y189D01*
X1582Y189D02*
X1588Y189D01*
X2160Y189D02*
X2167Y189D01*
X1238Y188D02*
X1245Y188D01*
X1291Y188D02*
X1317Y188D01*
X1326Y188D02*
X1353Y188D01*
X1380Y188D02*
X1406Y188D01*
X1415Y188D02*
X1442Y188D01*
X1449Y188D02*
X1455Y188D01*
X1461Y188D02*
X1464Y188D01*
X1471Y188D02*
X1477Y188D01*
X1485Y188D02*
X1512Y188D01*
X1518Y188D02*
X1524Y188D01*
X1582Y188D02*
X1588Y188D01*
X2160Y188D02*
X2167Y188D01*
X1238Y187D02*
X1245Y187D01*
X1309Y187D02*
X1318Y187D01*
X1344Y187D02*
X1354Y187D01*
X1398Y187D02*
X1406Y187D01*
X1414Y187D02*
X1423Y187D01*
X1433Y187D02*
X1442Y187D01*
X1449Y187D02*
X1455Y187D01*
X1471Y187D02*
X1477Y187D01*
X1484Y187D02*
X1493Y187D01*
X1503Y187D02*
X1512Y187D01*
X1518Y187D02*
X1524Y187D01*
X1582Y187D02*
X1588Y187D01*
X2160Y187D02*
X2167Y187D01*
X1238Y186D02*
X1245Y186D01*
X1310Y186D02*
X1318Y186D01*
X1346Y186D02*
X1354Y186D01*
X1399Y186D02*
X1406Y186D01*
X1414Y186D02*
X1421Y186D01*
X1434Y186D02*
X1442Y186D01*
X1449Y186D02*
X1455Y186D01*
X1471Y186D02*
X1477Y186D01*
X1484Y186D02*
X1492Y186D01*
X1504Y186D02*
X1512Y186D01*
X1518Y186D02*
X1524Y186D01*
X1582Y186D02*
X1588Y186D01*
X2160Y186D02*
X2167Y186D01*
X1238Y185D02*
X1245Y185D01*
X1311Y185D02*
X1318Y185D01*
X1347Y185D02*
X1354Y185D01*
X1398Y185D02*
X1406Y185D01*
X1414Y185D02*
X1420Y185D01*
X1435Y185D02*
X1442Y185D01*
X1449Y185D02*
X1455Y185D01*
X1471Y185D02*
X1477Y185D01*
X1484Y185D02*
X1491Y185D01*
X1505Y185D02*
X1512Y185D01*
X1518Y185D02*
X1524Y185D01*
X1582Y185D02*
X1588Y185D01*
X2160Y185D02*
X2167Y185D01*
X1238Y184D02*
X1245Y184D01*
X1312Y184D02*
X1318Y184D01*
X1347Y184D02*
X1353Y184D01*
X1397Y184D02*
X1406Y184D01*
X1414Y184D02*
X1420Y184D01*
X1436Y184D02*
X1442Y184D01*
X1449Y184D02*
X1455Y184D01*
X1471Y184D02*
X1477Y184D01*
X1484Y184D02*
X1490Y184D01*
X1506Y184D02*
X1512Y184D01*
X1518Y184D02*
X1524Y184D01*
X1552Y184D02*
X1552Y184D01*
X1582Y184D02*
X1588Y184D01*
X2160Y184D02*
X2167Y184D01*
X1238Y183D02*
X1245Y183D01*
X1312Y183D02*
X1318Y183D01*
X1348Y183D02*
X1353Y183D01*
X1385Y183D02*
X1405Y183D01*
X1414Y183D02*
X1420Y183D01*
X1436Y183D02*
X1442Y183D01*
X1449Y183D02*
X1455Y183D01*
X1471Y183D02*
X1477Y183D01*
X1484Y183D02*
X1512Y183D01*
X1518Y183D02*
X1524Y183D01*
X1551Y183D02*
X1552Y183D01*
X1582Y183D02*
X1588Y183D01*
X2160Y183D02*
X2167Y183D01*
X1238Y182D02*
X1245Y182D01*
X1312Y182D02*
X1318Y182D01*
X1348Y182D02*
X1353Y182D01*
X1384Y182D02*
X1404Y182D01*
X1414Y182D02*
X1420Y182D01*
X1436Y182D02*
X1442Y182D01*
X1449Y182D02*
X1455Y182D01*
X1471Y182D02*
X1477Y182D01*
X1484Y182D02*
X1512Y182D01*
X1518Y182D02*
X1524Y182D01*
X1551Y182D02*
X1552Y182D01*
X1582Y182D02*
X1588Y182D01*
X2160Y182D02*
X2167Y182D01*
X1238Y181D02*
X1245Y181D01*
X1312Y181D02*
X1318Y181D01*
X1348Y181D02*
X1353Y181D01*
X1383Y181D02*
X1403Y181D01*
X1414Y181D02*
X1420Y181D01*
X1436Y181D02*
X1442Y181D01*
X1449Y181D02*
X1455Y181D01*
X1471Y181D02*
X1477Y181D01*
X1484Y181D02*
X1512Y181D01*
X1518Y181D02*
X1524Y181D01*
X1551Y181D02*
X1553Y181D01*
X1582Y181D02*
X1588Y181D01*
X2160Y181D02*
X2167Y181D01*
X1238Y180D02*
X1245Y180D01*
X1312Y180D02*
X1318Y180D01*
X1348Y180D02*
X1353Y180D01*
X1382Y180D02*
X1402Y180D01*
X1414Y180D02*
X1420Y180D01*
X1436Y180D02*
X1442Y180D01*
X1449Y180D02*
X1455Y180D01*
X1471Y180D02*
X1477Y180D01*
X1484Y180D02*
X1512Y180D01*
X1519Y180D02*
X1524Y180D01*
X1550Y180D02*
X1553Y180D01*
X1582Y180D02*
X1588Y180D01*
X2160Y180D02*
X2167Y180D01*
X1238Y179D02*
X1245Y179D01*
X1312Y179D02*
X1318Y179D01*
X1348Y179D02*
X1353Y179D01*
X1381Y179D02*
X1401Y179D01*
X1414Y179D02*
X1420Y179D01*
X1436Y179D02*
X1442Y179D01*
X1449Y179D02*
X1455Y179D01*
X1471Y179D02*
X1477Y179D01*
X1484Y179D02*
X1512Y179D01*
X1519Y179D02*
X1525Y179D01*
X1550Y179D02*
X1553Y179D01*
X1581Y179D02*
X1587Y179D01*
X2160Y179D02*
X2167Y179D01*
X1238Y178D02*
X1245Y178D01*
X1312Y178D02*
X1318Y178D01*
X1348Y178D02*
X1353Y178D01*
X1362Y178D02*
X1363Y178D01*
X1367Y178D02*
X1369Y178D01*
X1380Y178D02*
X1401Y178D01*
X1414Y178D02*
X1420Y178D01*
X1436Y178D02*
X1442Y178D01*
X1449Y178D02*
X1455Y178D01*
X1471Y178D02*
X1477Y178D01*
X1485Y178D02*
X1512Y178D01*
X1519Y178D02*
X1525Y178D01*
X1549Y178D02*
X1554Y178D01*
X1581Y178D02*
X1587Y178D01*
X2160Y178D02*
X2167Y178D01*
X1238Y177D02*
X1245Y177D01*
X1312Y177D02*
X1318Y177D01*
X1348Y177D02*
X1353Y177D01*
X1360Y177D02*
X1370Y177D01*
X1379Y177D02*
X1400Y177D01*
X1414Y177D02*
X1420Y177D01*
X1436Y177D02*
X1442Y177D01*
X1449Y177D02*
X1455Y177D01*
X1471Y177D02*
X1477Y177D01*
X1486Y177D02*
X1512Y177D01*
X1519Y177D02*
X1525Y177D01*
X1549Y177D02*
X1554Y177D01*
X1581Y177D02*
X1587Y177D01*
X2160Y177D02*
X2167Y177D01*
X1238Y176D02*
X1245Y176D01*
X1311Y176D02*
X1318Y176D01*
X1347Y176D02*
X1354Y176D01*
X1360Y176D02*
X1371Y176D01*
X1378Y176D02*
X1387Y176D01*
X1414Y176D02*
X1420Y176D01*
X1436Y176D02*
X1442Y176D01*
X1449Y176D02*
X1455Y176D01*
X1471Y176D02*
X1477Y176D01*
X1506Y176D02*
X1512Y176D01*
X1519Y176D02*
X1525Y176D01*
X1549Y176D02*
X1554Y176D01*
X1580Y176D02*
X1587Y176D01*
X2160Y176D02*
X2167Y176D01*
X1238Y175D02*
X1245Y175D01*
X1311Y175D02*
X1318Y175D01*
X1347Y175D02*
X1354Y175D01*
X1359Y175D02*
X1371Y175D01*
X1378Y175D02*
X1386Y175D01*
X1414Y175D02*
X1421Y175D01*
X1435Y175D02*
X1442Y175D01*
X1449Y175D02*
X1455Y175D01*
X1471Y175D02*
X1477Y175D01*
X1505Y175D02*
X1512Y175D01*
X1520Y175D02*
X1526Y175D01*
X1548Y175D02*
X1554Y175D01*
X1580Y175D02*
X1586Y175D01*
X2160Y175D02*
X2167Y175D01*
X1238Y174D02*
X1245Y174D01*
X1310Y174D02*
X1318Y174D01*
X1346Y174D02*
X1354Y174D01*
X1359Y174D02*
X1371Y174D01*
X1378Y174D02*
X1386Y174D01*
X1414Y174D02*
X1421Y174D01*
X1434Y174D02*
X1442Y174D01*
X1449Y174D02*
X1455Y174D01*
X1471Y174D02*
X1477Y174D01*
X1504Y174D02*
X1512Y174D01*
X1520Y174D02*
X1526Y174D01*
X1548Y174D02*
X1555Y174D01*
X1579Y174D02*
X1586Y174D01*
X2160Y174D02*
X2167Y174D01*
X1238Y173D02*
X1245Y173D01*
X1309Y173D02*
X1317Y173D01*
X1345Y173D02*
X1353Y173D01*
X1359Y173D02*
X1371Y173D01*
X1378Y173D02*
X1387Y173D01*
X1414Y173D02*
X1422Y173D01*
X1433Y173D02*
X1442Y173D01*
X1449Y173D02*
X1455Y173D01*
X1471Y173D02*
X1477Y173D01*
X1503Y173D02*
X1512Y173D01*
X1520Y173D02*
X1527Y173D01*
X1547Y173D02*
X1555Y173D01*
X1579Y173D02*
X1586Y173D01*
X2160Y173D02*
X2167Y173D01*
X1238Y172D02*
X1245Y172D01*
X1292Y172D02*
X1317Y172D01*
X1327Y172D02*
X1353Y172D01*
X1359Y172D02*
X1371Y172D01*
X1379Y172D02*
X1404Y172D01*
X1415Y172D02*
X1441Y172D01*
X1449Y172D02*
X1455Y172D01*
X1471Y172D02*
X1477Y172D01*
X1492Y172D02*
X1511Y172D01*
X1521Y172D02*
X1527Y172D01*
X1547Y172D02*
X1556Y172D01*
X1578Y172D02*
X1585Y172D01*
X2160Y172D02*
X2167Y172D01*
X1238Y171D02*
X1245Y171D01*
X1290Y171D02*
X1316Y171D01*
X1325Y171D02*
X1352Y171D01*
X1359Y171D02*
X1371Y171D01*
X1380Y171D02*
X1405Y171D01*
X1416Y171D02*
X1440Y171D01*
X1449Y171D02*
X1455Y171D01*
X1471Y171D02*
X1477Y171D01*
X1491Y171D02*
X1510Y171D01*
X1521Y171D02*
X1528Y171D01*
X1546Y171D02*
X1556Y171D01*
X1577Y171D02*
X1585Y171D01*
X2160Y171D02*
X2167Y171D01*
X1238Y170D02*
X1245Y170D01*
X1290Y170D02*
X1315Y170D01*
X1325Y170D02*
X1350Y170D01*
X1359Y170D02*
X1371Y170D01*
X1381Y170D02*
X1406Y170D01*
X1417Y170D02*
X1439Y170D01*
X1449Y170D02*
X1455Y170D01*
X1471Y170D02*
X1477Y170D01*
X1490Y170D02*
X1509Y170D01*
X1522Y170D02*
X1529Y170D01*
X1546Y170D02*
X1557Y170D01*
X1576Y170D02*
X1584Y170D01*
X2160Y170D02*
X2167Y170D01*
X1238Y169D02*
X1245Y169D01*
X1290Y169D02*
X1314Y169D01*
X1325Y169D02*
X1349Y169D01*
X1359Y169D02*
X1371Y169D01*
X1382Y169D02*
X1406Y169D01*
X1418Y169D02*
X1438Y169D01*
X1449Y169D02*
X1455Y169D01*
X1471Y169D02*
X1477Y169D01*
X1490Y169D02*
X1508Y169D01*
X1522Y169D02*
X1530Y169D01*
X1545Y169D02*
X1558Y169D01*
X1575Y169D02*
X1583Y169D01*
X2160Y169D02*
X2167Y169D01*
X1238Y168D02*
X1245Y168D01*
X1290Y168D02*
X1313Y168D01*
X1325Y168D02*
X1348Y168D01*
X1359Y168D02*
X1371Y168D01*
X1383Y168D02*
X1406Y168D01*
X1418Y168D02*
X1437Y168D01*
X1449Y168D02*
X1455Y168D01*
X1471Y168D02*
X1477Y168D01*
X1490Y168D02*
X1507Y168D01*
X1523Y168D02*
X1531Y168D01*
X1543Y168D02*
X1559Y168D01*
X1574Y168D02*
X1583Y168D01*
X2160Y168D02*
X2167Y168D01*
X1238Y167D02*
X1245Y167D01*
X1290Y167D02*
X1313Y167D01*
X1325Y167D02*
X1348Y167D01*
X1360Y167D02*
X1371Y167D01*
X1384Y167D02*
X1406Y167D01*
X1419Y167D02*
X1436Y167D01*
X1450Y167D02*
X1454Y167D01*
X1472Y167D02*
X1477Y167D01*
X1490Y167D02*
X1506Y167D01*
X1523Y167D02*
X1533Y167D01*
X1542Y167D02*
X1560Y167D01*
X1573Y167D02*
X1582Y167D01*
X2160Y167D02*
X2167Y167D01*
X1238Y166D02*
X1245Y166D01*
X1291Y166D02*
X1312Y166D01*
X1326Y166D02*
X1347Y166D01*
X1361Y166D02*
X1370Y166D01*
X1385Y166D02*
X1405Y166D01*
X1420Y166D02*
X1435Y166D01*
X1450Y166D02*
X1454Y166D01*
X1473Y166D02*
X1476Y166D01*
X1491Y166D02*
X1505Y166D01*
X1524Y166D02*
X1550Y166D01*
X1552Y166D02*
X1562Y166D01*
X1571Y166D02*
X1581Y166D01*
X2160Y166D02*
X2167Y166D01*
X1238Y165D02*
X1245Y165D01*
X1525Y165D02*
X1549Y165D01*
X1553Y165D02*
X1580Y165D01*
X2160Y165D02*
X2167Y165D01*
X1238Y164D02*
X1245Y164D01*
X1526Y164D02*
X1548Y164D01*
X1554Y164D02*
X1579Y164D01*
X2160Y164D02*
X2167Y164D01*
X1238Y163D02*
X1245Y163D01*
X1527Y163D02*
X1547Y163D01*
X1555Y163D02*
X1578Y163D01*
X2160Y163D02*
X2167Y163D01*
X1238Y162D02*
X1245Y162D01*
X1529Y162D02*
X1546Y162D01*
X1556Y162D02*
X1577Y162D01*
X2160Y162D02*
X2167Y162D01*
X1238Y161D02*
X1245Y161D01*
X1531Y161D02*
X1544Y161D01*
X1558Y161D02*
X1575Y161D01*
X2160Y161D02*
X2167Y161D01*
X1238Y160D02*
X1245Y160D01*
X1533Y160D02*
X1542Y160D01*
X1560Y160D02*
X1573Y160D01*
X2160Y160D02*
X2167Y160D01*
X1238Y159D02*
X1245Y159D01*
X1562Y159D02*
X1570Y159D01*
X2160Y159D02*
X2167Y159D01*
X1238Y158D02*
X1245Y158D01*
X2160Y158D02*
X2167Y158D01*
X1238Y157D02*
X1245Y157D01*
X2160Y157D02*
X2167Y157D01*
X1238Y156D02*
X1245Y156D01*
X2160Y156D02*
X2167Y156D01*
X1238Y155D02*
X1245Y155D01*
X2160Y155D02*
X2167Y155D01*
X1238Y154D02*
X1245Y154D01*
X2160Y154D02*
X2167Y154D01*
X1238Y153D02*
X1245Y153D01*
X2160Y153D02*
X2167Y153D01*
X1238Y152D02*
X1245Y152D01*
X2160Y152D02*
X2167Y152D01*
X1238Y151D02*
X1245Y151D01*
X2160Y151D02*
X2167Y151D01*
X1238Y150D02*
X1245Y150D01*
X2160Y150D02*
X2167Y150D01*
X1238Y149D02*
X1245Y149D01*
X2160Y149D02*
X2167Y149D01*
X1238Y148D02*
X1245Y148D01*
X2160Y148D02*
X2167Y148D01*
X1238Y147D02*
X1245Y147D01*
X2160Y147D02*
X2167Y147D01*
X1238Y146D02*
X1245Y146D01*
X2160Y146D02*
X2167Y146D01*
X1238Y145D02*
X1245Y145D01*
X2160Y145D02*
X2167Y145D01*
X1238Y144D02*
X1245Y144D01*
X2160Y144D02*
X2167Y144D01*
X1238Y143D02*
X1245Y143D01*
X2160Y143D02*
X2167Y143D01*
X1238Y142D02*
X1245Y142D01*
X2160Y142D02*
X2167Y142D01*
X1238Y141D02*
X1245Y141D01*
X2160Y141D02*
X2167Y141D01*
X1238Y140D02*
X1245Y140D01*
X1604Y140D02*
X1931Y140D01*
X2160Y140D02*
X2167Y140D01*
X1238Y139D02*
X1245Y139D01*
X1600Y139D02*
X1935Y139D01*
X2160Y139D02*
X2167Y139D01*
X1238Y138D02*
X1245Y138D01*
X1597Y138D02*
X1937Y138D01*
X2160Y138D02*
X2167Y138D01*
X1238Y137D02*
X1245Y137D01*
X1595Y137D02*
X1939Y137D01*
X2160Y137D02*
X2167Y137D01*
X1238Y136D02*
X1245Y136D01*
X1594Y136D02*
X1941Y136D01*
X2160Y136D02*
X2167Y136D01*
X1238Y135D02*
X1245Y135D01*
X1593Y135D02*
X1942Y135D01*
X2160Y135D02*
X2167Y135D01*
X1238Y134D02*
X1245Y134D01*
X1592Y134D02*
X1943Y134D01*
X2160Y134D02*
X2167Y134D01*
X1238Y133D02*
X1245Y133D01*
X1591Y133D02*
X1944Y133D01*
X2160Y133D02*
X2167Y133D01*
X1238Y132D02*
X1245Y132D01*
X1590Y132D02*
X1603Y132D01*
X1932Y132D02*
X1944Y132D01*
X2160Y132D02*
X2167Y132D01*
X1238Y131D02*
X1245Y131D01*
X1589Y131D02*
X1600Y131D01*
X1935Y131D02*
X1945Y131D01*
X2160Y131D02*
X2167Y131D01*
X1238Y130D02*
X1245Y130D01*
X1589Y130D02*
X1598Y130D01*
X1936Y130D02*
X1945Y130D01*
X2160Y130D02*
X2167Y130D01*
X1238Y129D02*
X1245Y129D01*
X1588Y129D02*
X1597Y129D01*
X1937Y129D02*
X1946Y129D01*
X2160Y129D02*
X2167Y129D01*
X1238Y128D02*
X1245Y128D01*
X1588Y128D02*
X1596Y128D01*
X1938Y128D02*
X1946Y128D01*
X2160Y128D02*
X2167Y128D01*
X1238Y127D02*
X1245Y127D01*
X1587Y127D02*
X1595Y127D01*
X1939Y127D02*
X1947Y127D01*
X2160Y127D02*
X2167Y127D01*
X1238Y126D02*
X1245Y126D01*
X1587Y126D02*
X1595Y126D01*
X1940Y126D02*
X1947Y126D01*
X2160Y126D02*
X2167Y126D01*
X1238Y125D02*
X1245Y125D01*
X1587Y125D02*
X1594Y125D01*
X1940Y125D02*
X1947Y125D01*
X2160Y125D02*
X2167Y125D01*
X1238Y124D02*
X1245Y124D01*
X1586Y124D02*
X1594Y124D01*
X1940Y124D02*
X1947Y124D01*
X2160Y124D02*
X2167Y124D01*
X1238Y123D02*
X1245Y123D01*
X1586Y123D02*
X1593Y123D01*
X1940Y123D02*
X1948Y123D01*
X2160Y123D02*
X2167Y123D01*
X1238Y122D02*
X1245Y122D01*
X1586Y122D02*
X1593Y122D01*
X1941Y122D02*
X1948Y122D01*
X2160Y122D02*
X2167Y122D01*
X1238Y121D02*
X1245Y121D01*
X1586Y121D02*
X1593Y121D01*
X1941Y121D02*
X1948Y121D01*
X2160Y121D02*
X2167Y121D01*
X1238Y120D02*
X1245Y120D01*
X1586Y120D02*
X1593Y120D01*
X1941Y120D02*
X1948Y120D01*
X2160Y120D02*
X2167Y120D01*
X1238Y119D02*
X1245Y119D01*
X1586Y119D02*
X1593Y119D01*
X1941Y119D02*
X1948Y119D01*
X2160Y119D02*
X2167Y119D01*
X1238Y118D02*
X1245Y118D01*
X1586Y118D02*
X1593Y118D01*
X1941Y118D02*
X1948Y118D01*
X2160Y118D02*
X2167Y118D01*
X1238Y117D02*
X1245Y117D01*
X1586Y117D02*
X1593Y117D01*
X1941Y117D02*
X1948Y117D01*
X2160Y117D02*
X2167Y117D01*
X1238Y116D02*
X1245Y116D01*
X1586Y116D02*
X1593Y116D01*
X1941Y116D02*
X1948Y116D01*
X2160Y116D02*
X2167Y116D01*
X1238Y115D02*
X1245Y115D01*
X1586Y115D02*
X1593Y115D01*
X1941Y115D02*
X1948Y115D01*
X2160Y115D02*
X2167Y115D01*
X1238Y114D02*
X1245Y114D01*
X1586Y114D02*
X1593Y114D01*
X1941Y114D02*
X1948Y114D01*
X2160Y114D02*
X2167Y114D01*
X1238Y113D02*
X1245Y113D01*
X1586Y113D02*
X1593Y113D01*
X1941Y113D02*
X1948Y113D01*
X2160Y113D02*
X2167Y113D01*
X1238Y112D02*
X1245Y112D01*
X1586Y112D02*
X1593Y112D01*
X1941Y112D02*
X1948Y112D01*
X2160Y112D02*
X2167Y112D01*
X1238Y111D02*
X1245Y111D01*
X1586Y111D02*
X1593Y111D01*
X1941Y111D02*
X1948Y111D01*
X2160Y111D02*
X2167Y111D01*
X1238Y110D02*
X1245Y110D01*
X1586Y110D02*
X1593Y110D01*
X1941Y110D02*
X1948Y110D01*
X2160Y110D02*
X2167Y110D01*
X1238Y109D02*
X1245Y109D01*
X1586Y109D02*
X1593Y109D01*
X1941Y109D02*
X1948Y109D01*
X2160Y109D02*
X2167Y109D01*
X1238Y108D02*
X1245Y108D01*
X1586Y108D02*
X1593Y108D01*
X1941Y108D02*
X1948Y108D01*
X2160Y108D02*
X2167Y108D01*
X1238Y107D02*
X1245Y107D01*
X1586Y107D02*
X1593Y107D01*
X1941Y107D02*
X1948Y107D01*
X2159Y107D02*
X2167Y107D01*
X1238Y106D02*
X1245Y106D01*
X1586Y106D02*
X1593Y106D01*
X1941Y106D02*
X1948Y106D01*
X2159Y106D02*
X2166Y106D01*
X1238Y105D02*
X1245Y105D01*
X1586Y105D02*
X1593Y105D01*
X1941Y105D02*
X1948Y105D01*
X2159Y105D02*
X2166Y105D01*
X1238Y104D02*
X1245Y104D01*
X1586Y104D02*
X1593Y104D01*
X1941Y104D02*
X1948Y104D01*
X2158Y104D02*
X2166Y104D01*
X1238Y103D02*
X1246Y103D01*
X1586Y103D02*
X1593Y103D01*
X1941Y103D02*
X1948Y103D01*
X2158Y103D02*
X2165Y103D01*
X1239Y102D02*
X1246Y102D01*
X1586Y102D02*
X1593Y102D01*
X1941Y102D02*
X1948Y102D01*
X2157Y102D02*
X2165Y102D01*
X1239Y101D02*
X1246Y101D01*
X1586Y101D02*
X1593Y101D01*
X1941Y101D02*
X1948Y101D01*
X2157Y101D02*
X2165Y101D01*
X1239Y100D02*
X1247Y100D01*
X1586Y100D02*
X1593Y100D01*
X1941Y100D02*
X1948Y100D01*
X2156Y100D02*
X2164Y100D01*
X1240Y99D02*
X1247Y99D01*
X1586Y99D02*
X1593Y99D01*
X1941Y99D02*
X1948Y99D01*
X2155Y99D02*
X2164Y99D01*
X1240Y98D02*
X1248Y98D01*
X1586Y98D02*
X1593Y98D01*
X1941Y98D02*
X1948Y98D01*
X2155Y98D02*
X2163Y98D01*
X1240Y97D02*
X1249Y97D01*
X1586Y97D02*
X1593Y97D01*
X1941Y97D02*
X1948Y97D01*
X2154Y97D02*
X2163Y97D01*
X1241Y96D02*
X1250Y96D01*
X1586Y96D02*
X1593Y96D01*
X1941Y96D02*
X1948Y96D01*
X2153Y96D02*
X2162Y96D01*
X1241Y95D02*
X1250Y95D01*
X1586Y95D02*
X1593Y95D01*
X1941Y95D02*
X1948Y95D01*
X2152Y95D02*
X2161Y95D01*
X1242Y94D02*
X1251Y94D01*
X1586Y94D02*
X1593Y94D01*
X1941Y94D02*
X1948Y94D01*
X2151Y94D02*
X2161Y94D01*
X1243Y93D02*
X1253Y93D01*
X1586Y93D02*
X1593Y93D01*
X1941Y93D02*
X1948Y93D01*
X2150Y93D02*
X2160Y93D01*
X1244Y92D02*
X1254Y92D01*
X1586Y92D02*
X1593Y92D01*
X1941Y92D02*
X1948Y92D01*
X2148Y92D02*
X2159Y92D01*
X1244Y91D02*
X1256Y91D01*
X1586Y91D02*
X1593Y91D01*
X1941Y91D02*
X1948Y91D01*
X2146Y91D02*
X2158Y91D01*
X1245Y90D02*
X1258Y90D01*
X1586Y90D02*
X1593Y90D01*
X1941Y90D02*
X1948Y90D01*
X2144Y90D02*
X2157Y90D01*
X1246Y89D02*
X1263Y89D01*
X1586Y89D02*
X1593Y89D01*
X1941Y89D02*
X1948Y89D01*
X2139Y89D02*
X2156Y89D01*
X1247Y88D02*
X1593Y88D01*
X1941Y88D02*
X2155Y88D01*
X1248Y87D02*
X1593Y87D01*
X1941Y87D02*
X2154Y87D01*
X1250Y86D02*
X1592Y86D01*
X1941Y86D02*
X2153Y86D01*
X1251Y85D02*
X1592Y85D01*
X1942Y85D02*
X2151Y85D01*
X1253Y84D02*
X1591Y84D01*
X1943Y84D02*
X2149Y84D01*
X1255Y83D02*
X1590Y83D01*
X1944Y83D02*
X2147Y83D01*
X1258Y82D02*
X1589Y82D01*
X1945Y82D02*
X2144Y82D01*
X1263Y81D02*
X1586Y81D01*
X1948Y81D02*
X2139Y81D01*
D02*
G04 End of Silk0*
M02*