G04 MADE WITH FRITZING*
G04 WWW.FRITZING.ORG*
G04 DOUBLE SIDED*
G04 HOLES PLATED*
G04 CONTOUR ON CENTER OF CONTOUR VECTOR*
%ASAXBY*%
%FSLAX23Y23*%
%MOIN*%
%OFA0B0*%
%SFA1.0B1.0*%
%ADD10C,0.010000*%
%ADD11R,0.001000X0.001000*%
%LNSILK1*%
G90*
G70*
G54D10*
X892Y41D02*
X1092Y41D01*
D02*
X1092Y41D02*
X1092Y141D01*
D02*
X1092Y141D02*
X892Y141D01*
D02*
X892Y141D02*
X892Y41D01*
D02*
X1775Y881D02*
X1775Y681D01*
D02*
X1775Y681D02*
X1709Y681D01*
D02*
X1709Y681D02*
X1709Y881D01*
D02*
X1709Y881D02*
X1775Y881D01*
D02*
X701Y824D02*
X901Y824D01*
D02*
X901Y824D02*
X901Y758D01*
D02*
X901Y758D02*
X701Y758D01*
D02*
X701Y758D02*
X701Y824D01*
D02*
X701Y674D02*
X901Y674D01*
D02*
X901Y674D02*
X901Y608D01*
D02*
X901Y608D02*
X701Y608D01*
D02*
X701Y608D02*
X701Y674D01*
D02*
X538Y319D02*
X538Y240D01*
D02*
X341Y397D02*
X508Y397D01*
D02*
X341Y161D02*
X508Y161D01*
D02*
X302Y319D02*
X302Y240D01*
D02*
X420Y299D02*
X420Y260D01*
D02*
X440Y279D02*
X400Y279D01*
G54D11*
X0Y1535D02*
X2479Y1535D01*
X0Y1534D02*
X2479Y1534D01*
X0Y1533D02*
X2479Y1533D01*
X0Y1532D02*
X2479Y1532D01*
X0Y1531D02*
X2479Y1531D01*
X0Y1530D02*
X2479Y1530D01*
X0Y1529D02*
X2479Y1529D01*
X0Y1528D02*
X2479Y1528D01*
X0Y1527D02*
X7Y1527D01*
X2472Y1527D02*
X2479Y1527D01*
X0Y1526D02*
X7Y1526D01*
X2472Y1526D02*
X2479Y1526D01*
X0Y1525D02*
X7Y1525D01*
X2472Y1525D02*
X2479Y1525D01*
X0Y1524D02*
X7Y1524D01*
X2472Y1524D02*
X2479Y1524D01*
X0Y1523D02*
X7Y1523D01*
X2472Y1523D02*
X2479Y1523D01*
X0Y1522D02*
X7Y1522D01*
X2472Y1522D02*
X2479Y1522D01*
X0Y1521D02*
X7Y1521D01*
X2472Y1521D02*
X2479Y1521D01*
X0Y1520D02*
X7Y1520D01*
X2472Y1520D02*
X2479Y1520D01*
X0Y1519D02*
X7Y1519D01*
X2472Y1519D02*
X2479Y1519D01*
X0Y1518D02*
X7Y1518D01*
X2472Y1518D02*
X2479Y1518D01*
X0Y1517D02*
X7Y1517D01*
X2472Y1517D02*
X2479Y1517D01*
X0Y1516D02*
X7Y1516D01*
X2472Y1516D02*
X2479Y1516D01*
X0Y1515D02*
X7Y1515D01*
X2472Y1515D02*
X2479Y1515D01*
X0Y1514D02*
X7Y1514D01*
X2472Y1514D02*
X2479Y1514D01*
X0Y1513D02*
X7Y1513D01*
X2472Y1513D02*
X2479Y1513D01*
X0Y1512D02*
X7Y1512D01*
X2472Y1512D02*
X2479Y1512D01*
X0Y1511D02*
X7Y1511D01*
X2472Y1511D02*
X2479Y1511D01*
X0Y1510D02*
X7Y1510D01*
X2472Y1510D02*
X2479Y1510D01*
X0Y1509D02*
X7Y1509D01*
X2472Y1509D02*
X2479Y1509D01*
X0Y1508D02*
X7Y1508D01*
X2472Y1508D02*
X2479Y1508D01*
X0Y1507D02*
X7Y1507D01*
X2472Y1507D02*
X2479Y1507D01*
X0Y1506D02*
X7Y1506D01*
X2472Y1506D02*
X2479Y1506D01*
X0Y1505D02*
X7Y1505D01*
X2472Y1505D02*
X2479Y1505D01*
X0Y1504D02*
X7Y1504D01*
X2472Y1504D02*
X2479Y1504D01*
X0Y1503D02*
X7Y1503D01*
X2472Y1503D02*
X2479Y1503D01*
X0Y1502D02*
X7Y1502D01*
X2472Y1502D02*
X2479Y1502D01*
X0Y1501D02*
X7Y1501D01*
X2472Y1501D02*
X2479Y1501D01*
X0Y1500D02*
X7Y1500D01*
X2472Y1500D02*
X2479Y1500D01*
X0Y1499D02*
X7Y1499D01*
X2472Y1499D02*
X2479Y1499D01*
X0Y1498D02*
X7Y1498D01*
X2472Y1498D02*
X2479Y1498D01*
X0Y1497D02*
X7Y1497D01*
X2472Y1497D02*
X2479Y1497D01*
X0Y1496D02*
X7Y1496D01*
X2472Y1496D02*
X2479Y1496D01*
X0Y1495D02*
X7Y1495D01*
X2472Y1495D02*
X2479Y1495D01*
X0Y1494D02*
X7Y1494D01*
X2472Y1494D02*
X2479Y1494D01*
X0Y1493D02*
X7Y1493D01*
X2472Y1493D02*
X2479Y1493D01*
X0Y1492D02*
X7Y1492D01*
X2472Y1492D02*
X2479Y1492D01*
X0Y1491D02*
X7Y1491D01*
X2472Y1491D02*
X2479Y1491D01*
X0Y1490D02*
X7Y1490D01*
X2472Y1490D02*
X2479Y1490D01*
X0Y1489D02*
X7Y1489D01*
X2472Y1489D02*
X2479Y1489D01*
X0Y1488D02*
X7Y1488D01*
X2472Y1488D02*
X2479Y1488D01*
X0Y1487D02*
X7Y1487D01*
X2472Y1487D02*
X2479Y1487D01*
X0Y1486D02*
X7Y1486D01*
X2472Y1486D02*
X2479Y1486D01*
X0Y1485D02*
X7Y1485D01*
X2472Y1485D02*
X2479Y1485D01*
X0Y1484D02*
X7Y1484D01*
X2472Y1484D02*
X2479Y1484D01*
X0Y1483D02*
X7Y1483D01*
X2472Y1483D02*
X2479Y1483D01*
X0Y1482D02*
X7Y1482D01*
X2472Y1482D02*
X2479Y1482D01*
X0Y1481D02*
X7Y1481D01*
X2472Y1481D02*
X2479Y1481D01*
X0Y1480D02*
X7Y1480D01*
X2472Y1480D02*
X2479Y1480D01*
X0Y1479D02*
X7Y1479D01*
X2472Y1479D02*
X2479Y1479D01*
X0Y1478D02*
X7Y1478D01*
X2472Y1478D02*
X2479Y1478D01*
X0Y1477D02*
X7Y1477D01*
X2472Y1477D02*
X2479Y1477D01*
X0Y1476D02*
X7Y1476D01*
X2472Y1476D02*
X2479Y1476D01*
X0Y1475D02*
X7Y1475D01*
X2472Y1475D02*
X2479Y1475D01*
X0Y1474D02*
X7Y1474D01*
X2472Y1474D02*
X2479Y1474D01*
X0Y1473D02*
X7Y1473D01*
X2472Y1473D02*
X2479Y1473D01*
X0Y1472D02*
X7Y1472D01*
X2472Y1472D02*
X2479Y1472D01*
X0Y1471D02*
X7Y1471D01*
X2472Y1471D02*
X2479Y1471D01*
X0Y1470D02*
X7Y1470D01*
X2472Y1470D02*
X2479Y1470D01*
X0Y1469D02*
X7Y1469D01*
X2472Y1469D02*
X2479Y1469D01*
X0Y1468D02*
X7Y1468D01*
X2472Y1468D02*
X2479Y1468D01*
X0Y1467D02*
X7Y1467D01*
X2472Y1467D02*
X2479Y1467D01*
X0Y1466D02*
X7Y1466D01*
X2472Y1466D02*
X2479Y1466D01*
X0Y1465D02*
X7Y1465D01*
X2472Y1465D02*
X2479Y1465D01*
X0Y1464D02*
X7Y1464D01*
X2472Y1464D02*
X2479Y1464D01*
X0Y1463D02*
X7Y1463D01*
X2472Y1463D02*
X2479Y1463D01*
X0Y1462D02*
X7Y1462D01*
X2472Y1462D02*
X2479Y1462D01*
X0Y1461D02*
X7Y1461D01*
X2472Y1461D02*
X2479Y1461D01*
X0Y1460D02*
X7Y1460D01*
X2472Y1460D02*
X2479Y1460D01*
X0Y1459D02*
X7Y1459D01*
X2472Y1459D02*
X2479Y1459D01*
X0Y1458D02*
X7Y1458D01*
X2472Y1458D02*
X2479Y1458D01*
X0Y1457D02*
X7Y1457D01*
X2472Y1457D02*
X2479Y1457D01*
X0Y1456D02*
X7Y1456D01*
X2472Y1456D02*
X2479Y1456D01*
X0Y1455D02*
X7Y1455D01*
X2472Y1455D02*
X2479Y1455D01*
X0Y1454D02*
X7Y1454D01*
X2472Y1454D02*
X2479Y1454D01*
X0Y1453D02*
X7Y1453D01*
X2472Y1453D02*
X2479Y1453D01*
X0Y1452D02*
X7Y1452D01*
X2472Y1452D02*
X2479Y1452D01*
X0Y1451D02*
X7Y1451D01*
X738Y1451D02*
X741Y1451D01*
X775Y1451D02*
X777Y1451D01*
X823Y1451D02*
X855Y1451D01*
X875Y1451D02*
X891Y1451D01*
X2472Y1451D02*
X2479Y1451D01*
X0Y1450D02*
X7Y1450D01*
X735Y1450D02*
X744Y1450D01*
X774Y1450D02*
X778Y1450D01*
X823Y1450D02*
X856Y1450D01*
X874Y1450D02*
X894Y1450D01*
X2472Y1450D02*
X2479Y1450D01*
X0Y1449D02*
X7Y1449D01*
X734Y1449D02*
X745Y1449D01*
X773Y1449D02*
X779Y1449D01*
X823Y1449D02*
X856Y1449D01*
X874Y1449D02*
X895Y1449D01*
X2472Y1449D02*
X2479Y1449D01*
X0Y1448D02*
X7Y1448D01*
X733Y1448D02*
X746Y1448D01*
X773Y1448D02*
X779Y1448D01*
X823Y1448D02*
X857Y1448D01*
X873Y1448D02*
X896Y1448D01*
X2472Y1448D02*
X2479Y1448D01*
X0Y1447D02*
X7Y1447D01*
X732Y1447D02*
X747Y1447D01*
X773Y1447D02*
X779Y1447D01*
X823Y1447D02*
X857Y1447D01*
X873Y1447D02*
X897Y1447D01*
X2472Y1447D02*
X2479Y1447D01*
X0Y1446D02*
X7Y1446D01*
X732Y1446D02*
X747Y1446D01*
X773Y1446D02*
X779Y1446D01*
X823Y1446D02*
X856Y1446D01*
X874Y1446D02*
X898Y1446D01*
X2472Y1446D02*
X2479Y1446D01*
X0Y1445D02*
X7Y1445D01*
X731Y1445D02*
X748Y1445D01*
X773Y1445D02*
X779Y1445D01*
X823Y1445D02*
X855Y1445D01*
X875Y1445D02*
X898Y1445D01*
X2472Y1445D02*
X2479Y1445D01*
X0Y1444D02*
X7Y1444D01*
X731Y1444D02*
X738Y1444D01*
X741Y1444D02*
X748Y1444D01*
X773Y1444D02*
X779Y1444D01*
X823Y1444D02*
X829Y1444D01*
X880Y1444D02*
X886Y1444D01*
X891Y1444D02*
X899Y1444D01*
X2472Y1444D02*
X2479Y1444D01*
X0Y1443D02*
X7Y1443D01*
X730Y1443D02*
X737Y1443D01*
X742Y1443D02*
X749Y1443D01*
X773Y1443D02*
X779Y1443D01*
X823Y1443D02*
X829Y1443D01*
X880Y1443D02*
X886Y1443D01*
X892Y1443D02*
X899Y1443D01*
X2472Y1443D02*
X2479Y1443D01*
X0Y1442D02*
X7Y1442D01*
X730Y1442D02*
X737Y1442D01*
X742Y1442D02*
X749Y1442D01*
X773Y1442D02*
X779Y1442D01*
X823Y1442D02*
X829Y1442D01*
X880Y1442D02*
X886Y1442D01*
X893Y1442D02*
X900Y1442D01*
X2472Y1442D02*
X2479Y1442D01*
X0Y1441D02*
X7Y1441D01*
X729Y1441D02*
X736Y1441D01*
X743Y1441D02*
X750Y1441D01*
X773Y1441D02*
X779Y1441D01*
X823Y1441D02*
X829Y1441D01*
X880Y1441D02*
X886Y1441D01*
X893Y1441D02*
X900Y1441D01*
X2472Y1441D02*
X2479Y1441D01*
X0Y1440D02*
X7Y1440D01*
X729Y1440D02*
X736Y1440D01*
X743Y1440D02*
X750Y1440D01*
X773Y1440D02*
X779Y1440D01*
X823Y1440D02*
X829Y1440D01*
X880Y1440D02*
X886Y1440D01*
X894Y1440D02*
X901Y1440D01*
X2472Y1440D02*
X2479Y1440D01*
X0Y1439D02*
X7Y1439D01*
X728Y1439D02*
X735Y1439D01*
X744Y1439D02*
X751Y1439D01*
X773Y1439D02*
X779Y1439D01*
X823Y1439D02*
X829Y1439D01*
X880Y1439D02*
X886Y1439D01*
X894Y1439D02*
X901Y1439D01*
X2472Y1439D02*
X2479Y1439D01*
X0Y1438D02*
X7Y1438D01*
X728Y1438D02*
X735Y1438D01*
X744Y1438D02*
X751Y1438D01*
X773Y1438D02*
X779Y1438D01*
X823Y1438D02*
X829Y1438D01*
X880Y1438D02*
X886Y1438D01*
X895Y1438D02*
X902Y1438D01*
X2472Y1438D02*
X2479Y1438D01*
X0Y1437D02*
X7Y1437D01*
X727Y1437D02*
X734Y1437D01*
X745Y1437D02*
X752Y1437D01*
X773Y1437D02*
X779Y1437D01*
X823Y1437D02*
X829Y1437D01*
X880Y1437D02*
X886Y1437D01*
X895Y1437D02*
X902Y1437D01*
X2472Y1437D02*
X2479Y1437D01*
X0Y1436D02*
X7Y1436D01*
X727Y1436D02*
X734Y1436D01*
X745Y1436D02*
X752Y1436D01*
X773Y1436D02*
X779Y1436D01*
X823Y1436D02*
X829Y1436D01*
X880Y1436D02*
X886Y1436D01*
X896Y1436D02*
X903Y1436D01*
X2472Y1436D02*
X2479Y1436D01*
X0Y1435D02*
X7Y1435D01*
X726Y1435D02*
X733Y1435D01*
X746Y1435D02*
X753Y1435D01*
X773Y1435D02*
X779Y1435D01*
X823Y1435D02*
X829Y1435D01*
X880Y1435D02*
X886Y1435D01*
X897Y1435D02*
X903Y1435D01*
X2472Y1435D02*
X2479Y1435D01*
X0Y1434D02*
X7Y1434D01*
X726Y1434D02*
X733Y1434D01*
X746Y1434D02*
X753Y1434D01*
X773Y1434D02*
X779Y1434D01*
X823Y1434D02*
X829Y1434D01*
X880Y1434D02*
X886Y1434D01*
X897Y1434D02*
X904Y1434D01*
X2472Y1434D02*
X2479Y1434D01*
X0Y1433D02*
X7Y1433D01*
X725Y1433D02*
X732Y1433D01*
X747Y1433D02*
X754Y1433D01*
X773Y1433D02*
X779Y1433D01*
X823Y1433D02*
X829Y1433D01*
X880Y1433D02*
X886Y1433D01*
X898Y1433D02*
X904Y1433D01*
X2472Y1433D02*
X2479Y1433D01*
X0Y1432D02*
X7Y1432D01*
X725Y1432D02*
X732Y1432D01*
X747Y1432D02*
X754Y1432D01*
X773Y1432D02*
X779Y1432D01*
X823Y1432D02*
X829Y1432D01*
X880Y1432D02*
X886Y1432D01*
X898Y1432D02*
X905Y1432D01*
X2472Y1432D02*
X2479Y1432D01*
X0Y1431D02*
X7Y1431D01*
X724Y1431D02*
X731Y1431D01*
X748Y1431D02*
X755Y1431D01*
X773Y1431D02*
X779Y1431D01*
X823Y1431D02*
X829Y1431D01*
X880Y1431D02*
X886Y1431D01*
X899Y1431D02*
X905Y1431D01*
X2472Y1431D02*
X2479Y1431D01*
X0Y1430D02*
X7Y1430D01*
X724Y1430D02*
X731Y1430D01*
X748Y1430D02*
X755Y1430D01*
X773Y1430D02*
X779Y1430D01*
X823Y1430D02*
X829Y1430D01*
X880Y1430D02*
X886Y1430D01*
X899Y1430D02*
X906Y1430D01*
X2472Y1430D02*
X2479Y1430D01*
X0Y1429D02*
X7Y1429D01*
X724Y1429D02*
X730Y1429D01*
X749Y1429D02*
X755Y1429D01*
X773Y1429D02*
X779Y1429D01*
X823Y1429D02*
X829Y1429D01*
X880Y1429D02*
X886Y1429D01*
X900Y1429D02*
X906Y1429D01*
X2472Y1429D02*
X2479Y1429D01*
X0Y1428D02*
X7Y1428D01*
X723Y1428D02*
X730Y1428D01*
X749Y1428D02*
X756Y1428D01*
X773Y1428D02*
X779Y1428D01*
X823Y1428D02*
X829Y1428D01*
X880Y1428D02*
X886Y1428D01*
X900Y1428D02*
X906Y1428D01*
X2472Y1428D02*
X2479Y1428D01*
X0Y1427D02*
X7Y1427D01*
X723Y1427D02*
X729Y1427D01*
X750Y1427D02*
X756Y1427D01*
X773Y1427D02*
X779Y1427D01*
X823Y1427D02*
X841Y1427D01*
X880Y1427D02*
X886Y1427D01*
X900Y1427D02*
X907Y1427D01*
X2472Y1427D02*
X2479Y1427D01*
X0Y1426D02*
X7Y1426D01*
X723Y1426D02*
X729Y1426D01*
X750Y1426D02*
X756Y1426D01*
X773Y1426D02*
X779Y1426D01*
X823Y1426D02*
X842Y1426D01*
X880Y1426D02*
X886Y1426D01*
X901Y1426D02*
X907Y1426D01*
X2472Y1426D02*
X2479Y1426D01*
X0Y1425D02*
X7Y1425D01*
X723Y1425D02*
X729Y1425D01*
X750Y1425D02*
X756Y1425D01*
X773Y1425D02*
X779Y1425D01*
X823Y1425D02*
X843Y1425D01*
X880Y1425D02*
X886Y1425D01*
X901Y1425D02*
X907Y1425D01*
X2472Y1425D02*
X2479Y1425D01*
X0Y1424D02*
X7Y1424D01*
X723Y1424D02*
X729Y1424D01*
X750Y1424D02*
X756Y1424D01*
X773Y1424D02*
X779Y1424D01*
X823Y1424D02*
X843Y1424D01*
X880Y1424D02*
X886Y1424D01*
X901Y1424D02*
X907Y1424D01*
X2472Y1424D02*
X2479Y1424D01*
X0Y1423D02*
X7Y1423D01*
X723Y1423D02*
X729Y1423D01*
X750Y1423D02*
X756Y1423D01*
X773Y1423D02*
X779Y1423D01*
X823Y1423D02*
X843Y1423D01*
X880Y1423D02*
X886Y1423D01*
X901Y1423D02*
X907Y1423D01*
X2472Y1423D02*
X2479Y1423D01*
X0Y1422D02*
X7Y1422D01*
X723Y1422D02*
X729Y1422D01*
X750Y1422D02*
X756Y1422D01*
X773Y1422D02*
X779Y1422D01*
X823Y1422D02*
X842Y1422D01*
X880Y1422D02*
X886Y1422D01*
X901Y1422D02*
X907Y1422D01*
X2472Y1422D02*
X2479Y1422D01*
X0Y1421D02*
X7Y1421D01*
X723Y1421D02*
X729Y1421D01*
X750Y1421D02*
X756Y1421D01*
X773Y1421D02*
X779Y1421D01*
X823Y1421D02*
X841Y1421D01*
X880Y1421D02*
X886Y1421D01*
X900Y1421D02*
X907Y1421D01*
X2472Y1421D02*
X2479Y1421D01*
X0Y1420D02*
X7Y1420D01*
X723Y1420D02*
X730Y1420D01*
X749Y1420D02*
X756Y1420D01*
X773Y1420D02*
X779Y1420D01*
X823Y1420D02*
X829Y1420D01*
X880Y1420D02*
X886Y1420D01*
X900Y1420D02*
X906Y1420D01*
X2472Y1420D02*
X2479Y1420D01*
X0Y1419D02*
X7Y1419D01*
X724Y1419D02*
X730Y1419D01*
X749Y1419D02*
X755Y1419D01*
X773Y1419D02*
X779Y1419D01*
X823Y1419D02*
X829Y1419D01*
X880Y1419D02*
X886Y1419D01*
X899Y1419D02*
X906Y1419D01*
X2472Y1419D02*
X2479Y1419D01*
X0Y1418D02*
X7Y1418D01*
X724Y1418D02*
X731Y1418D01*
X748Y1418D02*
X755Y1418D01*
X773Y1418D02*
X779Y1418D01*
X823Y1418D02*
X829Y1418D01*
X880Y1418D02*
X886Y1418D01*
X899Y1418D02*
X906Y1418D01*
X2472Y1418D02*
X2479Y1418D01*
X0Y1417D02*
X7Y1417D01*
X724Y1417D02*
X731Y1417D01*
X748Y1417D02*
X755Y1417D01*
X773Y1417D02*
X779Y1417D01*
X823Y1417D02*
X829Y1417D01*
X880Y1417D02*
X886Y1417D01*
X898Y1417D02*
X905Y1417D01*
X2472Y1417D02*
X2479Y1417D01*
X0Y1416D02*
X7Y1416D01*
X725Y1416D02*
X732Y1416D01*
X747Y1416D02*
X754Y1416D01*
X773Y1416D02*
X779Y1416D01*
X823Y1416D02*
X829Y1416D01*
X880Y1416D02*
X886Y1416D01*
X898Y1416D02*
X905Y1416D01*
X2472Y1416D02*
X2479Y1416D01*
X0Y1415D02*
X7Y1415D01*
X725Y1415D02*
X732Y1415D01*
X747Y1415D02*
X754Y1415D01*
X773Y1415D02*
X779Y1415D01*
X823Y1415D02*
X829Y1415D01*
X880Y1415D02*
X886Y1415D01*
X897Y1415D02*
X904Y1415D01*
X2472Y1415D02*
X2479Y1415D01*
X0Y1414D02*
X7Y1414D01*
X726Y1414D02*
X733Y1414D01*
X746Y1414D02*
X753Y1414D01*
X773Y1414D02*
X779Y1414D01*
X823Y1414D02*
X829Y1414D01*
X880Y1414D02*
X886Y1414D01*
X897Y1414D02*
X904Y1414D01*
X2472Y1414D02*
X2479Y1414D01*
X0Y1413D02*
X7Y1413D01*
X726Y1413D02*
X733Y1413D01*
X746Y1413D02*
X753Y1413D01*
X773Y1413D02*
X779Y1413D01*
X823Y1413D02*
X829Y1413D01*
X880Y1413D02*
X886Y1413D01*
X896Y1413D02*
X903Y1413D01*
X2472Y1413D02*
X2479Y1413D01*
X0Y1412D02*
X7Y1412D01*
X727Y1412D02*
X734Y1412D01*
X745Y1412D02*
X752Y1412D01*
X773Y1412D02*
X779Y1412D01*
X823Y1412D02*
X829Y1412D01*
X880Y1412D02*
X886Y1412D01*
X896Y1412D02*
X903Y1412D01*
X2472Y1412D02*
X2479Y1412D01*
X0Y1411D02*
X7Y1411D01*
X727Y1411D02*
X734Y1411D01*
X745Y1411D02*
X752Y1411D01*
X773Y1411D02*
X779Y1411D01*
X823Y1411D02*
X829Y1411D01*
X880Y1411D02*
X886Y1411D01*
X895Y1411D02*
X902Y1411D01*
X2472Y1411D02*
X2479Y1411D01*
X0Y1410D02*
X7Y1410D01*
X728Y1410D02*
X735Y1410D01*
X744Y1410D02*
X751Y1410D01*
X773Y1410D02*
X779Y1410D01*
X823Y1410D02*
X829Y1410D01*
X880Y1410D02*
X886Y1410D01*
X895Y1410D02*
X902Y1410D01*
X2472Y1410D02*
X2479Y1410D01*
X0Y1409D02*
X7Y1409D01*
X728Y1409D02*
X735Y1409D01*
X744Y1409D02*
X751Y1409D01*
X773Y1409D02*
X779Y1409D01*
X823Y1409D02*
X829Y1409D01*
X880Y1409D02*
X886Y1409D01*
X894Y1409D02*
X901Y1409D01*
X2472Y1409D02*
X2479Y1409D01*
X0Y1408D02*
X7Y1408D01*
X729Y1408D02*
X736Y1408D01*
X743Y1408D02*
X750Y1408D01*
X773Y1408D02*
X779Y1408D01*
X823Y1408D02*
X829Y1408D01*
X880Y1408D02*
X886Y1408D01*
X894Y1408D02*
X901Y1408D01*
X2472Y1408D02*
X2479Y1408D01*
X0Y1407D02*
X7Y1407D01*
X729Y1407D02*
X736Y1407D01*
X743Y1407D02*
X750Y1407D01*
X773Y1407D02*
X779Y1407D01*
X823Y1407D02*
X829Y1407D01*
X880Y1407D02*
X886Y1407D01*
X893Y1407D02*
X900Y1407D01*
X2472Y1407D02*
X2479Y1407D01*
X0Y1406D02*
X7Y1406D01*
X730Y1406D02*
X737Y1406D01*
X742Y1406D02*
X749Y1406D01*
X773Y1406D02*
X779Y1406D01*
X823Y1406D02*
X829Y1406D01*
X880Y1406D02*
X886Y1406D01*
X893Y1406D02*
X900Y1406D01*
X2472Y1406D02*
X2479Y1406D01*
X0Y1405D02*
X7Y1405D01*
X730Y1405D02*
X737Y1405D01*
X742Y1405D02*
X749Y1405D01*
X773Y1405D02*
X779Y1405D01*
X823Y1405D02*
X829Y1405D01*
X880Y1405D02*
X886Y1405D01*
X892Y1405D02*
X899Y1405D01*
X2472Y1405D02*
X2479Y1405D01*
X0Y1404D02*
X7Y1404D01*
X731Y1404D02*
X748Y1404D01*
X773Y1404D02*
X804Y1404D01*
X823Y1404D02*
X854Y1404D01*
X876Y1404D02*
X899Y1404D01*
X2472Y1404D02*
X2479Y1404D01*
X0Y1403D02*
X7Y1403D01*
X731Y1403D02*
X748Y1403D01*
X773Y1403D02*
X806Y1403D01*
X823Y1403D02*
X856Y1403D01*
X874Y1403D02*
X898Y1403D01*
X2472Y1403D02*
X2479Y1403D01*
X0Y1402D02*
X7Y1402D01*
X732Y1402D02*
X747Y1402D01*
X773Y1402D02*
X806Y1402D01*
X823Y1402D02*
X856Y1402D01*
X874Y1402D02*
X898Y1402D01*
X2472Y1402D02*
X2479Y1402D01*
X0Y1401D02*
X7Y1401D01*
X733Y1401D02*
X746Y1401D01*
X773Y1401D02*
X806Y1401D01*
X823Y1401D02*
X857Y1401D01*
X873Y1401D02*
X897Y1401D01*
X2472Y1401D02*
X2479Y1401D01*
X0Y1400D02*
X7Y1400D01*
X733Y1400D02*
X746Y1400D01*
X773Y1400D02*
X806Y1400D01*
X823Y1400D02*
X857Y1400D01*
X873Y1400D02*
X896Y1400D01*
X2472Y1400D02*
X2479Y1400D01*
X0Y1399D02*
X7Y1399D01*
X735Y1399D02*
X744Y1399D01*
X773Y1399D02*
X806Y1399D01*
X823Y1399D02*
X856Y1399D01*
X874Y1399D02*
X895Y1399D01*
X2472Y1399D02*
X2479Y1399D01*
X0Y1398D02*
X7Y1398D01*
X736Y1398D02*
X743Y1398D01*
X773Y1398D02*
X805Y1398D01*
X823Y1398D02*
X855Y1398D01*
X875Y1398D02*
X893Y1398D01*
X2472Y1398D02*
X2479Y1398D01*
X0Y1397D02*
X7Y1397D01*
X2472Y1397D02*
X2479Y1397D01*
X0Y1396D02*
X7Y1396D01*
X2472Y1396D02*
X2479Y1396D01*
X0Y1395D02*
X7Y1395D01*
X2472Y1395D02*
X2479Y1395D01*
X0Y1394D02*
X7Y1394D01*
X2472Y1394D02*
X2479Y1394D01*
X0Y1393D02*
X7Y1393D01*
X2472Y1393D02*
X2479Y1393D01*
X0Y1392D02*
X7Y1392D01*
X2472Y1392D02*
X2479Y1392D01*
X0Y1391D02*
X7Y1391D01*
X2472Y1391D02*
X2479Y1391D01*
X0Y1390D02*
X7Y1390D01*
X2472Y1390D02*
X2479Y1390D01*
X0Y1389D02*
X7Y1389D01*
X2472Y1389D02*
X2479Y1389D01*
X0Y1388D02*
X7Y1388D01*
X2472Y1388D02*
X2479Y1388D01*
X0Y1387D02*
X7Y1387D01*
X2472Y1387D02*
X2479Y1387D01*
X0Y1386D02*
X7Y1386D01*
X2472Y1386D02*
X2479Y1386D01*
X0Y1385D02*
X7Y1385D01*
X2472Y1385D02*
X2479Y1385D01*
X0Y1384D02*
X7Y1384D01*
X2472Y1384D02*
X2479Y1384D01*
X0Y1383D02*
X7Y1383D01*
X2472Y1383D02*
X2479Y1383D01*
X0Y1382D02*
X7Y1382D01*
X2472Y1382D02*
X2479Y1382D01*
X0Y1381D02*
X7Y1381D01*
X2472Y1381D02*
X2479Y1381D01*
X0Y1380D02*
X7Y1380D01*
X2472Y1380D02*
X2479Y1380D01*
X0Y1379D02*
X7Y1379D01*
X2472Y1379D02*
X2479Y1379D01*
X0Y1378D02*
X7Y1378D01*
X2472Y1378D02*
X2479Y1378D01*
X0Y1377D02*
X7Y1377D01*
X2472Y1377D02*
X2479Y1377D01*
X0Y1376D02*
X7Y1376D01*
X2472Y1376D02*
X2479Y1376D01*
X0Y1375D02*
X7Y1375D01*
X2472Y1375D02*
X2479Y1375D01*
X0Y1374D02*
X7Y1374D01*
X2472Y1374D02*
X2479Y1374D01*
X0Y1373D02*
X7Y1373D01*
X711Y1373D02*
X913Y1373D01*
X2472Y1373D02*
X2479Y1373D01*
X0Y1372D02*
X7Y1372D01*
X711Y1372D02*
X913Y1372D01*
X2472Y1372D02*
X2479Y1372D01*
X0Y1371D02*
X7Y1371D01*
X711Y1371D02*
X916Y1371D01*
X2472Y1371D02*
X2479Y1371D01*
X0Y1370D02*
X7Y1370D01*
X711Y1370D02*
X916Y1370D01*
X2472Y1370D02*
X2479Y1370D01*
X0Y1369D02*
X7Y1369D01*
X711Y1369D02*
X916Y1369D01*
X2472Y1369D02*
X2479Y1369D01*
X0Y1368D02*
X7Y1368D01*
X711Y1368D02*
X715Y1368D01*
X912Y1368D02*
X916Y1368D01*
X2472Y1368D02*
X2479Y1368D01*
X0Y1367D02*
X7Y1367D01*
X711Y1367D02*
X715Y1367D01*
X912Y1367D02*
X916Y1367D01*
X2472Y1367D02*
X2479Y1367D01*
X0Y1366D02*
X7Y1366D01*
X711Y1366D02*
X715Y1366D01*
X912Y1366D02*
X916Y1366D01*
X2472Y1366D02*
X2479Y1366D01*
X0Y1365D02*
X7Y1365D01*
X711Y1365D02*
X715Y1365D01*
X912Y1365D02*
X916Y1365D01*
X2472Y1365D02*
X2479Y1365D01*
X0Y1364D02*
X7Y1364D01*
X711Y1364D02*
X715Y1364D01*
X912Y1364D02*
X916Y1364D01*
X2472Y1364D02*
X2479Y1364D01*
X0Y1363D02*
X7Y1363D01*
X711Y1363D02*
X715Y1363D01*
X912Y1363D02*
X916Y1363D01*
X2472Y1363D02*
X2479Y1363D01*
X0Y1362D02*
X7Y1362D01*
X711Y1362D02*
X715Y1362D01*
X912Y1362D02*
X916Y1362D01*
X2472Y1362D02*
X2479Y1362D01*
X0Y1361D02*
X7Y1361D01*
X711Y1361D02*
X715Y1361D01*
X912Y1361D02*
X916Y1361D01*
X2472Y1361D02*
X2479Y1361D01*
X0Y1360D02*
X7Y1360D01*
X711Y1360D02*
X715Y1360D01*
X912Y1360D02*
X916Y1360D01*
X2472Y1360D02*
X2479Y1360D01*
X0Y1359D02*
X7Y1359D01*
X711Y1359D02*
X715Y1359D01*
X912Y1359D02*
X916Y1359D01*
X2472Y1359D02*
X2479Y1359D01*
X0Y1358D02*
X7Y1358D01*
X711Y1358D02*
X715Y1358D01*
X912Y1358D02*
X916Y1358D01*
X2472Y1358D02*
X2479Y1358D01*
X0Y1357D02*
X7Y1357D01*
X711Y1357D02*
X715Y1357D01*
X912Y1357D02*
X916Y1357D01*
X2472Y1357D02*
X2479Y1357D01*
X0Y1356D02*
X7Y1356D01*
X711Y1356D02*
X715Y1356D01*
X912Y1356D02*
X916Y1356D01*
X2472Y1356D02*
X2479Y1356D01*
X0Y1355D02*
X7Y1355D01*
X711Y1355D02*
X715Y1355D01*
X912Y1355D02*
X916Y1355D01*
X2472Y1355D02*
X2479Y1355D01*
X0Y1354D02*
X7Y1354D01*
X711Y1354D02*
X715Y1354D01*
X912Y1354D02*
X916Y1354D01*
X2472Y1354D02*
X2479Y1354D01*
X0Y1353D02*
X7Y1353D01*
X711Y1353D02*
X715Y1353D01*
X912Y1353D02*
X916Y1353D01*
X2472Y1353D02*
X2479Y1353D01*
X0Y1352D02*
X7Y1352D01*
X711Y1352D02*
X715Y1352D01*
X912Y1352D02*
X916Y1352D01*
X2472Y1352D02*
X2479Y1352D01*
X0Y1351D02*
X7Y1351D01*
X711Y1351D02*
X715Y1351D01*
X912Y1351D02*
X916Y1351D01*
X2472Y1351D02*
X2479Y1351D01*
X0Y1350D02*
X7Y1350D01*
X711Y1350D02*
X715Y1350D01*
X912Y1350D02*
X916Y1350D01*
X2472Y1350D02*
X2479Y1350D01*
X0Y1349D02*
X7Y1349D01*
X711Y1349D02*
X715Y1349D01*
X912Y1349D02*
X916Y1349D01*
X2472Y1349D02*
X2479Y1349D01*
X0Y1348D02*
X7Y1348D01*
X711Y1348D02*
X715Y1348D01*
X912Y1348D02*
X916Y1348D01*
X2472Y1348D02*
X2479Y1348D01*
X0Y1347D02*
X7Y1347D01*
X711Y1347D02*
X715Y1347D01*
X912Y1347D02*
X916Y1347D01*
X2472Y1347D02*
X2479Y1347D01*
X0Y1346D02*
X7Y1346D01*
X711Y1346D02*
X715Y1346D01*
X912Y1346D02*
X916Y1346D01*
X2472Y1346D02*
X2479Y1346D01*
X0Y1345D02*
X7Y1345D01*
X711Y1345D02*
X715Y1345D01*
X912Y1345D02*
X916Y1345D01*
X2472Y1345D02*
X2479Y1345D01*
X0Y1344D02*
X7Y1344D01*
X711Y1344D02*
X715Y1344D01*
X912Y1344D02*
X916Y1344D01*
X2472Y1344D02*
X2479Y1344D01*
X0Y1343D02*
X7Y1343D01*
X711Y1343D02*
X715Y1343D01*
X912Y1343D02*
X916Y1343D01*
X2472Y1343D02*
X2479Y1343D01*
X0Y1342D02*
X7Y1342D01*
X711Y1342D02*
X715Y1342D01*
X912Y1342D02*
X916Y1342D01*
X2472Y1342D02*
X2479Y1342D01*
X0Y1341D02*
X7Y1341D01*
X711Y1341D02*
X715Y1341D01*
X912Y1341D02*
X916Y1341D01*
X2472Y1341D02*
X2479Y1341D01*
X0Y1340D02*
X7Y1340D01*
X711Y1340D02*
X715Y1340D01*
X912Y1340D02*
X916Y1340D01*
X2472Y1340D02*
X2479Y1340D01*
X0Y1339D02*
X7Y1339D01*
X711Y1339D02*
X715Y1339D01*
X912Y1339D02*
X916Y1339D01*
X2472Y1339D02*
X2479Y1339D01*
X0Y1338D02*
X7Y1338D01*
X711Y1338D02*
X715Y1338D01*
X912Y1338D02*
X916Y1338D01*
X2472Y1338D02*
X2479Y1338D01*
X0Y1337D02*
X7Y1337D01*
X711Y1337D02*
X715Y1337D01*
X912Y1337D02*
X916Y1337D01*
X2472Y1337D02*
X2479Y1337D01*
X0Y1336D02*
X7Y1336D01*
X711Y1336D02*
X715Y1336D01*
X912Y1336D02*
X916Y1336D01*
X2472Y1336D02*
X2479Y1336D01*
X0Y1335D02*
X7Y1335D01*
X711Y1335D02*
X715Y1335D01*
X912Y1335D02*
X916Y1335D01*
X2472Y1335D02*
X2479Y1335D01*
X0Y1334D02*
X7Y1334D01*
X711Y1334D02*
X715Y1334D01*
X912Y1334D02*
X916Y1334D01*
X2472Y1334D02*
X2479Y1334D01*
X0Y1333D02*
X7Y1333D01*
X711Y1333D02*
X715Y1333D01*
X912Y1333D02*
X916Y1333D01*
X2472Y1333D02*
X2479Y1333D01*
X0Y1332D02*
X7Y1332D01*
X711Y1332D02*
X715Y1332D01*
X912Y1332D02*
X916Y1332D01*
X2472Y1332D02*
X2479Y1332D01*
X0Y1331D02*
X7Y1331D01*
X711Y1331D02*
X715Y1331D01*
X912Y1331D02*
X916Y1331D01*
X2472Y1331D02*
X2479Y1331D01*
X0Y1330D02*
X7Y1330D01*
X711Y1330D02*
X715Y1330D01*
X912Y1330D02*
X916Y1330D01*
X2472Y1330D02*
X2479Y1330D01*
X0Y1329D02*
X7Y1329D01*
X711Y1329D02*
X715Y1329D01*
X912Y1329D02*
X916Y1329D01*
X2472Y1329D02*
X2479Y1329D01*
X0Y1328D02*
X7Y1328D01*
X711Y1328D02*
X715Y1328D01*
X912Y1328D02*
X916Y1328D01*
X2472Y1328D02*
X2479Y1328D01*
X0Y1327D02*
X7Y1327D01*
X711Y1327D02*
X715Y1327D01*
X912Y1327D02*
X916Y1327D01*
X2472Y1327D02*
X2479Y1327D01*
X0Y1326D02*
X7Y1326D01*
X711Y1326D02*
X715Y1326D01*
X912Y1326D02*
X916Y1326D01*
X2472Y1326D02*
X2479Y1326D01*
X0Y1325D02*
X7Y1325D01*
X711Y1325D02*
X715Y1325D01*
X912Y1325D02*
X916Y1325D01*
X2472Y1325D02*
X2479Y1325D01*
X0Y1324D02*
X7Y1324D01*
X711Y1324D02*
X715Y1324D01*
X912Y1324D02*
X916Y1324D01*
X2472Y1324D02*
X2479Y1324D01*
X0Y1323D02*
X7Y1323D01*
X711Y1323D02*
X715Y1323D01*
X912Y1323D02*
X916Y1323D01*
X2472Y1323D02*
X2479Y1323D01*
X0Y1322D02*
X7Y1322D01*
X711Y1322D02*
X715Y1322D01*
X912Y1322D02*
X916Y1322D01*
X2472Y1322D02*
X2479Y1322D01*
X0Y1321D02*
X7Y1321D01*
X711Y1321D02*
X715Y1321D01*
X912Y1321D02*
X916Y1321D01*
X2472Y1321D02*
X2479Y1321D01*
X0Y1320D02*
X7Y1320D01*
X711Y1320D02*
X715Y1320D01*
X912Y1320D02*
X916Y1320D01*
X2472Y1320D02*
X2479Y1320D01*
X0Y1319D02*
X7Y1319D01*
X711Y1319D02*
X715Y1319D01*
X912Y1319D02*
X916Y1319D01*
X2472Y1319D02*
X2479Y1319D01*
X0Y1318D02*
X7Y1318D01*
X711Y1318D02*
X715Y1318D01*
X912Y1318D02*
X916Y1318D01*
X2472Y1318D02*
X2479Y1318D01*
X0Y1317D02*
X7Y1317D01*
X711Y1317D02*
X715Y1317D01*
X912Y1317D02*
X916Y1317D01*
X2472Y1317D02*
X2479Y1317D01*
X0Y1316D02*
X7Y1316D01*
X711Y1316D02*
X715Y1316D01*
X912Y1316D02*
X916Y1316D01*
X2472Y1316D02*
X2479Y1316D01*
X0Y1315D02*
X7Y1315D01*
X711Y1315D02*
X715Y1315D01*
X912Y1315D02*
X916Y1315D01*
X2472Y1315D02*
X2479Y1315D01*
X0Y1314D02*
X7Y1314D01*
X711Y1314D02*
X715Y1314D01*
X912Y1314D02*
X916Y1314D01*
X2472Y1314D02*
X2479Y1314D01*
X0Y1313D02*
X7Y1313D01*
X711Y1313D02*
X715Y1313D01*
X912Y1313D02*
X916Y1313D01*
X2472Y1313D02*
X2479Y1313D01*
X0Y1312D02*
X7Y1312D01*
X711Y1312D02*
X715Y1312D01*
X912Y1312D02*
X916Y1312D01*
X2472Y1312D02*
X2479Y1312D01*
X0Y1311D02*
X7Y1311D01*
X711Y1311D02*
X715Y1311D01*
X912Y1311D02*
X916Y1311D01*
X2472Y1311D02*
X2479Y1311D01*
X0Y1310D02*
X7Y1310D01*
X711Y1310D02*
X715Y1310D01*
X912Y1310D02*
X916Y1310D01*
X2472Y1310D02*
X2479Y1310D01*
X0Y1309D02*
X7Y1309D01*
X711Y1309D02*
X715Y1309D01*
X912Y1309D02*
X916Y1309D01*
X2472Y1309D02*
X2479Y1309D01*
X0Y1308D02*
X7Y1308D01*
X711Y1308D02*
X715Y1308D01*
X912Y1308D02*
X916Y1308D01*
X2472Y1308D02*
X2479Y1308D01*
X0Y1307D02*
X7Y1307D01*
X711Y1307D02*
X715Y1307D01*
X911Y1307D02*
X916Y1307D01*
X2472Y1307D02*
X2479Y1307D01*
X0Y1306D02*
X7Y1306D01*
X711Y1306D02*
X715Y1306D01*
X880Y1306D02*
X916Y1306D01*
X2472Y1306D02*
X2479Y1306D01*
X0Y1305D02*
X7Y1305D01*
X711Y1305D02*
X715Y1305D01*
X880Y1305D02*
X916Y1305D01*
X2472Y1305D02*
X2479Y1305D01*
X0Y1304D02*
X7Y1304D01*
X711Y1304D02*
X715Y1304D01*
X880Y1304D02*
X916Y1304D01*
X2472Y1304D02*
X2479Y1304D01*
X0Y1303D02*
X7Y1303D01*
X711Y1303D02*
X715Y1303D01*
X880Y1303D02*
X916Y1303D01*
X2472Y1303D02*
X2479Y1303D01*
X0Y1302D02*
X7Y1302D01*
X711Y1302D02*
X715Y1302D01*
X880Y1302D02*
X916Y1302D01*
X2472Y1302D02*
X2479Y1302D01*
X0Y1301D02*
X7Y1301D01*
X711Y1301D02*
X715Y1301D01*
X880Y1301D02*
X884Y1301D01*
X2472Y1301D02*
X2479Y1301D01*
X0Y1300D02*
X7Y1300D01*
X711Y1300D02*
X715Y1300D01*
X880Y1300D02*
X884Y1300D01*
X2472Y1300D02*
X2479Y1300D01*
X0Y1299D02*
X7Y1299D01*
X711Y1299D02*
X715Y1299D01*
X880Y1299D02*
X884Y1299D01*
X2472Y1299D02*
X2479Y1299D01*
X0Y1298D02*
X7Y1298D01*
X711Y1298D02*
X715Y1298D01*
X880Y1298D02*
X884Y1298D01*
X2472Y1298D02*
X2479Y1298D01*
X0Y1297D02*
X7Y1297D01*
X711Y1297D02*
X715Y1297D01*
X880Y1297D02*
X884Y1297D01*
X2472Y1297D02*
X2479Y1297D01*
X0Y1296D02*
X7Y1296D01*
X711Y1296D02*
X715Y1296D01*
X880Y1296D02*
X884Y1296D01*
X2472Y1296D02*
X2479Y1296D01*
X0Y1295D02*
X7Y1295D01*
X711Y1295D02*
X715Y1295D01*
X880Y1295D02*
X884Y1295D01*
X2472Y1295D02*
X2479Y1295D01*
X0Y1294D02*
X7Y1294D01*
X711Y1294D02*
X715Y1294D01*
X880Y1294D02*
X884Y1294D01*
X2472Y1294D02*
X2479Y1294D01*
X0Y1293D02*
X7Y1293D01*
X711Y1293D02*
X715Y1293D01*
X880Y1293D02*
X884Y1293D01*
X2472Y1293D02*
X2479Y1293D01*
X0Y1292D02*
X7Y1292D01*
X711Y1292D02*
X715Y1292D01*
X880Y1292D02*
X884Y1292D01*
X2472Y1292D02*
X2479Y1292D01*
X0Y1291D02*
X7Y1291D01*
X711Y1291D02*
X715Y1291D01*
X880Y1291D02*
X884Y1291D01*
X2472Y1291D02*
X2479Y1291D01*
X0Y1290D02*
X7Y1290D01*
X711Y1290D02*
X715Y1290D01*
X880Y1290D02*
X884Y1290D01*
X2472Y1290D02*
X2479Y1290D01*
X0Y1289D02*
X7Y1289D01*
X711Y1289D02*
X715Y1289D01*
X880Y1289D02*
X884Y1289D01*
X2472Y1289D02*
X2479Y1289D01*
X0Y1288D02*
X7Y1288D01*
X711Y1288D02*
X715Y1288D01*
X880Y1288D02*
X884Y1288D01*
X2472Y1288D02*
X2479Y1288D01*
X0Y1287D02*
X7Y1287D01*
X711Y1287D02*
X715Y1287D01*
X880Y1287D02*
X884Y1287D01*
X2472Y1287D02*
X2479Y1287D01*
X0Y1286D02*
X7Y1286D01*
X711Y1286D02*
X715Y1286D01*
X880Y1286D02*
X884Y1286D01*
X2472Y1286D02*
X2479Y1286D01*
X0Y1285D02*
X7Y1285D01*
X711Y1285D02*
X715Y1285D01*
X880Y1285D02*
X884Y1285D01*
X2472Y1285D02*
X2479Y1285D01*
X0Y1284D02*
X7Y1284D01*
X711Y1284D02*
X715Y1284D01*
X880Y1284D02*
X884Y1284D01*
X2472Y1284D02*
X2479Y1284D01*
X0Y1283D02*
X7Y1283D01*
X711Y1283D02*
X715Y1283D01*
X880Y1283D02*
X884Y1283D01*
X2472Y1283D02*
X2479Y1283D01*
X0Y1282D02*
X7Y1282D01*
X711Y1282D02*
X715Y1282D01*
X880Y1282D02*
X884Y1282D01*
X2472Y1282D02*
X2479Y1282D01*
X0Y1281D02*
X7Y1281D01*
X711Y1281D02*
X715Y1281D01*
X880Y1281D02*
X884Y1281D01*
X2472Y1281D02*
X2479Y1281D01*
X0Y1280D02*
X7Y1280D01*
X711Y1280D02*
X715Y1280D01*
X880Y1280D02*
X884Y1280D01*
X2472Y1280D02*
X2479Y1280D01*
X0Y1279D02*
X7Y1279D01*
X711Y1279D02*
X715Y1279D01*
X880Y1279D02*
X884Y1279D01*
X2472Y1279D02*
X2479Y1279D01*
X0Y1278D02*
X7Y1278D01*
X711Y1278D02*
X715Y1278D01*
X880Y1278D02*
X884Y1278D01*
X2472Y1278D02*
X2479Y1278D01*
X0Y1277D02*
X7Y1277D01*
X711Y1277D02*
X715Y1277D01*
X880Y1277D02*
X884Y1277D01*
X2472Y1277D02*
X2479Y1277D01*
X0Y1276D02*
X7Y1276D01*
X711Y1276D02*
X715Y1276D01*
X880Y1276D02*
X884Y1276D01*
X2472Y1276D02*
X2479Y1276D01*
X0Y1275D02*
X7Y1275D01*
X711Y1275D02*
X715Y1275D01*
X880Y1275D02*
X884Y1275D01*
X2472Y1275D02*
X2479Y1275D01*
X0Y1274D02*
X7Y1274D01*
X711Y1274D02*
X715Y1274D01*
X880Y1274D02*
X884Y1274D01*
X2472Y1274D02*
X2479Y1274D01*
X0Y1273D02*
X7Y1273D01*
X711Y1273D02*
X715Y1273D01*
X880Y1273D02*
X884Y1273D01*
X2472Y1273D02*
X2479Y1273D01*
X0Y1272D02*
X7Y1272D01*
X711Y1272D02*
X715Y1272D01*
X880Y1272D02*
X884Y1272D01*
X2472Y1272D02*
X2479Y1272D01*
X0Y1271D02*
X7Y1271D01*
X711Y1271D02*
X715Y1271D01*
X880Y1271D02*
X884Y1271D01*
X2472Y1271D02*
X2479Y1271D01*
X0Y1270D02*
X7Y1270D01*
X711Y1270D02*
X715Y1270D01*
X880Y1270D02*
X884Y1270D01*
X2472Y1270D02*
X2479Y1270D01*
X0Y1269D02*
X7Y1269D01*
X711Y1269D02*
X715Y1269D01*
X880Y1269D02*
X884Y1269D01*
X2472Y1269D02*
X2479Y1269D01*
X0Y1268D02*
X7Y1268D01*
X711Y1268D02*
X715Y1268D01*
X880Y1268D02*
X884Y1268D01*
X2472Y1268D02*
X2479Y1268D01*
X0Y1267D02*
X7Y1267D01*
X711Y1267D02*
X715Y1267D01*
X880Y1267D02*
X884Y1267D01*
X2472Y1267D02*
X2479Y1267D01*
X0Y1266D02*
X7Y1266D01*
X711Y1266D02*
X715Y1266D01*
X880Y1266D02*
X884Y1266D01*
X2472Y1266D02*
X2479Y1266D01*
X0Y1265D02*
X7Y1265D01*
X711Y1265D02*
X715Y1265D01*
X880Y1265D02*
X884Y1265D01*
X2472Y1265D02*
X2479Y1265D01*
X0Y1264D02*
X7Y1264D01*
X711Y1264D02*
X715Y1264D01*
X880Y1264D02*
X884Y1264D01*
X2472Y1264D02*
X2479Y1264D01*
X0Y1263D02*
X7Y1263D01*
X711Y1263D02*
X715Y1263D01*
X880Y1263D02*
X884Y1263D01*
X2472Y1263D02*
X2479Y1263D01*
X0Y1262D02*
X7Y1262D01*
X711Y1262D02*
X715Y1262D01*
X880Y1262D02*
X884Y1262D01*
X2472Y1262D02*
X2479Y1262D01*
X0Y1261D02*
X7Y1261D01*
X711Y1261D02*
X715Y1261D01*
X880Y1261D02*
X884Y1261D01*
X2472Y1261D02*
X2479Y1261D01*
X0Y1260D02*
X7Y1260D01*
X711Y1260D02*
X715Y1260D01*
X880Y1260D02*
X884Y1260D01*
X2472Y1260D02*
X2479Y1260D01*
X0Y1259D02*
X7Y1259D01*
X711Y1259D02*
X715Y1259D01*
X880Y1259D02*
X884Y1259D01*
X2472Y1259D02*
X2479Y1259D01*
X0Y1258D02*
X7Y1258D01*
X711Y1258D02*
X715Y1258D01*
X880Y1258D02*
X884Y1258D01*
X2472Y1258D02*
X2479Y1258D01*
X0Y1257D02*
X7Y1257D01*
X711Y1257D02*
X715Y1257D01*
X880Y1257D02*
X884Y1257D01*
X2472Y1257D02*
X2479Y1257D01*
X0Y1256D02*
X7Y1256D01*
X711Y1256D02*
X715Y1256D01*
X880Y1256D02*
X884Y1256D01*
X2472Y1256D02*
X2479Y1256D01*
X0Y1255D02*
X7Y1255D01*
X711Y1255D02*
X715Y1255D01*
X880Y1255D02*
X884Y1255D01*
X2472Y1255D02*
X2479Y1255D01*
X0Y1254D02*
X7Y1254D01*
X711Y1254D02*
X715Y1254D01*
X880Y1254D02*
X884Y1254D01*
X2472Y1254D02*
X2479Y1254D01*
X0Y1253D02*
X7Y1253D01*
X711Y1253D02*
X715Y1253D01*
X880Y1253D02*
X884Y1253D01*
X2472Y1253D02*
X2479Y1253D01*
X0Y1252D02*
X7Y1252D01*
X711Y1252D02*
X715Y1252D01*
X880Y1252D02*
X884Y1252D01*
X2472Y1252D02*
X2479Y1252D01*
X0Y1251D02*
X7Y1251D01*
X711Y1251D02*
X715Y1251D01*
X880Y1251D02*
X884Y1251D01*
X2472Y1251D02*
X2479Y1251D01*
X0Y1250D02*
X7Y1250D01*
X711Y1250D02*
X715Y1250D01*
X880Y1250D02*
X884Y1250D01*
X2472Y1250D02*
X2479Y1250D01*
X0Y1249D02*
X7Y1249D01*
X711Y1249D02*
X715Y1249D01*
X880Y1249D02*
X884Y1249D01*
X2472Y1249D02*
X2479Y1249D01*
X0Y1248D02*
X7Y1248D01*
X711Y1248D02*
X715Y1248D01*
X880Y1248D02*
X884Y1248D01*
X2472Y1248D02*
X2479Y1248D01*
X0Y1247D02*
X7Y1247D01*
X711Y1247D02*
X715Y1247D01*
X880Y1247D02*
X884Y1247D01*
X2472Y1247D02*
X2479Y1247D01*
X0Y1246D02*
X7Y1246D01*
X711Y1246D02*
X715Y1246D01*
X880Y1246D02*
X884Y1246D01*
X2472Y1246D02*
X2479Y1246D01*
X0Y1245D02*
X7Y1245D01*
X711Y1245D02*
X715Y1245D01*
X880Y1245D02*
X884Y1245D01*
X2472Y1245D02*
X2479Y1245D01*
X0Y1244D02*
X7Y1244D01*
X711Y1244D02*
X715Y1244D01*
X880Y1244D02*
X884Y1244D01*
X2472Y1244D02*
X2479Y1244D01*
X0Y1243D02*
X7Y1243D01*
X711Y1243D02*
X715Y1243D01*
X880Y1243D02*
X884Y1243D01*
X2472Y1243D02*
X2479Y1243D01*
X0Y1242D02*
X7Y1242D01*
X711Y1242D02*
X715Y1242D01*
X880Y1242D02*
X884Y1242D01*
X2472Y1242D02*
X2479Y1242D01*
X0Y1241D02*
X7Y1241D01*
X711Y1241D02*
X715Y1241D01*
X880Y1241D02*
X884Y1241D01*
X2472Y1241D02*
X2479Y1241D01*
X0Y1240D02*
X7Y1240D01*
X711Y1240D02*
X715Y1240D01*
X880Y1240D02*
X884Y1240D01*
X2472Y1240D02*
X2479Y1240D01*
X0Y1239D02*
X7Y1239D01*
X711Y1239D02*
X715Y1239D01*
X880Y1239D02*
X884Y1239D01*
X2472Y1239D02*
X2479Y1239D01*
X0Y1238D02*
X7Y1238D01*
X711Y1238D02*
X715Y1238D01*
X880Y1238D02*
X884Y1238D01*
X2472Y1238D02*
X2479Y1238D01*
X0Y1237D02*
X7Y1237D01*
X711Y1237D02*
X715Y1237D01*
X880Y1237D02*
X884Y1237D01*
X2472Y1237D02*
X2479Y1237D01*
X0Y1236D02*
X7Y1236D01*
X711Y1236D02*
X715Y1236D01*
X880Y1236D02*
X884Y1236D01*
X2472Y1236D02*
X2479Y1236D01*
X0Y1235D02*
X7Y1235D01*
X711Y1235D02*
X715Y1235D01*
X880Y1235D02*
X884Y1235D01*
X2472Y1235D02*
X2479Y1235D01*
X0Y1234D02*
X7Y1234D01*
X711Y1234D02*
X715Y1234D01*
X880Y1234D02*
X884Y1234D01*
X2472Y1234D02*
X2479Y1234D01*
X0Y1233D02*
X7Y1233D01*
X711Y1233D02*
X715Y1233D01*
X880Y1233D02*
X884Y1233D01*
X2472Y1233D02*
X2479Y1233D01*
X0Y1232D02*
X7Y1232D01*
X711Y1232D02*
X715Y1232D01*
X880Y1232D02*
X884Y1232D01*
X2472Y1232D02*
X2479Y1232D01*
X0Y1231D02*
X7Y1231D01*
X711Y1231D02*
X715Y1231D01*
X880Y1231D02*
X884Y1231D01*
X2472Y1231D02*
X2479Y1231D01*
X0Y1230D02*
X7Y1230D01*
X711Y1230D02*
X715Y1230D01*
X880Y1230D02*
X884Y1230D01*
X2472Y1230D02*
X2479Y1230D01*
X0Y1229D02*
X7Y1229D01*
X711Y1229D02*
X715Y1229D01*
X880Y1229D02*
X884Y1229D01*
X2472Y1229D02*
X2479Y1229D01*
X0Y1228D02*
X7Y1228D01*
X711Y1228D02*
X715Y1228D01*
X880Y1228D02*
X884Y1228D01*
X2472Y1228D02*
X2479Y1228D01*
X0Y1227D02*
X7Y1227D01*
X711Y1227D02*
X715Y1227D01*
X880Y1227D02*
X884Y1227D01*
X2472Y1227D02*
X2479Y1227D01*
X0Y1226D02*
X7Y1226D01*
X711Y1226D02*
X715Y1226D01*
X880Y1226D02*
X884Y1226D01*
X2472Y1226D02*
X2479Y1226D01*
X0Y1225D02*
X7Y1225D01*
X711Y1225D02*
X715Y1225D01*
X880Y1225D02*
X884Y1225D01*
X2472Y1225D02*
X2479Y1225D01*
X0Y1224D02*
X7Y1224D01*
X711Y1224D02*
X715Y1224D01*
X880Y1224D02*
X884Y1224D01*
X2472Y1224D02*
X2479Y1224D01*
X0Y1223D02*
X7Y1223D01*
X711Y1223D02*
X715Y1223D01*
X880Y1223D02*
X884Y1223D01*
X2472Y1223D02*
X2479Y1223D01*
X0Y1222D02*
X7Y1222D01*
X711Y1222D02*
X715Y1222D01*
X880Y1222D02*
X884Y1222D01*
X2472Y1222D02*
X2479Y1222D01*
X0Y1221D02*
X7Y1221D01*
X711Y1221D02*
X715Y1221D01*
X880Y1221D02*
X884Y1221D01*
X2472Y1221D02*
X2479Y1221D01*
X0Y1220D02*
X7Y1220D01*
X711Y1220D02*
X715Y1220D01*
X880Y1220D02*
X884Y1220D01*
X2472Y1220D02*
X2479Y1220D01*
X0Y1219D02*
X7Y1219D01*
X711Y1219D02*
X715Y1219D01*
X880Y1219D02*
X884Y1219D01*
X2472Y1219D02*
X2479Y1219D01*
X0Y1218D02*
X7Y1218D01*
X711Y1218D02*
X715Y1218D01*
X880Y1218D02*
X884Y1218D01*
X2472Y1218D02*
X2479Y1218D01*
X0Y1217D02*
X7Y1217D01*
X711Y1217D02*
X715Y1217D01*
X880Y1217D02*
X884Y1217D01*
X2472Y1217D02*
X2479Y1217D01*
X0Y1216D02*
X7Y1216D01*
X711Y1216D02*
X715Y1216D01*
X880Y1216D02*
X884Y1216D01*
X2472Y1216D02*
X2479Y1216D01*
X0Y1215D02*
X7Y1215D01*
X711Y1215D02*
X715Y1215D01*
X880Y1215D02*
X884Y1215D01*
X2472Y1215D02*
X2479Y1215D01*
X0Y1214D02*
X7Y1214D01*
X711Y1214D02*
X715Y1214D01*
X880Y1214D02*
X884Y1214D01*
X2472Y1214D02*
X2479Y1214D01*
X0Y1213D02*
X7Y1213D01*
X711Y1213D02*
X715Y1213D01*
X880Y1213D02*
X884Y1213D01*
X2472Y1213D02*
X2479Y1213D01*
X0Y1212D02*
X7Y1212D01*
X711Y1212D02*
X715Y1212D01*
X880Y1212D02*
X884Y1212D01*
X2472Y1212D02*
X2479Y1212D01*
X0Y1211D02*
X7Y1211D01*
X711Y1211D02*
X715Y1211D01*
X880Y1211D02*
X884Y1211D01*
X2472Y1211D02*
X2479Y1211D01*
X0Y1210D02*
X7Y1210D01*
X711Y1210D02*
X715Y1210D01*
X880Y1210D02*
X884Y1210D01*
X2472Y1210D02*
X2479Y1210D01*
X0Y1209D02*
X7Y1209D01*
X711Y1209D02*
X715Y1209D01*
X880Y1209D02*
X884Y1209D01*
X2472Y1209D02*
X2479Y1209D01*
X0Y1208D02*
X7Y1208D01*
X711Y1208D02*
X715Y1208D01*
X880Y1208D02*
X884Y1208D01*
X2472Y1208D02*
X2479Y1208D01*
X0Y1207D02*
X7Y1207D01*
X711Y1207D02*
X715Y1207D01*
X880Y1207D02*
X884Y1207D01*
X2472Y1207D02*
X2479Y1207D01*
X0Y1206D02*
X7Y1206D01*
X711Y1206D02*
X715Y1206D01*
X880Y1206D02*
X884Y1206D01*
X2472Y1206D02*
X2479Y1206D01*
X0Y1205D02*
X7Y1205D01*
X711Y1205D02*
X715Y1205D01*
X880Y1205D02*
X884Y1205D01*
X2472Y1205D02*
X2479Y1205D01*
X0Y1204D02*
X7Y1204D01*
X711Y1204D02*
X715Y1204D01*
X880Y1204D02*
X884Y1204D01*
X2472Y1204D02*
X2479Y1204D01*
X0Y1203D02*
X7Y1203D01*
X711Y1203D02*
X715Y1203D01*
X880Y1203D02*
X884Y1203D01*
X2472Y1203D02*
X2479Y1203D01*
X0Y1202D02*
X7Y1202D01*
X711Y1202D02*
X715Y1202D01*
X880Y1202D02*
X884Y1202D01*
X2472Y1202D02*
X2479Y1202D01*
X0Y1201D02*
X7Y1201D01*
X711Y1201D02*
X715Y1201D01*
X880Y1201D02*
X884Y1201D01*
X2472Y1201D02*
X2479Y1201D01*
X0Y1200D02*
X7Y1200D01*
X711Y1200D02*
X715Y1200D01*
X880Y1200D02*
X884Y1200D01*
X2472Y1200D02*
X2479Y1200D01*
X0Y1199D02*
X7Y1199D01*
X711Y1199D02*
X715Y1199D01*
X880Y1199D02*
X884Y1199D01*
X2472Y1199D02*
X2479Y1199D01*
X0Y1198D02*
X7Y1198D01*
X711Y1198D02*
X715Y1198D01*
X880Y1198D02*
X884Y1198D01*
X2472Y1198D02*
X2479Y1198D01*
X0Y1197D02*
X7Y1197D01*
X711Y1197D02*
X715Y1197D01*
X880Y1197D02*
X884Y1197D01*
X2472Y1197D02*
X2479Y1197D01*
X0Y1196D02*
X7Y1196D01*
X711Y1196D02*
X715Y1196D01*
X880Y1196D02*
X884Y1196D01*
X2472Y1196D02*
X2479Y1196D01*
X0Y1195D02*
X7Y1195D01*
X711Y1195D02*
X715Y1195D01*
X880Y1195D02*
X884Y1195D01*
X2472Y1195D02*
X2479Y1195D01*
X0Y1194D02*
X7Y1194D01*
X711Y1194D02*
X715Y1194D01*
X880Y1194D02*
X884Y1194D01*
X2472Y1194D02*
X2479Y1194D01*
X0Y1193D02*
X7Y1193D01*
X711Y1193D02*
X715Y1193D01*
X880Y1193D02*
X884Y1193D01*
X2472Y1193D02*
X2479Y1193D01*
X0Y1192D02*
X7Y1192D01*
X711Y1192D02*
X715Y1192D01*
X880Y1192D02*
X884Y1192D01*
X2472Y1192D02*
X2479Y1192D01*
X0Y1191D02*
X7Y1191D01*
X711Y1191D02*
X715Y1191D01*
X880Y1191D02*
X884Y1191D01*
X2472Y1191D02*
X2479Y1191D01*
X0Y1190D02*
X7Y1190D01*
X711Y1190D02*
X715Y1190D01*
X880Y1190D02*
X884Y1190D01*
X2472Y1190D02*
X2479Y1190D01*
X0Y1189D02*
X7Y1189D01*
X711Y1189D02*
X715Y1189D01*
X880Y1189D02*
X884Y1189D01*
X2472Y1189D02*
X2479Y1189D01*
X0Y1188D02*
X7Y1188D01*
X711Y1188D02*
X715Y1188D01*
X880Y1188D02*
X884Y1188D01*
X2472Y1188D02*
X2479Y1188D01*
X0Y1187D02*
X7Y1187D01*
X711Y1187D02*
X715Y1187D01*
X880Y1187D02*
X884Y1187D01*
X2472Y1187D02*
X2479Y1187D01*
X0Y1186D02*
X7Y1186D01*
X711Y1186D02*
X715Y1186D01*
X880Y1186D02*
X884Y1186D01*
X2472Y1186D02*
X2479Y1186D01*
X0Y1185D02*
X7Y1185D01*
X711Y1185D02*
X715Y1185D01*
X880Y1185D02*
X884Y1185D01*
X2472Y1185D02*
X2479Y1185D01*
X0Y1184D02*
X7Y1184D01*
X711Y1184D02*
X715Y1184D01*
X880Y1184D02*
X884Y1184D01*
X2472Y1184D02*
X2479Y1184D01*
X0Y1183D02*
X7Y1183D01*
X711Y1183D02*
X715Y1183D01*
X880Y1183D02*
X884Y1183D01*
X2472Y1183D02*
X2479Y1183D01*
X0Y1182D02*
X7Y1182D01*
X711Y1182D02*
X715Y1182D01*
X880Y1182D02*
X884Y1182D01*
X2472Y1182D02*
X2479Y1182D01*
X0Y1181D02*
X7Y1181D01*
X711Y1181D02*
X715Y1181D01*
X880Y1181D02*
X884Y1181D01*
X2472Y1181D02*
X2479Y1181D01*
X0Y1180D02*
X7Y1180D01*
X711Y1180D02*
X715Y1180D01*
X880Y1180D02*
X884Y1180D01*
X2472Y1180D02*
X2479Y1180D01*
X0Y1179D02*
X7Y1179D01*
X711Y1179D02*
X715Y1179D01*
X880Y1179D02*
X884Y1179D01*
X2472Y1179D02*
X2479Y1179D01*
X0Y1178D02*
X7Y1178D01*
X711Y1178D02*
X715Y1178D01*
X880Y1178D02*
X884Y1178D01*
X2472Y1178D02*
X2479Y1178D01*
X0Y1177D02*
X7Y1177D01*
X711Y1177D02*
X715Y1177D01*
X880Y1177D02*
X884Y1177D01*
X2472Y1177D02*
X2479Y1177D01*
X0Y1176D02*
X7Y1176D01*
X711Y1176D02*
X715Y1176D01*
X880Y1176D02*
X884Y1176D01*
X2472Y1176D02*
X2479Y1176D01*
X0Y1175D02*
X7Y1175D01*
X711Y1175D02*
X715Y1175D01*
X880Y1175D02*
X884Y1175D01*
X2472Y1175D02*
X2479Y1175D01*
X0Y1174D02*
X7Y1174D01*
X711Y1174D02*
X715Y1174D01*
X880Y1174D02*
X884Y1174D01*
X2472Y1174D02*
X2479Y1174D01*
X0Y1173D02*
X7Y1173D01*
X711Y1173D02*
X715Y1173D01*
X880Y1173D02*
X884Y1173D01*
X2472Y1173D02*
X2479Y1173D01*
X0Y1172D02*
X7Y1172D01*
X711Y1172D02*
X715Y1172D01*
X880Y1172D02*
X884Y1172D01*
X2472Y1172D02*
X2479Y1172D01*
X0Y1171D02*
X7Y1171D01*
X711Y1171D02*
X715Y1171D01*
X880Y1171D02*
X884Y1171D01*
X2472Y1171D02*
X2479Y1171D01*
X0Y1170D02*
X7Y1170D01*
X711Y1170D02*
X715Y1170D01*
X880Y1170D02*
X884Y1170D01*
X2472Y1170D02*
X2479Y1170D01*
X0Y1169D02*
X7Y1169D01*
X711Y1169D02*
X715Y1169D01*
X880Y1169D02*
X884Y1169D01*
X2472Y1169D02*
X2479Y1169D01*
X0Y1168D02*
X7Y1168D01*
X711Y1168D02*
X715Y1168D01*
X880Y1168D02*
X884Y1168D01*
X2472Y1168D02*
X2479Y1168D01*
X0Y1167D02*
X7Y1167D01*
X711Y1167D02*
X715Y1167D01*
X880Y1167D02*
X884Y1167D01*
X2472Y1167D02*
X2479Y1167D01*
X0Y1166D02*
X7Y1166D01*
X711Y1166D02*
X715Y1166D01*
X880Y1166D02*
X884Y1166D01*
X2472Y1166D02*
X2479Y1166D01*
X0Y1165D02*
X7Y1165D01*
X711Y1165D02*
X715Y1165D01*
X880Y1165D02*
X884Y1165D01*
X2472Y1165D02*
X2479Y1165D01*
X0Y1164D02*
X7Y1164D01*
X711Y1164D02*
X715Y1164D01*
X880Y1164D02*
X884Y1164D01*
X2472Y1164D02*
X2479Y1164D01*
X0Y1163D02*
X7Y1163D01*
X711Y1163D02*
X715Y1163D01*
X880Y1163D02*
X884Y1163D01*
X2472Y1163D02*
X2479Y1163D01*
X0Y1162D02*
X7Y1162D01*
X711Y1162D02*
X715Y1162D01*
X880Y1162D02*
X884Y1162D01*
X2472Y1162D02*
X2479Y1162D01*
X0Y1161D02*
X7Y1161D01*
X711Y1161D02*
X715Y1161D01*
X880Y1161D02*
X884Y1161D01*
X2472Y1161D02*
X2479Y1161D01*
X0Y1160D02*
X7Y1160D01*
X711Y1160D02*
X715Y1160D01*
X880Y1160D02*
X884Y1160D01*
X2472Y1160D02*
X2479Y1160D01*
X0Y1159D02*
X7Y1159D01*
X711Y1159D02*
X715Y1159D01*
X880Y1159D02*
X884Y1159D01*
X2472Y1159D02*
X2479Y1159D01*
X0Y1158D02*
X7Y1158D01*
X711Y1158D02*
X715Y1158D01*
X880Y1158D02*
X884Y1158D01*
X2472Y1158D02*
X2479Y1158D01*
X0Y1157D02*
X7Y1157D01*
X711Y1157D02*
X715Y1157D01*
X880Y1157D02*
X884Y1157D01*
X2472Y1157D02*
X2479Y1157D01*
X0Y1156D02*
X7Y1156D01*
X711Y1156D02*
X715Y1156D01*
X880Y1156D02*
X884Y1156D01*
X2472Y1156D02*
X2479Y1156D01*
X0Y1155D02*
X7Y1155D01*
X711Y1155D02*
X715Y1155D01*
X880Y1155D02*
X884Y1155D01*
X2472Y1155D02*
X2479Y1155D01*
X0Y1154D02*
X7Y1154D01*
X711Y1154D02*
X715Y1154D01*
X880Y1154D02*
X884Y1154D01*
X2472Y1154D02*
X2479Y1154D01*
X0Y1153D02*
X7Y1153D01*
X711Y1153D02*
X715Y1153D01*
X880Y1153D02*
X884Y1153D01*
X2472Y1153D02*
X2479Y1153D01*
X0Y1152D02*
X7Y1152D01*
X711Y1152D02*
X715Y1152D01*
X880Y1152D02*
X884Y1152D01*
X2472Y1152D02*
X2479Y1152D01*
X0Y1151D02*
X7Y1151D01*
X711Y1151D02*
X715Y1151D01*
X880Y1151D02*
X884Y1151D01*
X2472Y1151D02*
X2479Y1151D01*
X0Y1150D02*
X7Y1150D01*
X711Y1150D02*
X715Y1150D01*
X880Y1150D02*
X884Y1150D01*
X2472Y1150D02*
X2479Y1150D01*
X0Y1149D02*
X7Y1149D01*
X711Y1149D02*
X715Y1149D01*
X880Y1149D02*
X884Y1149D01*
X2472Y1149D02*
X2479Y1149D01*
X0Y1148D02*
X7Y1148D01*
X711Y1148D02*
X715Y1148D01*
X880Y1148D02*
X884Y1148D01*
X2472Y1148D02*
X2479Y1148D01*
X0Y1147D02*
X7Y1147D01*
X711Y1147D02*
X715Y1147D01*
X880Y1147D02*
X884Y1147D01*
X2472Y1147D02*
X2479Y1147D01*
X0Y1146D02*
X7Y1146D01*
X711Y1146D02*
X715Y1146D01*
X880Y1146D02*
X884Y1146D01*
X2472Y1146D02*
X2479Y1146D01*
X0Y1145D02*
X7Y1145D01*
X711Y1145D02*
X715Y1145D01*
X880Y1145D02*
X884Y1145D01*
X2472Y1145D02*
X2479Y1145D01*
X0Y1144D02*
X7Y1144D01*
X711Y1144D02*
X715Y1144D01*
X880Y1144D02*
X884Y1144D01*
X2472Y1144D02*
X2479Y1144D01*
X0Y1143D02*
X7Y1143D01*
X711Y1143D02*
X715Y1143D01*
X880Y1143D02*
X884Y1143D01*
X2472Y1143D02*
X2479Y1143D01*
X0Y1142D02*
X7Y1142D01*
X711Y1142D02*
X715Y1142D01*
X880Y1142D02*
X884Y1142D01*
X2472Y1142D02*
X2479Y1142D01*
X0Y1141D02*
X7Y1141D01*
X711Y1141D02*
X715Y1141D01*
X880Y1141D02*
X884Y1141D01*
X2472Y1141D02*
X2479Y1141D01*
X0Y1140D02*
X7Y1140D01*
X711Y1140D02*
X715Y1140D01*
X880Y1140D02*
X884Y1140D01*
X2472Y1140D02*
X2479Y1140D01*
X0Y1139D02*
X7Y1139D01*
X711Y1139D02*
X715Y1139D01*
X880Y1139D02*
X884Y1139D01*
X2472Y1139D02*
X2479Y1139D01*
X0Y1138D02*
X7Y1138D01*
X711Y1138D02*
X715Y1138D01*
X880Y1138D02*
X884Y1138D01*
X2472Y1138D02*
X2479Y1138D01*
X0Y1137D02*
X7Y1137D01*
X711Y1137D02*
X715Y1137D01*
X880Y1137D02*
X884Y1137D01*
X2472Y1137D02*
X2479Y1137D01*
X0Y1136D02*
X7Y1136D01*
X711Y1136D02*
X715Y1136D01*
X880Y1136D02*
X884Y1136D01*
X2472Y1136D02*
X2479Y1136D01*
X0Y1135D02*
X7Y1135D01*
X711Y1135D02*
X715Y1135D01*
X880Y1135D02*
X884Y1135D01*
X2472Y1135D02*
X2479Y1135D01*
X0Y1134D02*
X7Y1134D01*
X711Y1134D02*
X715Y1134D01*
X880Y1134D02*
X884Y1134D01*
X2472Y1134D02*
X2479Y1134D01*
X0Y1133D02*
X7Y1133D01*
X711Y1133D02*
X715Y1133D01*
X880Y1133D02*
X884Y1133D01*
X2472Y1133D02*
X2479Y1133D01*
X0Y1132D02*
X7Y1132D01*
X711Y1132D02*
X715Y1132D01*
X880Y1132D02*
X884Y1132D01*
X2472Y1132D02*
X2479Y1132D01*
X0Y1131D02*
X7Y1131D01*
X711Y1131D02*
X715Y1131D01*
X880Y1131D02*
X884Y1131D01*
X2472Y1131D02*
X2479Y1131D01*
X0Y1130D02*
X7Y1130D01*
X711Y1130D02*
X715Y1130D01*
X880Y1130D02*
X884Y1130D01*
X2472Y1130D02*
X2479Y1130D01*
X0Y1129D02*
X7Y1129D01*
X711Y1129D02*
X715Y1129D01*
X880Y1129D02*
X884Y1129D01*
X2472Y1129D02*
X2479Y1129D01*
X0Y1128D02*
X7Y1128D01*
X711Y1128D02*
X715Y1128D01*
X880Y1128D02*
X884Y1128D01*
X2472Y1128D02*
X2479Y1128D01*
X0Y1127D02*
X7Y1127D01*
X711Y1127D02*
X715Y1127D01*
X880Y1127D02*
X884Y1127D01*
X2472Y1127D02*
X2479Y1127D01*
X0Y1126D02*
X7Y1126D01*
X711Y1126D02*
X715Y1126D01*
X880Y1126D02*
X884Y1126D01*
X2472Y1126D02*
X2479Y1126D01*
X0Y1125D02*
X7Y1125D01*
X711Y1125D02*
X715Y1125D01*
X880Y1125D02*
X884Y1125D01*
X2472Y1125D02*
X2479Y1125D01*
X0Y1124D02*
X7Y1124D01*
X711Y1124D02*
X715Y1124D01*
X880Y1124D02*
X884Y1124D01*
X2472Y1124D02*
X2479Y1124D01*
X0Y1123D02*
X7Y1123D01*
X711Y1123D02*
X715Y1123D01*
X880Y1123D02*
X884Y1123D01*
X2472Y1123D02*
X2479Y1123D01*
X0Y1122D02*
X7Y1122D01*
X711Y1122D02*
X715Y1122D01*
X880Y1122D02*
X884Y1122D01*
X2472Y1122D02*
X2479Y1122D01*
X0Y1121D02*
X7Y1121D01*
X711Y1121D02*
X715Y1121D01*
X880Y1121D02*
X884Y1121D01*
X2472Y1121D02*
X2479Y1121D01*
X0Y1120D02*
X7Y1120D01*
X711Y1120D02*
X715Y1120D01*
X880Y1120D02*
X884Y1120D01*
X2472Y1120D02*
X2479Y1120D01*
X0Y1119D02*
X7Y1119D01*
X711Y1119D02*
X715Y1119D01*
X880Y1119D02*
X884Y1119D01*
X2472Y1119D02*
X2479Y1119D01*
X0Y1118D02*
X7Y1118D01*
X711Y1118D02*
X715Y1118D01*
X880Y1118D02*
X884Y1118D01*
X2472Y1118D02*
X2479Y1118D01*
X0Y1117D02*
X7Y1117D01*
X711Y1117D02*
X715Y1117D01*
X880Y1117D02*
X884Y1117D01*
X2472Y1117D02*
X2479Y1117D01*
X0Y1116D02*
X7Y1116D01*
X711Y1116D02*
X715Y1116D01*
X880Y1116D02*
X884Y1116D01*
X2472Y1116D02*
X2479Y1116D01*
X0Y1115D02*
X7Y1115D01*
X711Y1115D02*
X715Y1115D01*
X880Y1115D02*
X884Y1115D01*
X2472Y1115D02*
X2479Y1115D01*
X0Y1114D02*
X7Y1114D01*
X711Y1114D02*
X715Y1114D01*
X880Y1114D02*
X884Y1114D01*
X2472Y1114D02*
X2479Y1114D01*
X0Y1113D02*
X7Y1113D01*
X711Y1113D02*
X715Y1113D01*
X880Y1113D02*
X884Y1113D01*
X2472Y1113D02*
X2479Y1113D01*
X0Y1112D02*
X7Y1112D01*
X711Y1112D02*
X715Y1112D01*
X880Y1112D02*
X884Y1112D01*
X2472Y1112D02*
X2479Y1112D01*
X0Y1111D02*
X7Y1111D01*
X711Y1111D02*
X715Y1111D01*
X880Y1111D02*
X884Y1111D01*
X2472Y1111D02*
X2479Y1111D01*
X0Y1110D02*
X7Y1110D01*
X711Y1110D02*
X715Y1110D01*
X880Y1110D02*
X884Y1110D01*
X2472Y1110D02*
X2479Y1110D01*
X0Y1109D02*
X7Y1109D01*
X711Y1109D02*
X715Y1109D01*
X880Y1109D02*
X884Y1109D01*
X2472Y1109D02*
X2479Y1109D01*
X0Y1108D02*
X7Y1108D01*
X711Y1108D02*
X715Y1108D01*
X880Y1108D02*
X884Y1108D01*
X2472Y1108D02*
X2479Y1108D01*
X0Y1107D02*
X7Y1107D01*
X711Y1107D02*
X715Y1107D01*
X880Y1107D02*
X884Y1107D01*
X2472Y1107D02*
X2479Y1107D01*
X0Y1106D02*
X7Y1106D01*
X711Y1106D02*
X715Y1106D01*
X880Y1106D02*
X884Y1106D01*
X2472Y1106D02*
X2479Y1106D01*
X0Y1105D02*
X7Y1105D01*
X711Y1105D02*
X715Y1105D01*
X880Y1105D02*
X884Y1105D01*
X2472Y1105D02*
X2479Y1105D01*
X0Y1104D02*
X7Y1104D01*
X711Y1104D02*
X715Y1104D01*
X880Y1104D02*
X884Y1104D01*
X2472Y1104D02*
X2479Y1104D01*
X0Y1103D02*
X7Y1103D01*
X711Y1103D02*
X715Y1103D01*
X880Y1103D02*
X884Y1103D01*
X2472Y1103D02*
X2479Y1103D01*
X0Y1102D02*
X7Y1102D01*
X711Y1102D02*
X715Y1102D01*
X880Y1102D02*
X884Y1102D01*
X2472Y1102D02*
X2479Y1102D01*
X0Y1101D02*
X7Y1101D01*
X711Y1101D02*
X715Y1101D01*
X880Y1101D02*
X884Y1101D01*
X2472Y1101D02*
X2479Y1101D01*
X0Y1100D02*
X7Y1100D01*
X711Y1100D02*
X715Y1100D01*
X880Y1100D02*
X884Y1100D01*
X2472Y1100D02*
X2479Y1100D01*
X0Y1099D02*
X7Y1099D01*
X711Y1099D02*
X715Y1099D01*
X880Y1099D02*
X884Y1099D01*
X2472Y1099D02*
X2479Y1099D01*
X0Y1098D02*
X7Y1098D01*
X711Y1098D02*
X715Y1098D01*
X880Y1098D02*
X884Y1098D01*
X2472Y1098D02*
X2479Y1098D01*
X0Y1097D02*
X7Y1097D01*
X711Y1097D02*
X715Y1097D01*
X880Y1097D02*
X884Y1097D01*
X2472Y1097D02*
X2479Y1097D01*
X0Y1096D02*
X7Y1096D01*
X711Y1096D02*
X715Y1096D01*
X880Y1096D02*
X884Y1096D01*
X2472Y1096D02*
X2479Y1096D01*
X0Y1095D02*
X7Y1095D01*
X711Y1095D02*
X715Y1095D01*
X880Y1095D02*
X884Y1095D01*
X2472Y1095D02*
X2479Y1095D01*
X0Y1094D02*
X7Y1094D01*
X711Y1094D02*
X715Y1094D01*
X880Y1094D02*
X884Y1094D01*
X2472Y1094D02*
X2479Y1094D01*
X0Y1093D02*
X7Y1093D01*
X711Y1093D02*
X715Y1093D01*
X880Y1093D02*
X884Y1093D01*
X2472Y1093D02*
X2479Y1093D01*
X0Y1092D02*
X7Y1092D01*
X711Y1092D02*
X715Y1092D01*
X880Y1092D02*
X884Y1092D01*
X2472Y1092D02*
X2479Y1092D01*
X0Y1091D02*
X7Y1091D01*
X711Y1091D02*
X715Y1091D01*
X880Y1091D02*
X884Y1091D01*
X2472Y1091D02*
X2479Y1091D01*
X0Y1090D02*
X7Y1090D01*
X711Y1090D02*
X715Y1090D01*
X880Y1090D02*
X884Y1090D01*
X2472Y1090D02*
X2479Y1090D01*
X0Y1089D02*
X7Y1089D01*
X711Y1089D02*
X715Y1089D01*
X880Y1089D02*
X884Y1089D01*
X2472Y1089D02*
X2479Y1089D01*
X0Y1088D02*
X7Y1088D01*
X711Y1088D02*
X715Y1088D01*
X880Y1088D02*
X884Y1088D01*
X2472Y1088D02*
X2479Y1088D01*
X0Y1087D02*
X7Y1087D01*
X711Y1087D02*
X715Y1087D01*
X880Y1087D02*
X884Y1087D01*
X2472Y1087D02*
X2479Y1087D01*
X0Y1086D02*
X7Y1086D01*
X711Y1086D02*
X715Y1086D01*
X880Y1086D02*
X884Y1086D01*
X2472Y1086D02*
X2479Y1086D01*
X0Y1085D02*
X7Y1085D01*
X711Y1085D02*
X715Y1085D01*
X880Y1085D02*
X884Y1085D01*
X2472Y1085D02*
X2479Y1085D01*
X0Y1084D02*
X7Y1084D01*
X711Y1084D02*
X715Y1084D01*
X880Y1084D02*
X884Y1084D01*
X2472Y1084D02*
X2479Y1084D01*
X0Y1083D02*
X7Y1083D01*
X711Y1083D02*
X715Y1083D01*
X880Y1083D02*
X884Y1083D01*
X2472Y1083D02*
X2479Y1083D01*
X0Y1082D02*
X7Y1082D01*
X711Y1082D02*
X715Y1082D01*
X880Y1082D02*
X884Y1082D01*
X2472Y1082D02*
X2479Y1082D01*
X0Y1081D02*
X7Y1081D01*
X711Y1081D02*
X715Y1081D01*
X880Y1081D02*
X884Y1081D01*
X2472Y1081D02*
X2479Y1081D01*
X0Y1080D02*
X7Y1080D01*
X711Y1080D02*
X715Y1080D01*
X880Y1080D02*
X884Y1080D01*
X2472Y1080D02*
X2479Y1080D01*
X0Y1079D02*
X7Y1079D01*
X711Y1079D02*
X715Y1079D01*
X880Y1079D02*
X884Y1079D01*
X2472Y1079D02*
X2479Y1079D01*
X0Y1078D02*
X7Y1078D01*
X711Y1078D02*
X715Y1078D01*
X880Y1078D02*
X884Y1078D01*
X2472Y1078D02*
X2479Y1078D01*
X0Y1077D02*
X7Y1077D01*
X711Y1077D02*
X715Y1077D01*
X880Y1077D02*
X884Y1077D01*
X2472Y1077D02*
X2479Y1077D01*
X0Y1076D02*
X7Y1076D01*
X711Y1076D02*
X715Y1076D01*
X880Y1076D02*
X884Y1076D01*
X2472Y1076D02*
X2479Y1076D01*
X0Y1075D02*
X7Y1075D01*
X711Y1075D02*
X715Y1075D01*
X880Y1075D02*
X884Y1075D01*
X2472Y1075D02*
X2479Y1075D01*
X0Y1074D02*
X7Y1074D01*
X711Y1074D02*
X715Y1074D01*
X880Y1074D02*
X884Y1074D01*
X2472Y1074D02*
X2479Y1074D01*
X0Y1073D02*
X7Y1073D01*
X711Y1073D02*
X715Y1073D01*
X880Y1073D02*
X884Y1073D01*
X2472Y1073D02*
X2479Y1073D01*
X0Y1072D02*
X7Y1072D01*
X711Y1072D02*
X715Y1072D01*
X880Y1072D02*
X884Y1072D01*
X2472Y1072D02*
X2479Y1072D01*
X0Y1071D02*
X7Y1071D01*
X711Y1071D02*
X715Y1071D01*
X880Y1071D02*
X884Y1071D01*
X2472Y1071D02*
X2479Y1071D01*
X0Y1070D02*
X7Y1070D01*
X711Y1070D02*
X715Y1070D01*
X880Y1070D02*
X884Y1070D01*
X2472Y1070D02*
X2479Y1070D01*
X0Y1069D02*
X7Y1069D01*
X711Y1069D02*
X715Y1069D01*
X880Y1069D02*
X884Y1069D01*
X2472Y1069D02*
X2479Y1069D01*
X0Y1068D02*
X7Y1068D01*
X711Y1068D02*
X715Y1068D01*
X880Y1068D02*
X884Y1068D01*
X2472Y1068D02*
X2479Y1068D01*
X0Y1067D02*
X7Y1067D01*
X711Y1067D02*
X715Y1067D01*
X880Y1067D02*
X884Y1067D01*
X2472Y1067D02*
X2479Y1067D01*
X0Y1066D02*
X7Y1066D01*
X711Y1066D02*
X715Y1066D01*
X880Y1066D02*
X884Y1066D01*
X2472Y1066D02*
X2479Y1066D01*
X0Y1065D02*
X7Y1065D01*
X711Y1065D02*
X715Y1065D01*
X880Y1065D02*
X884Y1065D01*
X2472Y1065D02*
X2479Y1065D01*
X0Y1064D02*
X7Y1064D01*
X711Y1064D02*
X715Y1064D01*
X880Y1064D02*
X884Y1064D01*
X2472Y1064D02*
X2479Y1064D01*
X0Y1063D02*
X7Y1063D01*
X711Y1063D02*
X715Y1063D01*
X880Y1063D02*
X884Y1063D01*
X2472Y1063D02*
X2479Y1063D01*
X0Y1062D02*
X7Y1062D01*
X711Y1062D02*
X715Y1062D01*
X880Y1062D02*
X884Y1062D01*
X2472Y1062D02*
X2479Y1062D01*
X0Y1061D02*
X7Y1061D01*
X711Y1061D02*
X715Y1061D01*
X880Y1061D02*
X884Y1061D01*
X2472Y1061D02*
X2479Y1061D01*
X0Y1060D02*
X7Y1060D01*
X711Y1060D02*
X715Y1060D01*
X880Y1060D02*
X884Y1060D01*
X2472Y1060D02*
X2479Y1060D01*
X0Y1059D02*
X7Y1059D01*
X711Y1059D02*
X715Y1059D01*
X880Y1059D02*
X884Y1059D01*
X2472Y1059D02*
X2479Y1059D01*
X0Y1058D02*
X7Y1058D01*
X711Y1058D02*
X715Y1058D01*
X880Y1058D02*
X884Y1058D01*
X2472Y1058D02*
X2479Y1058D01*
X0Y1057D02*
X7Y1057D01*
X711Y1057D02*
X715Y1057D01*
X880Y1057D02*
X884Y1057D01*
X2472Y1057D02*
X2479Y1057D01*
X0Y1056D02*
X7Y1056D01*
X711Y1056D02*
X715Y1056D01*
X880Y1056D02*
X884Y1056D01*
X2472Y1056D02*
X2479Y1056D01*
X0Y1055D02*
X7Y1055D01*
X711Y1055D02*
X715Y1055D01*
X880Y1055D02*
X884Y1055D01*
X2472Y1055D02*
X2479Y1055D01*
X0Y1054D02*
X7Y1054D01*
X711Y1054D02*
X715Y1054D01*
X880Y1054D02*
X884Y1054D01*
X2472Y1054D02*
X2479Y1054D01*
X0Y1053D02*
X7Y1053D01*
X711Y1053D02*
X715Y1053D01*
X880Y1053D02*
X884Y1053D01*
X2472Y1053D02*
X2479Y1053D01*
X0Y1052D02*
X7Y1052D01*
X711Y1052D02*
X715Y1052D01*
X880Y1052D02*
X884Y1052D01*
X2472Y1052D02*
X2479Y1052D01*
X0Y1051D02*
X7Y1051D01*
X711Y1051D02*
X715Y1051D01*
X880Y1051D02*
X884Y1051D01*
X2472Y1051D02*
X2479Y1051D01*
X0Y1050D02*
X7Y1050D01*
X711Y1050D02*
X715Y1050D01*
X880Y1050D02*
X884Y1050D01*
X2472Y1050D02*
X2479Y1050D01*
X0Y1049D02*
X7Y1049D01*
X711Y1049D02*
X715Y1049D01*
X880Y1049D02*
X884Y1049D01*
X2472Y1049D02*
X2479Y1049D01*
X0Y1048D02*
X7Y1048D01*
X711Y1048D02*
X715Y1048D01*
X880Y1048D02*
X884Y1048D01*
X2472Y1048D02*
X2479Y1048D01*
X0Y1047D02*
X7Y1047D01*
X711Y1047D02*
X715Y1047D01*
X880Y1047D02*
X884Y1047D01*
X2472Y1047D02*
X2479Y1047D01*
X0Y1046D02*
X7Y1046D01*
X711Y1046D02*
X715Y1046D01*
X880Y1046D02*
X884Y1046D01*
X2472Y1046D02*
X2479Y1046D01*
X0Y1045D02*
X7Y1045D01*
X711Y1045D02*
X715Y1045D01*
X880Y1045D02*
X884Y1045D01*
X2472Y1045D02*
X2479Y1045D01*
X0Y1044D02*
X7Y1044D01*
X711Y1044D02*
X715Y1044D01*
X880Y1044D02*
X916Y1044D01*
X2472Y1044D02*
X2479Y1044D01*
X0Y1043D02*
X7Y1043D01*
X711Y1043D02*
X715Y1043D01*
X880Y1043D02*
X916Y1043D01*
X2472Y1043D02*
X2479Y1043D01*
X0Y1042D02*
X7Y1042D01*
X711Y1042D02*
X715Y1042D01*
X880Y1042D02*
X916Y1042D01*
X2472Y1042D02*
X2479Y1042D01*
X0Y1041D02*
X7Y1041D01*
X711Y1041D02*
X715Y1041D01*
X880Y1041D02*
X916Y1041D01*
X2472Y1041D02*
X2479Y1041D01*
X0Y1040D02*
X7Y1040D01*
X711Y1040D02*
X715Y1040D01*
X880Y1040D02*
X916Y1040D01*
X2472Y1040D02*
X2479Y1040D01*
X0Y1039D02*
X7Y1039D01*
X711Y1039D02*
X715Y1039D01*
X911Y1039D02*
X916Y1039D01*
X2472Y1039D02*
X2479Y1039D01*
X0Y1038D02*
X7Y1038D01*
X711Y1038D02*
X715Y1038D01*
X912Y1038D02*
X916Y1038D01*
X2472Y1038D02*
X2479Y1038D01*
X0Y1037D02*
X7Y1037D01*
X711Y1037D02*
X715Y1037D01*
X912Y1037D02*
X916Y1037D01*
X2472Y1037D02*
X2479Y1037D01*
X0Y1036D02*
X7Y1036D01*
X711Y1036D02*
X715Y1036D01*
X912Y1036D02*
X916Y1036D01*
X2472Y1036D02*
X2479Y1036D01*
X0Y1035D02*
X7Y1035D01*
X711Y1035D02*
X715Y1035D01*
X912Y1035D02*
X916Y1035D01*
X2472Y1035D02*
X2479Y1035D01*
X0Y1034D02*
X7Y1034D01*
X711Y1034D02*
X715Y1034D01*
X912Y1034D02*
X916Y1034D01*
X2472Y1034D02*
X2479Y1034D01*
X0Y1033D02*
X7Y1033D01*
X711Y1033D02*
X715Y1033D01*
X912Y1033D02*
X916Y1033D01*
X2472Y1033D02*
X2479Y1033D01*
X0Y1032D02*
X7Y1032D01*
X711Y1032D02*
X715Y1032D01*
X912Y1032D02*
X916Y1032D01*
X2472Y1032D02*
X2479Y1032D01*
X0Y1031D02*
X7Y1031D01*
X711Y1031D02*
X715Y1031D01*
X912Y1031D02*
X916Y1031D01*
X2472Y1031D02*
X2479Y1031D01*
X0Y1030D02*
X7Y1030D01*
X711Y1030D02*
X715Y1030D01*
X912Y1030D02*
X916Y1030D01*
X2472Y1030D02*
X2479Y1030D01*
X0Y1029D02*
X7Y1029D01*
X711Y1029D02*
X715Y1029D01*
X912Y1029D02*
X916Y1029D01*
X2472Y1029D02*
X2479Y1029D01*
X0Y1028D02*
X7Y1028D01*
X711Y1028D02*
X715Y1028D01*
X912Y1028D02*
X916Y1028D01*
X2472Y1028D02*
X2479Y1028D01*
X0Y1027D02*
X7Y1027D01*
X711Y1027D02*
X715Y1027D01*
X912Y1027D02*
X916Y1027D01*
X2472Y1027D02*
X2479Y1027D01*
X0Y1026D02*
X7Y1026D01*
X711Y1026D02*
X715Y1026D01*
X912Y1026D02*
X916Y1026D01*
X2472Y1026D02*
X2479Y1026D01*
X0Y1025D02*
X7Y1025D01*
X711Y1025D02*
X715Y1025D01*
X912Y1025D02*
X916Y1025D01*
X2472Y1025D02*
X2479Y1025D01*
X0Y1024D02*
X7Y1024D01*
X711Y1024D02*
X715Y1024D01*
X912Y1024D02*
X916Y1024D01*
X2472Y1024D02*
X2479Y1024D01*
X0Y1023D02*
X7Y1023D01*
X711Y1023D02*
X715Y1023D01*
X912Y1023D02*
X916Y1023D01*
X2472Y1023D02*
X2479Y1023D01*
X0Y1022D02*
X7Y1022D01*
X711Y1022D02*
X715Y1022D01*
X912Y1022D02*
X916Y1022D01*
X2472Y1022D02*
X2479Y1022D01*
X0Y1021D02*
X7Y1021D01*
X711Y1021D02*
X715Y1021D01*
X912Y1021D02*
X916Y1021D01*
X2472Y1021D02*
X2479Y1021D01*
X0Y1020D02*
X7Y1020D01*
X711Y1020D02*
X715Y1020D01*
X912Y1020D02*
X916Y1020D01*
X2472Y1020D02*
X2479Y1020D01*
X0Y1019D02*
X7Y1019D01*
X711Y1019D02*
X715Y1019D01*
X912Y1019D02*
X916Y1019D01*
X2472Y1019D02*
X2479Y1019D01*
X0Y1018D02*
X7Y1018D01*
X711Y1018D02*
X715Y1018D01*
X912Y1018D02*
X916Y1018D01*
X2472Y1018D02*
X2479Y1018D01*
X0Y1017D02*
X7Y1017D01*
X711Y1017D02*
X715Y1017D01*
X912Y1017D02*
X916Y1017D01*
X2472Y1017D02*
X2479Y1017D01*
X0Y1016D02*
X7Y1016D01*
X711Y1016D02*
X715Y1016D01*
X912Y1016D02*
X916Y1016D01*
X2472Y1016D02*
X2479Y1016D01*
X0Y1015D02*
X7Y1015D01*
X711Y1015D02*
X715Y1015D01*
X912Y1015D02*
X916Y1015D01*
X2472Y1015D02*
X2479Y1015D01*
X0Y1014D02*
X7Y1014D01*
X711Y1014D02*
X715Y1014D01*
X912Y1014D02*
X916Y1014D01*
X2472Y1014D02*
X2479Y1014D01*
X0Y1013D02*
X7Y1013D01*
X711Y1013D02*
X715Y1013D01*
X912Y1013D02*
X916Y1013D01*
X2472Y1013D02*
X2479Y1013D01*
X0Y1012D02*
X7Y1012D01*
X711Y1012D02*
X715Y1012D01*
X912Y1012D02*
X916Y1012D01*
X2472Y1012D02*
X2479Y1012D01*
X0Y1011D02*
X7Y1011D01*
X711Y1011D02*
X715Y1011D01*
X912Y1011D02*
X916Y1011D01*
X2472Y1011D02*
X2479Y1011D01*
X0Y1010D02*
X7Y1010D01*
X711Y1010D02*
X715Y1010D01*
X912Y1010D02*
X916Y1010D01*
X2472Y1010D02*
X2479Y1010D01*
X0Y1009D02*
X7Y1009D01*
X711Y1009D02*
X715Y1009D01*
X912Y1009D02*
X916Y1009D01*
X2472Y1009D02*
X2479Y1009D01*
X0Y1008D02*
X7Y1008D01*
X711Y1008D02*
X715Y1008D01*
X912Y1008D02*
X916Y1008D01*
X2472Y1008D02*
X2479Y1008D01*
X0Y1007D02*
X7Y1007D01*
X711Y1007D02*
X715Y1007D01*
X912Y1007D02*
X916Y1007D01*
X2472Y1007D02*
X2479Y1007D01*
X0Y1006D02*
X7Y1006D01*
X711Y1006D02*
X715Y1006D01*
X912Y1006D02*
X916Y1006D01*
X2472Y1006D02*
X2479Y1006D01*
X0Y1005D02*
X7Y1005D01*
X711Y1005D02*
X715Y1005D01*
X912Y1005D02*
X916Y1005D01*
X2472Y1005D02*
X2479Y1005D01*
X0Y1004D02*
X7Y1004D01*
X711Y1004D02*
X715Y1004D01*
X912Y1004D02*
X916Y1004D01*
X2472Y1004D02*
X2479Y1004D01*
X0Y1003D02*
X7Y1003D01*
X711Y1003D02*
X715Y1003D01*
X912Y1003D02*
X916Y1003D01*
X2472Y1003D02*
X2479Y1003D01*
X0Y1002D02*
X7Y1002D01*
X711Y1002D02*
X715Y1002D01*
X912Y1002D02*
X916Y1002D01*
X2472Y1002D02*
X2479Y1002D01*
X0Y1001D02*
X7Y1001D01*
X711Y1001D02*
X715Y1001D01*
X912Y1001D02*
X916Y1001D01*
X2472Y1001D02*
X2479Y1001D01*
X0Y1000D02*
X7Y1000D01*
X711Y1000D02*
X715Y1000D01*
X912Y1000D02*
X916Y1000D01*
X2472Y1000D02*
X2479Y1000D01*
X0Y999D02*
X7Y999D01*
X711Y999D02*
X715Y999D01*
X912Y999D02*
X916Y999D01*
X2472Y999D02*
X2479Y999D01*
X0Y998D02*
X7Y998D01*
X711Y998D02*
X715Y998D01*
X912Y998D02*
X916Y998D01*
X2472Y998D02*
X2479Y998D01*
X0Y997D02*
X7Y997D01*
X711Y997D02*
X715Y997D01*
X912Y997D02*
X916Y997D01*
X2472Y997D02*
X2479Y997D01*
X0Y996D02*
X7Y996D01*
X711Y996D02*
X715Y996D01*
X912Y996D02*
X916Y996D01*
X2472Y996D02*
X2479Y996D01*
X0Y995D02*
X7Y995D01*
X711Y995D02*
X715Y995D01*
X912Y995D02*
X916Y995D01*
X2472Y995D02*
X2479Y995D01*
X0Y994D02*
X7Y994D01*
X711Y994D02*
X715Y994D01*
X912Y994D02*
X916Y994D01*
X2472Y994D02*
X2479Y994D01*
X0Y993D02*
X7Y993D01*
X711Y993D02*
X715Y993D01*
X912Y993D02*
X916Y993D01*
X2472Y993D02*
X2479Y993D01*
X0Y992D02*
X7Y992D01*
X711Y992D02*
X715Y992D01*
X912Y992D02*
X916Y992D01*
X2472Y992D02*
X2479Y992D01*
X0Y991D02*
X7Y991D01*
X711Y991D02*
X715Y991D01*
X912Y991D02*
X916Y991D01*
X2472Y991D02*
X2479Y991D01*
X0Y990D02*
X7Y990D01*
X711Y990D02*
X715Y990D01*
X912Y990D02*
X916Y990D01*
X2472Y990D02*
X2479Y990D01*
X0Y989D02*
X7Y989D01*
X711Y989D02*
X715Y989D01*
X912Y989D02*
X916Y989D01*
X2472Y989D02*
X2479Y989D01*
X0Y988D02*
X7Y988D01*
X711Y988D02*
X715Y988D01*
X912Y988D02*
X916Y988D01*
X2472Y988D02*
X2479Y988D01*
X0Y987D02*
X7Y987D01*
X711Y987D02*
X715Y987D01*
X912Y987D02*
X916Y987D01*
X2472Y987D02*
X2479Y987D01*
X0Y986D02*
X7Y986D01*
X711Y986D02*
X715Y986D01*
X912Y986D02*
X916Y986D01*
X2472Y986D02*
X2479Y986D01*
X0Y985D02*
X7Y985D01*
X711Y985D02*
X715Y985D01*
X912Y985D02*
X916Y985D01*
X2472Y985D02*
X2479Y985D01*
X0Y984D02*
X7Y984D01*
X711Y984D02*
X715Y984D01*
X912Y984D02*
X916Y984D01*
X2472Y984D02*
X2479Y984D01*
X0Y983D02*
X7Y983D01*
X711Y983D02*
X715Y983D01*
X912Y983D02*
X916Y983D01*
X2472Y983D02*
X2479Y983D01*
X0Y982D02*
X7Y982D01*
X711Y982D02*
X715Y982D01*
X912Y982D02*
X916Y982D01*
X2472Y982D02*
X2479Y982D01*
X0Y981D02*
X7Y981D01*
X711Y981D02*
X715Y981D01*
X912Y981D02*
X916Y981D01*
X2472Y981D02*
X2479Y981D01*
X0Y980D02*
X7Y980D01*
X711Y980D02*
X715Y980D01*
X912Y980D02*
X916Y980D01*
X2472Y980D02*
X2479Y980D01*
X0Y979D02*
X7Y979D01*
X711Y979D02*
X715Y979D01*
X912Y979D02*
X916Y979D01*
X2472Y979D02*
X2479Y979D01*
X0Y978D02*
X7Y978D01*
X711Y978D02*
X715Y978D01*
X912Y978D02*
X916Y978D01*
X2472Y978D02*
X2479Y978D01*
X0Y977D02*
X7Y977D01*
X711Y977D02*
X916Y977D01*
X2472Y977D02*
X2479Y977D01*
X0Y976D02*
X7Y976D01*
X711Y976D02*
X916Y976D01*
X2472Y976D02*
X2479Y976D01*
X0Y975D02*
X7Y975D01*
X711Y975D02*
X916Y975D01*
X2472Y975D02*
X2479Y975D01*
X0Y974D02*
X7Y974D01*
X711Y974D02*
X916Y974D01*
X2472Y974D02*
X2479Y974D01*
X0Y973D02*
X7Y973D01*
X711Y973D02*
X916Y973D01*
X2472Y973D02*
X2479Y973D01*
X0Y972D02*
X7Y972D01*
X2472Y972D02*
X2479Y972D01*
X0Y971D02*
X7Y971D01*
X2472Y971D02*
X2479Y971D01*
X0Y970D02*
X7Y970D01*
X2472Y970D02*
X2479Y970D01*
X0Y969D02*
X7Y969D01*
X2472Y969D02*
X2479Y969D01*
X0Y968D02*
X7Y968D01*
X2472Y968D02*
X2479Y968D01*
X0Y967D02*
X7Y967D01*
X2472Y967D02*
X2479Y967D01*
X0Y966D02*
X7Y966D01*
X2472Y966D02*
X2479Y966D01*
X0Y965D02*
X7Y965D01*
X2472Y965D02*
X2479Y965D01*
X0Y964D02*
X7Y964D01*
X2472Y964D02*
X2479Y964D01*
X0Y963D02*
X7Y963D01*
X2472Y963D02*
X2479Y963D01*
X0Y962D02*
X7Y962D01*
X2472Y962D02*
X2479Y962D01*
X0Y961D02*
X7Y961D01*
X2472Y961D02*
X2479Y961D01*
X0Y960D02*
X7Y960D01*
X2472Y960D02*
X2479Y960D01*
X0Y959D02*
X7Y959D01*
X2472Y959D02*
X2479Y959D01*
X0Y958D02*
X7Y958D01*
X2472Y958D02*
X2479Y958D01*
X0Y957D02*
X7Y957D01*
X2472Y957D02*
X2479Y957D01*
X0Y956D02*
X7Y956D01*
X2472Y956D02*
X2479Y956D01*
X0Y955D02*
X7Y955D01*
X2472Y955D02*
X2479Y955D01*
X0Y954D02*
X7Y954D01*
X2472Y954D02*
X2479Y954D01*
X0Y953D02*
X7Y953D01*
X2472Y953D02*
X2479Y953D01*
X0Y952D02*
X7Y952D01*
X2472Y952D02*
X2479Y952D01*
X0Y951D02*
X7Y951D01*
X2472Y951D02*
X2479Y951D01*
X0Y950D02*
X7Y950D01*
X2472Y950D02*
X2479Y950D01*
X0Y949D02*
X7Y949D01*
X2472Y949D02*
X2479Y949D01*
X0Y948D02*
X7Y948D01*
X1737Y948D02*
X1746Y948D01*
X2472Y948D02*
X2479Y948D01*
X0Y947D02*
X7Y947D01*
X1737Y947D02*
X1746Y947D01*
X2472Y947D02*
X2479Y947D01*
X0Y946D02*
X7Y946D01*
X1737Y946D02*
X1746Y946D01*
X2472Y946D02*
X2479Y946D01*
X0Y945D02*
X7Y945D01*
X1737Y945D02*
X1746Y945D01*
X2472Y945D02*
X2479Y945D01*
X0Y944D02*
X7Y944D01*
X1737Y944D02*
X1746Y944D01*
X2472Y944D02*
X2479Y944D01*
X0Y943D02*
X7Y943D01*
X1737Y943D02*
X1746Y943D01*
X2472Y943D02*
X2479Y943D01*
X0Y942D02*
X7Y942D01*
X1737Y942D02*
X1746Y942D01*
X2472Y942D02*
X2479Y942D01*
X0Y941D02*
X7Y941D01*
X1737Y941D02*
X1746Y941D01*
X2472Y941D02*
X2479Y941D01*
X0Y940D02*
X7Y940D01*
X1737Y940D02*
X1746Y940D01*
X2472Y940D02*
X2479Y940D01*
X0Y939D02*
X7Y939D01*
X1737Y939D02*
X1746Y939D01*
X2472Y939D02*
X2479Y939D01*
X0Y938D02*
X7Y938D01*
X1737Y938D02*
X1746Y938D01*
X2472Y938D02*
X2479Y938D01*
X0Y937D02*
X7Y937D01*
X1737Y937D02*
X1746Y937D01*
X2472Y937D02*
X2479Y937D01*
X0Y936D02*
X7Y936D01*
X1737Y936D02*
X1746Y936D01*
X2472Y936D02*
X2479Y936D01*
X0Y935D02*
X7Y935D01*
X1737Y935D02*
X1746Y935D01*
X2472Y935D02*
X2479Y935D01*
X0Y934D02*
X7Y934D01*
X1737Y934D02*
X1746Y934D01*
X2472Y934D02*
X2479Y934D01*
X0Y933D02*
X7Y933D01*
X1737Y933D02*
X1746Y933D01*
X2472Y933D02*
X2479Y933D01*
X0Y932D02*
X7Y932D01*
X1737Y932D02*
X1746Y932D01*
X2472Y932D02*
X2479Y932D01*
X0Y931D02*
X7Y931D01*
X1737Y931D02*
X1746Y931D01*
X2472Y931D02*
X2479Y931D01*
X0Y930D02*
X7Y930D01*
X1737Y930D02*
X1746Y930D01*
X2472Y930D02*
X2479Y930D01*
X0Y929D02*
X7Y929D01*
X1737Y929D02*
X1746Y929D01*
X2472Y929D02*
X2479Y929D01*
X0Y928D02*
X7Y928D01*
X1737Y928D02*
X1746Y928D01*
X2472Y928D02*
X2479Y928D01*
X0Y927D02*
X7Y927D01*
X1737Y927D02*
X1746Y927D01*
X2472Y927D02*
X2479Y927D01*
X0Y926D02*
X7Y926D01*
X1737Y926D02*
X1746Y926D01*
X2472Y926D02*
X2479Y926D01*
X0Y925D02*
X7Y925D01*
X1737Y925D02*
X1746Y925D01*
X2472Y925D02*
X2479Y925D01*
X0Y924D02*
X7Y924D01*
X1737Y924D02*
X1746Y924D01*
X2472Y924D02*
X2479Y924D01*
X0Y923D02*
X7Y923D01*
X1737Y923D02*
X1746Y923D01*
X2472Y923D02*
X2479Y923D01*
X0Y922D02*
X7Y922D01*
X1737Y922D02*
X1746Y922D01*
X2472Y922D02*
X2479Y922D01*
X0Y921D02*
X7Y921D01*
X287Y921D02*
X296Y921D01*
X328Y921D02*
X331Y921D01*
X1737Y921D02*
X1746Y921D01*
X2472Y921D02*
X2479Y921D01*
X0Y920D02*
X7Y920D01*
X284Y920D02*
X298Y920D01*
X326Y920D02*
X332Y920D01*
X433Y920D02*
X441Y920D01*
X1737Y920D02*
X1746Y920D01*
X2472Y920D02*
X2479Y920D01*
X0Y919D02*
X7Y919D01*
X283Y919D02*
X299Y919D01*
X325Y919D02*
X332Y919D01*
X424Y919D02*
X450Y919D01*
X1737Y919D02*
X1746Y919D01*
X2472Y919D02*
X2479Y919D01*
X0Y918D02*
X7Y918D01*
X282Y918D02*
X300Y918D01*
X323Y918D02*
X332Y918D01*
X419Y918D02*
X455Y918D01*
X1737Y918D02*
X1746Y918D01*
X1824Y918D02*
X1874Y918D01*
X2472Y918D02*
X2479Y918D01*
X0Y917D02*
X7Y917D01*
X281Y917D02*
X301Y917D01*
X321Y917D02*
X332Y917D01*
X415Y917D02*
X458Y917D01*
X1737Y917D02*
X1746Y917D01*
X1822Y917D02*
X1874Y917D01*
X2472Y917D02*
X2479Y917D01*
X0Y916D02*
X7Y916D01*
X281Y916D02*
X302Y916D01*
X319Y916D02*
X332Y916D01*
X412Y916D02*
X462Y916D01*
X1737Y916D02*
X1746Y916D01*
X1821Y916D02*
X1874Y916D01*
X2472Y916D02*
X2479Y916D01*
X0Y915D02*
X7Y915D01*
X280Y915D02*
X302Y915D01*
X318Y915D02*
X331Y915D01*
X409Y915D02*
X429Y915D01*
X444Y915D02*
X465Y915D01*
X1737Y915D02*
X1746Y915D01*
X1821Y915D02*
X1874Y915D01*
X2472Y915D02*
X2479Y915D01*
X0Y914D02*
X7Y914D01*
X280Y914D02*
X287Y914D01*
X295Y914D02*
X302Y914D01*
X316Y914D02*
X329Y914D01*
X407Y914D02*
X422Y914D01*
X451Y914D02*
X467Y914D01*
X1737Y914D02*
X1746Y914D01*
X1821Y914D02*
X1874Y914D01*
X2472Y914D02*
X2479Y914D01*
X0Y913D02*
X7Y913D01*
X279Y913D02*
X286Y913D01*
X296Y913D02*
X303Y913D01*
X314Y913D02*
X327Y913D01*
X404Y913D02*
X418Y913D01*
X456Y913D02*
X469Y913D01*
X1737Y913D02*
X1746Y913D01*
X1821Y913D02*
X1874Y913D01*
X2472Y913D02*
X2479Y913D01*
X0Y912D02*
X7Y912D01*
X279Y912D02*
X285Y912D01*
X297Y912D02*
X303Y912D01*
X313Y912D02*
X326Y912D01*
X402Y912D02*
X414Y912D01*
X459Y912D02*
X472Y912D01*
X1737Y912D02*
X1746Y912D01*
X1822Y912D02*
X1874Y912D01*
X2472Y912D02*
X2479Y912D01*
X0Y911D02*
X7Y911D01*
X279Y911D02*
X285Y911D01*
X297Y911D02*
X303Y911D01*
X311Y911D02*
X324Y911D01*
X400Y911D02*
X411Y911D01*
X462Y911D02*
X473Y911D01*
X1737Y911D02*
X1746Y911D01*
X1850Y911D02*
X1857Y911D01*
X1868Y911D02*
X1874Y911D01*
X2472Y911D02*
X2479Y911D01*
X0Y910D02*
X7Y910D01*
X279Y910D02*
X285Y910D01*
X297Y910D02*
X303Y910D01*
X309Y910D02*
X322Y910D01*
X398Y910D02*
X409Y910D01*
X465Y910D02*
X475Y910D01*
X1737Y910D02*
X1746Y910D01*
X1850Y910D02*
X1856Y910D01*
X1868Y910D02*
X1874Y910D01*
X2472Y910D02*
X2479Y910D01*
X0Y909D02*
X7Y909D01*
X279Y909D02*
X285Y909D01*
X297Y909D02*
X303Y909D01*
X307Y909D02*
X321Y909D01*
X397Y909D02*
X406Y909D01*
X467Y909D02*
X477Y909D01*
X1737Y909D02*
X1746Y909D01*
X1850Y909D02*
X1856Y909D01*
X1868Y909D02*
X1874Y909D01*
X2472Y909D02*
X2479Y909D01*
X0Y908D02*
X7Y908D01*
X279Y908D02*
X285Y908D01*
X297Y908D02*
X303Y908D01*
X306Y908D02*
X319Y908D01*
X395Y908D02*
X404Y908D01*
X469Y908D02*
X479Y908D01*
X1737Y908D02*
X1746Y908D01*
X1850Y908D02*
X1856Y908D01*
X1868Y908D02*
X1874Y908D01*
X2472Y908D02*
X2479Y908D01*
X0Y907D02*
X7Y907D01*
X279Y907D02*
X285Y907D01*
X297Y907D02*
X317Y907D01*
X393Y907D02*
X402Y907D01*
X471Y907D02*
X480Y907D01*
X1737Y907D02*
X1746Y907D01*
X1850Y907D02*
X1856Y907D01*
X1868Y907D02*
X1874Y907D01*
X2472Y907D02*
X2479Y907D01*
X0Y906D02*
X7Y906D01*
X279Y906D02*
X285Y906D01*
X297Y906D02*
X315Y906D01*
X392Y906D02*
X400Y906D01*
X473Y906D02*
X482Y906D01*
X1737Y906D02*
X1746Y906D01*
X1850Y906D02*
X1856Y906D01*
X1868Y906D02*
X1874Y906D01*
X2472Y906D02*
X2479Y906D01*
X0Y905D02*
X7Y905D01*
X279Y905D02*
X285Y905D01*
X297Y905D02*
X314Y905D01*
X390Y905D02*
X398Y905D01*
X475Y905D02*
X483Y905D01*
X1737Y905D02*
X1746Y905D01*
X1848Y905D02*
X1856Y905D01*
X1868Y905D02*
X1874Y905D01*
X2472Y905D02*
X2479Y905D01*
X0Y904D02*
X7Y904D01*
X279Y904D02*
X285Y904D01*
X297Y904D02*
X312Y904D01*
X389Y904D02*
X397Y904D01*
X476Y904D02*
X484Y904D01*
X684Y904D02*
X711Y904D01*
X799Y904D02*
X817Y904D01*
X836Y904D02*
X839Y904D01*
X885Y904D02*
X912Y904D01*
X1737Y904D02*
X1746Y904D01*
X1846Y904D02*
X1856Y904D01*
X1868Y904D02*
X1874Y904D01*
X2472Y904D02*
X2479Y904D01*
X0Y903D02*
X7Y903D01*
X279Y903D02*
X285Y903D01*
X297Y903D02*
X310Y903D01*
X388Y903D02*
X395Y903D01*
X478Y903D02*
X486Y903D01*
X684Y903D02*
X713Y903D01*
X797Y903D02*
X818Y903D01*
X835Y903D02*
X840Y903D01*
X885Y903D02*
X914Y903D01*
X1737Y903D02*
X1746Y903D01*
X1845Y903D02*
X1856Y903D01*
X1868Y903D02*
X1874Y903D01*
X2472Y903D02*
X2479Y903D01*
X0Y902D02*
X7Y902D01*
X279Y902D02*
X285Y902D01*
X297Y902D02*
X309Y902D01*
X387Y902D02*
X394Y902D01*
X479Y902D02*
X487Y902D01*
X684Y902D02*
X714Y902D01*
X795Y902D02*
X818Y902D01*
X835Y902D02*
X841Y902D01*
X885Y902D02*
X915Y902D01*
X1737Y902D02*
X1746Y902D01*
X1843Y902D02*
X1856Y902D01*
X1868Y902D02*
X1874Y902D01*
X2472Y902D02*
X2479Y902D01*
X0Y901D02*
X7Y901D01*
X279Y901D02*
X285Y901D01*
X297Y901D02*
X307Y901D01*
X385Y901D02*
X392Y901D01*
X481Y901D02*
X488Y901D01*
X684Y901D02*
X715Y901D01*
X794Y901D02*
X818Y901D01*
X835Y901D02*
X841Y901D01*
X885Y901D02*
X916Y901D01*
X1737Y901D02*
X1746Y901D01*
X1841Y901D02*
X1856Y901D01*
X1868Y901D02*
X1874Y901D01*
X2472Y901D02*
X2479Y901D01*
X0Y900D02*
X7Y900D01*
X279Y900D02*
X285Y900D01*
X297Y900D02*
X305Y900D01*
X384Y900D02*
X391Y900D01*
X482Y900D02*
X489Y900D01*
X684Y900D02*
X716Y900D01*
X794Y900D02*
X818Y900D01*
X835Y900D02*
X841Y900D01*
X885Y900D02*
X917Y900D01*
X1737Y900D02*
X1746Y900D01*
X1840Y900D02*
X1856Y900D01*
X1868Y900D02*
X1874Y900D01*
X2472Y900D02*
X2479Y900D01*
X0Y899D02*
X7Y899D01*
X279Y899D02*
X285Y899D01*
X297Y899D02*
X303Y899D01*
X383Y899D02*
X390Y899D01*
X483Y899D02*
X490Y899D01*
X684Y899D02*
X717Y899D01*
X793Y899D02*
X817Y899D01*
X835Y899D02*
X841Y899D01*
X885Y899D02*
X917Y899D01*
X1737Y899D02*
X1746Y899D01*
X1838Y899D02*
X1856Y899D01*
X1868Y899D02*
X1874Y899D01*
X2472Y899D02*
X2479Y899D01*
X0Y898D02*
X7Y898D01*
X279Y898D02*
X285Y898D01*
X297Y898D02*
X303Y898D01*
X382Y898D02*
X389Y898D01*
X485Y898D02*
X491Y898D01*
X684Y898D02*
X717Y898D01*
X793Y898D02*
X815Y898D01*
X835Y898D02*
X841Y898D01*
X885Y898D02*
X918Y898D01*
X1737Y898D02*
X1746Y898D01*
X1836Y898D02*
X1856Y898D01*
X1868Y898D02*
X1874Y898D01*
X2472Y898D02*
X2479Y898D01*
X0Y897D02*
X7Y897D01*
X279Y897D02*
X285Y897D01*
X297Y897D02*
X303Y897D01*
X381Y897D02*
X387Y897D01*
X486Y897D02*
X492Y897D01*
X684Y897D02*
X690Y897D01*
X710Y897D02*
X717Y897D01*
X792Y897D02*
X799Y897D01*
X835Y897D02*
X841Y897D01*
X885Y897D02*
X891Y897D01*
X911Y897D02*
X918Y897D01*
X1737Y897D02*
X1746Y897D01*
X1835Y897D02*
X1848Y897D01*
X1850Y897D02*
X1856Y897D01*
X1868Y897D02*
X1874Y897D01*
X2472Y897D02*
X2479Y897D01*
X0Y896D02*
X7Y896D01*
X279Y896D02*
X285Y896D01*
X297Y896D02*
X303Y896D01*
X380Y896D02*
X386Y896D01*
X487Y896D02*
X493Y896D01*
X684Y896D02*
X690Y896D01*
X711Y896D02*
X718Y896D01*
X792Y896D02*
X799Y896D01*
X835Y896D02*
X841Y896D01*
X885Y896D02*
X891Y896D01*
X912Y896D02*
X918Y896D01*
X1737Y896D02*
X1746Y896D01*
X1833Y896D02*
X1846Y896D01*
X1850Y896D02*
X1856Y896D01*
X1868Y896D02*
X1874Y896D01*
X2472Y896D02*
X2479Y896D01*
X0Y895D02*
X7Y895D01*
X279Y895D02*
X285Y895D01*
X297Y895D02*
X303Y895D01*
X379Y895D02*
X385Y895D01*
X488Y895D02*
X494Y895D01*
X684Y895D02*
X690Y895D01*
X712Y895D02*
X718Y895D01*
X791Y895D02*
X798Y895D01*
X835Y895D02*
X841Y895D01*
X885Y895D02*
X891Y895D01*
X912Y895D02*
X918Y895D01*
X1737Y895D02*
X1746Y895D01*
X1831Y895D02*
X1844Y895D01*
X1850Y895D02*
X1856Y895D01*
X1868Y895D02*
X1874Y895D01*
X2472Y895D02*
X2479Y895D01*
X0Y894D02*
X7Y894D01*
X279Y894D02*
X286Y894D01*
X297Y894D02*
X303Y894D01*
X378Y894D02*
X384Y894D01*
X489Y894D02*
X495Y894D01*
X684Y894D02*
X690Y894D01*
X712Y894D02*
X718Y894D01*
X791Y894D02*
X798Y894D01*
X835Y894D02*
X841Y894D01*
X885Y894D02*
X891Y894D01*
X913Y894D02*
X919Y894D01*
X1737Y894D02*
X1746Y894D01*
X1829Y894D02*
X1842Y894D01*
X1850Y894D02*
X1856Y894D01*
X1868Y894D02*
X1874Y894D01*
X2472Y894D02*
X2479Y894D01*
X0Y893D02*
X7Y893D01*
X279Y893D02*
X331Y893D01*
X377Y893D02*
X383Y893D01*
X490Y893D02*
X496Y893D01*
X684Y893D02*
X690Y893D01*
X712Y893D02*
X718Y893D01*
X790Y893D02*
X797Y893D01*
X835Y893D02*
X841Y893D01*
X885Y893D02*
X891Y893D01*
X913Y893D02*
X919Y893D01*
X1737Y893D02*
X1746Y893D01*
X1828Y893D02*
X1841Y893D01*
X1850Y893D02*
X1857Y893D01*
X1868Y893D02*
X1874Y893D01*
X2472Y893D02*
X2479Y893D01*
X0Y892D02*
X7Y892D01*
X279Y892D02*
X332Y892D01*
X377Y892D02*
X382Y892D01*
X491Y892D02*
X497Y892D01*
X684Y892D02*
X690Y892D01*
X712Y892D02*
X718Y892D01*
X790Y892D02*
X797Y892D01*
X835Y892D02*
X841Y892D01*
X885Y892D02*
X891Y892D01*
X913Y892D02*
X919Y892D01*
X1737Y892D02*
X1746Y892D01*
X1826Y892D02*
X1839Y892D01*
X1851Y892D02*
X1857Y892D01*
X1867Y892D02*
X1874Y892D01*
X2472Y892D02*
X2479Y892D01*
X0Y891D02*
X7Y891D01*
X279Y891D02*
X332Y891D01*
X376Y891D02*
X381Y891D01*
X492Y891D02*
X498Y891D01*
X684Y891D02*
X690Y891D01*
X712Y891D02*
X718Y891D01*
X789Y891D02*
X796Y891D01*
X835Y891D02*
X841Y891D01*
X885Y891D02*
X891Y891D01*
X913Y891D02*
X919Y891D01*
X1737Y891D02*
X1746Y891D01*
X1824Y891D02*
X1837Y891D01*
X1851Y891D02*
X1858Y891D01*
X1866Y891D02*
X1874Y891D01*
X2472Y891D02*
X2479Y891D01*
X0Y890D02*
X7Y890D01*
X279Y890D02*
X332Y890D01*
X375Y890D02*
X381Y890D01*
X493Y890D02*
X499Y890D01*
X684Y890D02*
X690Y890D01*
X712Y890D02*
X718Y890D01*
X789Y890D02*
X796Y890D01*
X835Y890D02*
X841Y890D01*
X885Y890D02*
X891Y890D01*
X912Y890D02*
X918Y890D01*
X1737Y890D02*
X1746Y890D01*
X1823Y890D02*
X1836Y890D01*
X1851Y890D02*
X1873Y890D01*
X2472Y890D02*
X2479Y890D01*
X0Y889D02*
X7Y889D01*
X279Y889D02*
X332Y889D01*
X374Y889D02*
X380Y889D01*
X494Y889D02*
X499Y889D01*
X684Y889D02*
X690Y889D01*
X711Y889D02*
X718Y889D01*
X788Y889D02*
X795Y889D01*
X835Y889D02*
X841Y889D01*
X885Y889D02*
X891Y889D01*
X912Y889D02*
X918Y889D01*
X1737Y889D02*
X1746Y889D01*
X1822Y889D02*
X1834Y889D01*
X1852Y889D02*
X1873Y889D01*
X2472Y889D02*
X2479Y889D01*
X0Y888D02*
X7Y888D01*
X279Y888D02*
X331Y888D01*
X373Y888D02*
X379Y888D01*
X495Y888D02*
X500Y888D01*
X684Y888D02*
X690Y888D01*
X710Y888D02*
X717Y888D01*
X788Y888D02*
X795Y888D01*
X835Y888D02*
X841Y888D01*
X885Y888D02*
X891Y888D01*
X911Y888D02*
X918Y888D01*
X1737Y888D02*
X1746Y888D01*
X1821Y888D02*
X1832Y888D01*
X1852Y888D02*
X1872Y888D01*
X2472Y888D02*
X2479Y888D01*
X0Y887D02*
X7Y887D01*
X280Y887D02*
X329Y887D01*
X373Y887D02*
X378Y887D01*
X495Y887D02*
X501Y887D01*
X684Y887D02*
X717Y887D01*
X787Y887D02*
X794Y887D01*
X835Y887D02*
X841Y887D01*
X885Y887D02*
X918Y887D01*
X1737Y887D02*
X1746Y887D01*
X1821Y887D02*
X1830Y887D01*
X1853Y887D02*
X1871Y887D01*
X2472Y887D02*
X2479Y887D01*
X0Y886D02*
X7Y886D01*
X373Y886D02*
X377Y886D01*
X496Y886D02*
X502Y886D01*
X684Y886D02*
X717Y886D01*
X787Y886D02*
X794Y886D01*
X835Y886D02*
X841Y886D01*
X885Y886D02*
X917Y886D01*
X1737Y886D02*
X1746Y886D01*
X1821Y886D02*
X1829Y886D01*
X1854Y886D02*
X1870Y886D01*
X2472Y886D02*
X2479Y886D01*
X0Y885D02*
X7Y885D01*
X373Y885D02*
X377Y885D01*
X497Y885D02*
X502Y885D01*
X684Y885D02*
X716Y885D01*
X786Y885D02*
X793Y885D01*
X835Y885D02*
X841Y885D01*
X885Y885D02*
X917Y885D01*
X1737Y885D02*
X1746Y885D01*
X1822Y885D02*
X1827Y885D01*
X1856Y885D02*
X1869Y885D01*
X2472Y885D02*
X2479Y885D01*
X0Y884D02*
X7Y884D01*
X373Y884D02*
X377Y884D01*
X498Y884D02*
X503Y884D01*
X684Y884D02*
X715Y884D01*
X786Y884D02*
X793Y884D01*
X835Y884D02*
X841Y884D01*
X885Y884D02*
X916Y884D01*
X1737Y884D02*
X1746Y884D01*
X1823Y884D02*
X1825Y884D01*
X1858Y884D02*
X1867Y884D01*
X2472Y884D02*
X2479Y884D01*
X0Y883D02*
X7Y883D01*
X373Y883D02*
X377Y883D01*
X498Y883D02*
X504Y883D01*
X684Y883D02*
X714Y883D01*
X786Y883D02*
X792Y883D01*
X835Y883D02*
X841Y883D01*
X885Y883D02*
X915Y883D01*
X1737Y883D02*
X1746Y883D01*
X2472Y883D02*
X2479Y883D01*
X0Y882D02*
X7Y882D01*
X373Y882D02*
X377Y882D01*
X499Y882D02*
X504Y882D01*
X684Y882D02*
X713Y882D01*
X785Y882D02*
X792Y882D01*
X835Y882D02*
X841Y882D01*
X885Y882D02*
X914Y882D01*
X1737Y882D02*
X1746Y882D01*
X2472Y882D02*
X2479Y882D01*
X0Y881D02*
X7Y881D01*
X373Y881D02*
X377Y881D01*
X500Y881D02*
X505Y881D01*
X684Y881D02*
X711Y881D01*
X785Y881D02*
X791Y881D01*
X835Y881D02*
X841Y881D01*
X885Y881D02*
X912Y881D01*
X2472Y881D02*
X2479Y881D01*
X0Y880D02*
X7Y880D01*
X373Y880D02*
X377Y880D01*
X500Y880D02*
X505Y880D01*
X684Y880D02*
X690Y880D01*
X696Y880D02*
X704Y880D01*
X785Y880D02*
X791Y880D01*
X835Y880D02*
X841Y880D01*
X885Y880D02*
X891Y880D01*
X897Y880D02*
X904Y880D01*
X2472Y880D02*
X2479Y880D01*
X0Y879D02*
X7Y879D01*
X373Y879D02*
X377Y879D01*
X501Y879D02*
X504Y879D01*
X684Y879D02*
X690Y879D01*
X697Y879D02*
X704Y879D01*
X785Y879D02*
X791Y879D01*
X835Y879D02*
X841Y879D01*
X885Y879D02*
X891Y879D01*
X897Y879D02*
X905Y879D01*
X2472Y879D02*
X2479Y879D01*
X0Y878D02*
X7Y878D01*
X373Y878D02*
X377Y878D01*
X503Y878D02*
X503Y878D01*
X684Y878D02*
X690Y878D01*
X697Y878D02*
X704Y878D01*
X785Y878D02*
X791Y878D01*
X835Y878D02*
X841Y878D01*
X885Y878D02*
X891Y878D01*
X898Y878D02*
X905Y878D01*
X2472Y878D02*
X2479Y878D01*
X0Y877D02*
X7Y877D01*
X373Y877D02*
X377Y877D01*
X684Y877D02*
X690Y877D01*
X698Y877D02*
X705Y877D01*
X785Y877D02*
X791Y877D01*
X835Y877D02*
X841Y877D01*
X885Y877D02*
X891Y877D01*
X899Y877D02*
X906Y877D01*
X2472Y877D02*
X2479Y877D01*
X0Y876D02*
X7Y876D01*
X373Y876D02*
X377Y876D01*
X684Y876D02*
X690Y876D01*
X698Y876D02*
X706Y876D01*
X785Y876D02*
X791Y876D01*
X835Y876D02*
X841Y876D01*
X885Y876D02*
X891Y876D01*
X899Y876D02*
X906Y876D01*
X2472Y876D02*
X2479Y876D01*
X0Y875D02*
X7Y875D01*
X373Y875D02*
X377Y875D01*
X684Y875D02*
X690Y875D01*
X699Y875D02*
X706Y875D01*
X785Y875D02*
X791Y875D01*
X835Y875D02*
X841Y875D01*
X885Y875D02*
X891Y875D01*
X900Y875D02*
X907Y875D01*
X2472Y875D02*
X2479Y875D01*
X0Y874D02*
X7Y874D01*
X373Y874D02*
X376Y874D01*
X684Y874D02*
X690Y874D01*
X700Y874D02*
X707Y874D01*
X785Y874D02*
X791Y874D01*
X835Y874D02*
X841Y874D01*
X885Y874D02*
X891Y874D01*
X900Y874D02*
X908Y874D01*
X2472Y874D02*
X2479Y874D01*
X0Y873D02*
X7Y873D01*
X374Y873D02*
X374Y873D01*
X684Y873D02*
X690Y873D01*
X700Y873D02*
X707Y873D01*
X785Y873D02*
X792Y873D01*
X835Y873D02*
X841Y873D01*
X885Y873D02*
X891Y873D01*
X901Y873D02*
X908Y873D01*
X2472Y873D02*
X2479Y873D01*
X0Y872D02*
X7Y872D01*
X684Y872D02*
X690Y872D01*
X701Y872D02*
X708Y872D01*
X786Y872D02*
X792Y872D01*
X835Y872D02*
X841Y872D01*
X885Y872D02*
X891Y872D01*
X902Y872D02*
X909Y872D01*
X2472Y872D02*
X2479Y872D01*
X0Y871D02*
X7Y871D01*
X329Y871D02*
X330Y871D01*
X684Y871D02*
X690Y871D01*
X701Y871D02*
X709Y871D01*
X786Y871D02*
X793Y871D01*
X835Y871D02*
X841Y871D01*
X885Y871D02*
X891Y871D01*
X902Y871D02*
X909Y871D01*
X2472Y871D02*
X2479Y871D01*
X0Y870D02*
X7Y870D01*
X327Y870D02*
X332Y870D01*
X684Y870D02*
X690Y870D01*
X702Y870D02*
X709Y870D01*
X787Y870D02*
X793Y870D01*
X835Y870D02*
X841Y870D01*
X885Y870D02*
X891Y870D01*
X903Y870D02*
X910Y870D01*
X2472Y870D02*
X2479Y870D01*
X0Y869D02*
X7Y869D01*
X327Y869D02*
X332Y869D01*
X684Y869D02*
X690Y869D01*
X702Y869D02*
X710Y869D01*
X787Y869D02*
X794Y869D01*
X835Y869D02*
X841Y869D01*
X885Y869D02*
X891Y869D01*
X903Y869D02*
X910Y869D01*
X2472Y869D02*
X2479Y869D01*
X0Y868D02*
X7Y868D01*
X326Y868D02*
X332Y868D01*
X684Y868D02*
X690Y868D01*
X703Y868D02*
X710Y868D01*
X788Y868D02*
X794Y868D01*
X835Y868D02*
X841Y868D01*
X885Y868D02*
X891Y868D01*
X904Y868D02*
X911Y868D01*
X2472Y868D02*
X2479Y868D01*
X0Y867D02*
X7Y867D01*
X326Y867D02*
X332Y867D01*
X684Y867D02*
X690Y867D01*
X704Y867D02*
X711Y867D01*
X788Y867D02*
X795Y867D01*
X835Y867D02*
X841Y867D01*
X885Y867D02*
X891Y867D01*
X904Y867D02*
X912Y867D01*
X1815Y867D02*
X1819Y867D01*
X2472Y867D02*
X2479Y867D01*
X0Y866D02*
X7Y866D01*
X326Y866D02*
X332Y866D01*
X684Y866D02*
X690Y866D01*
X704Y866D02*
X711Y866D01*
X789Y866D02*
X795Y866D01*
X835Y866D02*
X841Y866D01*
X885Y866D02*
X891Y866D01*
X905Y866D02*
X912Y866D01*
X1814Y866D02*
X1819Y866D01*
X2472Y866D02*
X2479Y866D01*
X0Y865D02*
X7Y865D01*
X326Y865D02*
X332Y865D01*
X684Y865D02*
X690Y865D01*
X705Y865D02*
X712Y865D01*
X789Y865D02*
X796Y865D01*
X835Y865D02*
X841Y865D01*
X885Y865D02*
X891Y865D01*
X906Y865D02*
X913Y865D01*
X1814Y865D02*
X1820Y865D01*
X2472Y865D02*
X2479Y865D01*
X0Y864D02*
X7Y864D01*
X326Y864D02*
X332Y864D01*
X684Y864D02*
X690Y864D01*
X705Y864D02*
X713Y864D01*
X790Y864D02*
X796Y864D01*
X835Y864D02*
X841Y864D01*
X885Y864D02*
X891Y864D01*
X906Y864D02*
X913Y864D01*
X1814Y864D02*
X1820Y864D01*
X2472Y864D02*
X2479Y864D01*
X0Y863D02*
X7Y863D01*
X326Y863D02*
X332Y863D01*
X684Y863D02*
X690Y863D01*
X706Y863D02*
X713Y863D01*
X790Y863D02*
X797Y863D01*
X835Y863D02*
X841Y863D01*
X885Y863D02*
X891Y863D01*
X907Y863D02*
X914Y863D01*
X1814Y863D02*
X1820Y863D01*
X2472Y863D02*
X2479Y863D01*
X0Y862D02*
X7Y862D01*
X326Y862D02*
X332Y862D01*
X684Y862D02*
X690Y862D01*
X707Y862D02*
X714Y862D01*
X791Y862D02*
X797Y862D01*
X835Y862D02*
X841Y862D01*
X885Y862D02*
X891Y862D01*
X907Y862D02*
X915Y862D01*
X1814Y862D02*
X1820Y862D01*
X2472Y862D02*
X2479Y862D01*
X0Y861D02*
X7Y861D01*
X326Y861D02*
X332Y861D01*
X684Y861D02*
X690Y861D01*
X707Y861D02*
X714Y861D01*
X791Y861D02*
X798Y861D01*
X835Y861D02*
X841Y861D01*
X885Y861D02*
X891Y861D01*
X908Y861D02*
X915Y861D01*
X1814Y861D02*
X1820Y861D01*
X2472Y861D02*
X2479Y861D01*
X0Y860D02*
X7Y860D01*
X326Y860D02*
X332Y860D01*
X684Y860D02*
X690Y860D01*
X708Y860D02*
X715Y860D01*
X792Y860D02*
X798Y860D01*
X835Y860D02*
X841Y860D01*
X885Y860D02*
X891Y860D01*
X909Y860D02*
X916Y860D01*
X1814Y860D02*
X1820Y860D01*
X2472Y860D02*
X2479Y860D01*
X0Y859D02*
X7Y859D01*
X326Y859D02*
X332Y859D01*
X684Y859D02*
X690Y859D01*
X708Y859D02*
X716Y859D01*
X792Y859D02*
X799Y859D01*
X835Y859D02*
X841Y859D01*
X885Y859D02*
X891Y859D01*
X909Y859D02*
X916Y859D01*
X1814Y859D02*
X1820Y859D01*
X2472Y859D02*
X2479Y859D01*
X0Y858D02*
X7Y858D01*
X326Y858D02*
X332Y858D01*
X684Y858D02*
X690Y858D01*
X709Y858D02*
X716Y858D01*
X793Y858D02*
X800Y858D01*
X835Y858D02*
X841Y858D01*
X885Y858D02*
X891Y858D01*
X910Y858D02*
X917Y858D01*
X1814Y858D02*
X1820Y858D01*
X2472Y858D02*
X2479Y858D01*
X0Y857D02*
X7Y857D01*
X326Y857D02*
X332Y857D01*
X684Y857D02*
X690Y857D01*
X709Y857D02*
X717Y857D01*
X793Y857D02*
X817Y857D01*
X835Y857D02*
X867Y857D01*
X885Y857D02*
X891Y857D01*
X910Y857D02*
X917Y857D01*
X1814Y857D02*
X1820Y857D01*
X2472Y857D02*
X2479Y857D01*
X0Y856D02*
X7Y856D01*
X326Y856D02*
X332Y856D01*
X684Y856D02*
X690Y856D01*
X710Y856D02*
X717Y856D01*
X794Y856D02*
X818Y856D01*
X835Y856D02*
X868Y856D01*
X885Y856D02*
X891Y856D01*
X911Y856D02*
X918Y856D01*
X1814Y856D02*
X1820Y856D01*
X2472Y856D02*
X2479Y856D01*
X0Y855D02*
X7Y855D01*
X326Y855D02*
X332Y855D01*
X684Y855D02*
X690Y855D01*
X711Y855D02*
X718Y855D01*
X794Y855D02*
X818Y855D01*
X835Y855D02*
X868Y855D01*
X885Y855D02*
X891Y855D01*
X911Y855D02*
X918Y855D01*
X1814Y855D02*
X1820Y855D01*
X2472Y855D02*
X2479Y855D01*
X0Y854D02*
X7Y854D01*
X326Y854D02*
X332Y854D01*
X684Y854D02*
X690Y854D01*
X711Y854D02*
X718Y854D01*
X795Y854D02*
X818Y854D01*
X835Y854D02*
X868Y854D01*
X885Y854D02*
X891Y854D01*
X912Y854D02*
X918Y854D01*
X1814Y854D02*
X1820Y854D01*
X2472Y854D02*
X2479Y854D01*
X0Y853D02*
X7Y853D01*
X326Y853D02*
X332Y853D01*
X684Y853D02*
X690Y853D01*
X712Y853D02*
X717Y853D01*
X796Y853D02*
X818Y853D01*
X835Y853D02*
X868Y853D01*
X885Y853D02*
X891Y853D01*
X913Y853D02*
X918Y853D01*
X1814Y853D02*
X1820Y853D01*
X2472Y853D02*
X2479Y853D01*
X0Y852D02*
X7Y852D01*
X326Y852D02*
X332Y852D01*
X685Y852D02*
X689Y852D01*
X713Y852D02*
X717Y852D01*
X798Y852D02*
X817Y852D01*
X835Y852D02*
X867Y852D01*
X886Y852D02*
X890Y852D01*
X913Y852D02*
X918Y852D01*
X1814Y852D02*
X1820Y852D01*
X2472Y852D02*
X2479Y852D01*
X0Y851D02*
X7Y851D01*
X326Y851D02*
X332Y851D01*
X686Y851D02*
X688Y851D01*
X714Y851D02*
X715Y851D01*
X800Y851D02*
X816Y851D01*
X835Y851D02*
X866Y851D01*
X887Y851D02*
X889Y851D01*
X915Y851D02*
X916Y851D01*
X1814Y851D02*
X1820Y851D01*
X2472Y851D02*
X2479Y851D01*
X0Y850D02*
X7Y850D01*
X326Y850D02*
X332Y850D01*
X736Y850D02*
X766Y850D01*
X1814Y850D02*
X1820Y850D01*
X2472Y850D02*
X2479Y850D01*
X0Y849D02*
X7Y849D01*
X326Y849D02*
X332Y849D01*
X735Y849D02*
X767Y849D01*
X1814Y849D02*
X1820Y849D01*
X2472Y849D02*
X2479Y849D01*
X0Y848D02*
X7Y848D01*
X326Y848D02*
X332Y848D01*
X735Y848D02*
X768Y848D01*
X1814Y848D02*
X1820Y848D01*
X2472Y848D02*
X2479Y848D01*
X0Y847D02*
X7Y847D01*
X326Y847D02*
X332Y847D01*
X734Y847D02*
X768Y847D01*
X1814Y847D02*
X1820Y847D01*
X2472Y847D02*
X2479Y847D01*
X0Y846D02*
X7Y846D01*
X326Y846D02*
X332Y846D01*
X735Y846D02*
X768Y846D01*
X1814Y846D02*
X1820Y846D01*
X2472Y846D02*
X2479Y846D01*
X0Y845D02*
X7Y845D01*
X326Y845D02*
X332Y845D01*
X735Y845D02*
X767Y845D01*
X1814Y845D02*
X1820Y845D01*
X2472Y845D02*
X2479Y845D01*
X0Y844D02*
X7Y844D01*
X326Y844D02*
X332Y844D01*
X737Y844D02*
X766Y844D01*
X1814Y844D02*
X1820Y844D01*
X2472Y844D02*
X2479Y844D01*
X0Y843D02*
X7Y843D01*
X281Y843D02*
X332Y843D01*
X1814Y843D02*
X1820Y843D01*
X2472Y843D02*
X2479Y843D01*
X0Y842D02*
X7Y842D01*
X280Y842D02*
X332Y842D01*
X1814Y842D02*
X1820Y842D01*
X2472Y842D02*
X2479Y842D01*
X0Y841D02*
X7Y841D01*
X279Y841D02*
X332Y841D01*
X1814Y841D02*
X1820Y841D01*
X2472Y841D02*
X2479Y841D01*
X0Y840D02*
X7Y840D01*
X279Y840D02*
X332Y840D01*
X1814Y840D02*
X1820Y840D01*
X2472Y840D02*
X2479Y840D01*
X0Y839D02*
X7Y839D01*
X280Y839D02*
X332Y839D01*
X1814Y839D02*
X1820Y839D01*
X2472Y839D02*
X2479Y839D01*
X0Y838D02*
X7Y838D01*
X280Y838D02*
X332Y838D01*
X1814Y838D02*
X1820Y838D01*
X2472Y838D02*
X2479Y838D01*
X0Y837D02*
X7Y837D01*
X282Y837D02*
X332Y837D01*
X1814Y837D02*
X1820Y837D01*
X2472Y837D02*
X2479Y837D01*
X0Y836D02*
X7Y836D01*
X1814Y836D02*
X1820Y836D01*
X2472Y836D02*
X2479Y836D01*
X0Y835D02*
X7Y835D01*
X1814Y835D02*
X1819Y835D01*
X2472Y835D02*
X2479Y835D01*
X0Y834D02*
X7Y834D01*
X1815Y834D02*
X1818Y834D01*
X2472Y834D02*
X2479Y834D01*
X0Y833D02*
X7Y833D01*
X2472Y833D02*
X2479Y833D01*
X0Y832D02*
X7Y832D01*
X2472Y832D02*
X2479Y832D01*
X0Y831D02*
X7Y831D01*
X2472Y831D02*
X2479Y831D01*
X0Y830D02*
X7Y830D01*
X2472Y830D02*
X2479Y830D01*
X0Y829D02*
X7Y829D01*
X2472Y829D02*
X2479Y829D01*
X0Y828D02*
X7Y828D01*
X2472Y828D02*
X2479Y828D01*
X0Y827D02*
X7Y827D01*
X2472Y827D02*
X2479Y827D01*
X0Y826D02*
X7Y826D01*
X2472Y826D02*
X2479Y826D01*
X0Y825D02*
X7Y825D01*
X2472Y825D02*
X2479Y825D01*
X0Y824D02*
X7Y824D01*
X2472Y824D02*
X2479Y824D01*
X0Y823D02*
X7Y823D01*
X2472Y823D02*
X2479Y823D01*
X0Y822D02*
X7Y822D01*
X2472Y822D02*
X2479Y822D01*
X0Y821D02*
X7Y821D01*
X282Y821D02*
X282Y821D01*
X329Y821D02*
X330Y821D01*
X2472Y821D02*
X2479Y821D01*
X0Y820D02*
X7Y820D01*
X280Y820D02*
X284Y820D01*
X327Y820D02*
X331Y820D01*
X2472Y820D02*
X2479Y820D01*
X0Y819D02*
X7Y819D01*
X280Y819D02*
X285Y819D01*
X327Y819D02*
X332Y819D01*
X2472Y819D02*
X2479Y819D01*
X0Y818D02*
X7Y818D01*
X279Y818D02*
X285Y818D01*
X326Y818D02*
X332Y818D01*
X2472Y818D02*
X2479Y818D01*
X0Y817D02*
X7Y817D01*
X279Y817D02*
X285Y817D01*
X326Y817D02*
X332Y817D01*
X1821Y817D02*
X1873Y817D01*
X2472Y817D02*
X2479Y817D01*
X0Y816D02*
X7Y816D01*
X279Y816D02*
X285Y816D01*
X326Y816D02*
X332Y816D01*
X1821Y816D02*
X1873Y816D01*
X2472Y816D02*
X2479Y816D01*
X0Y815D02*
X7Y815D01*
X279Y815D02*
X285Y815D01*
X326Y815D02*
X332Y815D01*
X1821Y815D02*
X1874Y815D01*
X2472Y815D02*
X2479Y815D01*
X0Y814D02*
X7Y814D01*
X279Y814D02*
X285Y814D01*
X326Y814D02*
X332Y814D01*
X1821Y814D02*
X1874Y814D01*
X2472Y814D02*
X2479Y814D01*
X0Y813D02*
X7Y813D01*
X279Y813D02*
X285Y813D01*
X326Y813D02*
X332Y813D01*
X1821Y813D02*
X1874Y813D01*
X2472Y813D02*
X2479Y813D01*
X0Y812D02*
X7Y812D01*
X279Y812D02*
X285Y812D01*
X326Y812D02*
X332Y812D01*
X1821Y812D02*
X1873Y812D01*
X2472Y812D02*
X2479Y812D01*
X0Y811D02*
X7Y811D01*
X279Y811D02*
X285Y811D01*
X326Y811D02*
X332Y811D01*
X1821Y811D02*
X1872Y811D01*
X2472Y811D02*
X2479Y811D01*
X0Y810D02*
X7Y810D01*
X279Y810D02*
X285Y810D01*
X326Y810D02*
X332Y810D01*
X1821Y810D02*
X1827Y810D01*
X2472Y810D02*
X2479Y810D01*
X0Y809D02*
X7Y809D01*
X279Y809D02*
X285Y809D01*
X326Y809D02*
X332Y809D01*
X374Y809D02*
X374Y809D01*
X1821Y809D02*
X1827Y809D01*
X2472Y809D02*
X2479Y809D01*
X0Y808D02*
X7Y808D01*
X279Y808D02*
X285Y808D01*
X326Y808D02*
X332Y808D01*
X373Y808D02*
X376Y808D01*
X1821Y808D02*
X1827Y808D01*
X2472Y808D02*
X2479Y808D01*
X0Y807D02*
X7Y807D01*
X279Y807D02*
X285Y807D01*
X326Y807D02*
X332Y807D01*
X373Y807D02*
X377Y807D01*
X1821Y807D02*
X1827Y807D01*
X2472Y807D02*
X2479Y807D01*
X0Y806D02*
X7Y806D01*
X279Y806D02*
X285Y806D01*
X326Y806D02*
X332Y806D01*
X373Y806D02*
X377Y806D01*
X1821Y806D02*
X1827Y806D01*
X2472Y806D02*
X2479Y806D01*
X0Y805D02*
X7Y805D01*
X279Y805D02*
X285Y805D01*
X326Y805D02*
X332Y805D01*
X373Y805D02*
X377Y805D01*
X1821Y805D02*
X1827Y805D01*
X2472Y805D02*
X2479Y805D01*
X0Y804D02*
X7Y804D01*
X279Y804D02*
X285Y804D01*
X326Y804D02*
X332Y804D01*
X373Y804D02*
X377Y804D01*
X502Y804D02*
X505Y804D01*
X1821Y804D02*
X1827Y804D01*
X2472Y804D02*
X2479Y804D01*
X0Y803D02*
X7Y803D01*
X279Y803D02*
X286Y803D01*
X326Y803D02*
X332Y803D01*
X373Y803D02*
X377Y803D01*
X501Y803D02*
X505Y803D01*
X1821Y803D02*
X1827Y803D01*
X2472Y803D02*
X2479Y803D01*
X0Y802D02*
X7Y802D01*
X280Y802D02*
X287Y802D01*
X325Y802D02*
X332Y802D01*
X373Y802D02*
X377Y802D01*
X500Y802D02*
X505Y802D01*
X1821Y802D02*
X1827Y802D01*
X2472Y802D02*
X2479Y802D01*
X0Y801D02*
X7Y801D01*
X280Y801D02*
X288Y801D01*
X323Y801D02*
X332Y801D01*
X373Y801D02*
X377Y801D01*
X500Y801D02*
X505Y801D01*
X1821Y801D02*
X1827Y801D01*
X2472Y801D02*
X2479Y801D01*
X0Y800D02*
X7Y800D01*
X280Y800D02*
X290Y800D01*
X321Y800D02*
X331Y800D01*
X373Y800D02*
X377Y800D01*
X499Y800D02*
X504Y800D01*
X1821Y800D02*
X1827Y800D01*
X2472Y800D02*
X2479Y800D01*
X0Y799D02*
X7Y799D01*
X281Y799D02*
X292Y799D01*
X319Y799D02*
X331Y799D01*
X373Y799D02*
X377Y799D01*
X498Y799D02*
X504Y799D01*
X1821Y799D02*
X1827Y799D01*
X2472Y799D02*
X2479Y799D01*
X0Y798D02*
X7Y798D01*
X282Y798D02*
X294Y798D01*
X317Y798D02*
X330Y798D01*
X373Y798D02*
X377Y798D01*
X498Y798D02*
X503Y798D01*
X1821Y798D02*
X1827Y798D01*
X2472Y798D02*
X2479Y798D01*
X0Y797D02*
X7Y797D01*
X283Y797D02*
X296Y797D01*
X315Y797D02*
X329Y797D01*
X373Y797D02*
X377Y797D01*
X497Y797D02*
X502Y797D01*
X1821Y797D02*
X1827Y797D01*
X2472Y797D02*
X2479Y797D01*
X0Y796D02*
X7Y796D01*
X284Y796D02*
X298Y796D01*
X313Y796D02*
X328Y796D01*
X373Y796D02*
X377Y796D01*
X496Y796D02*
X502Y796D01*
X634Y796D02*
X700Y796D01*
X902Y796D02*
X949Y796D01*
X1821Y796D02*
X1827Y796D01*
X2472Y796D02*
X2479Y796D01*
X0Y795D02*
X7Y795D01*
X285Y795D02*
X300Y795D01*
X311Y795D02*
X326Y795D01*
X373Y795D02*
X378Y795D01*
X495Y795D02*
X501Y795D01*
X634Y795D02*
X700Y795D01*
X901Y795D02*
X949Y795D01*
X1821Y795D02*
X1827Y795D01*
X2472Y795D02*
X2479Y795D01*
X0Y794D02*
X7Y794D01*
X287Y794D02*
X303Y794D01*
X309Y794D02*
X324Y794D01*
X373Y794D02*
X379Y794D01*
X495Y794D02*
X500Y794D01*
X634Y794D02*
X700Y794D01*
X901Y794D02*
X949Y794D01*
X1821Y794D02*
X1827Y794D01*
X2472Y794D02*
X2479Y794D01*
X0Y793D02*
X7Y793D01*
X290Y793D02*
X322Y793D01*
X374Y793D02*
X380Y793D01*
X494Y793D02*
X499Y793D01*
X634Y793D02*
X700Y793D01*
X901Y793D02*
X948Y793D01*
X1821Y793D02*
X1827Y793D01*
X2472Y793D02*
X2479Y793D01*
X0Y792D02*
X7Y792D01*
X292Y792D02*
X320Y792D01*
X375Y792D02*
X381Y792D01*
X493Y792D02*
X499Y792D01*
X634Y792D02*
X700Y792D01*
X901Y792D02*
X948Y792D01*
X1821Y792D02*
X1827Y792D01*
X2472Y792D02*
X2479Y792D01*
X0Y791D02*
X7Y791D01*
X294Y791D02*
X318Y791D01*
X376Y791D02*
X381Y791D01*
X492Y791D02*
X498Y791D01*
X634Y791D02*
X700Y791D01*
X901Y791D02*
X948Y791D01*
X1821Y791D02*
X1827Y791D01*
X2472Y791D02*
X2479Y791D01*
X0Y790D02*
X7Y790D01*
X296Y790D02*
X316Y790D01*
X376Y790D02*
X382Y790D01*
X491Y790D02*
X497Y790D01*
X634Y790D02*
X700Y790D01*
X901Y790D02*
X948Y790D01*
X1821Y790D02*
X1827Y790D01*
X2472Y790D02*
X2479Y790D01*
X0Y789D02*
X7Y789D01*
X298Y789D02*
X314Y789D01*
X377Y789D02*
X383Y789D01*
X490Y789D02*
X496Y789D01*
X634Y789D02*
X700Y789D01*
X901Y789D02*
X948Y789D01*
X1821Y789D02*
X1827Y789D01*
X2472Y789D02*
X2479Y789D01*
X0Y788D02*
X7Y788D01*
X300Y788D02*
X312Y788D01*
X378Y788D02*
X384Y788D01*
X489Y788D02*
X495Y788D01*
X634Y788D02*
X700Y788D01*
X901Y788D02*
X949Y788D01*
X1821Y788D02*
X1827Y788D01*
X2472Y788D02*
X2479Y788D01*
X0Y787D02*
X7Y787D01*
X303Y787D02*
X309Y787D01*
X379Y787D02*
X385Y787D01*
X488Y787D02*
X494Y787D01*
X634Y787D02*
X700Y787D01*
X901Y787D02*
X949Y787D01*
X1821Y787D02*
X1827Y787D01*
X2472Y787D02*
X2479Y787D01*
X0Y786D02*
X7Y786D01*
X380Y786D02*
X386Y786D01*
X487Y786D02*
X493Y786D01*
X1821Y786D02*
X1827Y786D01*
X2472Y786D02*
X2479Y786D01*
X0Y785D02*
X7Y785D01*
X381Y785D02*
X388Y785D01*
X486Y785D02*
X492Y785D01*
X1821Y785D02*
X1826Y785D01*
X2472Y785D02*
X2479Y785D01*
X0Y784D02*
X7Y784D01*
X382Y784D02*
X389Y784D01*
X485Y784D02*
X491Y784D01*
X1822Y784D02*
X1826Y784D01*
X2472Y784D02*
X2479Y784D01*
X0Y783D02*
X7Y783D01*
X383Y783D02*
X390Y783D01*
X484Y783D02*
X490Y783D01*
X2472Y783D02*
X2479Y783D01*
X0Y782D02*
X7Y782D01*
X384Y782D02*
X391Y782D01*
X482Y782D02*
X489Y782D01*
X2472Y782D02*
X2479Y782D01*
X0Y781D02*
X7Y781D01*
X385Y781D02*
X393Y781D01*
X481Y781D02*
X488Y781D01*
X2472Y781D02*
X2479Y781D01*
X0Y780D02*
X7Y780D01*
X387Y780D02*
X394Y780D01*
X480Y780D02*
X487Y780D01*
X2472Y780D02*
X2479Y780D01*
X0Y779D02*
X7Y779D01*
X388Y779D02*
X396Y779D01*
X478Y779D02*
X486Y779D01*
X2472Y779D02*
X2479Y779D01*
X0Y778D02*
X7Y778D01*
X389Y778D02*
X397Y778D01*
X477Y778D02*
X484Y778D01*
X2472Y778D02*
X2479Y778D01*
X0Y777D02*
X7Y777D01*
X390Y777D02*
X399Y777D01*
X475Y777D02*
X483Y777D01*
X2472Y777D02*
X2479Y777D01*
X0Y776D02*
X7Y776D01*
X392Y776D02*
X401Y776D01*
X473Y776D02*
X482Y776D01*
X2472Y776D02*
X2479Y776D01*
X0Y775D02*
X7Y775D01*
X393Y775D02*
X402Y775D01*
X471Y775D02*
X480Y775D01*
X2472Y775D02*
X2479Y775D01*
X0Y774D02*
X7Y774D01*
X395Y774D02*
X404Y774D01*
X469Y774D02*
X478Y774D01*
X2472Y774D02*
X2479Y774D01*
X0Y773D02*
X7Y773D01*
X396Y773D02*
X407Y773D01*
X467Y773D02*
X477Y773D01*
X2472Y773D02*
X2479Y773D01*
X0Y772D02*
X7Y772D01*
X398Y772D02*
X409Y772D01*
X465Y772D02*
X475Y772D01*
X2472Y772D02*
X2479Y772D01*
X0Y771D02*
X7Y771D01*
X400Y771D02*
X411Y771D01*
X462Y771D02*
X473Y771D01*
X2472Y771D02*
X2479Y771D01*
X0Y770D02*
X7Y770D01*
X402Y770D02*
X415Y770D01*
X459Y770D02*
X471Y770D01*
X2472Y770D02*
X2479Y770D01*
X0Y769D02*
X7Y769D01*
X404Y769D02*
X418Y769D01*
X456Y769D02*
X469Y769D01*
X2472Y769D02*
X2479Y769D01*
X0Y768D02*
X7Y768D01*
X406Y768D02*
X423Y768D01*
X451Y768D02*
X467Y768D01*
X2472Y768D02*
X2479Y768D01*
X0Y767D02*
X7Y767D01*
X409Y767D02*
X430Y767D01*
X444Y767D02*
X464Y767D01*
X1828Y767D02*
X1872Y767D01*
X2472Y767D02*
X2479Y767D01*
X0Y766D02*
X7Y766D01*
X412Y766D02*
X462Y766D01*
X1826Y766D02*
X1873Y766D01*
X2472Y766D02*
X2479Y766D01*
X0Y765D02*
X7Y765D01*
X415Y765D02*
X458Y765D01*
X1825Y765D02*
X1874Y765D01*
X2472Y765D02*
X2479Y765D01*
X0Y764D02*
X7Y764D01*
X419Y764D02*
X455Y764D01*
X1824Y764D02*
X1874Y764D01*
X2472Y764D02*
X2479Y764D01*
X0Y763D02*
X7Y763D01*
X424Y763D02*
X449Y763D01*
X1823Y763D02*
X1874Y763D01*
X2472Y763D02*
X2479Y763D01*
X0Y762D02*
X7Y762D01*
X432Y762D02*
X441Y762D01*
X1822Y762D02*
X1873Y762D01*
X2472Y762D02*
X2479Y762D01*
X0Y761D02*
X7Y761D01*
X1822Y761D02*
X1872Y761D01*
X2472Y761D02*
X2479Y761D01*
X0Y760D02*
X7Y760D01*
X1821Y760D02*
X1829Y760D01*
X2472Y760D02*
X2479Y760D01*
X0Y759D02*
X7Y759D01*
X1821Y759D02*
X1828Y759D01*
X2472Y759D02*
X2479Y759D01*
X0Y758D02*
X7Y758D01*
X1821Y758D02*
X1827Y758D01*
X2472Y758D02*
X2479Y758D01*
X0Y757D02*
X7Y757D01*
X1821Y757D02*
X1827Y757D01*
X2472Y757D02*
X2479Y757D01*
X0Y756D02*
X7Y756D01*
X1821Y756D02*
X1827Y756D01*
X2472Y756D02*
X2479Y756D01*
X0Y755D02*
X7Y755D01*
X1821Y755D02*
X1827Y755D01*
X2472Y755D02*
X2479Y755D01*
X0Y754D02*
X7Y754D01*
X1821Y754D02*
X1827Y754D01*
X2472Y754D02*
X2479Y754D01*
X0Y753D02*
X7Y753D01*
X1821Y753D02*
X1827Y753D01*
X2472Y753D02*
X2479Y753D01*
X0Y752D02*
X7Y752D01*
X1821Y752D02*
X1827Y752D01*
X2472Y752D02*
X2479Y752D01*
X0Y751D02*
X7Y751D01*
X1821Y751D02*
X1827Y751D01*
X2472Y751D02*
X2479Y751D01*
X0Y750D02*
X7Y750D01*
X1821Y750D02*
X1827Y750D01*
X2472Y750D02*
X2479Y750D01*
X0Y749D02*
X7Y749D01*
X1821Y749D02*
X1827Y749D01*
X2472Y749D02*
X2479Y749D01*
X0Y748D02*
X7Y748D01*
X1821Y748D02*
X1827Y748D01*
X2472Y748D02*
X2479Y748D01*
X0Y747D02*
X7Y747D01*
X1821Y747D02*
X1827Y747D01*
X2472Y747D02*
X2479Y747D01*
X0Y746D02*
X7Y746D01*
X1821Y746D02*
X1827Y746D01*
X2472Y746D02*
X2479Y746D01*
X0Y745D02*
X7Y745D01*
X1821Y745D02*
X1827Y745D01*
X2472Y745D02*
X2479Y745D01*
X0Y744D02*
X7Y744D01*
X1821Y744D02*
X1827Y744D01*
X2472Y744D02*
X2479Y744D01*
X0Y743D02*
X7Y743D01*
X1821Y743D02*
X1827Y743D01*
X2472Y743D02*
X2479Y743D01*
X0Y742D02*
X7Y742D01*
X1821Y742D02*
X1827Y742D01*
X2472Y742D02*
X2479Y742D01*
X0Y741D02*
X7Y741D01*
X1821Y741D02*
X1828Y741D01*
X2472Y741D02*
X2479Y741D01*
X0Y740D02*
X7Y740D01*
X1822Y740D02*
X1830Y740D01*
X2472Y740D02*
X2479Y740D01*
X0Y739D02*
X7Y739D01*
X1822Y739D02*
X1873Y739D01*
X2472Y739D02*
X2479Y739D01*
X0Y738D02*
X7Y738D01*
X1822Y738D02*
X1874Y738D01*
X2472Y738D02*
X2479Y738D01*
X0Y737D02*
X7Y737D01*
X1823Y737D02*
X1874Y737D01*
X2472Y737D02*
X2479Y737D01*
X0Y736D02*
X7Y736D01*
X1824Y736D02*
X1874Y736D01*
X2472Y736D02*
X2479Y736D01*
X0Y735D02*
X7Y735D01*
X1825Y735D02*
X1874Y735D01*
X2472Y735D02*
X2479Y735D01*
X0Y734D02*
X7Y734D01*
X1827Y734D02*
X1873Y734D01*
X2472Y734D02*
X2479Y734D01*
X0Y733D02*
X7Y733D01*
X1830Y733D02*
X1871Y733D01*
X2472Y733D02*
X2479Y733D01*
X0Y732D02*
X7Y732D01*
X2472Y732D02*
X2479Y732D01*
X0Y731D02*
X7Y731D01*
X2472Y731D02*
X2479Y731D01*
X0Y730D02*
X7Y730D01*
X2472Y730D02*
X2479Y730D01*
X0Y729D02*
X7Y729D01*
X2472Y729D02*
X2479Y729D01*
X0Y728D02*
X7Y728D01*
X2472Y728D02*
X2479Y728D01*
X0Y727D02*
X7Y727D01*
X2472Y727D02*
X2479Y727D01*
X0Y726D02*
X7Y726D01*
X2472Y726D02*
X2479Y726D01*
X0Y725D02*
X7Y725D01*
X2472Y725D02*
X2479Y725D01*
X0Y724D02*
X7Y724D01*
X2472Y724D02*
X2479Y724D01*
X0Y723D02*
X7Y723D01*
X2472Y723D02*
X2479Y723D01*
X0Y722D02*
X7Y722D01*
X2472Y722D02*
X2479Y722D01*
X0Y721D02*
X7Y721D01*
X2472Y721D02*
X2479Y721D01*
X0Y720D02*
X7Y720D01*
X2472Y720D02*
X2479Y720D01*
X0Y719D02*
X7Y719D01*
X2472Y719D02*
X2479Y719D01*
X0Y718D02*
X7Y718D01*
X2472Y718D02*
X2479Y718D01*
X0Y717D02*
X7Y717D01*
X1823Y717D02*
X1825Y717D01*
X1870Y717D02*
X1872Y717D01*
X2472Y717D02*
X2479Y717D01*
X0Y716D02*
X7Y716D01*
X1822Y716D02*
X1827Y716D01*
X1868Y716D02*
X1873Y716D01*
X2472Y716D02*
X2479Y716D01*
X0Y715D02*
X7Y715D01*
X1821Y715D02*
X1828Y715D01*
X1867Y715D02*
X1874Y715D01*
X2472Y715D02*
X2479Y715D01*
X0Y714D02*
X7Y714D01*
X1821Y714D02*
X1830Y714D01*
X1865Y714D02*
X1874Y714D01*
X2472Y714D02*
X2479Y714D01*
X0Y713D02*
X7Y713D01*
X1821Y713D02*
X1832Y713D01*
X1863Y713D02*
X1874Y713D01*
X2472Y713D02*
X2479Y713D01*
X0Y712D02*
X7Y712D01*
X1821Y712D02*
X1833Y712D01*
X1861Y712D02*
X1874Y712D01*
X2472Y712D02*
X2479Y712D01*
X0Y711D02*
X7Y711D01*
X1822Y711D02*
X1835Y711D01*
X1860Y711D02*
X1873Y711D01*
X2472Y711D02*
X2479Y711D01*
X0Y710D02*
X7Y710D01*
X1824Y710D02*
X1837Y710D01*
X1858Y710D02*
X1871Y710D01*
X2472Y710D02*
X2479Y710D01*
X0Y709D02*
X7Y709D01*
X1826Y709D02*
X1839Y709D01*
X1856Y709D02*
X1869Y709D01*
X2472Y709D02*
X2479Y709D01*
X0Y708D02*
X7Y708D01*
X1827Y708D02*
X1840Y708D01*
X1855Y708D02*
X1868Y708D01*
X2472Y708D02*
X2479Y708D01*
X0Y707D02*
X7Y707D01*
X1829Y707D02*
X1842Y707D01*
X1853Y707D02*
X1866Y707D01*
X2472Y707D02*
X2479Y707D01*
X0Y706D02*
X7Y706D01*
X1831Y706D02*
X1844Y706D01*
X1851Y706D02*
X1864Y706D01*
X2472Y706D02*
X2479Y706D01*
X0Y705D02*
X7Y705D01*
X1832Y705D02*
X1845Y705D01*
X1850Y705D02*
X1863Y705D01*
X2472Y705D02*
X2479Y705D01*
X0Y704D02*
X7Y704D01*
X1834Y704D02*
X1861Y704D01*
X2472Y704D02*
X2479Y704D01*
X0Y703D02*
X7Y703D01*
X1836Y703D02*
X1859Y703D01*
X2472Y703D02*
X2479Y703D01*
X0Y702D02*
X7Y702D01*
X1838Y702D02*
X1857Y702D01*
X2472Y702D02*
X2479Y702D01*
X0Y701D02*
X7Y701D01*
X1839Y701D02*
X1856Y701D01*
X2472Y701D02*
X2479Y701D01*
X0Y700D02*
X7Y700D01*
X1841Y700D02*
X1854Y700D01*
X2472Y700D02*
X2479Y700D01*
X0Y699D02*
X7Y699D01*
X1839Y699D02*
X1856Y699D01*
X2472Y699D02*
X2479Y699D01*
X0Y698D02*
X7Y698D01*
X1838Y698D02*
X1857Y698D01*
X2472Y698D02*
X2479Y698D01*
X0Y697D02*
X7Y697D01*
X1836Y697D02*
X1859Y697D01*
X2472Y697D02*
X2479Y697D01*
X0Y696D02*
X7Y696D01*
X1834Y696D02*
X1861Y696D01*
X2472Y696D02*
X2479Y696D01*
X0Y695D02*
X7Y695D01*
X1832Y695D02*
X1845Y695D01*
X1850Y695D02*
X1863Y695D01*
X2472Y695D02*
X2479Y695D01*
X0Y694D02*
X7Y694D01*
X1831Y694D02*
X1844Y694D01*
X1851Y694D02*
X1864Y694D01*
X2472Y694D02*
X2479Y694D01*
X0Y693D02*
X7Y693D01*
X1829Y693D02*
X1842Y693D01*
X1853Y693D02*
X1866Y693D01*
X2472Y693D02*
X2479Y693D01*
X0Y692D02*
X7Y692D01*
X1827Y692D02*
X1840Y692D01*
X1855Y692D02*
X1868Y692D01*
X2472Y692D02*
X2479Y692D01*
X0Y691D02*
X7Y691D01*
X1826Y691D02*
X1839Y691D01*
X1856Y691D02*
X1869Y691D01*
X2472Y691D02*
X2479Y691D01*
X0Y690D02*
X7Y690D01*
X1824Y690D02*
X1837Y690D01*
X1858Y690D02*
X1871Y690D01*
X2472Y690D02*
X2479Y690D01*
X0Y689D02*
X7Y689D01*
X1822Y689D02*
X1835Y689D01*
X1860Y689D02*
X1873Y689D01*
X2472Y689D02*
X2479Y689D01*
X0Y688D02*
X7Y688D01*
X1821Y688D02*
X1833Y688D01*
X1862Y688D02*
X1874Y688D01*
X2472Y688D02*
X2479Y688D01*
X0Y687D02*
X7Y687D01*
X1821Y687D02*
X1832Y687D01*
X1863Y687D02*
X1874Y687D01*
X2472Y687D02*
X2479Y687D01*
X0Y686D02*
X7Y686D01*
X1821Y686D02*
X1830Y686D01*
X1865Y686D02*
X1874Y686D01*
X2472Y686D02*
X2479Y686D01*
X0Y685D02*
X7Y685D01*
X281Y685D02*
X284Y685D01*
X328Y685D02*
X331Y685D01*
X1821Y685D02*
X1828Y685D01*
X1867Y685D02*
X1874Y685D01*
X2472Y685D02*
X2479Y685D01*
X0Y684D02*
X7Y684D01*
X280Y684D02*
X285Y684D01*
X327Y684D02*
X332Y684D01*
X1822Y684D02*
X1827Y684D01*
X1868Y684D02*
X1873Y684D01*
X2472Y684D02*
X2479Y684D01*
X0Y683D02*
X7Y683D01*
X279Y683D02*
X285Y683D01*
X327Y683D02*
X332Y683D01*
X1823Y683D02*
X1825Y683D01*
X1871Y683D02*
X1872Y683D01*
X2472Y683D02*
X2479Y683D01*
X0Y682D02*
X7Y682D01*
X279Y682D02*
X285Y682D01*
X326Y682D02*
X332Y682D01*
X2472Y682D02*
X2479Y682D01*
X0Y681D02*
X7Y681D01*
X279Y681D02*
X285Y681D01*
X326Y681D02*
X332Y681D01*
X1737Y681D02*
X1746Y681D01*
X2472Y681D02*
X2479Y681D01*
X0Y680D02*
X7Y680D01*
X279Y680D02*
X285Y680D01*
X326Y680D02*
X332Y680D01*
X1737Y680D02*
X1746Y680D01*
X2472Y680D02*
X2479Y680D01*
X0Y679D02*
X7Y679D01*
X279Y679D02*
X285Y679D01*
X326Y679D02*
X332Y679D01*
X1737Y679D02*
X1746Y679D01*
X2472Y679D02*
X2479Y679D01*
X0Y678D02*
X7Y678D01*
X279Y678D02*
X285Y678D01*
X326Y678D02*
X332Y678D01*
X1737Y678D02*
X1746Y678D01*
X2472Y678D02*
X2479Y678D01*
X0Y677D02*
X7Y677D01*
X279Y677D02*
X285Y677D01*
X326Y677D02*
X332Y677D01*
X1737Y677D02*
X1746Y677D01*
X2472Y677D02*
X2479Y677D01*
X0Y676D02*
X7Y676D01*
X279Y676D02*
X285Y676D01*
X326Y676D02*
X332Y676D01*
X1737Y676D02*
X1746Y676D01*
X2472Y676D02*
X2479Y676D01*
X0Y675D02*
X7Y675D01*
X279Y675D02*
X285Y675D01*
X326Y675D02*
X332Y675D01*
X1737Y675D02*
X1746Y675D01*
X2472Y675D02*
X2479Y675D01*
X0Y674D02*
X7Y674D01*
X279Y674D02*
X285Y674D01*
X326Y674D02*
X332Y674D01*
X1737Y674D02*
X1746Y674D01*
X2472Y674D02*
X2479Y674D01*
X0Y673D02*
X7Y673D01*
X279Y673D02*
X285Y673D01*
X326Y673D02*
X332Y673D01*
X1737Y673D02*
X1746Y673D01*
X2472Y673D02*
X2479Y673D01*
X0Y672D02*
X7Y672D01*
X279Y672D02*
X285Y672D01*
X326Y672D02*
X332Y672D01*
X1737Y672D02*
X1746Y672D01*
X2472Y672D02*
X2479Y672D01*
X0Y671D02*
X7Y671D01*
X279Y671D02*
X285Y671D01*
X326Y671D02*
X332Y671D01*
X1737Y671D02*
X1746Y671D01*
X2472Y671D02*
X2479Y671D01*
X0Y670D02*
X7Y670D01*
X279Y670D02*
X285Y670D01*
X326Y670D02*
X332Y670D01*
X432Y670D02*
X442Y670D01*
X1737Y670D02*
X1746Y670D01*
X2472Y670D02*
X2479Y670D01*
X0Y669D02*
X7Y669D01*
X279Y669D02*
X285Y669D01*
X326Y669D02*
X332Y669D01*
X424Y669D02*
X450Y669D01*
X1737Y669D02*
X1746Y669D01*
X2472Y669D02*
X2479Y669D01*
X0Y668D02*
X7Y668D01*
X279Y668D02*
X285Y668D01*
X326Y668D02*
X332Y668D01*
X419Y668D02*
X455Y668D01*
X1737Y668D02*
X1746Y668D01*
X2472Y668D02*
X2479Y668D01*
X0Y667D02*
X7Y667D01*
X280Y667D02*
X286Y667D01*
X326Y667D02*
X332Y667D01*
X415Y667D02*
X459Y667D01*
X1737Y667D02*
X1746Y667D01*
X2472Y667D02*
X2479Y667D01*
X0Y666D02*
X7Y666D01*
X280Y666D02*
X287Y666D01*
X324Y666D02*
X332Y666D01*
X412Y666D02*
X462Y666D01*
X1737Y666D02*
X1746Y666D01*
X2472Y666D02*
X2479Y666D01*
X0Y665D02*
X7Y665D01*
X280Y665D02*
X289Y665D01*
X322Y665D02*
X331Y665D01*
X409Y665D02*
X429Y665D01*
X445Y665D02*
X465Y665D01*
X1737Y665D02*
X1746Y665D01*
X2472Y665D02*
X2479Y665D01*
X0Y664D02*
X7Y664D01*
X281Y664D02*
X291Y664D01*
X320Y664D02*
X331Y664D01*
X407Y664D02*
X422Y664D01*
X451Y664D02*
X467Y664D01*
X1737Y664D02*
X1746Y664D01*
X2472Y664D02*
X2479Y664D01*
X0Y663D02*
X7Y663D01*
X281Y663D02*
X293Y663D01*
X318Y663D02*
X330Y663D01*
X404Y663D02*
X417Y663D01*
X456Y663D02*
X470Y663D01*
X1737Y663D02*
X1746Y663D01*
X2472Y663D02*
X2479Y663D01*
X0Y662D02*
X7Y662D01*
X282Y662D02*
X295Y662D01*
X316Y662D02*
X329Y662D01*
X402Y662D02*
X414Y662D01*
X459Y662D02*
X472Y662D01*
X1737Y662D02*
X1746Y662D01*
X2472Y662D02*
X2479Y662D01*
X0Y661D02*
X7Y661D01*
X283Y661D02*
X297Y661D01*
X314Y661D02*
X328Y661D01*
X400Y661D02*
X411Y661D01*
X462Y661D02*
X474Y661D01*
X1737Y661D02*
X1746Y661D01*
X2472Y661D02*
X2479Y661D01*
X0Y660D02*
X7Y660D01*
X285Y660D02*
X299Y660D01*
X312Y660D02*
X327Y660D01*
X398Y660D02*
X409Y660D01*
X465Y660D02*
X475Y660D01*
X1737Y660D02*
X1746Y660D01*
X2472Y660D02*
X2479Y660D01*
X0Y659D02*
X7Y659D01*
X286Y659D02*
X301Y659D01*
X310Y659D02*
X325Y659D01*
X396Y659D02*
X406Y659D01*
X467Y659D02*
X477Y659D01*
X1737Y659D02*
X1746Y659D01*
X2472Y659D02*
X2479Y659D01*
X0Y658D02*
X7Y658D01*
X288Y658D02*
X323Y658D01*
X395Y658D02*
X404Y658D01*
X469Y658D02*
X479Y658D01*
X1737Y658D02*
X1746Y658D01*
X2472Y658D02*
X2479Y658D01*
X0Y657D02*
X7Y657D01*
X290Y657D02*
X321Y657D01*
X393Y657D02*
X402Y657D01*
X471Y657D02*
X480Y657D01*
X1737Y657D02*
X1746Y657D01*
X2472Y657D02*
X2479Y657D01*
X0Y656D02*
X7Y656D01*
X292Y656D02*
X319Y656D01*
X392Y656D02*
X400Y656D01*
X473Y656D02*
X482Y656D01*
X1737Y656D02*
X1746Y656D01*
X2472Y656D02*
X2479Y656D01*
X0Y655D02*
X7Y655D01*
X294Y655D02*
X317Y655D01*
X390Y655D02*
X398Y655D01*
X475Y655D02*
X483Y655D01*
X1737Y655D02*
X1746Y655D01*
X2472Y655D02*
X2479Y655D01*
X0Y654D02*
X7Y654D01*
X296Y654D02*
X315Y654D01*
X389Y654D02*
X397Y654D01*
X477Y654D02*
X485Y654D01*
X1737Y654D02*
X1746Y654D01*
X2472Y654D02*
X2479Y654D01*
X0Y653D02*
X7Y653D01*
X299Y653D02*
X313Y653D01*
X388Y653D02*
X395Y653D01*
X478Y653D02*
X486Y653D01*
X1737Y653D02*
X1746Y653D01*
X2472Y653D02*
X2479Y653D01*
X0Y652D02*
X7Y652D01*
X301Y652D02*
X311Y652D01*
X387Y652D02*
X394Y652D01*
X479Y652D02*
X487Y652D01*
X1737Y652D02*
X1746Y652D01*
X2472Y652D02*
X2479Y652D01*
X0Y651D02*
X7Y651D01*
X385Y651D02*
X392Y651D01*
X481Y651D02*
X488Y651D01*
X1737Y651D02*
X1746Y651D01*
X2472Y651D02*
X2479Y651D01*
X0Y650D02*
X7Y650D01*
X384Y650D02*
X391Y650D01*
X482Y650D02*
X489Y650D01*
X1737Y650D02*
X1746Y650D01*
X2472Y650D02*
X2479Y650D01*
X0Y649D02*
X7Y649D01*
X383Y649D02*
X390Y649D01*
X484Y649D02*
X490Y649D01*
X1737Y649D02*
X1746Y649D01*
X2472Y649D02*
X2479Y649D01*
X0Y648D02*
X7Y648D01*
X382Y648D02*
X389Y648D01*
X485Y648D02*
X491Y648D01*
X1737Y648D02*
X1746Y648D01*
X2472Y648D02*
X2479Y648D01*
X0Y647D02*
X7Y647D01*
X381Y647D02*
X387Y647D01*
X486Y647D02*
X492Y647D01*
X1737Y647D02*
X1746Y647D01*
X2472Y647D02*
X2479Y647D01*
X0Y646D02*
X7Y646D01*
X380Y646D02*
X386Y646D01*
X487Y646D02*
X493Y646D01*
X634Y646D02*
X700Y646D01*
X902Y646D02*
X949Y646D01*
X1737Y646D02*
X1746Y646D01*
X2472Y646D02*
X2479Y646D01*
X0Y645D02*
X7Y645D01*
X379Y645D02*
X385Y645D01*
X488Y645D02*
X494Y645D01*
X634Y645D02*
X700Y645D01*
X901Y645D02*
X949Y645D01*
X1737Y645D02*
X1746Y645D01*
X2472Y645D02*
X2479Y645D01*
X0Y644D02*
X7Y644D01*
X378Y644D02*
X384Y644D01*
X489Y644D02*
X495Y644D01*
X634Y644D02*
X700Y644D01*
X901Y644D02*
X948Y644D01*
X1737Y644D02*
X1746Y644D01*
X2472Y644D02*
X2479Y644D01*
X0Y643D02*
X7Y643D01*
X377Y643D02*
X383Y643D01*
X490Y643D02*
X496Y643D01*
X634Y643D02*
X700Y643D01*
X901Y643D02*
X948Y643D01*
X1737Y643D02*
X1746Y643D01*
X2472Y643D02*
X2479Y643D01*
X0Y642D02*
X7Y642D01*
X377Y642D02*
X382Y642D01*
X491Y642D02*
X497Y642D01*
X634Y642D02*
X700Y642D01*
X901Y642D02*
X948Y642D01*
X1737Y642D02*
X1746Y642D01*
X2472Y642D02*
X2479Y642D01*
X0Y641D02*
X7Y641D01*
X376Y641D02*
X381Y641D01*
X492Y641D02*
X498Y641D01*
X634Y641D02*
X700Y641D01*
X901Y641D02*
X948Y641D01*
X1737Y641D02*
X1746Y641D01*
X2472Y641D02*
X2479Y641D01*
X0Y640D02*
X7Y640D01*
X375Y640D02*
X380Y640D01*
X493Y640D02*
X499Y640D01*
X634Y640D02*
X700Y640D01*
X901Y640D02*
X948Y640D01*
X1737Y640D02*
X1746Y640D01*
X2472Y640D02*
X2479Y640D01*
X0Y639D02*
X7Y639D01*
X374Y639D02*
X380Y639D01*
X494Y639D02*
X499Y639D01*
X634Y639D02*
X700Y639D01*
X901Y639D02*
X948Y639D01*
X1737Y639D02*
X1746Y639D01*
X2472Y639D02*
X2479Y639D01*
X0Y638D02*
X7Y638D01*
X373Y638D02*
X379Y638D01*
X495Y638D02*
X500Y638D01*
X634Y638D02*
X700Y638D01*
X901Y638D02*
X949Y638D01*
X1737Y638D02*
X1746Y638D01*
X2472Y638D02*
X2479Y638D01*
X0Y637D02*
X7Y637D01*
X373Y637D02*
X378Y637D01*
X495Y637D02*
X501Y637D01*
X634Y637D02*
X700Y637D01*
X901Y637D02*
X949Y637D01*
X1737Y637D02*
X1746Y637D01*
X2472Y637D02*
X2479Y637D01*
X0Y636D02*
X7Y636D01*
X373Y636D02*
X377Y636D01*
X496Y636D02*
X502Y636D01*
X1737Y636D02*
X1746Y636D01*
X2472Y636D02*
X2479Y636D01*
X0Y635D02*
X7Y635D01*
X281Y635D02*
X332Y635D01*
X373Y635D02*
X377Y635D01*
X497Y635D02*
X502Y635D01*
X1737Y635D02*
X1746Y635D01*
X2472Y635D02*
X2479Y635D01*
X0Y634D02*
X7Y634D01*
X280Y634D02*
X332Y634D01*
X373Y634D02*
X377Y634D01*
X498Y634D02*
X503Y634D01*
X1737Y634D02*
X1746Y634D01*
X2472Y634D02*
X2479Y634D01*
X0Y633D02*
X7Y633D01*
X279Y633D02*
X332Y633D01*
X373Y633D02*
X377Y633D01*
X498Y633D02*
X504Y633D01*
X2472Y633D02*
X2479Y633D01*
X0Y632D02*
X7Y632D01*
X279Y632D02*
X332Y632D01*
X373Y632D02*
X377Y632D01*
X499Y632D02*
X504Y632D01*
X2472Y632D02*
X2479Y632D01*
X0Y631D02*
X7Y631D01*
X279Y631D02*
X332Y631D01*
X373Y631D02*
X377Y631D01*
X500Y631D02*
X505Y631D01*
X2472Y631D02*
X2479Y631D01*
X0Y630D02*
X7Y630D01*
X280Y630D02*
X332Y630D01*
X373Y630D02*
X377Y630D01*
X500Y630D02*
X505Y630D01*
X2472Y630D02*
X2479Y630D01*
X0Y629D02*
X7Y629D01*
X281Y629D02*
X332Y629D01*
X373Y629D02*
X377Y629D01*
X501Y629D02*
X504Y629D01*
X2472Y629D02*
X2479Y629D01*
X0Y628D02*
X7Y628D01*
X320Y628D02*
X332Y628D01*
X373Y628D02*
X377Y628D01*
X2472Y628D02*
X2479Y628D01*
X0Y627D02*
X7Y627D01*
X318Y627D02*
X332Y627D01*
X373Y627D02*
X377Y627D01*
X2472Y627D02*
X2479Y627D01*
X0Y626D02*
X7Y626D01*
X316Y626D02*
X332Y626D01*
X373Y626D02*
X377Y626D01*
X2472Y626D02*
X2479Y626D01*
X0Y625D02*
X7Y625D01*
X313Y625D02*
X330Y625D01*
X373Y625D02*
X377Y625D01*
X2472Y625D02*
X2479Y625D01*
X0Y624D02*
X7Y624D01*
X311Y624D02*
X328Y624D01*
X373Y624D02*
X376Y624D01*
X2472Y624D02*
X2479Y624D01*
X0Y623D02*
X7Y623D01*
X309Y623D02*
X325Y623D01*
X374Y623D02*
X374Y623D01*
X2472Y623D02*
X2479Y623D01*
X0Y622D02*
X7Y622D01*
X306Y622D02*
X323Y622D01*
X2472Y622D02*
X2479Y622D01*
X0Y621D02*
X7Y621D01*
X304Y621D02*
X321Y621D01*
X2472Y621D02*
X2479Y621D01*
X0Y620D02*
X7Y620D01*
X302Y620D02*
X319Y620D01*
X2472Y620D02*
X2479Y620D01*
X0Y619D02*
X7Y619D01*
X300Y619D02*
X316Y619D01*
X2472Y619D02*
X2479Y619D01*
X0Y618D02*
X7Y618D01*
X297Y618D02*
X314Y618D01*
X2472Y618D02*
X2479Y618D01*
X0Y617D02*
X7Y617D01*
X295Y617D02*
X312Y617D01*
X2472Y617D02*
X2479Y617D01*
X0Y616D02*
X7Y616D01*
X293Y616D02*
X309Y616D01*
X2472Y616D02*
X2479Y616D01*
X0Y615D02*
X7Y615D01*
X291Y615D02*
X307Y615D01*
X2472Y615D02*
X2479Y615D01*
X0Y614D02*
X7Y614D01*
X288Y614D02*
X305Y614D01*
X2472Y614D02*
X2479Y614D01*
X0Y613D02*
X7Y613D01*
X286Y613D02*
X303Y613D01*
X2472Y613D02*
X2479Y613D01*
X0Y612D02*
X7Y612D01*
X284Y612D02*
X300Y612D01*
X2472Y612D02*
X2479Y612D01*
X0Y611D02*
X7Y611D01*
X281Y611D02*
X298Y611D01*
X2472Y611D02*
X2479Y611D01*
X0Y610D02*
X7Y610D01*
X279Y610D02*
X296Y610D01*
X2472Y610D02*
X2479Y610D01*
X0Y609D02*
X7Y609D01*
X279Y609D02*
X293Y609D01*
X2472Y609D02*
X2479Y609D01*
X0Y608D02*
X7Y608D01*
X279Y608D02*
X292Y608D01*
X2472Y608D02*
X2479Y608D01*
X0Y607D02*
X7Y607D01*
X279Y607D02*
X331Y607D01*
X2472Y607D02*
X2479Y607D01*
X0Y606D02*
X7Y606D01*
X279Y606D02*
X332Y606D01*
X2472Y606D02*
X2479Y606D01*
X0Y605D02*
X7Y605D01*
X279Y605D02*
X332Y605D01*
X2472Y605D02*
X2479Y605D01*
X0Y604D02*
X7Y604D01*
X279Y604D02*
X332Y604D01*
X2472Y604D02*
X2479Y604D01*
X0Y603D02*
X7Y603D01*
X279Y603D02*
X332Y603D01*
X2472Y603D02*
X2479Y603D01*
X0Y602D02*
X7Y602D01*
X279Y602D02*
X331Y602D01*
X2472Y602D02*
X2479Y602D01*
X0Y601D02*
X7Y601D01*
X279Y601D02*
X330Y601D01*
X2472Y601D02*
X2479Y601D01*
X0Y600D02*
X7Y600D01*
X2472Y600D02*
X2479Y600D01*
X0Y599D02*
X7Y599D01*
X2472Y599D02*
X2479Y599D01*
X0Y598D02*
X7Y598D01*
X2472Y598D02*
X2479Y598D01*
X0Y597D02*
X7Y597D01*
X2472Y597D02*
X2479Y597D01*
X0Y596D02*
X7Y596D01*
X2472Y596D02*
X2479Y596D01*
X0Y595D02*
X7Y595D01*
X2472Y595D02*
X2479Y595D01*
X0Y594D02*
X7Y594D01*
X2472Y594D02*
X2479Y594D01*
X0Y593D02*
X7Y593D01*
X2472Y593D02*
X2479Y593D01*
X0Y592D02*
X7Y592D01*
X2472Y592D02*
X2479Y592D01*
X0Y591D02*
X7Y591D01*
X2472Y591D02*
X2479Y591D01*
X0Y590D02*
X7Y590D01*
X2472Y590D02*
X2479Y590D01*
X0Y589D02*
X7Y589D01*
X2472Y589D02*
X2479Y589D01*
X0Y588D02*
X7Y588D01*
X2472Y588D02*
X2479Y588D01*
X0Y587D02*
X7Y587D01*
X2472Y587D02*
X2479Y587D01*
X0Y586D02*
X7Y586D01*
X2472Y586D02*
X2479Y586D01*
X0Y585D02*
X7Y585D01*
X282Y585D02*
X289Y585D01*
X2472Y585D02*
X2479Y585D01*
X0Y584D02*
X7Y584D01*
X280Y584D02*
X290Y584D01*
X2472Y584D02*
X2479Y584D01*
X0Y583D02*
X7Y583D01*
X280Y583D02*
X292Y583D01*
X2472Y583D02*
X2479Y583D01*
X0Y582D02*
X7Y582D01*
X279Y582D02*
X293Y582D01*
X2472Y582D02*
X2479Y582D01*
X0Y581D02*
X7Y581D01*
X279Y581D02*
X294Y581D01*
X2472Y581D02*
X2479Y581D01*
X0Y580D02*
X7Y580D01*
X280Y580D02*
X296Y580D01*
X2472Y580D02*
X2479Y580D01*
X0Y579D02*
X7Y579D01*
X281Y579D02*
X297Y579D01*
X2472Y579D02*
X2479Y579D01*
X0Y578D02*
X7Y578D01*
X287Y578D02*
X298Y578D01*
X2472Y578D02*
X2479Y578D01*
X0Y577D02*
X7Y577D01*
X289Y577D02*
X299Y577D01*
X2472Y577D02*
X2479Y577D01*
X0Y576D02*
X7Y576D01*
X290Y576D02*
X301Y576D01*
X2472Y576D02*
X2479Y576D01*
X0Y575D02*
X7Y575D01*
X291Y575D02*
X302Y575D01*
X2472Y575D02*
X2479Y575D01*
X0Y574D02*
X7Y574D01*
X293Y574D02*
X303Y574D01*
X2472Y574D02*
X2479Y574D01*
X0Y573D02*
X7Y573D01*
X294Y573D02*
X304Y573D01*
X2472Y573D02*
X2479Y573D01*
X0Y572D02*
X7Y572D01*
X295Y572D02*
X306Y572D01*
X2472Y572D02*
X2479Y572D01*
X0Y571D02*
X7Y571D01*
X297Y571D02*
X330Y571D01*
X2472Y571D02*
X2479Y571D01*
X0Y570D02*
X7Y570D01*
X298Y570D02*
X332Y570D01*
X2472Y570D02*
X2479Y570D01*
X0Y569D02*
X7Y569D01*
X299Y569D02*
X332Y569D01*
X669Y569D02*
X695Y569D01*
X775Y569D02*
X797Y569D01*
X822Y569D02*
X824Y569D01*
X849Y569D02*
X852Y569D01*
X870Y569D02*
X878Y569D01*
X899Y569D02*
X902Y569D01*
X935Y569D02*
X952Y569D01*
X2472Y569D02*
X2479Y569D01*
X0Y568D02*
X7Y568D01*
X300Y568D02*
X332Y568D01*
X669Y568D02*
X698Y568D01*
X773Y568D02*
X799Y568D01*
X821Y568D02*
X825Y568D01*
X848Y568D02*
X853Y568D01*
X870Y568D02*
X879Y568D01*
X898Y568D02*
X903Y568D01*
X933Y568D02*
X953Y568D01*
X2472Y568D02*
X2479Y568D01*
X0Y567D02*
X7Y567D01*
X299Y567D02*
X332Y567D01*
X669Y567D02*
X699Y567D01*
X772Y567D02*
X800Y567D01*
X820Y567D02*
X826Y567D01*
X848Y567D02*
X853Y567D01*
X870Y567D02*
X879Y567D01*
X898Y567D02*
X903Y567D01*
X932Y567D02*
X954Y567D01*
X2472Y567D02*
X2479Y567D01*
X0Y566D02*
X7Y566D01*
X298Y566D02*
X332Y566D01*
X669Y566D02*
X700Y566D01*
X771Y566D02*
X801Y566D01*
X820Y566D02*
X826Y566D01*
X847Y566D02*
X853Y566D01*
X870Y566D02*
X880Y566D01*
X898Y566D02*
X904Y566D01*
X930Y566D02*
X954Y566D01*
X2472Y566D02*
X2479Y566D01*
X0Y565D02*
X7Y565D01*
X297Y565D02*
X331Y565D01*
X669Y565D02*
X701Y565D01*
X770Y565D02*
X802Y565D01*
X820Y565D02*
X826Y565D01*
X847Y565D02*
X853Y565D01*
X870Y565D02*
X880Y565D01*
X898Y565D02*
X904Y565D01*
X930Y565D02*
X954Y565D01*
X2472Y565D02*
X2479Y565D01*
X0Y564D02*
X7Y564D01*
X296Y564D02*
X306Y564D01*
X669Y564D02*
X701Y564D01*
X770Y564D02*
X802Y564D01*
X820Y564D02*
X826Y564D01*
X847Y564D02*
X853Y564D01*
X870Y564D02*
X881Y564D01*
X898Y564D02*
X904Y564D01*
X929Y564D02*
X953Y564D01*
X2472Y564D02*
X2479Y564D01*
X0Y563D02*
X7Y563D01*
X294Y563D02*
X305Y563D01*
X669Y563D02*
X702Y563D01*
X770Y563D02*
X803Y563D01*
X820Y563D02*
X826Y563D01*
X847Y563D02*
X853Y563D01*
X870Y563D02*
X881Y563D01*
X898Y563D02*
X904Y563D01*
X929Y563D02*
X952Y563D01*
X2472Y563D02*
X2479Y563D01*
X0Y562D02*
X7Y562D01*
X293Y562D02*
X303Y562D01*
X669Y562D02*
X675Y562D01*
X695Y562D02*
X702Y562D01*
X770Y562D02*
X776Y562D01*
X796Y562D02*
X803Y562D01*
X820Y562D02*
X826Y562D01*
X847Y562D02*
X853Y562D01*
X870Y562D02*
X882Y562D01*
X898Y562D02*
X904Y562D01*
X928Y562D02*
X936Y562D01*
X2472Y562D02*
X2479Y562D01*
X0Y561D02*
X7Y561D01*
X292Y561D02*
X302Y561D01*
X669Y561D02*
X675Y561D01*
X696Y561D02*
X703Y561D01*
X770Y561D02*
X776Y561D01*
X797Y561D02*
X803Y561D01*
X820Y561D02*
X826Y561D01*
X847Y561D02*
X853Y561D01*
X870Y561D02*
X882Y561D01*
X898Y561D02*
X904Y561D01*
X928Y561D02*
X935Y561D01*
X2472Y561D02*
X2479Y561D01*
X0Y560D02*
X7Y560D01*
X290Y560D02*
X301Y560D01*
X669Y560D02*
X675Y560D01*
X697Y560D02*
X703Y560D01*
X770Y560D02*
X777Y560D01*
X797Y560D02*
X803Y560D01*
X820Y560D02*
X827Y560D01*
X846Y560D02*
X853Y560D01*
X870Y560D02*
X882Y560D01*
X898Y560D02*
X904Y560D01*
X927Y560D02*
X934Y560D01*
X2472Y560D02*
X2479Y560D01*
X0Y559D02*
X7Y559D01*
X289Y559D02*
X300Y559D01*
X374Y559D02*
X374Y559D01*
X669Y559D02*
X675Y559D01*
X697Y559D02*
X703Y559D01*
X770Y559D02*
X777Y559D01*
X797Y559D02*
X803Y559D01*
X820Y559D02*
X828Y559D01*
X846Y559D02*
X853Y559D01*
X870Y559D02*
X883Y559D01*
X898Y559D02*
X904Y559D01*
X927Y559D02*
X934Y559D01*
X2472Y559D02*
X2479Y559D01*
X0Y558D02*
X7Y558D01*
X288Y558D02*
X298Y558D01*
X373Y558D02*
X376Y558D01*
X669Y558D02*
X675Y558D01*
X697Y558D02*
X703Y558D01*
X771Y558D02*
X778Y558D01*
X798Y558D02*
X802Y558D01*
X820Y558D02*
X828Y558D01*
X845Y558D02*
X853Y558D01*
X870Y558D02*
X883Y558D01*
X898Y558D02*
X904Y558D01*
X926Y558D02*
X933Y558D01*
X2472Y558D02*
X2479Y558D01*
X0Y557D02*
X7Y557D01*
X281Y557D02*
X297Y557D01*
X373Y557D02*
X377Y557D01*
X669Y557D02*
X675Y557D01*
X697Y557D02*
X703Y557D01*
X771Y557D02*
X779Y557D01*
X799Y557D02*
X801Y557D01*
X821Y557D02*
X829Y557D01*
X844Y557D02*
X852Y557D01*
X870Y557D02*
X884Y557D01*
X898Y557D02*
X904Y557D01*
X926Y557D02*
X932Y557D01*
X2472Y557D02*
X2479Y557D01*
X0Y556D02*
X7Y556D01*
X280Y556D02*
X296Y556D01*
X373Y556D02*
X377Y556D01*
X669Y556D02*
X675Y556D01*
X697Y556D02*
X703Y556D01*
X772Y556D02*
X780Y556D01*
X822Y556D02*
X830Y556D01*
X843Y556D02*
X851Y556D01*
X870Y556D02*
X884Y556D01*
X898Y556D02*
X904Y556D01*
X925Y556D02*
X932Y556D01*
X2472Y556D02*
X2479Y556D01*
X0Y555D02*
X7Y555D01*
X279Y555D02*
X295Y555D01*
X373Y555D02*
X377Y555D01*
X669Y555D02*
X675Y555D01*
X697Y555D02*
X703Y555D01*
X773Y555D02*
X781Y555D01*
X823Y555D02*
X831Y555D01*
X842Y555D02*
X850Y555D01*
X870Y555D02*
X876Y555D01*
X878Y555D02*
X885Y555D01*
X898Y555D02*
X904Y555D01*
X925Y555D02*
X931Y555D01*
X2472Y555D02*
X2479Y555D01*
X0Y554D02*
X7Y554D01*
X279Y554D02*
X293Y554D01*
X373Y554D02*
X377Y554D01*
X502Y554D02*
X505Y554D01*
X669Y554D02*
X675Y554D01*
X696Y554D02*
X703Y554D01*
X773Y554D02*
X781Y554D01*
X824Y554D02*
X832Y554D01*
X842Y554D02*
X850Y554D01*
X870Y554D02*
X876Y554D01*
X878Y554D02*
X885Y554D01*
X898Y554D02*
X904Y554D01*
X924Y554D02*
X931Y554D01*
X2472Y554D02*
X2479Y554D01*
X0Y553D02*
X7Y553D01*
X279Y553D02*
X292Y553D01*
X373Y553D02*
X377Y553D01*
X501Y553D02*
X505Y553D01*
X669Y553D02*
X675Y553D01*
X696Y553D02*
X703Y553D01*
X774Y553D02*
X782Y553D01*
X824Y553D02*
X832Y553D01*
X841Y553D02*
X849Y553D01*
X870Y553D02*
X876Y553D01*
X879Y553D02*
X885Y553D01*
X898Y553D02*
X904Y553D01*
X924Y553D02*
X930Y553D01*
X2472Y553D02*
X2479Y553D01*
X0Y552D02*
X7Y552D01*
X280Y552D02*
X291Y552D01*
X373Y552D02*
X377Y552D01*
X500Y552D02*
X505Y552D01*
X669Y552D02*
X675Y552D01*
X694Y552D02*
X702Y552D01*
X775Y552D02*
X783Y552D01*
X825Y552D02*
X833Y552D01*
X840Y552D02*
X848Y552D01*
X870Y552D02*
X876Y552D01*
X879Y552D02*
X886Y552D01*
X898Y552D02*
X904Y552D01*
X923Y552D02*
X930Y552D01*
X2472Y552D02*
X2479Y552D01*
X0Y551D02*
X7Y551D01*
X281Y551D02*
X289Y551D01*
X373Y551D02*
X377Y551D01*
X500Y551D02*
X505Y551D01*
X669Y551D02*
X702Y551D01*
X776Y551D02*
X784Y551D01*
X826Y551D02*
X834Y551D01*
X839Y551D02*
X847Y551D01*
X870Y551D02*
X876Y551D01*
X880Y551D02*
X886Y551D01*
X898Y551D02*
X904Y551D01*
X923Y551D02*
X929Y551D01*
X2472Y551D02*
X2479Y551D01*
X0Y550D02*
X7Y550D01*
X373Y550D02*
X377Y550D01*
X499Y550D02*
X504Y550D01*
X669Y550D02*
X701Y550D01*
X776Y550D02*
X784Y550D01*
X827Y550D02*
X835Y550D01*
X839Y550D02*
X846Y550D01*
X870Y550D02*
X876Y550D01*
X880Y550D02*
X887Y550D01*
X898Y550D02*
X904Y550D01*
X922Y550D02*
X929Y550D01*
X2472Y550D02*
X2479Y550D01*
X0Y549D02*
X7Y549D01*
X373Y549D02*
X377Y549D01*
X498Y549D02*
X503Y549D01*
X669Y549D02*
X701Y549D01*
X777Y549D02*
X785Y549D01*
X828Y549D02*
X835Y549D01*
X838Y549D02*
X846Y549D01*
X870Y549D02*
X876Y549D01*
X881Y549D02*
X887Y549D01*
X898Y549D02*
X904Y549D01*
X922Y549D02*
X928Y549D01*
X2472Y549D02*
X2479Y549D01*
X0Y548D02*
X7Y548D01*
X373Y548D02*
X377Y548D01*
X498Y548D02*
X503Y548D01*
X669Y548D02*
X700Y548D01*
X778Y548D02*
X786Y548D01*
X828Y548D02*
X845Y548D01*
X870Y548D02*
X876Y548D01*
X881Y548D02*
X888Y548D01*
X898Y548D02*
X904Y548D01*
X921Y548D02*
X928Y548D01*
X2472Y548D02*
X2479Y548D01*
X0Y547D02*
X7Y547D01*
X373Y547D02*
X377Y547D01*
X497Y547D02*
X502Y547D01*
X669Y547D02*
X699Y547D01*
X779Y547D02*
X787Y547D01*
X829Y547D02*
X844Y547D01*
X870Y547D02*
X876Y547D01*
X881Y547D02*
X888Y547D01*
X898Y547D02*
X904Y547D01*
X921Y547D02*
X927Y547D01*
X2472Y547D02*
X2479Y547D01*
X0Y546D02*
X7Y546D01*
X373Y546D02*
X377Y546D01*
X496Y546D02*
X502Y546D01*
X669Y546D02*
X697Y546D01*
X780Y546D02*
X788Y546D01*
X830Y546D02*
X843Y546D01*
X870Y546D02*
X876Y546D01*
X882Y546D02*
X889Y546D01*
X898Y546D02*
X904Y546D01*
X921Y546D02*
X927Y546D01*
X2472Y546D02*
X2479Y546D01*
X0Y545D02*
X7Y545D01*
X373Y545D02*
X378Y545D01*
X495Y545D02*
X501Y545D01*
X669Y545D02*
X694Y545D01*
X780Y545D02*
X788Y545D01*
X831Y545D02*
X843Y545D01*
X870Y545D02*
X876Y545D01*
X882Y545D02*
X889Y545D01*
X898Y545D02*
X904Y545D01*
X920Y545D02*
X927Y545D01*
X2472Y545D02*
X2479Y545D01*
X0Y544D02*
X7Y544D01*
X373Y544D02*
X379Y544D01*
X495Y544D02*
X500Y544D01*
X669Y544D02*
X675Y544D01*
X681Y544D02*
X689Y544D01*
X781Y544D02*
X789Y544D01*
X831Y544D02*
X842Y544D01*
X870Y544D02*
X876Y544D01*
X883Y544D02*
X889Y544D01*
X898Y544D02*
X904Y544D01*
X920Y544D02*
X926Y544D01*
X2472Y544D02*
X2479Y544D01*
X0Y543D02*
X7Y543D01*
X374Y543D02*
X380Y543D01*
X494Y543D02*
X499Y543D01*
X669Y543D02*
X675Y543D01*
X682Y543D02*
X689Y543D01*
X782Y543D02*
X790Y543D01*
X832Y543D02*
X841Y543D01*
X870Y543D02*
X876Y543D01*
X883Y543D02*
X890Y543D01*
X898Y543D02*
X904Y543D01*
X920Y543D02*
X926Y543D01*
X2472Y543D02*
X2479Y543D01*
X0Y542D02*
X7Y542D01*
X375Y542D02*
X381Y542D01*
X493Y542D02*
X499Y542D01*
X669Y542D02*
X675Y542D01*
X683Y542D02*
X690Y542D01*
X783Y542D02*
X791Y542D01*
X833Y542D02*
X840Y542D01*
X870Y542D02*
X876Y542D01*
X884Y542D02*
X890Y542D01*
X898Y542D02*
X904Y542D01*
X920Y542D02*
X926Y542D01*
X2472Y542D02*
X2479Y542D01*
X0Y541D02*
X7Y541D01*
X376Y541D02*
X381Y541D01*
X492Y541D02*
X498Y541D01*
X669Y541D02*
X675Y541D01*
X683Y541D02*
X690Y541D01*
X783Y541D02*
X791Y541D01*
X834Y541D02*
X840Y541D01*
X870Y541D02*
X876Y541D01*
X884Y541D02*
X891Y541D01*
X898Y541D02*
X904Y541D01*
X920Y541D02*
X926Y541D01*
X2472Y541D02*
X2479Y541D01*
X0Y540D02*
X7Y540D01*
X377Y540D02*
X382Y540D01*
X491Y540D02*
X497Y540D01*
X669Y540D02*
X675Y540D01*
X684Y540D02*
X691Y540D01*
X784Y540D02*
X792Y540D01*
X834Y540D02*
X840Y540D01*
X870Y540D02*
X876Y540D01*
X884Y540D02*
X891Y540D01*
X898Y540D02*
X904Y540D01*
X920Y540D02*
X927Y540D01*
X2472Y540D02*
X2479Y540D01*
X0Y539D02*
X7Y539D01*
X377Y539D02*
X383Y539D01*
X490Y539D02*
X496Y539D01*
X669Y539D02*
X675Y539D01*
X684Y539D02*
X692Y539D01*
X785Y539D02*
X793Y539D01*
X834Y539D02*
X840Y539D01*
X870Y539D02*
X876Y539D01*
X885Y539D02*
X892Y539D01*
X898Y539D02*
X904Y539D01*
X921Y539D02*
X927Y539D01*
X2472Y539D02*
X2479Y539D01*
X0Y538D02*
X7Y538D01*
X378Y538D02*
X384Y538D01*
X489Y538D02*
X495Y538D01*
X669Y538D02*
X675Y538D01*
X685Y538D02*
X692Y538D01*
X786Y538D02*
X794Y538D01*
X834Y538D02*
X840Y538D01*
X870Y538D02*
X876Y538D01*
X885Y538D02*
X892Y538D01*
X898Y538D02*
X904Y538D01*
X921Y538D02*
X927Y538D01*
X2472Y538D02*
X2479Y538D01*
X0Y537D02*
X7Y537D01*
X379Y537D02*
X385Y537D01*
X488Y537D02*
X494Y537D01*
X669Y537D02*
X675Y537D01*
X686Y537D02*
X693Y537D01*
X787Y537D02*
X795Y537D01*
X834Y537D02*
X840Y537D01*
X870Y537D02*
X876Y537D01*
X886Y537D02*
X892Y537D01*
X898Y537D02*
X904Y537D01*
X921Y537D02*
X928Y537D01*
X2472Y537D02*
X2479Y537D01*
X0Y536D02*
X7Y536D01*
X380Y536D02*
X387Y536D01*
X487Y536D02*
X493Y536D01*
X669Y536D02*
X675Y536D01*
X686Y536D02*
X693Y536D01*
X787Y536D02*
X795Y536D01*
X834Y536D02*
X840Y536D01*
X870Y536D02*
X876Y536D01*
X886Y536D02*
X893Y536D01*
X898Y536D02*
X904Y536D01*
X922Y536D02*
X928Y536D01*
X2472Y536D02*
X2479Y536D01*
X0Y535D02*
X7Y535D01*
X381Y535D02*
X388Y535D01*
X486Y535D02*
X492Y535D01*
X669Y535D02*
X675Y535D01*
X687Y535D02*
X694Y535D01*
X788Y535D02*
X796Y535D01*
X834Y535D02*
X840Y535D01*
X870Y535D02*
X876Y535D01*
X887Y535D02*
X893Y535D01*
X898Y535D02*
X904Y535D01*
X922Y535D02*
X929Y535D01*
X2472Y535D02*
X2479Y535D01*
X0Y534D02*
X7Y534D01*
X285Y534D02*
X290Y534D01*
X322Y534D02*
X328Y534D01*
X382Y534D02*
X389Y534D01*
X485Y534D02*
X491Y534D01*
X669Y534D02*
X675Y534D01*
X687Y534D02*
X694Y534D01*
X789Y534D02*
X797Y534D01*
X834Y534D02*
X840Y534D01*
X870Y534D02*
X876Y534D01*
X887Y534D02*
X894Y534D01*
X898Y534D02*
X904Y534D01*
X923Y534D02*
X929Y534D01*
X2472Y534D02*
X2479Y534D01*
X0Y533D02*
X7Y533D01*
X283Y533D02*
X291Y533D01*
X320Y533D02*
X330Y533D01*
X383Y533D02*
X390Y533D01*
X483Y533D02*
X490Y533D01*
X669Y533D02*
X675Y533D01*
X688Y533D02*
X695Y533D01*
X790Y533D02*
X798Y533D01*
X834Y533D02*
X840Y533D01*
X870Y533D02*
X876Y533D01*
X888Y533D02*
X894Y533D01*
X898Y533D02*
X904Y533D01*
X923Y533D02*
X930Y533D01*
X2472Y533D02*
X2479Y533D01*
X0Y532D02*
X7Y532D01*
X282Y532D02*
X291Y532D01*
X319Y532D02*
X331Y532D01*
X384Y532D02*
X391Y532D01*
X482Y532D02*
X489Y532D01*
X669Y532D02*
X675Y532D01*
X688Y532D02*
X696Y532D01*
X790Y532D02*
X798Y532D01*
X834Y532D02*
X840Y532D01*
X870Y532D02*
X876Y532D01*
X888Y532D02*
X895Y532D01*
X898Y532D02*
X904Y532D01*
X924Y532D02*
X930Y532D01*
X2472Y532D02*
X2479Y532D01*
X0Y531D02*
X7Y531D01*
X281Y531D02*
X291Y531D01*
X318Y531D02*
X331Y531D01*
X385Y531D02*
X393Y531D01*
X481Y531D02*
X488Y531D01*
X669Y531D02*
X675Y531D01*
X689Y531D02*
X696Y531D01*
X791Y531D02*
X799Y531D01*
X834Y531D02*
X840Y531D01*
X870Y531D02*
X876Y531D01*
X888Y531D02*
X895Y531D01*
X898Y531D02*
X904Y531D01*
X924Y531D02*
X931Y531D01*
X2472Y531D02*
X2479Y531D01*
X0Y530D02*
X7Y530D01*
X280Y530D02*
X291Y530D01*
X316Y530D02*
X332Y530D01*
X387Y530D02*
X394Y530D01*
X480Y530D02*
X487Y530D01*
X669Y530D02*
X675Y530D01*
X690Y530D02*
X697Y530D01*
X792Y530D02*
X800Y530D01*
X834Y530D02*
X840Y530D01*
X870Y530D02*
X876Y530D01*
X889Y530D02*
X896Y530D01*
X898Y530D02*
X904Y530D01*
X925Y530D02*
X931Y530D01*
X2472Y530D02*
X2479Y530D01*
X0Y529D02*
X7Y529D01*
X280Y529D02*
X290Y529D01*
X315Y529D02*
X332Y529D01*
X388Y529D02*
X396Y529D01*
X478Y529D02*
X485Y529D01*
X669Y529D02*
X675Y529D01*
X690Y529D02*
X697Y529D01*
X793Y529D02*
X801Y529D01*
X834Y529D02*
X840Y529D01*
X870Y529D02*
X876Y529D01*
X889Y529D02*
X896Y529D01*
X898Y529D02*
X904Y529D01*
X925Y529D02*
X932Y529D01*
X2472Y529D02*
X2479Y529D01*
X0Y528D02*
X7Y528D01*
X280Y528D02*
X288Y528D01*
X314Y528D02*
X332Y528D01*
X389Y528D02*
X397Y528D01*
X476Y528D02*
X484Y528D01*
X669Y528D02*
X675Y528D01*
X691Y528D02*
X698Y528D01*
X772Y528D02*
X773Y528D01*
X793Y528D02*
X801Y528D01*
X834Y528D02*
X840Y528D01*
X870Y528D02*
X876Y528D01*
X890Y528D02*
X904Y528D01*
X926Y528D02*
X932Y528D01*
X2472Y528D02*
X2479Y528D01*
X0Y527D02*
X7Y527D01*
X279Y527D02*
X286Y527D01*
X313Y527D02*
X323Y527D01*
X326Y527D02*
X332Y527D01*
X391Y527D02*
X399Y527D01*
X475Y527D02*
X483Y527D01*
X669Y527D02*
X675Y527D01*
X691Y527D02*
X699Y527D01*
X771Y527D02*
X775Y527D01*
X794Y527D02*
X802Y527D01*
X834Y527D02*
X840Y527D01*
X870Y527D02*
X876Y527D01*
X890Y527D02*
X904Y527D01*
X926Y527D02*
X933Y527D01*
X2472Y527D02*
X2479Y527D01*
X0Y526D02*
X7Y526D01*
X279Y526D02*
X285Y526D01*
X311Y526D02*
X322Y526D01*
X326Y526D02*
X332Y526D01*
X392Y526D02*
X401Y526D01*
X473Y526D02*
X481Y526D01*
X669Y526D02*
X675Y526D01*
X692Y526D02*
X699Y526D01*
X770Y526D02*
X775Y526D01*
X795Y526D02*
X803Y526D01*
X834Y526D02*
X840Y526D01*
X870Y526D02*
X876Y526D01*
X891Y526D02*
X904Y526D01*
X927Y526D02*
X933Y526D01*
X2472Y526D02*
X2479Y526D01*
X0Y525D02*
X7Y525D01*
X279Y525D02*
X285Y525D01*
X310Y525D02*
X321Y525D01*
X326Y525D02*
X332Y525D01*
X393Y525D02*
X403Y525D01*
X471Y525D02*
X480Y525D01*
X669Y525D02*
X675Y525D01*
X693Y525D02*
X700Y525D01*
X770Y525D02*
X776Y525D01*
X796Y525D02*
X803Y525D01*
X834Y525D02*
X840Y525D01*
X870Y525D02*
X876Y525D01*
X891Y525D02*
X904Y525D01*
X927Y525D02*
X934Y525D01*
X2472Y525D02*
X2479Y525D01*
X0Y524D02*
X7Y524D01*
X279Y524D02*
X285Y524D01*
X309Y524D02*
X319Y524D01*
X326Y524D02*
X332Y524D01*
X395Y524D02*
X404Y524D01*
X469Y524D02*
X478Y524D01*
X669Y524D02*
X675Y524D01*
X693Y524D02*
X700Y524D01*
X770Y524D02*
X776Y524D01*
X797Y524D02*
X803Y524D01*
X834Y524D02*
X840Y524D01*
X870Y524D02*
X876Y524D01*
X891Y524D02*
X904Y524D01*
X928Y524D02*
X934Y524D01*
X2472Y524D02*
X2479Y524D01*
X0Y523D02*
X7Y523D01*
X279Y523D02*
X285Y523D01*
X307Y523D02*
X318Y523D01*
X326Y523D02*
X332Y523D01*
X397Y523D02*
X407Y523D01*
X467Y523D02*
X477Y523D01*
X669Y523D02*
X675Y523D01*
X694Y523D02*
X701Y523D01*
X770Y523D02*
X776Y523D01*
X797Y523D02*
X803Y523D01*
X834Y523D02*
X840Y523D01*
X870Y523D02*
X876Y523D01*
X892Y523D02*
X904Y523D01*
X928Y523D02*
X935Y523D01*
X2472Y523D02*
X2479Y523D01*
X0Y522D02*
X7Y522D01*
X279Y522D02*
X285Y522D01*
X306Y522D02*
X317Y522D01*
X326Y522D02*
X332Y522D01*
X398Y522D02*
X409Y522D01*
X465Y522D02*
X475Y522D01*
X669Y522D02*
X675Y522D01*
X694Y522D02*
X701Y522D01*
X770Y522D02*
X803Y522D01*
X834Y522D02*
X840Y522D01*
X870Y522D02*
X876Y522D01*
X892Y522D02*
X904Y522D01*
X929Y522D02*
X952Y522D01*
X2472Y522D02*
X2479Y522D01*
X0Y521D02*
X7Y521D01*
X279Y521D02*
X285Y521D01*
X305Y521D02*
X315Y521D01*
X326Y521D02*
X332Y521D01*
X400Y521D02*
X412Y521D01*
X462Y521D02*
X473Y521D01*
X669Y521D02*
X675Y521D01*
X695Y521D02*
X702Y521D01*
X770Y521D02*
X803Y521D01*
X834Y521D02*
X840Y521D01*
X870Y521D02*
X876Y521D01*
X893Y521D02*
X904Y521D01*
X929Y521D02*
X953Y521D01*
X2472Y521D02*
X2479Y521D01*
X0Y520D02*
X7Y520D01*
X279Y520D02*
X285Y520D01*
X304Y520D02*
X314Y520D01*
X326Y520D02*
X332Y520D01*
X402Y520D02*
X415Y520D01*
X459Y520D02*
X471Y520D01*
X669Y520D02*
X675Y520D01*
X695Y520D02*
X702Y520D01*
X771Y520D02*
X802Y520D01*
X834Y520D02*
X840Y520D01*
X870Y520D02*
X876Y520D01*
X893Y520D02*
X904Y520D01*
X930Y520D02*
X954Y520D01*
X2472Y520D02*
X2479Y520D01*
X0Y519D02*
X7Y519D01*
X279Y519D02*
X285Y519D01*
X302Y519D02*
X313Y519D01*
X326Y519D02*
X332Y519D01*
X404Y519D02*
X418Y519D01*
X456Y519D02*
X469Y519D01*
X669Y519D02*
X675Y519D01*
X696Y519D02*
X703Y519D01*
X772Y519D02*
X802Y519D01*
X834Y519D02*
X840Y519D01*
X870Y519D02*
X876Y519D01*
X894Y519D02*
X904Y519D01*
X930Y519D02*
X954Y519D01*
X2472Y519D02*
X2479Y519D01*
X0Y518D02*
X7Y518D01*
X279Y518D02*
X285Y518D01*
X301Y518D02*
X312Y518D01*
X326Y518D02*
X332Y518D01*
X407Y518D02*
X423Y518D01*
X451Y518D02*
X467Y518D01*
X669Y518D02*
X675Y518D01*
X697Y518D02*
X703Y518D01*
X773Y518D02*
X801Y518D01*
X834Y518D02*
X839Y518D01*
X870Y518D02*
X876Y518D01*
X894Y518D02*
X904Y518D01*
X932Y518D02*
X954Y518D01*
X2472Y518D02*
X2479Y518D01*
X0Y517D02*
X7Y517D01*
X279Y517D02*
X285Y517D01*
X300Y517D02*
X310Y517D01*
X326Y517D02*
X332Y517D01*
X409Y517D02*
X430Y517D01*
X443Y517D02*
X464Y517D01*
X670Y517D02*
X675Y517D01*
X697Y517D02*
X702Y517D01*
X774Y517D02*
X800Y517D01*
X834Y517D02*
X839Y517D01*
X871Y517D02*
X875Y517D01*
X895Y517D02*
X904Y517D01*
X933Y517D02*
X953Y517D01*
X2472Y517D02*
X2479Y517D01*
X0Y516D02*
X7Y516D01*
X279Y516D02*
X285Y516D01*
X298Y516D02*
X309Y516D01*
X326Y516D02*
X332Y516D01*
X412Y516D02*
X461Y516D01*
X671Y516D02*
X674Y516D01*
X698Y516D02*
X701Y516D01*
X776Y516D02*
X798Y516D01*
X835Y516D02*
X838Y516D01*
X872Y516D02*
X874Y516D01*
X895Y516D02*
X904Y516D01*
X935Y516D02*
X952Y516D01*
X2472Y516D02*
X2479Y516D01*
X0Y515D02*
X7Y515D01*
X279Y515D02*
X285Y515D01*
X297Y515D02*
X308Y515D01*
X326Y515D02*
X332Y515D01*
X415Y515D02*
X458Y515D01*
X722Y515D02*
X751Y515D01*
X2472Y515D02*
X2479Y515D01*
X0Y514D02*
X7Y514D01*
X279Y514D02*
X285Y514D01*
X296Y514D02*
X306Y514D01*
X326Y514D02*
X332Y514D01*
X419Y514D02*
X454Y514D01*
X720Y514D02*
X752Y514D01*
X2472Y514D02*
X2479Y514D01*
X0Y513D02*
X7Y513D01*
X279Y513D02*
X285Y513D01*
X295Y513D02*
X305Y513D01*
X326Y513D02*
X332Y513D01*
X424Y513D02*
X449Y513D01*
X720Y513D02*
X753Y513D01*
X2472Y513D02*
X2479Y513D01*
X0Y512D02*
X7Y512D01*
X279Y512D02*
X285Y512D01*
X293Y512D02*
X304Y512D01*
X326Y512D02*
X332Y512D01*
X433Y512D02*
X440Y512D01*
X719Y512D02*
X753Y512D01*
X2472Y512D02*
X2479Y512D01*
X0Y511D02*
X7Y511D01*
X279Y511D02*
X285Y511D01*
X292Y511D02*
X303Y511D01*
X326Y511D02*
X332Y511D01*
X720Y511D02*
X753Y511D01*
X2472Y511D02*
X2479Y511D01*
X0Y510D02*
X7Y510D01*
X279Y510D02*
X285Y510D01*
X291Y510D02*
X301Y510D01*
X326Y510D02*
X332Y510D01*
X720Y510D02*
X752Y510D01*
X2472Y510D02*
X2479Y510D01*
X0Y509D02*
X7Y509D01*
X279Y509D02*
X285Y509D01*
X289Y509D02*
X300Y509D01*
X326Y509D02*
X332Y509D01*
X721Y509D02*
X751Y509D01*
X2472Y509D02*
X2479Y509D01*
X0Y508D02*
X7Y508D01*
X279Y508D02*
X285Y508D01*
X288Y508D02*
X299Y508D01*
X325Y508D02*
X332Y508D01*
X2472Y508D02*
X2479Y508D01*
X0Y507D02*
X7Y507D01*
X279Y507D02*
X297Y507D01*
X322Y507D02*
X332Y507D01*
X2472Y507D02*
X2479Y507D01*
X0Y506D02*
X7Y506D01*
X280Y506D02*
X296Y506D01*
X321Y506D02*
X332Y506D01*
X2472Y506D02*
X2479Y506D01*
X0Y505D02*
X7Y505D01*
X280Y505D02*
X295Y505D01*
X321Y505D02*
X331Y505D01*
X2472Y505D02*
X2479Y505D01*
X0Y504D02*
X7Y504D01*
X281Y504D02*
X294Y504D01*
X321Y504D02*
X330Y504D01*
X2472Y504D02*
X2479Y504D01*
X0Y503D02*
X7Y503D01*
X281Y503D02*
X292Y503D01*
X321Y503D02*
X329Y503D01*
X2472Y503D02*
X2479Y503D01*
X0Y502D02*
X7Y502D01*
X282Y502D02*
X291Y502D01*
X321Y502D02*
X328Y502D01*
X2472Y502D02*
X2479Y502D01*
X0Y501D02*
X7Y501D01*
X284Y501D02*
X289Y501D01*
X322Y501D02*
X326Y501D01*
X2472Y501D02*
X2479Y501D01*
X0Y500D02*
X7Y500D01*
X2472Y500D02*
X2479Y500D01*
X0Y499D02*
X7Y499D01*
X2472Y499D02*
X2479Y499D01*
X0Y498D02*
X7Y498D01*
X2472Y498D02*
X2479Y498D01*
X0Y497D02*
X7Y497D01*
X2472Y497D02*
X2479Y497D01*
X0Y496D02*
X7Y496D01*
X2472Y496D02*
X2479Y496D01*
X0Y495D02*
X7Y495D01*
X2472Y495D02*
X2479Y495D01*
X0Y494D02*
X7Y494D01*
X2472Y494D02*
X2479Y494D01*
X0Y493D02*
X7Y493D01*
X2472Y493D02*
X2479Y493D01*
X0Y492D02*
X7Y492D01*
X2472Y492D02*
X2479Y492D01*
X0Y491D02*
X7Y491D01*
X2472Y491D02*
X2479Y491D01*
X0Y490D02*
X7Y490D01*
X2472Y490D02*
X2479Y490D01*
X0Y489D02*
X7Y489D01*
X2472Y489D02*
X2479Y489D01*
X0Y488D02*
X7Y488D01*
X2472Y488D02*
X2479Y488D01*
X0Y487D02*
X7Y487D01*
X2472Y487D02*
X2479Y487D01*
X0Y486D02*
X7Y486D01*
X2472Y486D02*
X2479Y486D01*
X0Y485D02*
X7Y485D01*
X2472Y485D02*
X2479Y485D01*
X0Y484D02*
X7Y484D01*
X2472Y484D02*
X2479Y484D01*
X0Y483D02*
X7Y483D01*
X2472Y483D02*
X2479Y483D01*
X0Y482D02*
X7Y482D01*
X2472Y482D02*
X2479Y482D01*
X0Y481D02*
X7Y481D01*
X2472Y481D02*
X2479Y481D01*
X0Y480D02*
X7Y480D01*
X2472Y480D02*
X2479Y480D01*
X0Y479D02*
X7Y479D01*
X2472Y479D02*
X2479Y479D01*
X0Y478D02*
X7Y478D01*
X2472Y478D02*
X2479Y478D01*
X0Y477D02*
X7Y477D01*
X2472Y477D02*
X2479Y477D01*
X0Y476D02*
X7Y476D01*
X2472Y476D02*
X2479Y476D01*
X0Y475D02*
X7Y475D01*
X2472Y475D02*
X2479Y475D01*
X0Y474D02*
X7Y474D01*
X2472Y474D02*
X2479Y474D01*
X0Y473D02*
X7Y473D01*
X2472Y473D02*
X2479Y473D01*
X0Y472D02*
X7Y472D01*
X2472Y472D02*
X2479Y472D01*
X0Y471D02*
X7Y471D01*
X2472Y471D02*
X2479Y471D01*
X0Y470D02*
X7Y470D01*
X2472Y470D02*
X2479Y470D01*
X0Y469D02*
X7Y469D01*
X2472Y469D02*
X2479Y469D01*
X0Y468D02*
X7Y468D01*
X2472Y468D02*
X2479Y468D01*
X0Y467D02*
X7Y467D01*
X2472Y467D02*
X2479Y467D01*
X0Y466D02*
X7Y466D01*
X2472Y466D02*
X2479Y466D01*
X0Y465D02*
X7Y465D01*
X2472Y465D02*
X2479Y465D01*
X0Y464D02*
X7Y464D01*
X2472Y464D02*
X2479Y464D01*
X0Y463D02*
X7Y463D01*
X2472Y463D02*
X2479Y463D01*
X0Y462D02*
X7Y462D01*
X2472Y462D02*
X2479Y462D01*
X0Y461D02*
X7Y461D01*
X2472Y461D02*
X2479Y461D01*
X0Y460D02*
X7Y460D01*
X2472Y460D02*
X2479Y460D01*
X0Y459D02*
X7Y459D01*
X2472Y459D02*
X2479Y459D01*
X0Y458D02*
X7Y458D01*
X2472Y458D02*
X2479Y458D01*
X0Y457D02*
X7Y457D01*
X2472Y457D02*
X2479Y457D01*
X0Y456D02*
X7Y456D01*
X2472Y456D02*
X2479Y456D01*
X0Y455D02*
X7Y455D01*
X2472Y455D02*
X2479Y455D01*
X0Y454D02*
X7Y454D01*
X2472Y454D02*
X2479Y454D01*
X0Y453D02*
X7Y453D01*
X2472Y453D02*
X2479Y453D01*
X0Y452D02*
X7Y452D01*
X2472Y452D02*
X2479Y452D01*
X0Y451D02*
X7Y451D01*
X2472Y451D02*
X2479Y451D01*
X0Y450D02*
X7Y450D01*
X2472Y450D02*
X2479Y450D01*
X0Y449D02*
X7Y449D01*
X2472Y449D02*
X2479Y449D01*
X0Y448D02*
X7Y448D01*
X2472Y448D02*
X2479Y448D01*
X0Y447D02*
X7Y447D01*
X2472Y447D02*
X2479Y447D01*
X0Y446D02*
X7Y446D01*
X2472Y446D02*
X2479Y446D01*
X0Y445D02*
X7Y445D01*
X2472Y445D02*
X2479Y445D01*
X0Y444D02*
X7Y444D01*
X2472Y444D02*
X2479Y444D01*
X0Y443D02*
X7Y443D01*
X2472Y443D02*
X2479Y443D01*
X0Y442D02*
X7Y442D01*
X2472Y442D02*
X2479Y442D01*
X0Y441D02*
X7Y441D01*
X2472Y441D02*
X2479Y441D01*
X0Y440D02*
X7Y440D01*
X2472Y440D02*
X2479Y440D01*
X0Y439D02*
X7Y439D01*
X2472Y439D02*
X2479Y439D01*
X0Y438D02*
X7Y438D01*
X2472Y438D02*
X2479Y438D01*
X0Y437D02*
X7Y437D01*
X2472Y437D02*
X2479Y437D01*
X0Y436D02*
X7Y436D01*
X2472Y436D02*
X2479Y436D01*
X0Y435D02*
X7Y435D01*
X2472Y435D02*
X2479Y435D01*
X0Y434D02*
X7Y434D01*
X2472Y434D02*
X2479Y434D01*
X0Y433D02*
X7Y433D01*
X2472Y433D02*
X2479Y433D01*
X0Y432D02*
X7Y432D01*
X2472Y432D02*
X2479Y432D01*
X0Y431D02*
X7Y431D01*
X2472Y431D02*
X2479Y431D01*
X0Y430D02*
X7Y430D01*
X2472Y430D02*
X2479Y430D01*
X0Y429D02*
X7Y429D01*
X2472Y429D02*
X2479Y429D01*
X0Y428D02*
X7Y428D01*
X2472Y428D02*
X2479Y428D01*
X0Y427D02*
X7Y427D01*
X2472Y427D02*
X2479Y427D01*
X0Y426D02*
X7Y426D01*
X2472Y426D02*
X2479Y426D01*
X0Y425D02*
X7Y425D01*
X2472Y425D02*
X2479Y425D01*
X0Y424D02*
X7Y424D01*
X2472Y424D02*
X2479Y424D01*
X0Y423D02*
X7Y423D01*
X2472Y423D02*
X2479Y423D01*
X0Y422D02*
X7Y422D01*
X2472Y422D02*
X2479Y422D01*
X0Y421D02*
X7Y421D01*
X2472Y421D02*
X2479Y421D01*
X0Y420D02*
X7Y420D01*
X2472Y420D02*
X2479Y420D01*
X0Y419D02*
X7Y419D01*
X2472Y419D02*
X2479Y419D01*
X0Y418D02*
X7Y418D01*
X2472Y418D02*
X2479Y418D01*
X0Y417D02*
X7Y417D01*
X2472Y417D02*
X2479Y417D01*
X0Y416D02*
X7Y416D01*
X2472Y416D02*
X2479Y416D01*
X0Y415D02*
X7Y415D01*
X2472Y415D02*
X2479Y415D01*
X0Y414D02*
X7Y414D01*
X2472Y414D02*
X2479Y414D01*
X0Y413D02*
X7Y413D01*
X2472Y413D02*
X2479Y413D01*
X0Y412D02*
X7Y412D01*
X2472Y412D02*
X2479Y412D01*
X0Y411D02*
X7Y411D01*
X2472Y411D02*
X2479Y411D01*
X0Y410D02*
X7Y410D01*
X2472Y410D02*
X2479Y410D01*
X0Y409D02*
X7Y409D01*
X2472Y409D02*
X2479Y409D01*
X0Y408D02*
X7Y408D01*
X2472Y408D02*
X2479Y408D01*
X0Y407D02*
X7Y407D01*
X2472Y407D02*
X2479Y407D01*
X0Y406D02*
X7Y406D01*
X2472Y406D02*
X2479Y406D01*
X0Y405D02*
X7Y405D01*
X2472Y405D02*
X2479Y405D01*
X0Y404D02*
X7Y404D01*
X2472Y404D02*
X2479Y404D01*
X0Y403D02*
X7Y403D01*
X2472Y403D02*
X2479Y403D01*
X0Y402D02*
X7Y402D01*
X2472Y402D02*
X2479Y402D01*
X0Y401D02*
X7Y401D01*
X2472Y401D02*
X2479Y401D01*
X0Y400D02*
X7Y400D01*
X2472Y400D02*
X2479Y400D01*
X0Y399D02*
X7Y399D01*
X2472Y399D02*
X2479Y399D01*
X0Y398D02*
X7Y398D01*
X2472Y398D02*
X2479Y398D01*
X0Y397D02*
X7Y397D01*
X2472Y397D02*
X2479Y397D01*
X0Y396D02*
X7Y396D01*
X2472Y396D02*
X2479Y396D01*
X0Y395D02*
X7Y395D01*
X2472Y395D02*
X2479Y395D01*
X0Y394D02*
X7Y394D01*
X2472Y394D02*
X2479Y394D01*
X0Y393D02*
X7Y393D01*
X2472Y393D02*
X2479Y393D01*
X0Y392D02*
X7Y392D01*
X2472Y392D02*
X2479Y392D01*
X0Y391D02*
X7Y391D01*
X2472Y391D02*
X2479Y391D01*
X0Y390D02*
X7Y390D01*
X2472Y390D02*
X2479Y390D01*
X0Y389D02*
X7Y389D01*
X2472Y389D02*
X2479Y389D01*
X0Y388D02*
X7Y388D01*
X2472Y388D02*
X2479Y388D01*
X0Y387D02*
X7Y387D01*
X2472Y387D02*
X2479Y387D01*
X0Y386D02*
X7Y386D01*
X2472Y386D02*
X2479Y386D01*
X0Y385D02*
X7Y385D01*
X2472Y385D02*
X2479Y385D01*
X0Y384D02*
X7Y384D01*
X2472Y384D02*
X2479Y384D01*
X0Y383D02*
X7Y383D01*
X2472Y383D02*
X2479Y383D01*
X0Y382D02*
X7Y382D01*
X2472Y382D02*
X2479Y382D01*
X0Y381D02*
X7Y381D01*
X2472Y381D02*
X2479Y381D01*
X0Y380D02*
X7Y380D01*
X2472Y380D02*
X2479Y380D01*
X0Y379D02*
X7Y379D01*
X2472Y379D02*
X2479Y379D01*
X0Y378D02*
X7Y378D01*
X2472Y378D02*
X2479Y378D01*
X0Y377D02*
X7Y377D01*
X2472Y377D02*
X2479Y377D01*
X0Y376D02*
X7Y376D01*
X2472Y376D02*
X2479Y376D01*
X0Y375D02*
X7Y375D01*
X2472Y375D02*
X2479Y375D01*
X0Y374D02*
X7Y374D01*
X2472Y374D02*
X2479Y374D01*
X0Y373D02*
X7Y373D01*
X2472Y373D02*
X2479Y373D01*
X0Y372D02*
X7Y372D01*
X2472Y372D02*
X2479Y372D01*
X0Y371D02*
X7Y371D01*
X2472Y371D02*
X2479Y371D01*
X0Y370D02*
X7Y370D01*
X2472Y370D02*
X2479Y370D01*
X0Y369D02*
X7Y369D01*
X2472Y369D02*
X2479Y369D01*
X0Y368D02*
X7Y368D01*
X2472Y368D02*
X2479Y368D01*
X0Y367D02*
X7Y367D01*
X2472Y367D02*
X2479Y367D01*
X0Y366D02*
X7Y366D01*
X2472Y366D02*
X2479Y366D01*
X0Y365D02*
X7Y365D01*
X2472Y365D02*
X2479Y365D01*
X0Y364D02*
X7Y364D01*
X2472Y364D02*
X2479Y364D01*
X0Y363D02*
X7Y363D01*
X2472Y363D02*
X2479Y363D01*
X0Y362D02*
X7Y362D01*
X2472Y362D02*
X2479Y362D01*
X0Y361D02*
X7Y361D01*
X2472Y361D02*
X2479Y361D01*
X0Y360D02*
X7Y360D01*
X2472Y360D02*
X2479Y360D01*
X0Y359D02*
X7Y359D01*
X2472Y359D02*
X2479Y359D01*
X0Y358D02*
X7Y358D01*
X2472Y358D02*
X2479Y358D01*
X0Y357D02*
X7Y357D01*
X2472Y357D02*
X2479Y357D01*
X0Y356D02*
X7Y356D01*
X2472Y356D02*
X2479Y356D01*
X0Y355D02*
X7Y355D01*
X2472Y355D02*
X2479Y355D01*
X0Y354D02*
X7Y354D01*
X2472Y354D02*
X2479Y354D01*
X0Y353D02*
X7Y353D01*
X2472Y353D02*
X2479Y353D01*
X0Y352D02*
X7Y352D01*
X2472Y352D02*
X2479Y352D01*
X0Y351D02*
X7Y351D01*
X2472Y351D02*
X2479Y351D01*
X0Y350D02*
X7Y350D01*
X2472Y350D02*
X2479Y350D01*
X0Y349D02*
X7Y349D01*
X2472Y349D02*
X2479Y349D01*
X0Y348D02*
X7Y348D01*
X2472Y348D02*
X2479Y348D01*
X0Y347D02*
X7Y347D01*
X2472Y347D02*
X2479Y347D01*
X0Y346D02*
X7Y346D01*
X2472Y346D02*
X2479Y346D01*
X0Y345D02*
X7Y345D01*
X2472Y345D02*
X2479Y345D01*
X0Y344D02*
X7Y344D01*
X2472Y344D02*
X2479Y344D01*
X0Y343D02*
X7Y343D01*
X2472Y343D02*
X2479Y343D01*
X0Y342D02*
X7Y342D01*
X2472Y342D02*
X2479Y342D01*
X0Y341D02*
X7Y341D01*
X2472Y341D02*
X2479Y341D01*
X0Y340D02*
X7Y340D01*
X2472Y340D02*
X2479Y340D01*
X0Y339D02*
X7Y339D01*
X2472Y339D02*
X2479Y339D01*
X0Y338D02*
X7Y338D01*
X2472Y338D02*
X2479Y338D01*
X0Y337D02*
X7Y337D01*
X2472Y337D02*
X2479Y337D01*
X0Y336D02*
X7Y336D01*
X2472Y336D02*
X2479Y336D01*
X0Y335D02*
X7Y335D01*
X2472Y335D02*
X2479Y335D01*
X0Y334D02*
X7Y334D01*
X2472Y334D02*
X2479Y334D01*
X0Y333D02*
X7Y333D01*
X2472Y333D02*
X2479Y333D01*
X0Y332D02*
X7Y332D01*
X2472Y332D02*
X2479Y332D01*
X0Y331D02*
X7Y331D01*
X2472Y331D02*
X2479Y331D01*
X0Y330D02*
X7Y330D01*
X2472Y330D02*
X2479Y330D01*
X0Y329D02*
X7Y329D01*
X2472Y329D02*
X2479Y329D01*
X0Y328D02*
X7Y328D01*
X2472Y328D02*
X2479Y328D01*
X0Y327D02*
X7Y327D01*
X2472Y327D02*
X2479Y327D01*
X0Y326D02*
X7Y326D01*
X2472Y326D02*
X2479Y326D01*
X0Y325D02*
X7Y325D01*
X2472Y325D02*
X2479Y325D01*
X0Y324D02*
X7Y324D01*
X2472Y324D02*
X2479Y324D01*
X0Y323D02*
X7Y323D01*
X2472Y323D02*
X2479Y323D01*
X0Y322D02*
X7Y322D01*
X2472Y322D02*
X2479Y322D01*
X0Y321D02*
X7Y321D01*
X2472Y321D02*
X2479Y321D01*
X0Y320D02*
X7Y320D01*
X2472Y320D02*
X2479Y320D01*
X0Y319D02*
X7Y319D01*
X2472Y319D02*
X2479Y319D01*
X0Y318D02*
X7Y318D01*
X2472Y318D02*
X2479Y318D01*
X0Y317D02*
X7Y317D01*
X2472Y317D02*
X2479Y317D01*
X0Y316D02*
X7Y316D01*
X2472Y316D02*
X2479Y316D01*
X0Y315D02*
X7Y315D01*
X2472Y315D02*
X2479Y315D01*
X0Y314D02*
X7Y314D01*
X2472Y314D02*
X2479Y314D01*
X0Y313D02*
X7Y313D01*
X2472Y313D02*
X2479Y313D01*
X0Y312D02*
X7Y312D01*
X2472Y312D02*
X2479Y312D01*
X0Y311D02*
X7Y311D01*
X2472Y311D02*
X2479Y311D01*
X0Y310D02*
X7Y310D01*
X2472Y310D02*
X2479Y310D01*
X0Y309D02*
X7Y309D01*
X2472Y309D02*
X2479Y309D01*
X0Y308D02*
X7Y308D01*
X2472Y308D02*
X2479Y308D01*
X0Y307D02*
X7Y307D01*
X2472Y307D02*
X2479Y307D01*
X0Y306D02*
X7Y306D01*
X2472Y306D02*
X2479Y306D01*
X0Y305D02*
X7Y305D01*
X2472Y305D02*
X2479Y305D01*
X0Y304D02*
X7Y304D01*
X2472Y304D02*
X2479Y304D01*
X0Y303D02*
X7Y303D01*
X2472Y303D02*
X2479Y303D01*
X0Y302D02*
X7Y302D01*
X2472Y302D02*
X2479Y302D01*
X0Y301D02*
X7Y301D01*
X2472Y301D02*
X2479Y301D01*
X0Y300D02*
X7Y300D01*
X2472Y300D02*
X2479Y300D01*
X0Y299D02*
X7Y299D01*
X2472Y299D02*
X2479Y299D01*
X0Y298D02*
X7Y298D01*
X2472Y298D02*
X2479Y298D01*
X0Y297D02*
X7Y297D01*
X2472Y297D02*
X2479Y297D01*
X0Y296D02*
X7Y296D01*
X2472Y296D02*
X2479Y296D01*
X0Y295D02*
X7Y295D01*
X2472Y295D02*
X2479Y295D01*
X0Y294D02*
X7Y294D01*
X2472Y294D02*
X2479Y294D01*
X0Y293D02*
X7Y293D01*
X2472Y293D02*
X2479Y293D01*
X0Y292D02*
X7Y292D01*
X2472Y292D02*
X2479Y292D01*
X0Y291D02*
X7Y291D01*
X2472Y291D02*
X2479Y291D01*
X0Y290D02*
X7Y290D01*
X2472Y290D02*
X2479Y290D01*
X0Y289D02*
X7Y289D01*
X2472Y289D02*
X2479Y289D01*
X0Y288D02*
X7Y288D01*
X2472Y288D02*
X2479Y288D01*
X0Y287D02*
X7Y287D01*
X2472Y287D02*
X2479Y287D01*
X0Y286D02*
X7Y286D01*
X2472Y286D02*
X2479Y286D01*
X0Y285D02*
X7Y285D01*
X2472Y285D02*
X2479Y285D01*
X0Y284D02*
X7Y284D01*
X2472Y284D02*
X2479Y284D01*
X0Y283D02*
X7Y283D01*
X2472Y283D02*
X2479Y283D01*
X0Y282D02*
X7Y282D01*
X2472Y282D02*
X2479Y282D01*
X0Y281D02*
X7Y281D01*
X2472Y281D02*
X2479Y281D01*
X0Y280D02*
X7Y280D01*
X2472Y280D02*
X2479Y280D01*
X0Y279D02*
X7Y279D01*
X2472Y279D02*
X2479Y279D01*
X0Y278D02*
X7Y278D01*
X2472Y278D02*
X2479Y278D01*
X0Y277D02*
X7Y277D01*
X2472Y277D02*
X2479Y277D01*
X0Y276D02*
X7Y276D01*
X2472Y276D02*
X2479Y276D01*
X0Y275D02*
X7Y275D01*
X2472Y275D02*
X2479Y275D01*
X0Y274D02*
X7Y274D01*
X2472Y274D02*
X2479Y274D01*
X0Y273D02*
X7Y273D01*
X2472Y273D02*
X2479Y273D01*
X0Y272D02*
X7Y272D01*
X2472Y272D02*
X2479Y272D01*
X0Y271D02*
X7Y271D01*
X2472Y271D02*
X2479Y271D01*
X0Y270D02*
X7Y270D01*
X2472Y270D02*
X2479Y270D01*
X0Y269D02*
X7Y269D01*
X2472Y269D02*
X2479Y269D01*
X0Y268D02*
X7Y268D01*
X2472Y268D02*
X2479Y268D01*
X0Y267D02*
X7Y267D01*
X2472Y267D02*
X2479Y267D01*
X0Y266D02*
X7Y266D01*
X2472Y266D02*
X2479Y266D01*
X0Y265D02*
X7Y265D01*
X2472Y265D02*
X2479Y265D01*
X0Y264D02*
X7Y264D01*
X2472Y264D02*
X2479Y264D01*
X0Y263D02*
X7Y263D01*
X2472Y263D02*
X2479Y263D01*
X0Y262D02*
X7Y262D01*
X2472Y262D02*
X2479Y262D01*
X0Y261D02*
X7Y261D01*
X2472Y261D02*
X2479Y261D01*
X0Y260D02*
X7Y260D01*
X2472Y260D02*
X2479Y260D01*
X0Y259D02*
X7Y259D01*
X2472Y259D02*
X2479Y259D01*
X0Y258D02*
X7Y258D01*
X2472Y258D02*
X2479Y258D01*
X0Y257D02*
X7Y257D01*
X2472Y257D02*
X2479Y257D01*
X0Y256D02*
X7Y256D01*
X2472Y256D02*
X2479Y256D01*
X0Y255D02*
X7Y255D01*
X2472Y255D02*
X2479Y255D01*
X0Y254D02*
X7Y254D01*
X2472Y254D02*
X2479Y254D01*
X0Y253D02*
X7Y253D01*
X2472Y253D02*
X2479Y253D01*
X0Y252D02*
X7Y252D01*
X2472Y252D02*
X2479Y252D01*
X0Y251D02*
X7Y251D01*
X2472Y251D02*
X2479Y251D01*
X0Y250D02*
X7Y250D01*
X2472Y250D02*
X2479Y250D01*
X0Y249D02*
X7Y249D01*
X2472Y249D02*
X2479Y249D01*
X0Y248D02*
X7Y248D01*
X2472Y248D02*
X2479Y248D01*
X0Y247D02*
X7Y247D01*
X2472Y247D02*
X2479Y247D01*
X0Y246D02*
X7Y246D01*
X2472Y246D02*
X2479Y246D01*
X0Y245D02*
X7Y245D01*
X2472Y245D02*
X2479Y245D01*
X0Y244D02*
X7Y244D01*
X2472Y244D02*
X2479Y244D01*
X0Y243D02*
X7Y243D01*
X2472Y243D02*
X2479Y243D01*
X0Y242D02*
X7Y242D01*
X2472Y242D02*
X2479Y242D01*
X0Y241D02*
X7Y241D01*
X2472Y241D02*
X2479Y241D01*
X0Y240D02*
X7Y240D01*
X2472Y240D02*
X2479Y240D01*
X0Y239D02*
X7Y239D01*
X2472Y239D02*
X2479Y239D01*
X0Y238D02*
X7Y238D01*
X2472Y238D02*
X2479Y238D01*
X0Y237D02*
X7Y237D01*
X2472Y237D02*
X2479Y237D01*
X0Y236D02*
X7Y236D01*
X2472Y236D02*
X2479Y236D01*
X0Y235D02*
X7Y235D01*
X2472Y235D02*
X2479Y235D01*
X0Y234D02*
X7Y234D01*
X2472Y234D02*
X2479Y234D01*
X0Y233D02*
X7Y233D01*
X2472Y233D02*
X2479Y233D01*
X0Y232D02*
X7Y232D01*
X2472Y232D02*
X2479Y232D01*
X0Y231D02*
X7Y231D01*
X2472Y231D02*
X2479Y231D01*
X0Y230D02*
X7Y230D01*
X2472Y230D02*
X2479Y230D01*
X0Y229D02*
X7Y229D01*
X2472Y229D02*
X2479Y229D01*
X0Y228D02*
X7Y228D01*
X2472Y228D02*
X2479Y228D01*
X0Y227D02*
X7Y227D01*
X2472Y227D02*
X2479Y227D01*
X0Y226D02*
X7Y226D01*
X2472Y226D02*
X2479Y226D01*
X0Y225D02*
X7Y225D01*
X869Y225D02*
X870Y225D01*
X896Y225D02*
X898Y225D01*
X969Y225D02*
X970Y225D01*
X1019Y225D02*
X1021Y225D01*
X1047Y225D02*
X1048Y225D01*
X1069Y225D02*
X1071Y225D01*
X1097Y225D02*
X1098Y225D01*
X2472Y225D02*
X2479Y225D01*
X0Y224D02*
X7Y224D01*
X867Y224D02*
X871Y224D01*
X895Y224D02*
X899Y224D01*
X968Y224D02*
X972Y224D01*
X1018Y224D02*
X1022Y224D01*
X1045Y224D02*
X1050Y224D01*
X1068Y224D02*
X1072Y224D01*
X1096Y224D02*
X1100Y224D01*
X2472Y224D02*
X2479Y224D01*
X0Y223D02*
X7Y223D01*
X867Y223D02*
X872Y223D01*
X894Y223D02*
X900Y223D01*
X967Y223D02*
X972Y223D01*
X1017Y223D02*
X1023Y223D01*
X1045Y223D02*
X1050Y223D01*
X1067Y223D02*
X1073Y223D01*
X1095Y223D02*
X1100Y223D01*
X2472Y223D02*
X2479Y223D01*
X0Y222D02*
X7Y222D01*
X866Y222D02*
X872Y222D01*
X894Y222D02*
X900Y222D01*
X967Y222D02*
X973Y222D01*
X1017Y222D02*
X1023Y222D01*
X1044Y222D02*
X1050Y222D01*
X1067Y222D02*
X1073Y222D01*
X1094Y222D02*
X1101Y222D01*
X2472Y222D02*
X2479Y222D01*
X0Y221D02*
X7Y221D01*
X866Y221D02*
X872Y221D01*
X894Y221D02*
X900Y221D01*
X967Y221D02*
X973Y221D01*
X1017Y221D02*
X1023Y221D01*
X1044Y221D02*
X1050Y221D01*
X1067Y221D02*
X1074Y221D01*
X1094Y221D02*
X1100Y221D01*
X2472Y221D02*
X2479Y221D01*
X0Y220D02*
X7Y220D01*
X866Y220D02*
X872Y220D01*
X894Y220D02*
X900Y220D01*
X967Y220D02*
X973Y220D01*
X1017Y220D02*
X1023Y220D01*
X1044Y220D02*
X1050Y220D01*
X1068Y220D02*
X1075Y220D01*
X1093Y220D02*
X1100Y220D01*
X2472Y220D02*
X2479Y220D01*
X0Y219D02*
X7Y219D01*
X866Y219D02*
X872Y219D01*
X894Y219D02*
X900Y219D01*
X967Y219D02*
X973Y219D01*
X1017Y219D02*
X1023Y219D01*
X1044Y219D02*
X1050Y219D01*
X1068Y219D02*
X1075Y219D01*
X1092Y219D02*
X1100Y219D01*
X2472Y219D02*
X2479Y219D01*
X0Y218D02*
X7Y218D01*
X866Y218D02*
X872Y218D01*
X894Y218D02*
X900Y218D01*
X967Y218D02*
X973Y218D01*
X1017Y218D02*
X1023Y218D01*
X1044Y218D02*
X1050Y218D01*
X1069Y218D02*
X1076Y218D01*
X1092Y218D02*
X1099Y218D01*
X2472Y218D02*
X2479Y218D01*
X0Y217D02*
X7Y217D01*
X866Y217D02*
X872Y217D01*
X894Y217D02*
X900Y217D01*
X967Y217D02*
X973Y217D01*
X1017Y217D02*
X1023Y217D01*
X1044Y217D02*
X1050Y217D01*
X1069Y217D02*
X1076Y217D01*
X1091Y217D02*
X1098Y217D01*
X2472Y217D02*
X2479Y217D01*
X0Y216D02*
X7Y216D01*
X866Y216D02*
X872Y216D01*
X894Y216D02*
X900Y216D01*
X967Y216D02*
X973Y216D01*
X1017Y216D02*
X1023Y216D01*
X1044Y216D02*
X1050Y216D01*
X1070Y216D02*
X1077Y216D01*
X1091Y216D02*
X1098Y216D01*
X2472Y216D02*
X2479Y216D01*
X0Y215D02*
X7Y215D01*
X866Y215D02*
X872Y215D01*
X894Y215D02*
X900Y215D01*
X967Y215D02*
X973Y215D01*
X1017Y215D02*
X1023Y215D01*
X1044Y215D02*
X1050Y215D01*
X1070Y215D02*
X1078Y215D01*
X1090Y215D02*
X1097Y215D01*
X2472Y215D02*
X2479Y215D01*
X0Y214D02*
X7Y214D01*
X866Y214D02*
X872Y214D01*
X894Y214D02*
X900Y214D01*
X967Y214D02*
X973Y214D01*
X1017Y214D02*
X1023Y214D01*
X1044Y214D02*
X1050Y214D01*
X1071Y214D02*
X1078Y214D01*
X1089Y214D02*
X1097Y214D01*
X2472Y214D02*
X2479Y214D01*
X0Y213D02*
X7Y213D01*
X866Y213D02*
X872Y213D01*
X894Y213D02*
X900Y213D01*
X967Y213D02*
X973Y213D01*
X1017Y213D02*
X1023Y213D01*
X1044Y213D02*
X1050Y213D01*
X1072Y213D02*
X1079Y213D01*
X1089Y213D02*
X1096Y213D01*
X2472Y213D02*
X2479Y213D01*
X0Y212D02*
X7Y212D01*
X866Y212D02*
X872Y212D01*
X894Y212D02*
X900Y212D01*
X967Y212D02*
X973Y212D01*
X1017Y212D02*
X1023Y212D01*
X1044Y212D02*
X1050Y212D01*
X1072Y212D02*
X1079Y212D01*
X1088Y212D02*
X1095Y212D01*
X2472Y212D02*
X2479Y212D01*
X0Y211D02*
X7Y211D01*
X866Y211D02*
X872Y211D01*
X894Y211D02*
X900Y211D01*
X967Y211D02*
X973Y211D01*
X1017Y211D02*
X1023Y211D01*
X1044Y211D02*
X1050Y211D01*
X1073Y211D02*
X1080Y211D01*
X1088Y211D02*
X1095Y211D01*
X2472Y211D02*
X2479Y211D01*
X0Y210D02*
X7Y210D01*
X866Y210D02*
X872Y210D01*
X894Y210D02*
X900Y210D01*
X967Y210D02*
X973Y210D01*
X1017Y210D02*
X1023Y210D01*
X1044Y210D02*
X1050Y210D01*
X1073Y210D02*
X1081Y210D01*
X1087Y210D02*
X1094Y210D01*
X2472Y210D02*
X2479Y210D01*
X0Y209D02*
X7Y209D01*
X866Y209D02*
X872Y209D01*
X894Y209D02*
X900Y209D01*
X967Y209D02*
X973Y209D01*
X1017Y209D02*
X1023Y209D01*
X1044Y209D02*
X1050Y209D01*
X1074Y209D02*
X1081Y209D01*
X1087Y209D02*
X1094Y209D01*
X2472Y209D02*
X2479Y209D01*
X0Y208D02*
X7Y208D01*
X866Y208D02*
X872Y208D01*
X894Y208D02*
X900Y208D01*
X967Y208D02*
X973Y208D01*
X1017Y208D02*
X1023Y208D01*
X1044Y208D02*
X1050Y208D01*
X1075Y208D02*
X1082Y208D01*
X1086Y208D02*
X1093Y208D01*
X2472Y208D02*
X2479Y208D01*
X0Y207D02*
X7Y207D01*
X866Y207D02*
X872Y207D01*
X894Y207D02*
X900Y207D01*
X967Y207D02*
X973Y207D01*
X1017Y207D02*
X1023Y207D01*
X1044Y207D02*
X1050Y207D01*
X1075Y207D02*
X1082Y207D01*
X1085Y207D02*
X1093Y207D01*
X2472Y207D02*
X2479Y207D01*
X0Y206D02*
X7Y206D01*
X866Y206D02*
X872Y206D01*
X894Y206D02*
X900Y206D01*
X967Y206D02*
X973Y206D01*
X1017Y206D02*
X1023Y206D01*
X1044Y206D02*
X1050Y206D01*
X1076Y206D02*
X1083Y206D01*
X1085Y206D02*
X1092Y206D01*
X2472Y206D02*
X2479Y206D01*
X0Y205D02*
X7Y205D01*
X866Y205D02*
X872Y205D01*
X894Y205D02*
X900Y205D01*
X967Y205D02*
X973Y205D01*
X1017Y205D02*
X1023Y205D01*
X1044Y205D02*
X1050Y205D01*
X1076Y205D02*
X1091Y205D01*
X2472Y205D02*
X2479Y205D01*
X0Y204D02*
X7Y204D01*
X866Y204D02*
X872Y204D01*
X894Y204D02*
X900Y204D01*
X967Y204D02*
X973Y204D01*
X1017Y204D02*
X1023Y204D01*
X1044Y204D02*
X1050Y204D01*
X1077Y204D02*
X1091Y204D01*
X2472Y204D02*
X2479Y204D01*
X0Y203D02*
X7Y203D01*
X866Y203D02*
X872Y203D01*
X894Y203D02*
X900Y203D01*
X967Y203D02*
X973Y203D01*
X1017Y203D02*
X1023Y203D01*
X1044Y203D02*
X1050Y203D01*
X1077Y203D02*
X1090Y203D01*
X2472Y203D02*
X2479Y203D01*
X0Y202D02*
X7Y202D01*
X866Y202D02*
X872Y202D01*
X894Y202D02*
X900Y202D01*
X967Y202D02*
X973Y202D01*
X1017Y202D02*
X1023Y202D01*
X1044Y202D02*
X1050Y202D01*
X1078Y202D02*
X1090Y202D01*
X2472Y202D02*
X2479Y202D01*
X0Y201D02*
X7Y201D01*
X866Y201D02*
X900Y201D01*
X967Y201D02*
X973Y201D01*
X1017Y201D02*
X1023Y201D01*
X1044Y201D02*
X1050Y201D01*
X1079Y201D02*
X1089Y201D01*
X2472Y201D02*
X2479Y201D01*
X0Y200D02*
X7Y200D01*
X866Y200D02*
X900Y200D01*
X967Y200D02*
X973Y200D01*
X1017Y200D02*
X1023Y200D01*
X1044Y200D02*
X1050Y200D01*
X1079Y200D02*
X1088Y200D01*
X2472Y200D02*
X2479Y200D01*
X0Y199D02*
X7Y199D01*
X866Y199D02*
X900Y199D01*
X967Y199D02*
X973Y199D01*
X1017Y199D02*
X1023Y199D01*
X1044Y199D02*
X1050Y199D01*
X1080Y199D02*
X1088Y199D01*
X2472Y199D02*
X2479Y199D01*
X0Y198D02*
X7Y198D01*
X866Y198D02*
X900Y198D01*
X967Y198D02*
X973Y198D01*
X1017Y198D02*
X1023Y198D01*
X1044Y198D02*
X1050Y198D01*
X1080Y198D02*
X1088Y198D01*
X2472Y198D02*
X2479Y198D01*
X0Y197D02*
X7Y197D01*
X866Y197D02*
X900Y197D01*
X967Y197D02*
X973Y197D01*
X1017Y197D02*
X1023Y197D01*
X1044Y197D02*
X1050Y197D01*
X1080Y197D02*
X1088Y197D01*
X2472Y197D02*
X2479Y197D01*
X0Y196D02*
X7Y196D01*
X866Y196D02*
X900Y196D01*
X967Y196D02*
X973Y196D01*
X1017Y196D02*
X1023Y196D01*
X1044Y196D02*
X1050Y196D01*
X1079Y196D02*
X1089Y196D01*
X2472Y196D02*
X2479Y196D01*
X0Y195D02*
X7Y195D01*
X866Y195D02*
X900Y195D01*
X967Y195D02*
X973Y195D01*
X1017Y195D02*
X1023Y195D01*
X1044Y195D02*
X1050Y195D01*
X1078Y195D02*
X1089Y195D01*
X2472Y195D02*
X2479Y195D01*
X0Y194D02*
X7Y194D01*
X866Y194D02*
X872Y194D01*
X894Y194D02*
X900Y194D01*
X967Y194D02*
X973Y194D01*
X1017Y194D02*
X1023Y194D01*
X1044Y194D02*
X1050Y194D01*
X1078Y194D02*
X1090Y194D01*
X2472Y194D02*
X2479Y194D01*
X0Y193D02*
X7Y193D01*
X866Y193D02*
X872Y193D01*
X894Y193D02*
X900Y193D01*
X967Y193D02*
X973Y193D01*
X1017Y193D02*
X1023Y193D01*
X1044Y193D02*
X1050Y193D01*
X1077Y193D02*
X1090Y193D01*
X2472Y193D02*
X2479Y193D01*
X0Y192D02*
X7Y192D01*
X866Y192D02*
X872Y192D01*
X894Y192D02*
X900Y192D01*
X967Y192D02*
X973Y192D01*
X1017Y192D02*
X1023Y192D01*
X1044Y192D02*
X1050Y192D01*
X1077Y192D02*
X1091Y192D01*
X2472Y192D02*
X2479Y192D01*
X0Y191D02*
X7Y191D01*
X866Y191D02*
X872Y191D01*
X894Y191D02*
X900Y191D01*
X967Y191D02*
X973Y191D01*
X1017Y191D02*
X1023Y191D01*
X1044Y191D02*
X1050Y191D01*
X1076Y191D02*
X1092Y191D01*
X2472Y191D02*
X2479Y191D01*
X0Y190D02*
X7Y190D01*
X866Y190D02*
X872Y190D01*
X894Y190D02*
X900Y190D01*
X967Y190D02*
X973Y190D01*
X1017Y190D02*
X1023Y190D01*
X1044Y190D02*
X1050Y190D01*
X1075Y190D02*
X1083Y190D01*
X1085Y190D02*
X1092Y190D01*
X2472Y190D02*
X2479Y190D01*
X0Y189D02*
X7Y189D01*
X866Y189D02*
X872Y189D01*
X894Y189D02*
X900Y189D01*
X967Y189D02*
X973Y189D01*
X1017Y189D02*
X1023Y189D01*
X1044Y189D02*
X1050Y189D01*
X1075Y189D02*
X1082Y189D01*
X1086Y189D02*
X1093Y189D01*
X2472Y189D02*
X2479Y189D01*
X0Y188D02*
X7Y188D01*
X866Y188D02*
X872Y188D01*
X894Y188D02*
X900Y188D01*
X967Y188D02*
X973Y188D01*
X1017Y188D02*
X1023Y188D01*
X1044Y188D02*
X1050Y188D01*
X1074Y188D02*
X1081Y188D01*
X1086Y188D02*
X1093Y188D01*
X2472Y188D02*
X2479Y188D01*
X0Y187D02*
X7Y187D01*
X866Y187D02*
X872Y187D01*
X894Y187D02*
X900Y187D01*
X967Y187D02*
X973Y187D01*
X1017Y187D02*
X1023Y187D01*
X1044Y187D02*
X1050Y187D01*
X1074Y187D02*
X1081Y187D01*
X1087Y187D02*
X1094Y187D01*
X2472Y187D02*
X2479Y187D01*
X0Y186D02*
X7Y186D01*
X866Y186D02*
X872Y186D01*
X894Y186D02*
X900Y186D01*
X967Y186D02*
X973Y186D01*
X1017Y186D02*
X1023Y186D01*
X1044Y186D02*
X1050Y186D01*
X1073Y186D02*
X1080Y186D01*
X1087Y186D02*
X1095Y186D01*
X2472Y186D02*
X2479Y186D01*
X0Y185D02*
X7Y185D01*
X866Y185D02*
X872Y185D01*
X894Y185D02*
X900Y185D01*
X967Y185D02*
X973Y185D01*
X1017Y185D02*
X1023Y185D01*
X1044Y185D02*
X1050Y185D01*
X1073Y185D02*
X1080Y185D01*
X1088Y185D02*
X1095Y185D01*
X2472Y185D02*
X2479Y185D01*
X0Y184D02*
X7Y184D01*
X866Y184D02*
X872Y184D01*
X894Y184D02*
X900Y184D01*
X967Y184D02*
X973Y184D01*
X1017Y184D02*
X1023Y184D01*
X1044Y184D02*
X1050Y184D01*
X1072Y184D02*
X1079Y184D01*
X1089Y184D02*
X1096Y184D01*
X2472Y184D02*
X2479Y184D01*
X0Y183D02*
X7Y183D01*
X866Y183D02*
X872Y183D01*
X894Y183D02*
X900Y183D01*
X967Y183D02*
X973Y183D01*
X1017Y183D02*
X1023Y183D01*
X1044Y183D02*
X1050Y183D01*
X1071Y183D02*
X1079Y183D01*
X1089Y183D02*
X1096Y183D01*
X2472Y183D02*
X2479Y183D01*
X0Y182D02*
X7Y182D01*
X866Y182D02*
X872Y182D01*
X894Y182D02*
X900Y182D01*
X967Y182D02*
X973Y182D01*
X1017Y182D02*
X1023Y182D01*
X1044Y182D02*
X1050Y182D01*
X1071Y182D02*
X1078Y182D01*
X1090Y182D02*
X1097Y182D01*
X2472Y182D02*
X2479Y182D01*
X0Y181D02*
X7Y181D01*
X866Y181D02*
X872Y181D01*
X894Y181D02*
X900Y181D01*
X967Y181D02*
X973Y181D01*
X1017Y181D02*
X1023Y181D01*
X1044Y181D02*
X1050Y181D01*
X1070Y181D02*
X1077Y181D01*
X1090Y181D02*
X1097Y181D01*
X2472Y181D02*
X2479Y181D01*
X0Y180D02*
X7Y180D01*
X866Y180D02*
X872Y180D01*
X894Y180D02*
X900Y180D01*
X967Y180D02*
X973Y180D01*
X1017Y180D02*
X1023Y180D01*
X1044Y180D02*
X1050Y180D01*
X1070Y180D02*
X1077Y180D01*
X1091Y180D02*
X1098Y180D01*
X2472Y180D02*
X2479Y180D01*
X0Y179D02*
X7Y179D01*
X866Y179D02*
X872Y179D01*
X894Y179D02*
X900Y179D01*
X967Y179D02*
X973Y179D01*
X1017Y179D02*
X1024Y179D01*
X1043Y179D02*
X1050Y179D01*
X1069Y179D02*
X1076Y179D01*
X1091Y179D02*
X1099Y179D01*
X2472Y179D02*
X2479Y179D01*
X0Y178D02*
X7Y178D01*
X866Y178D02*
X872Y178D01*
X894Y178D02*
X900Y178D01*
X967Y178D02*
X997Y178D01*
X1018Y178D02*
X1050Y178D01*
X1068Y178D02*
X1076Y178D01*
X1092Y178D02*
X1099Y178D01*
X2472Y178D02*
X2479Y178D01*
X0Y177D02*
X7Y177D01*
X866Y177D02*
X872Y177D01*
X894Y177D02*
X900Y177D01*
X967Y177D02*
X999Y177D01*
X1018Y177D02*
X1049Y177D01*
X1068Y177D02*
X1075Y177D01*
X1093Y177D02*
X1100Y177D01*
X2472Y177D02*
X2479Y177D01*
X0Y176D02*
X7Y176D01*
X866Y176D02*
X872Y176D01*
X894Y176D02*
X900Y176D01*
X967Y176D02*
X1000Y176D01*
X1019Y176D02*
X1049Y176D01*
X1067Y176D02*
X1074Y176D01*
X1093Y176D02*
X1100Y176D01*
X2472Y176D02*
X2479Y176D01*
X0Y175D02*
X7Y175D01*
X866Y175D02*
X872Y175D01*
X894Y175D02*
X900Y175D01*
X967Y175D02*
X1000Y175D01*
X1019Y175D02*
X1048Y175D01*
X1067Y175D02*
X1074Y175D01*
X1094Y175D02*
X1101Y175D01*
X2472Y175D02*
X2479Y175D01*
X0Y174D02*
X7Y174D01*
X866Y174D02*
X872Y174D01*
X894Y174D02*
X900Y174D01*
X967Y174D02*
X1000Y174D01*
X1020Y174D02*
X1047Y174D01*
X1067Y174D02*
X1073Y174D01*
X1094Y174D02*
X1101Y174D01*
X2472Y174D02*
X2479Y174D01*
X0Y173D02*
X7Y173D01*
X867Y173D02*
X872Y173D01*
X894Y173D02*
X899Y173D01*
X967Y173D02*
X1000Y173D01*
X1021Y173D02*
X1046Y173D01*
X1068Y173D02*
X1073Y173D01*
X1095Y173D02*
X1100Y173D01*
X2472Y173D02*
X2479Y173D01*
X0Y172D02*
X7Y172D01*
X868Y172D02*
X871Y172D01*
X895Y172D02*
X899Y172D01*
X967Y172D02*
X999Y172D01*
X1023Y172D02*
X1044Y172D01*
X1068Y172D02*
X1072Y172D01*
X1096Y172D02*
X1099Y172D01*
X2472Y172D02*
X2479Y172D01*
X0Y171D02*
X7Y171D01*
X919Y171D02*
X947Y171D01*
X2472Y171D02*
X2479Y171D01*
X0Y170D02*
X7Y170D01*
X918Y170D02*
X949Y170D01*
X2472Y170D02*
X2479Y170D01*
X0Y169D02*
X7Y169D01*
X917Y169D02*
X950Y169D01*
X2472Y169D02*
X2479Y169D01*
X0Y168D02*
X7Y168D01*
X917Y168D02*
X950Y168D01*
X2472Y168D02*
X2479Y168D01*
X0Y167D02*
X7Y167D01*
X917Y167D02*
X950Y167D01*
X2472Y167D02*
X2479Y167D01*
X0Y166D02*
X7Y166D01*
X917Y166D02*
X950Y166D01*
X2472Y166D02*
X2479Y166D01*
X0Y165D02*
X7Y165D01*
X918Y165D02*
X949Y165D01*
X2472Y165D02*
X2479Y165D01*
X0Y164D02*
X7Y164D01*
X2472Y164D02*
X2479Y164D01*
X0Y163D02*
X7Y163D01*
X2472Y163D02*
X2479Y163D01*
X0Y162D02*
X7Y162D01*
X2472Y162D02*
X2479Y162D01*
X0Y161D02*
X7Y161D01*
X2472Y161D02*
X2479Y161D01*
X0Y160D02*
X7Y160D01*
X2472Y160D02*
X2479Y160D01*
X0Y159D02*
X7Y159D01*
X2472Y159D02*
X2479Y159D01*
X0Y158D02*
X7Y158D01*
X2472Y158D02*
X2479Y158D01*
X0Y157D02*
X7Y157D01*
X2472Y157D02*
X2479Y157D01*
X0Y156D02*
X7Y156D01*
X2472Y156D02*
X2479Y156D01*
X0Y155D02*
X7Y155D01*
X2472Y155D02*
X2479Y155D01*
X0Y154D02*
X7Y154D01*
X2472Y154D02*
X2479Y154D01*
X0Y153D02*
X7Y153D01*
X2472Y153D02*
X2479Y153D01*
X0Y152D02*
X7Y152D01*
X2472Y152D02*
X2479Y152D01*
X0Y151D02*
X7Y151D01*
X2472Y151D02*
X2479Y151D01*
X0Y150D02*
X7Y150D01*
X2472Y150D02*
X2479Y150D01*
X0Y149D02*
X7Y149D01*
X2472Y149D02*
X2479Y149D01*
X0Y148D02*
X7Y148D01*
X2472Y148D02*
X2479Y148D01*
X0Y147D02*
X7Y147D01*
X2472Y147D02*
X2479Y147D01*
X0Y146D02*
X7Y146D01*
X2472Y146D02*
X2479Y146D01*
X0Y145D02*
X7Y145D01*
X2472Y145D02*
X2479Y145D01*
X0Y144D02*
X7Y144D01*
X2472Y144D02*
X2479Y144D01*
X0Y143D02*
X7Y143D01*
X2472Y143D02*
X2479Y143D01*
X0Y142D02*
X7Y142D01*
X2472Y142D02*
X2479Y142D01*
X0Y141D02*
X7Y141D01*
X2472Y141D02*
X2479Y141D01*
X0Y140D02*
X7Y140D01*
X2472Y140D02*
X2479Y140D01*
X0Y139D02*
X7Y139D01*
X2472Y139D02*
X2479Y139D01*
X0Y138D02*
X7Y138D01*
X2472Y138D02*
X2479Y138D01*
X0Y137D02*
X7Y137D01*
X2472Y137D02*
X2479Y137D01*
X0Y136D02*
X7Y136D01*
X348Y136D02*
X375Y136D01*
X403Y136D02*
X426Y136D01*
X448Y136D02*
X482Y136D01*
X2472Y136D02*
X2479Y136D01*
X0Y135D02*
X7Y135D01*
X348Y135D02*
X377Y135D01*
X401Y135D02*
X428Y135D01*
X448Y135D02*
X482Y135D01*
X2472Y135D02*
X2479Y135D01*
X0Y134D02*
X7Y134D01*
X348Y134D02*
X378Y134D01*
X400Y134D02*
X429Y134D01*
X448Y134D02*
X482Y134D01*
X2472Y134D02*
X2479Y134D01*
X0Y133D02*
X7Y133D01*
X348Y133D02*
X379Y133D01*
X399Y133D02*
X430Y133D01*
X448Y133D02*
X482Y133D01*
X2472Y133D02*
X2479Y133D01*
X0Y132D02*
X7Y132D01*
X348Y132D02*
X380Y132D01*
X399Y132D02*
X430Y132D01*
X448Y132D02*
X482Y132D01*
X2472Y132D02*
X2479Y132D01*
X0Y131D02*
X7Y131D01*
X348Y131D02*
X380Y131D01*
X399Y131D02*
X431Y131D01*
X448Y131D02*
X482Y131D01*
X2472Y131D02*
X2479Y131D01*
X0Y130D02*
X7Y130D01*
X348Y130D02*
X381Y130D01*
X398Y130D02*
X431Y130D01*
X448Y130D02*
X482Y130D01*
X2472Y130D02*
X2479Y130D01*
X0Y129D02*
X7Y129D01*
X348Y129D02*
X354Y129D01*
X374Y129D02*
X381Y129D01*
X398Y129D02*
X404Y129D01*
X425Y129D02*
X432Y129D01*
X448Y129D02*
X454Y129D01*
X462Y129D02*
X468Y129D01*
X476Y129D02*
X482Y129D01*
X2472Y129D02*
X2479Y129D01*
X0Y128D02*
X7Y128D01*
X348Y128D02*
X354Y128D01*
X375Y128D02*
X381Y128D01*
X398Y128D02*
X405Y128D01*
X426Y128D02*
X432Y128D01*
X448Y128D02*
X454Y128D01*
X462Y128D02*
X468Y128D01*
X476Y128D02*
X482Y128D01*
X2472Y128D02*
X2479Y128D01*
X0Y127D02*
X7Y127D01*
X348Y127D02*
X354Y127D01*
X375Y127D02*
X382Y127D01*
X398Y127D02*
X405Y127D01*
X426Y127D02*
X432Y127D01*
X448Y127D02*
X454Y127D01*
X462Y127D02*
X468Y127D01*
X476Y127D02*
X482Y127D01*
X2472Y127D02*
X2479Y127D01*
X0Y126D02*
X7Y126D01*
X348Y126D02*
X354Y126D01*
X376Y126D02*
X382Y126D01*
X399Y126D02*
X406Y126D01*
X426Y126D02*
X432Y126D01*
X449Y126D02*
X454Y126D01*
X462Y126D02*
X468Y126D01*
X476Y126D02*
X482Y126D01*
X2472Y126D02*
X2479Y126D01*
X0Y125D02*
X7Y125D01*
X348Y125D02*
X354Y125D01*
X376Y125D02*
X382Y125D01*
X399Y125D02*
X407Y125D01*
X427Y125D02*
X431Y125D01*
X449Y125D02*
X453Y125D01*
X462Y125D02*
X468Y125D01*
X477Y125D02*
X481Y125D01*
X2472Y125D02*
X2479Y125D01*
X0Y124D02*
X7Y124D01*
X348Y124D02*
X354Y124D01*
X376Y124D02*
X382Y124D01*
X400Y124D02*
X408Y124D01*
X428Y124D02*
X429Y124D01*
X451Y124D02*
X452Y124D01*
X462Y124D02*
X468Y124D01*
X478Y124D02*
X480Y124D01*
X2472Y124D02*
X2479Y124D01*
X0Y123D02*
X7Y123D01*
X348Y123D02*
X354Y123D01*
X376Y123D02*
X382Y123D01*
X401Y123D02*
X409Y123D01*
X462Y123D02*
X468Y123D01*
X2472Y123D02*
X2479Y123D01*
X0Y122D02*
X7Y122D01*
X348Y122D02*
X354Y122D01*
X375Y122D02*
X382Y122D01*
X401Y122D02*
X409Y122D01*
X462Y122D02*
X468Y122D01*
X2472Y122D02*
X2479Y122D01*
X0Y121D02*
X7Y121D01*
X348Y121D02*
X354Y121D01*
X375Y121D02*
X381Y121D01*
X402Y121D02*
X410Y121D01*
X462Y121D02*
X468Y121D01*
X2472Y121D02*
X2479Y121D01*
X0Y120D02*
X7Y120D01*
X348Y120D02*
X354Y120D01*
X374Y120D02*
X381Y120D01*
X403Y120D02*
X411Y120D01*
X462Y120D02*
X468Y120D01*
X2472Y120D02*
X2479Y120D01*
X0Y119D02*
X7Y119D01*
X348Y119D02*
X355Y119D01*
X372Y119D02*
X381Y119D01*
X404Y119D02*
X412Y119D01*
X462Y119D02*
X468Y119D01*
X2472Y119D02*
X2479Y119D01*
X0Y118D02*
X7Y118D01*
X348Y118D02*
X381Y118D01*
X404Y118D02*
X412Y118D01*
X462Y118D02*
X468Y118D01*
X2472Y118D02*
X2479Y118D01*
X0Y117D02*
X7Y117D01*
X348Y117D02*
X380Y117D01*
X405Y117D02*
X413Y117D01*
X462Y117D02*
X468Y117D01*
X2472Y117D02*
X2479Y117D01*
X0Y116D02*
X7Y116D01*
X348Y116D02*
X379Y116D01*
X406Y116D02*
X414Y116D01*
X462Y116D02*
X468Y116D01*
X2472Y116D02*
X2479Y116D01*
X0Y115D02*
X7Y115D01*
X348Y115D02*
X378Y115D01*
X407Y115D02*
X415Y115D01*
X462Y115D02*
X468Y115D01*
X2472Y115D02*
X2479Y115D01*
X0Y114D02*
X7Y114D01*
X348Y114D02*
X377Y114D01*
X408Y114D02*
X415Y114D01*
X462Y114D02*
X468Y114D01*
X2472Y114D02*
X2479Y114D01*
X0Y113D02*
X7Y113D01*
X348Y113D02*
X375Y113D01*
X408Y113D02*
X416Y113D01*
X462Y113D02*
X468Y113D01*
X2472Y113D02*
X2479Y113D01*
X0Y112D02*
X7Y112D01*
X348Y112D02*
X371Y112D01*
X409Y112D02*
X417Y112D01*
X462Y112D02*
X468Y112D01*
X2472Y112D02*
X2479Y112D01*
X0Y111D02*
X7Y111D01*
X348Y111D02*
X354Y111D01*
X360Y111D02*
X368Y111D01*
X410Y111D02*
X418Y111D01*
X462Y111D02*
X468Y111D01*
X2472Y111D02*
X2479Y111D01*
X0Y110D02*
X7Y110D01*
X348Y110D02*
X354Y110D01*
X361Y110D02*
X368Y110D01*
X411Y110D02*
X419Y110D01*
X462Y110D02*
X468Y110D01*
X2472Y110D02*
X2479Y110D01*
X0Y109D02*
X7Y109D01*
X348Y109D02*
X354Y109D01*
X362Y109D02*
X369Y109D01*
X411Y109D02*
X419Y109D01*
X462Y109D02*
X468Y109D01*
X2472Y109D02*
X2479Y109D01*
X0Y108D02*
X7Y108D01*
X348Y108D02*
X354Y108D01*
X362Y108D02*
X369Y108D01*
X412Y108D02*
X420Y108D01*
X462Y108D02*
X468Y108D01*
X2472Y108D02*
X2479Y108D01*
X0Y107D02*
X7Y107D01*
X348Y107D02*
X354Y107D01*
X363Y107D02*
X370Y107D01*
X413Y107D02*
X421Y107D01*
X462Y107D02*
X468Y107D01*
X2472Y107D02*
X2479Y107D01*
X0Y106D02*
X7Y106D01*
X348Y106D02*
X354Y106D01*
X363Y106D02*
X371Y106D01*
X414Y106D02*
X422Y106D01*
X462Y106D02*
X468Y106D01*
X2472Y106D02*
X2479Y106D01*
X0Y105D02*
X7Y105D01*
X348Y105D02*
X354Y105D01*
X364Y105D02*
X371Y105D01*
X414Y105D02*
X422Y105D01*
X462Y105D02*
X468Y105D01*
X2472Y105D02*
X2479Y105D01*
X0Y104D02*
X7Y104D01*
X348Y104D02*
X354Y104D01*
X364Y104D02*
X372Y104D01*
X415Y104D02*
X423Y104D01*
X462Y104D02*
X468Y104D01*
X2472Y104D02*
X2479Y104D01*
X0Y103D02*
X7Y103D01*
X348Y103D02*
X354Y103D01*
X365Y103D02*
X372Y103D01*
X416Y103D02*
X424Y103D01*
X462Y103D02*
X468Y103D01*
X2472Y103D02*
X2479Y103D01*
X0Y102D02*
X7Y102D01*
X348Y102D02*
X354Y102D01*
X366Y102D02*
X373Y102D01*
X417Y102D02*
X425Y102D01*
X462Y102D02*
X468Y102D01*
X2472Y102D02*
X2479Y102D01*
X0Y101D02*
X7Y101D01*
X348Y101D02*
X354Y101D01*
X366Y101D02*
X373Y101D01*
X418Y101D02*
X426Y101D01*
X462Y101D02*
X468Y101D01*
X2472Y101D02*
X2479Y101D01*
X0Y100D02*
X7Y100D01*
X348Y100D02*
X354Y100D01*
X367Y100D02*
X374Y100D01*
X418Y100D02*
X426Y100D01*
X462Y100D02*
X468Y100D01*
X2472Y100D02*
X2479Y100D01*
X0Y99D02*
X7Y99D01*
X348Y99D02*
X354Y99D01*
X367Y99D02*
X375Y99D01*
X419Y99D02*
X427Y99D01*
X462Y99D02*
X468Y99D01*
X2472Y99D02*
X2479Y99D01*
X0Y98D02*
X7Y98D01*
X348Y98D02*
X354Y98D01*
X368Y98D02*
X375Y98D01*
X420Y98D02*
X428Y98D01*
X462Y98D02*
X468Y98D01*
X2472Y98D02*
X2479Y98D01*
X0Y97D02*
X7Y97D01*
X348Y97D02*
X354Y97D01*
X369Y97D02*
X376Y97D01*
X421Y97D02*
X429Y97D01*
X462Y97D02*
X468Y97D01*
X2472Y97D02*
X2479Y97D01*
X0Y96D02*
X7Y96D01*
X348Y96D02*
X354Y96D01*
X369Y96D02*
X376Y96D01*
X421Y96D02*
X429Y96D01*
X462Y96D02*
X468Y96D01*
X2472Y96D02*
X2479Y96D01*
X0Y95D02*
X7Y95D01*
X348Y95D02*
X354Y95D01*
X370Y95D02*
X377Y95D01*
X400Y95D02*
X402Y95D01*
X422Y95D02*
X430Y95D01*
X462Y95D02*
X468Y95D01*
X2472Y95D02*
X2479Y95D01*
X0Y94D02*
X7Y94D01*
X348Y94D02*
X354Y94D01*
X370Y94D02*
X378Y94D01*
X399Y94D02*
X403Y94D01*
X423Y94D02*
X431Y94D01*
X462Y94D02*
X468Y94D01*
X2472Y94D02*
X2479Y94D01*
X0Y93D02*
X7Y93D01*
X348Y93D02*
X354Y93D01*
X371Y93D02*
X378Y93D01*
X398Y93D02*
X404Y93D01*
X424Y93D02*
X431Y93D01*
X462Y93D02*
X468Y93D01*
X2472Y93D02*
X2479Y93D01*
X0Y92D02*
X7Y92D01*
X348Y92D02*
X354Y92D01*
X372Y92D02*
X379Y92D01*
X398Y92D02*
X404Y92D01*
X425Y92D02*
X432Y92D01*
X462Y92D02*
X468Y92D01*
X2472Y92D02*
X2479Y92D01*
X0Y91D02*
X7Y91D01*
X348Y91D02*
X354Y91D01*
X372Y91D02*
X379Y91D01*
X398Y91D02*
X404Y91D01*
X425Y91D02*
X432Y91D01*
X462Y91D02*
X468Y91D01*
X2472Y91D02*
X2479Y91D01*
X0Y90D02*
X7Y90D01*
X348Y90D02*
X354Y90D01*
X373Y90D02*
X380Y90D01*
X398Y90D02*
X405Y90D01*
X426Y90D02*
X432Y90D01*
X462Y90D02*
X468Y90D01*
X2472Y90D02*
X2479Y90D01*
X0Y89D02*
X7Y89D01*
X348Y89D02*
X354Y89D01*
X373Y89D02*
X380Y89D01*
X399Y89D02*
X432Y89D01*
X462Y89D02*
X468Y89D01*
X2472Y89D02*
X2479Y89D01*
X0Y88D02*
X7Y88D01*
X348Y88D02*
X354Y88D01*
X374Y88D02*
X381Y88D01*
X399Y88D02*
X431Y88D01*
X462Y88D02*
X468Y88D01*
X2472Y88D02*
X2479Y88D01*
X0Y87D02*
X7Y87D01*
X348Y87D02*
X354Y87D01*
X374Y87D02*
X381Y87D01*
X400Y87D02*
X431Y87D01*
X462Y87D02*
X468Y87D01*
X2472Y87D02*
X2479Y87D01*
X0Y86D02*
X7Y86D01*
X348Y86D02*
X354Y86D01*
X375Y86D02*
X382Y86D01*
X400Y86D02*
X430Y86D01*
X462Y86D02*
X468Y86D01*
X2472Y86D02*
X2479Y86D01*
X0Y85D02*
X7Y85D01*
X348Y85D02*
X354Y85D01*
X376Y85D02*
X381Y85D01*
X401Y85D02*
X430Y85D01*
X462Y85D02*
X468Y85D01*
X2472Y85D02*
X2479Y85D01*
X0Y84D02*
X7Y84D01*
X349Y84D02*
X353Y84D01*
X376Y84D02*
X381Y84D01*
X403Y84D02*
X428Y84D01*
X463Y84D02*
X467Y84D01*
X2472Y84D02*
X2479Y84D01*
X0Y83D02*
X7Y83D01*
X350Y83D02*
X352Y83D01*
X377Y83D02*
X380Y83D01*
X405Y83D02*
X427Y83D01*
X464Y83D02*
X466Y83D01*
X2472Y83D02*
X2479Y83D01*
X0Y82D02*
X7Y82D01*
X2472Y82D02*
X2479Y82D01*
X0Y81D02*
X7Y81D01*
X2472Y81D02*
X2479Y81D01*
X0Y80D02*
X7Y80D01*
X2472Y80D02*
X2479Y80D01*
X0Y79D02*
X7Y79D01*
X2472Y79D02*
X2479Y79D01*
X0Y78D02*
X7Y78D01*
X2472Y78D02*
X2479Y78D01*
X0Y77D02*
X7Y77D01*
X893Y77D02*
X894Y77D01*
X2472Y77D02*
X2479Y77D01*
X0Y76D02*
X7Y76D01*
X892Y76D02*
X895Y76D01*
X2472Y76D02*
X2479Y76D01*
X0Y75D02*
X7Y75D01*
X891Y75D02*
X896Y75D01*
X2472Y75D02*
X2479Y75D01*
X0Y74D02*
X7Y74D01*
X891Y74D02*
X897Y74D01*
X2472Y74D02*
X2479Y74D01*
X0Y73D02*
X7Y73D01*
X892Y73D02*
X898Y73D01*
X2472Y73D02*
X2479Y73D01*
X0Y72D02*
X7Y72D01*
X893Y72D02*
X899Y72D01*
X2472Y72D02*
X2479Y72D01*
X0Y71D02*
X7Y71D01*
X894Y71D02*
X900Y71D01*
X2472Y71D02*
X2479Y71D01*
X0Y70D02*
X7Y70D01*
X895Y70D02*
X901Y70D01*
X2472Y70D02*
X2479Y70D01*
X0Y69D02*
X7Y69D01*
X896Y69D02*
X902Y69D01*
X2472Y69D02*
X2479Y69D01*
X0Y68D02*
X7Y68D01*
X897Y68D02*
X903Y68D01*
X2472Y68D02*
X2479Y68D01*
X0Y67D02*
X7Y67D01*
X898Y67D02*
X904Y67D01*
X2472Y67D02*
X2479Y67D01*
X0Y66D02*
X7Y66D01*
X899Y66D02*
X905Y66D01*
X2472Y66D02*
X2479Y66D01*
X0Y65D02*
X7Y65D01*
X900Y65D02*
X906Y65D01*
X2472Y65D02*
X2479Y65D01*
X0Y64D02*
X7Y64D01*
X901Y64D02*
X906Y64D01*
X2472Y64D02*
X2479Y64D01*
X0Y63D02*
X7Y63D01*
X902Y63D02*
X907Y63D01*
X2472Y63D02*
X2479Y63D01*
X0Y62D02*
X7Y62D01*
X903Y62D02*
X908Y62D01*
X2472Y62D02*
X2479Y62D01*
X0Y61D02*
X7Y61D01*
X904Y61D02*
X909Y61D01*
X2472Y61D02*
X2479Y61D01*
X0Y60D02*
X7Y60D01*
X905Y60D02*
X910Y60D01*
X2472Y60D02*
X2479Y60D01*
X0Y59D02*
X7Y59D01*
X906Y59D02*
X911Y59D01*
X2472Y59D02*
X2479Y59D01*
X0Y58D02*
X7Y58D01*
X907Y58D02*
X912Y58D01*
X2472Y58D02*
X2479Y58D01*
X0Y57D02*
X7Y57D01*
X908Y57D02*
X913Y57D01*
X2472Y57D02*
X2479Y57D01*
X0Y56D02*
X7Y56D01*
X909Y56D02*
X915Y56D01*
X2472Y56D02*
X2479Y56D01*
X0Y55D02*
X7Y55D01*
X910Y55D02*
X916Y55D01*
X2472Y55D02*
X2479Y55D01*
X0Y54D02*
X7Y54D01*
X911Y54D02*
X917Y54D01*
X2472Y54D02*
X2479Y54D01*
X0Y53D02*
X7Y53D01*
X912Y53D02*
X918Y53D01*
X2472Y53D02*
X2479Y53D01*
X0Y52D02*
X7Y52D01*
X913Y52D02*
X919Y52D01*
X2472Y52D02*
X2479Y52D01*
X0Y51D02*
X7Y51D01*
X914Y51D02*
X920Y51D01*
X2472Y51D02*
X2479Y51D01*
X0Y50D02*
X7Y50D01*
X915Y50D02*
X921Y50D01*
X2472Y50D02*
X2479Y50D01*
X0Y49D02*
X7Y49D01*
X916Y49D02*
X922Y49D01*
X2472Y49D02*
X2479Y49D01*
X0Y48D02*
X7Y48D01*
X917Y48D02*
X923Y48D01*
X2472Y48D02*
X2479Y48D01*
X0Y47D02*
X7Y47D01*
X918Y47D02*
X924Y47D01*
X2472Y47D02*
X2479Y47D01*
X0Y46D02*
X7Y46D01*
X919Y46D02*
X925Y46D01*
X2472Y46D02*
X2479Y46D01*
X0Y45D02*
X7Y45D01*
X920Y45D02*
X926Y45D01*
X2472Y45D02*
X2479Y45D01*
X0Y44D02*
X7Y44D01*
X921Y44D02*
X927Y44D01*
X2472Y44D02*
X2479Y44D01*
X0Y43D02*
X7Y43D01*
X922Y43D02*
X927Y43D01*
X2472Y43D02*
X2479Y43D01*
X0Y42D02*
X7Y42D01*
X923Y42D02*
X927Y42D01*
X2472Y42D02*
X2479Y42D01*
X0Y41D02*
X7Y41D01*
X924Y41D02*
X926Y41D01*
X2472Y41D02*
X2479Y41D01*
X0Y40D02*
X7Y40D01*
X925Y40D02*
X925Y40D01*
X2472Y40D02*
X2479Y40D01*
X0Y39D02*
X7Y39D01*
X2472Y39D02*
X2479Y39D01*
X0Y38D02*
X7Y38D01*
X2472Y38D02*
X2479Y38D01*
X0Y37D02*
X7Y37D01*
X2472Y37D02*
X2479Y37D01*
X0Y36D02*
X7Y36D01*
X2472Y36D02*
X2479Y36D01*
X0Y35D02*
X7Y35D01*
X2472Y35D02*
X2479Y35D01*
X0Y34D02*
X7Y34D01*
X2472Y34D02*
X2479Y34D01*
X0Y33D02*
X7Y33D01*
X2472Y33D02*
X2479Y33D01*
X0Y32D02*
X7Y32D01*
X2472Y32D02*
X2479Y32D01*
X0Y31D02*
X7Y31D01*
X2472Y31D02*
X2479Y31D01*
X0Y30D02*
X7Y30D01*
X2472Y30D02*
X2479Y30D01*
X0Y29D02*
X7Y29D01*
X2472Y29D02*
X2479Y29D01*
X0Y28D02*
X7Y28D01*
X2472Y28D02*
X2479Y28D01*
X0Y27D02*
X7Y27D01*
X2472Y27D02*
X2479Y27D01*
X0Y26D02*
X7Y26D01*
X2472Y26D02*
X2479Y26D01*
X0Y25D02*
X7Y25D01*
X2472Y25D02*
X2479Y25D01*
X0Y24D02*
X7Y24D01*
X2472Y24D02*
X2479Y24D01*
X0Y23D02*
X7Y23D01*
X2472Y23D02*
X2479Y23D01*
X0Y22D02*
X7Y22D01*
X2472Y22D02*
X2479Y22D01*
X0Y21D02*
X7Y21D01*
X2472Y21D02*
X2479Y21D01*
X0Y20D02*
X7Y20D01*
X2472Y20D02*
X2479Y20D01*
X0Y19D02*
X7Y19D01*
X2472Y19D02*
X2479Y19D01*
X0Y18D02*
X7Y18D01*
X2472Y18D02*
X2479Y18D01*
X0Y17D02*
X7Y17D01*
X2472Y17D02*
X2479Y17D01*
X0Y16D02*
X7Y16D01*
X2472Y16D02*
X2479Y16D01*
X0Y15D02*
X7Y15D01*
X2472Y15D02*
X2479Y15D01*
X0Y14D02*
X7Y14D01*
X2472Y14D02*
X2479Y14D01*
X0Y13D02*
X7Y13D01*
X2472Y13D02*
X2479Y13D01*
X0Y12D02*
X7Y12D01*
X2472Y12D02*
X2479Y12D01*
X0Y11D02*
X7Y11D01*
X2472Y11D02*
X2479Y11D01*
X0Y10D02*
X7Y10D01*
X2472Y10D02*
X2479Y10D01*
X0Y9D02*
X7Y9D01*
X2472Y9D02*
X2479Y9D01*
X0Y8D02*
X2479Y8D01*
X0Y7D02*
X2479Y7D01*
X0Y6D02*
X2479Y6D01*
X0Y5D02*
X2479Y5D01*
X0Y4D02*
X2479Y4D01*
X0Y3D02*
X2479Y3D01*
X0Y2D02*
X2479Y2D01*
X0Y1D02*
X2479Y1D01*
D02*
G04 End of Silk1*
M02*