G04 MADE WITH FRITZING*
G04 WWW.FRITZING.ORG*
G04 DOUBLE SIDED*
G04 HOLES PLATED*
G04 CONTOUR ON CENTER OF CONTOUR VECTOR*
%ASAXBY*%
%FSLAX23Y23*%
%MOIN*%
%OFA0B0*%
%SFA1.0B1.0*%
%ADD10C,0.078000*%
%ADD11C,0.075000*%
%ADD12C,0.059200*%
%ADD13C,0.062992*%
%ADD14C,0.077778*%
%ADD15R,0.059200X0.059200*%
%ADD16R,0.062992X0.062992*%
%ADD17C,0.024000*%
%LNCOPPER0*%
G90*
G70*
G54D10*
X942Y91D03*
X1042Y91D03*
G54D11*
X1742Y991D03*
X1742Y591D03*
G54D12*
X792Y1055D03*
X792Y1291D03*
X792Y1212D03*
X792Y1133D03*
G54D13*
X490Y841D03*
X392Y841D03*
X490Y591D03*
X392Y591D03*
G54D11*
X592Y791D03*
X992Y791D03*
X592Y641D03*
X992Y641D03*
G54D14*
X2192Y1141D03*
X2192Y1041D03*
X2192Y941D03*
X2192Y841D03*
X2192Y741D03*
X2192Y641D03*
X2192Y541D03*
X2192Y441D03*
X1292Y441D03*
X1292Y541D03*
X1292Y641D03*
X1292Y741D03*
X1292Y841D03*
X1292Y941D03*
X1292Y1041D03*
X1292Y1141D03*
X2192Y1141D03*
X2192Y1041D03*
X2192Y941D03*
X2192Y841D03*
X2192Y741D03*
X2192Y641D03*
X2192Y541D03*
X2192Y441D03*
X1292Y441D03*
X1292Y541D03*
X1292Y641D03*
X1292Y741D03*
X1292Y841D03*
X1292Y941D03*
X1292Y1041D03*
X1292Y1141D03*
G54D11*
X548Y191D03*
X292Y191D03*
X548Y368D03*
X292Y368D03*
G54D15*
X792Y1055D03*
G54D16*
X490Y841D03*
X490Y591D03*
G54D17*
X940Y441D02*
X1263Y441D01*
D02*
X942Y121D02*
X940Y441D01*
D02*
X1740Y1039D02*
X1741Y1019D01*
D02*
X2163Y1041D02*
X1740Y1039D01*
D02*
X1894Y991D02*
X1771Y991D01*
D02*
X1894Y90D02*
X1894Y991D01*
D02*
X1072Y91D02*
X1894Y90D01*
D02*
X791Y942D02*
X792Y1020D01*
D02*
X1263Y941D02*
X791Y942D01*
D02*
X892Y1241D02*
X1442Y1241D01*
D02*
X1441Y441D02*
X1321Y441D01*
D02*
X1442Y1241D02*
X1441Y441D01*
D02*
X818Y1220D02*
X892Y1241D01*
D02*
X892Y1192D02*
X815Y1147D01*
D02*
X1392Y1192D02*
X892Y1192D01*
D02*
X1393Y841D02*
X1392Y1192D01*
D02*
X1321Y841D02*
X1393Y841D01*
G04 End of Copper0*
M02*