G04 MADE WITH FRITZING*
G04 WWW.FRITZING.ORG*
G04 DOUBLE SIDED*
G04 HOLES PLATED*
G04 CONTOUR ON CENTER OF CONTOUR VECTOR*
%ASAXBY*%
%FSLAX23Y23*%
%MOIN*%
%OFA0B0*%
%SFA1.0B1.0*%
%ADD10C,0.088000*%
%ADD11C,0.085000*%
%ADD12C,0.069200*%
%ADD13C,0.096614*%
%ADD14C,0.072992*%
%ADD15C,0.087778*%
%ADD16R,0.069200X0.069200*%
%ADD17R,0.072992X0.072992*%
%LNMASK0*%
G90*
G70*
G54D10*
X942Y91D03*
X1042Y91D03*
G54D11*
X1742Y991D03*
X1742Y591D03*
G54D12*
X792Y1055D03*
X792Y1291D03*
X792Y1212D03*
X792Y1133D03*
G54D13*
X92Y91D03*
X92Y1441D03*
X2392Y1441D03*
X2392Y91D03*
G54D14*
X490Y841D03*
X392Y841D03*
X490Y591D03*
X392Y591D03*
G54D11*
X592Y791D03*
X992Y791D03*
X592Y641D03*
X992Y641D03*
G54D15*
X2192Y1141D03*
X2192Y1041D03*
X2192Y941D03*
X2192Y841D03*
X2192Y741D03*
X2192Y641D03*
X2192Y541D03*
X2192Y441D03*
X1292Y441D03*
X1292Y541D03*
X1292Y641D03*
X1292Y741D03*
X1292Y841D03*
X1292Y941D03*
X1292Y1041D03*
X1292Y1141D03*
X2192Y1141D03*
X2192Y1041D03*
X2192Y941D03*
X2192Y841D03*
X2192Y741D03*
X2192Y641D03*
X2192Y541D03*
X2192Y441D03*
X1292Y441D03*
X1292Y541D03*
X1292Y641D03*
X1292Y741D03*
X1292Y841D03*
X1292Y941D03*
X1292Y1041D03*
X1292Y1141D03*
G54D11*
X548Y191D03*
X292Y191D03*
X548Y368D03*
X292Y368D03*
G54D16*
X792Y1055D03*
G54D17*
X490Y841D03*
X490Y591D03*
G04 End of Mask0*
M02*