; NON-PLATED HOLES START AT T1
; THROUGH (PLATED) HOLES START AT T100
M48
INCH
T1C0.086614
T100C0.036111
T101C0.032000
T102C0.035000
T103C0.031497
T104C0.038000
%
T1
X023919Y000907
X000919Y000907
X023919Y014407
X000919Y014407
T100
X012919Y005407
X012919Y004407
X021919Y008407
X012919Y006407
X012919Y009407
X021919Y007407
X021919Y006407
X021919Y011407
X012919Y010407
X012919Y011407
X021919Y010407
X021919Y004407
X021919Y005407
X012919Y008407
X021919Y009407
X012919Y007407
T101
X007919Y010545
X007919Y012907
X007919Y011332
X007919Y012120
T102
X009919Y007907
X009919Y006407
X002919Y001907
X017419Y005907
X005478Y001907
X017419Y009907
X005478Y003679
X005919Y007907
X002919Y003679
X005919Y006407
T103
X003919Y008407
X004903Y008407
X004903Y005907
X003919Y005907
T104
X009419Y000907
X010419Y000907
T00
M30
